<svg width="26" height="27" viewBox="0 0 26 27" fill="none" xmlns="http://www.w3.org/2000/svg">
<rect y="0.417969" width="26" height="26" rx="9" fill="#FF4500"/>
<path d="M10.8426 17.7916C10.8426 18.0995 10.7539 18.337 10.5765 18.504C10.399 18.671 10.1224 18.7545 9.74661 18.7545C9.37605 18.7545 9.10205 18.671 8.92459 18.504C8.74714 18.337 8.65841 18.0995 8.65841 17.7916V8.8198C8.65841 8.51187 8.74714 8.27439 8.92459 8.10738C9.10205 7.94036 9.37605 7.85686 9.74661 7.85686C10.1224 7.85686 10.399 7.94036 10.5765 8.10738C10.7539 8.27439 10.8426 8.51187 10.8426 8.8198V12.3193H15.1798V8.8198C15.1798 8.51187 15.2685 8.27439 15.446 8.10738C15.6234 7.94036 15.9 7.85686 16.2758 7.85686C16.6412 7.85686 16.9126 7.94036 17.09 8.10738C17.2727 8.27439 17.364 8.51187 17.364 8.8198V17.7916C17.364 18.0995 17.2753 18.337 17.0978 18.504C16.9204 18.671 16.6464 18.7545 16.2758 18.7545C15.9 18.7545 15.6234 18.671 15.446 18.504C15.2685 18.337 15.1798 18.0995 15.1798 17.7916V14.0807H10.8426V17.7916Z" fill="#FF4500"/>
<path d="M10.8426 17.7916C10.8426 18.0995 10.7539 18.337 10.5765 18.504C10.399 18.671 10.1224 18.7545 9.74661 18.7545C9.37605 18.7545 9.10205 18.671 8.92459 18.504C8.74714 18.337 8.65841 18.0995 8.65841 17.7916V8.8198C8.65841 8.51187 8.74714 8.27439 8.92459 8.10738C9.10205 7.94036 9.37605 7.85686 9.74661 7.85686C10.1224 7.85686 10.399 7.94036 10.5765 8.10738C10.7539 8.27439 10.8426 8.51187 10.8426 8.8198V12.3193H15.1798V8.8198C15.1798 8.51187 15.2685 8.27439 15.446 8.10738C15.6234 7.94036 15.9 7.85686 16.2758 7.85686C16.6412 7.85686 16.9126 7.94036 17.09 8.10738C17.2727 8.27439 17.364 8.51187 17.364 8.8198V17.7916C17.364 18.0995 17.2753 18.337 17.0978 18.504C16.9204 18.671 16.6464 18.7545 16.2758 18.7545C15.9 18.7545 15.6234 18.671 15.446 18.504C15.2685 18.337 15.1798 18.0995 15.1798 17.7916V14.0807H10.8426V17.7916Z" fill="#FF4500"/>
<path fill-rule="evenodd" clip-rule="evenodd" d="M11.7093 17.7916C11.7093 18.2715 11.5653 18.7635 11.1704 19.1351C10.7641 19.5176 10.2273 19.7013 9.74661 19.7013C9.26724 19.7013 8.73511 19.5158 8.33061 19.1351C7.93575 18.7635 7.79175 18.2715 7.79175 17.7916V8.8198C7.79175 8.33985 7.93575 7.8479 8.33061 7.47627C8.73511 7.09556 9.26724 6.91797 9.74661 6.91797C10.2273 6.91797 10.7641 7.0938 11.1704 7.47627C11.5653 7.8479 11.7093 8.33985 11.7093 8.8198V10.7304C11.7093 11.1292 12.0327 11.4526 12.4315 11.4526H13.5909C13.9898 11.4526 14.3131 11.1292 14.3131 10.7304V8.8198C14.3131 8.33985 14.4571 7.8479 14.852 7.47627C15.2584 7.0938 15.7952 6.91797 16.2758 6.91797C16.7521 6.91797 17.2774 7.09655 17.6793 7.47191C18.0804 7.84124 18.2307 8.33412 18.2307 8.8198V17.7916C18.2307 18.2715 18.0867 18.7635 17.6918 19.1351C17.2873 19.5158 16.7552 19.7013 16.2758 19.7013C15.7952 19.7013 15.2584 19.5176 14.852 19.1351C14.4571 18.7635 14.3131 18.2715 14.3131 17.7916V15.6696C14.3131 15.2708 13.9898 14.9474 13.5909 14.9474H12.4315C12.0327 14.9474 11.7093 15.2708 11.7093 15.6696V17.7916ZM10.8426 17.7916C10.8426 18.0995 10.7539 18.337 10.5765 18.504C10.399 18.671 10.1224 18.7545 9.74661 18.7545C9.37605 18.7545 9.10205 18.671 8.92459 18.504C8.74714 18.337 8.65841 18.0995 8.65841 17.7916V8.8198C8.65841 8.51187 8.74714 8.27439 8.92459 8.10738C9.10205 7.94036 9.37605 7.85686 9.74661 7.85686C10.1224 7.85686 10.399 7.94036 10.5765 8.10738C10.7539 8.27439 10.8426 8.51187 10.8426 8.8198V12.3193H15.1798V8.8198C15.1798 8.51187 15.2685 8.27439 15.446 8.10738C15.6234 7.94036 15.9 7.85686 16.2758 7.85686C16.6412 7.85686 16.9126 7.94036 17.09 8.10738C17.2727 8.27439 17.364 8.51187 17.364 8.8198V17.7916C17.364 18.0995 17.2753 18.337 17.0978 18.504C16.9204 18.671 16.6464 18.7545 16.2758 18.7545C15.9 18.7545 15.6234 18.671 15.446 18.504C15.2685 18.337 15.1798 18.0995 15.1798 17.7916V14.0807H10.8426V17.7916Z" fill="#FF4500"/>
<path fill-rule="evenodd" clip-rule="evenodd" d="M11.7093 17.7916C11.7093 18.2715 11.5653 18.7635 11.1704 19.1351C10.7641 19.5176 10.2273 19.7013 9.74661 19.7013C9.26724 19.7013 8.73511 19.5158 8.33061 19.1351C7.93575 18.7635 7.79175 18.2715 7.79175 17.7916V8.8198C7.79175 8.33985 7.93575 7.8479 8.33061 7.47627C8.73511 7.09556 9.26724 6.91797 9.74661 6.91797C10.2273 6.91797 10.7641 7.0938 11.1704 7.47627C11.5653 7.8479 11.7093 8.33985 11.7093 8.8198V10.7304C11.7093 11.1292 12.0327 11.4526 12.4315 11.4526H13.5909C13.9898 11.4526 14.3131 11.1292 14.3131 10.7304V8.8198C14.3131 8.33985 14.4571 7.8479 14.852 7.47627C15.2584 7.0938 15.7952 6.91797 16.2758 6.91797C16.7521 6.91797 17.2774 7.09655 17.6793 7.47191C18.0804 7.84124 18.2307 8.33412 18.2307 8.8198V17.7916C18.2307 18.2715 18.0867 18.7635 17.6918 19.1351C17.2873 19.5158 16.7552 19.7013 16.2758 19.7013C15.7952 19.7013 15.2584 19.5176 14.852 19.1351C14.4571 18.7635 14.3131 18.2715 14.3131 17.7916V15.6696C14.3131 15.2708 13.9898 14.9474 13.5909 14.9474H12.4315C12.0327 14.9474 11.7093 15.2708 11.7093 15.6696V17.7916ZM10.8426 17.7916C10.8426 18.0995 10.7539 18.337 10.5765 18.504C10.399 18.671 10.1224 18.7545 9.74661 18.7545C9.37605 18.7545 9.10205 18.671 8.92459 18.504C8.74714 18.337 8.65841 18.0995 8.65841 17.7916V8.8198C8.65841 8.51187 8.74714 8.27439 8.92459 8.10738C9.10205 7.94036 9.37605 7.85686 9.74661 7.85686C10.1224 7.85686 10.399 7.94036 10.5765 8.10738C10.7539 8.27439 10.8426 8.51187 10.8426 8.8198V12.3193H15.1798V8.8198C15.1798 8.51187 15.2685 8.27439 15.446 8.10738C15.6234 7.94036 15.9 7.85686 16.2758 7.85686C16.6412 7.85686 16.9126 7.94036 17.09 8.10738C17.2727 8.27439 17.364 8.51187 17.364 8.8198V17.7916C17.364 18.0995 17.2753 18.337 17.0978 18.504C16.9204 18.671 16.6464 18.7545 16.2758 18.7545C15.9 18.7545 15.6234 18.671 15.446 18.504C15.2685 18.337 15.1798 18.0995 15.1798 17.7916V14.0807H10.8426V17.7916Z" fill="#FF4500"/>
<path fill-rule="evenodd" clip-rule="evenodd" d="M11.7235 15.5234C11.714 15.5701 11.709 15.6184 11.709 15.6679V17.7898C11.709 18.0969 11.6501 18.4088 11.5043 18.6911C11.4221 18.85 11.3124 18.9995 11.1702 19.1334C10.7638 19.5158 10.227 19.6996 9.74634 19.6996C9.26696 19.6996 8.73484 19.5141 8.33034 19.1334C7.93548 18.7617 7.79148 18.2698 7.79148 17.7898V8.81806C7.79148 8.33811 7.93548 7.84617 8.33034 7.47454C8.73484 7.09383 9.26696 6.91623 9.74634 6.91623C10.227 6.91623 10.7638 7.09206 11.1702 7.47454C11.3124 7.60842 11.4221 7.75792 11.5043 7.91685C11.6501 8.19907 11.709 8.51102 11.709 8.81806V10.7286C11.709 10.7781 11.714 10.8264 11.7235 10.8731C11.7809 11.1561 12.0038 11.379 12.2868 11.4364C12.3335 11.4459 12.3818 11.4509 12.4313 11.4509H13.5906C13.6401 11.4509 13.6884 11.4459 13.7351 11.4364C14.0181 11.379 14.241 11.1561 14.2984 10.8731C14.3079 10.8264 14.3128 10.7781 14.3128 10.7286V8.81806C14.3128 8.51102 14.3718 8.19907 14.5176 7.91685C14.5998 7.75792 14.7095 7.60842 14.8517 7.47454C15.2581 7.09206 15.7949 6.91623 16.2755 6.91623C16.7501 6.91623 17.2732 7.09349 17.6746 7.46599C17.6761 7.46738 17.6776 7.46878 17.6791 7.47018C17.6806 7.47162 17.6822 7.47306 17.6837 7.4745C18.0813 7.84335 18.2304 8.33427 18.2304 8.81806V17.7898C18.2304 18.2698 18.0864 18.7617 17.6915 19.1334C17.287 19.5141 16.7549 19.6996 16.2755 19.6996C15.7949 19.6996 15.2581 19.5158 14.8517 19.1334C14.7095 18.9995 14.5998 18.85 14.5176 18.6911C14.3718 18.4088 14.3128 18.0969 14.3128 17.7898V15.6679C14.3128 15.6184 14.3079 15.5701 14.2984 15.5234C14.241 15.2405 14.0181 15.0176 13.7351 14.9601C13.6884 14.9506 13.6401 14.9457 13.5906 14.9457H12.4313C12.3818 14.9457 12.3335 14.9506 12.2868 14.9601C12.0038 15.0176 11.7809 15.2405 11.7235 15.5234ZM13.0109 5.24481C12.0349 4.39445 10.829 4.02734 9.74634 4.02734C8.60032 4.02734 7.33917 4.44024 6.3504 5.37085C5.22711 6.42806 4.90259 7.77125 4.90259 8.81806V17.7898C4.90259 18.8367 5.22711 20.1798 6.3504 21.2371C7.31851 22.1482 8.57004 22.5885 9.74634 22.5885C10.8569 22.5885 12.0538 22.1974 13.0109 21.3631C13.9681 22.1974 15.165 22.5885 16.2755 22.5885C17.4518 22.5885 18.7034 22.1482 19.6715 21.2371C20.7948 20.1798 21.1193 18.8367 21.1193 17.7898V8.81806C21.1193 7.74533 20.776 6.39944 19.6436 5.35209C18.6701 4.44667 17.428 4.02734 16.2755 4.02734C15.1929 4.02734 13.987 4.39445 13.0109 5.24481Z" fill="white"/>
</svg>
