<svg width="25" height="21" viewBox="0 0 25 21" fill="none" xmlns="http://www.w3.org/2000/svg">
<path d="M3.42529 20.3954C1.18018 20.3954 0.0522461 19.289 0.0522461 17.0654V3.97064C0.0522461 1.81146 1.13721 0.737244 3.01709 0.737244H6.07861C7.14209 0.737244 7.68994 0.930603 8.39893 1.53217L9.0542 2.06927C9.59131 2.53119 10.0317 2.70306 10.7622 2.70306H21.0747C23.3091 2.70306 24.4478 3.82025 24.4478 6.03314V17.0654C24.4478 19.2783 23.3198 20.3954 21.397 20.3954H3.42529ZM3.44678 18.666H21.0425C22.106 18.666 22.7183 18.0966 22.7183 16.9902V6.12982C22.7183 5.01263 22.106 4.43256 21.0425 4.43256H10.311C9.24756 4.43256 8.67822 4.22845 7.97998 3.64838L7.32471 3.10052C6.77686 2.63861 6.34717 2.45599 5.63818 2.45599H3.37158C2.34033 2.45599 1.78174 3.00385 1.78174 4.06732V16.9794C1.78174 18.0966 2.37256 18.666 3.44678 18.666Z" fill="#848178"/>
<path d="M13.5444 17.2548C13.3288 17.2548 13.1731 17.099 13.1372 16.8834C12.7179 13.6851 12.6101 13.6851 9.29198 13.0502C9.08834 13.0143 8.93262 12.8705 8.93262 12.6549C8.93262 12.4273 9.08834 12.2716 9.29198 12.2476C12.6101 11.7805 12.7299 11.6727 13.1372 8.42642C13.1731 8.19882 13.3288 8.0431 13.5444 8.0431C13.772 8.0431 13.9278 8.19882 13.9517 8.4384C14.347 11.6367 14.5267 11.6247 17.7969 12.2476C18.0005 12.2836 18.1562 12.4273 18.1562 12.6549C18.1562 12.8825 18.0005 13.0143 17.749 13.0502C14.5027 13.5773 14.347 13.6611 13.9517 16.8595C13.9278 17.099 13.772 17.2548 13.5444 17.2548Z" fill="#848178"/>
<path d="M8.32371 10.6078C8.34645 10.7329 8.42605 10.8125 8.5625 10.8125C8.69895 10.8125 8.76718 10.7329 8.78992 10.6078C9.14243 8.70884 9.13106 8.66336 11.1096 8.28811C11.2347 8.26537 11.3257 8.18577 11.3257 8.04932C11.3257 7.91286 11.2347 7.83327 11.1096 7.81052C9.13106 7.41253 9.19928 7.36705 8.78992 5.49081C8.76718 5.36573 8.69895 5.28613 8.5625 5.28613C8.42605 5.28613 8.34645 5.36573 8.32371 5.49081C7.92572 7.36705 7.99394 7.41253 6.01537 7.81052C5.87891 7.83327 5.79932 7.91286 5.79932 8.04932C5.79932 8.18577 5.87891 8.26537 6.01537 8.28811C7.99394 8.6861 7.9712 8.70884 8.32371 10.6078Z" fill="#848178"/>
</svg>
