
<svg width="21px" height="17px" viewBox="0 0 21 17" version="1.1" xmlns="http://www.w3.org/2000/svg" xmlns:xlink="http://www.w3.org/1999/xlink">
    <g id="Page-1" stroke="none" stroke-width="1" fill="none" fill-rule="evenodd">
        <g id="invite">
            <rect id="Rectangle-path" stroke="#000000" stroke-width="1.45" stroke-linejoin="round" x="0.87499" y="0.87734" width="19.05" height="14.55" rx="1.675"></rect>
            <path d="M6.32060019,7.0829052 C6.30698132,7.20047012 6.29999,7.32099938 6.29999,7.4441 C6.29999,8.01287031 6.44826112,8.56790446 6.71784886,9.10386418 L3.03828,6.6099 C1.74302,5.732 1.25074,4.4403 0.96002,3.0531 L1.68001,1.63587 C1.60309,3.0669 2.54179,4.5217 3.85181,5.4096 L6.32060019,7.0829052 Z M14.4434761,6.85211845 L16.9971,5.0955 C18.2013,4.2672 19.1299,2.9586 19.15,1.63587 L19.8,3.0531 C19.465,4.3141 19.0031,5.4755 17.8189,6.2902 L14.2405184,8.75174148 C14.4091809,8.32597696 14.5,7.88924279 14.5,7.4441 C14.5,7.23903149 14.4805981,7.04109875 14.4434761,6.85211845 Z" id="Combined-Shape" fill="#000000" fill-rule="nonzero"></path>
            <path d="M9.9243,12.2773 C7.79607,10.9189 6.29999,9.2508 6.29999,7.4441 C6.29999,5.9267 7.36227,4.8 8.8055,4.8 C9.4404,4.8 9.9952,5.0377 10.4007,5.4253 C10.8071,5.0368 11.3576,4.8 11.9945,4.8 C13.4377,4.8 14.5,5.9267 14.5,7.4441 C14.5,9.2507 13.0041,10.9188 10.8797,12.2772 L10.8683,12.2845 C10.815,12.316 10.7481,12.3508 10.677,12.3792 C10.6133,12.4045 10.5119,12.4386 10.4,12.4386 C10.288,12.4386 10.1866,12.4045 10.1223,12.3787 C10.0507,12.3499 9.9833,12.3139 9.9288,12.2802 L9.9243,12.2773 Z M9.8226,6.8048 C9.6122,6.4759 9.3093,6.1692 8.79802,6.1692 C8.4655,6.1692 8.19082,6.294 7.99711,6.5025 C7.80207,6.7124 7.66915,7.0296 7.66915,7.4441 C7.66915,8.0101 7.97268,8.6479 8.51233,9.2981 C9.0142,9.9029 9.6887,10.4799 10.4017,10.9673 C11.113,10.4799 11.7866,9.9029 12.288,9.2983 C12.8273,8.6479 13.1308,8.0101 13.1308,7.4441 C13.1308,7.0296 12.9979,6.7124 12.8029,6.5025 C12.6092,6.294 12.3345,6.1692 12.002,6.1692 C11.4995,6.1692 11.2103,6.4746 10.9679,6.8188 L10.9622,6.8269 C10.9066,6.9016 10.8378,6.9885 10.752,7.0536 C10.6445,7.1352 10.5261,7.1723 10.4,7.1723 C10.2833,7.1723 10.1636,7.1415 10.0511,7.0594 C9.9565,6.9904 9.8853,6.8978 9.8278,6.8126 L9.8226,6.8048 Z" id="Shape" fill="#000000"></path>
        </g>
    </g>
</svg>