<svg width="33" height="33" viewBox="0 0 33 33" fill="none" xmlns="http://www.w3.org/2000/svg">
<path d="M15.5844 20.2858C18.1715 20.2858 20.2598 18.1975 20.2598 15.6104V6.2598C20.2598 3.67278 18.1715 1.58447 15.5844 1.58447C12.9974 1.58447 10.9091 3.67278 10.9091 6.2598V15.6104C10.9091 18.1975 12.9974 20.2858 15.5844 20.2858Z" fill="#007AFF"/>
<path d="M24.9351 15.6105C24.0744 15.6105 23.3929 16.3153 23.2226 17.1589C22.5038 20.7193 19.3556 23.4027 15.5844 23.4027C11.8133 23.4027 8.66506 20.7193 7.94631 17.1589C7.77598 16.3153 7.0945 15.6105 6.2338 15.6105C5.37309 15.6105 4.66359 16.3119 4.78511 17.164C5.46687 21.9442 9.24965 25.7045 14.026 26.3949V29.6364C14.026 30.4971 14.7237 31.1949 15.5844 31.1949C16.4451 31.1949 17.1429 30.4971 17.1429 29.6364V26.3949C21.9192 25.7045 25.702 21.9442 26.3838 17.164C26.5053 16.3119 25.7958 15.6105 24.9351 15.6105Z" fill="#007AFF"/>
</svg>
