<svg width="25" height="21" viewBox="0 0 25 21" fill="none" xmlns="http://www.w3.org/2000/svg">
<path d="M11.5508 20.2344C11.9661 20.2344 12.3099 20.0983 12.582 19.8262C12.8542 19.554 12.9902 19.2139 12.9902 18.8057V14.9277H13.2588C14.5765 14.9277 15.7331 15.0674 16.7285 15.3467C17.724 15.626 18.5941 16.0807 19.3389 16.7109C20.0908 17.3411 20.7497 18.1862 21.3154 19.2461C21.5303 19.6328 21.763 19.887 22.0137 20.0088C22.2715 20.1305 22.54 20.1914 22.8193 20.1914C23.1917 20.1914 23.5033 20.0195 23.7539 19.6758C24.0117 19.3392 24.1406 18.8379 24.1406 18.1719C24.1406 16.224 23.9222 14.4766 23.4854 12.9297C23.0485 11.3757 22.3825 10.0508 21.4873 8.95508C20.5993 7.85938 19.4714 7.02507 18.1035 6.45215C16.7357 5.87207 15.1208 5.58203 13.2588 5.58203H12.9902V1.73633C12.9902 1.32812 12.8542 0.980794 12.582 0.694336C12.3099 0.400716 11.959 0.253906 11.5293 0.253906C11.2428 0.253906 10.985 0.318359 10.7559 0.447266C10.5267 0.56901 10.2581 0.776693 9.9502 1.07031L1.44238 8.99805C1.22754 9.19141 1.07715 9.39909 0.991211 9.62109C0.905273 9.83594 0.862305 10.0436 0.862305 10.2441C0.862305 10.4375 0.905273 10.6452 0.991211 10.8672C1.07715 11.0892 1.22754 11.2969 1.44238 11.4902L9.9502 19.4824C10.2295 19.7474 10.4909 19.9372 10.7344 20.0518C10.985 20.1735 11.2572 20.2344 11.5508 20.2344ZM10.874 17.4951C10.8167 17.4951 10.7594 17.4665 10.7021 17.4092L3.33301 10.4482C3.29004 10.4053 3.25781 10.3695 3.23633 10.3408C3.22201 10.305 3.21484 10.2728 3.21484 10.2441C3.21484 10.1868 3.25423 10.1224 3.33301 10.0508L10.6914 3.00391C10.7201 2.98242 10.7487 2.96452 10.7773 2.9502C10.806 2.93587 10.8382 2.92871 10.874 2.92871C10.9743 2.92871 11.0244 2.98242 11.0244 3.08984V7.16113C11.0244 7.39746 11.1462 7.51562 11.3896 7.51562H12.7646C14.1611 7.51562 15.3786 7.6875 16.417 8.03125C17.4626 8.36784 18.3506 8.84408 19.0811 9.45996C19.8187 10.0758 20.4167 10.7956 20.875 11.6191C21.3405 12.4355 21.6878 13.3236 21.917 14.2832C22.1533 15.2357 22.2894 16.2204 22.3252 17.2373C22.3252 17.3161 22.2965 17.3555 22.2393 17.3555C22.2178 17.3555 22.1999 17.3483 22.1855 17.334C22.1712 17.3125 22.1569 17.2839 22.1426 17.248C21.7201 16.36 21.0863 15.5973 20.2412 14.96C19.4033 14.3154 18.3613 13.8285 17.1152 13.499C15.8691 13.1624 14.4189 12.9941 12.7646 12.9941H11.3896C11.1462 12.9941 11.0244 13.1087 11.0244 13.3379V17.3232C11.0244 17.4378 10.9743 17.4951 10.874 17.4951Z" fill="black" fill-opacity="0.7"/>
</svg>
