<svg width="55" height="55" viewBox="0 0 55 55" fill="none" xmlns="http://www.w3.org/2000/svg">
<path d="M9.16699 18.333L9.16699 36.6663C9.16699 37.9268 10.1982 38.958 11.4587 38.958L41.2503 38.958C42.5107 38.958 43.542 37.9268 43.542 36.6663L43.542 18.333C43.542 17.0726 42.5107 16.0413 41.2503 16.0413L11.4587 16.0413C10.1982 16.0413 9.16699 17.0726 9.16699 18.333Z" fill="#CFCCC1" fill-opacity="0.7"/>
<path d="M13.75 45.8333C13.75 47.0938 14.7812 48.125 16.0417 48.125L36.6667 48.125C37.9271 48.125 38.9583 47.0938 38.9583 45.8333C38.9583 44.5729 37.9271 43.5417 36.6667 43.5417L16.0417 43.5417C14.7812 43.5417 13.75 44.5729 13.75 45.8333Z" fill="#CFCCC1" fill-opacity="0.7"/>
<path d="M13.75 9.16634C13.75 10.4268 14.7812 11.458 16.0417 11.458L36.6667 11.458C37.9271 11.458 38.9583 10.4268 38.9583 9.16634C38.9583 7.90593 37.9271 6.87468 36.6667 6.87468L16.0417 6.87468C14.7812 6.87468 13.75 7.90593 13.75 9.16634Z" fill="#CFCCC1" fill-opacity="0.7"/>
</svg>
