<svg width="18" height="18" viewBox="0 0 18 18" fill="none" xmlns="http://www.w3.org/2000/svg">
<path d="M4.74726 12.5108C5.61943 13.3399 6.56344 14.0978 7.5693 14.7766C8.52365 15.429 9.55343 15.9755 10.6386 16.4054C11.5866 16.792 12.6052 16.9983 13.6368 17.0125C14.2725 17.0192 14.9034 16.9071 15.4936 16.6827C16.0791 16.449 16.6073 16.1028 17.0453 15.666C17.2981 15.4264 17.5173 15.1569 17.6976 14.8641C17.8894 14.5796 17.9941 14.25 18 13.9123C17.9996 13.7014 17.9474 13.4935 17.8475 13.3052C17.7239 13.086 17.5427 12.901 17.3215 12.7681L14.2627 10.7371C13.9692 10.5222 13.6126 10.3992 13.2423 10.3849C13.0184 10.3884 12.7982 10.4396 12.5979 10.5348C12.3387 10.6574 12.1016 10.8184 11.8957 11.0119L11.1409 11.6939C11.092 11.7407 11.0338 11.7778 10.9697 11.8031C10.9056 11.8284 10.8368 11.8414 10.7674 11.8413C10.7075 11.8411 10.648 11.8318 10.5912 11.8138C10.5314 11.7968 10.4726 11.7768 10.415 11.7539C10.0065 11.543 9.61679 11.3007 9.24989 11.0294C8.69264 10.6328 8.16534 10.1995 7.67186 9.73285C7.18222 9.26122 6.72456 8.76059 6.30162 8.23395C6.00414 7.88657 5.74996 7.50765 5.54417 7.10478C5.52028 7.05653 5.50091 7.00637 5.4863 6.95489C5.4734 6.90923 5.46635 6.86226 5.46527 6.815C5.46455 6.75529 5.47679 6.69608 5.50123 6.64107C5.52566 6.58605 5.56176 6.5364 5.60729 6.49522L6.32528 5.73329C6.52103 5.5227 6.68642 5.28832 6.8171 5.0363C6.91676 4.84412 6.97064 4.63344 6.97491 4.41925C6.95855 4.06562 6.82405 3.72612 6.59092 3.44996L4.58683 0.714486C4.42523 0.485852 4.20658 0.298744 3.95036 0.169873C3.72169 0.0583615 3.46837 0.000134697 3.21132 0C2.58011 0 1.96118 0.288127 1.35451 0.86437C0.901415 1.28002 0.54952 1.78479 0.323526 2.34328C0.107337 2.88774 -0.00229028 3.46514 3.62678e-05 4.04703C0.0149985 5.02689 0.232128 5.99446 0.639134 6.89494C1.09252 7.9264 1.66687 8.90604 2.35129 9.81529C3.06591 10.7783 3.8676 11.6802 4.74726 12.5108Z" fill="#007AFF"/>
</svg>
