<svg width="19" height="19" viewBox="0 0 19 19" fill="none" xmlns="http://www.w3.org/2000/svg">
<path d="M3.32924 1.00405C2.57643 1.00405 1.99411 1.20602 1.59804 1.60209C1.20196 1.99817 1 2.58047 1 3.3359V15.6641C1 16.4195 1.20196 17.0018 1.59804 17.3979C1.99411 17.794 2.57643 17.9959 3.32924 17.9959H15.6574C15.9676 18.0141 16.2784 17.9709 16.5719 17.8688C16.8654 17.7666 17.1358 17.6074 17.3676 17.4005C17.7794 17.0044 17.9867 16.4221 17.9867 15.6641V3.3359C17.9867 2.58047 17.7794 1.99554 17.3676 1.59947C17.1358 1.39254 16.8654 1.23343 16.5719 1.13125C16.2784 1.02907 15.9676 0.985853 15.6574 1.00405H3.32924Z" stroke="black" stroke-width="1.4" stroke-miterlimit="10" stroke-linecap="round"/>
<path d="M5 9.49683H8.19392H12.3878M14 6.19995H8" stroke="black" stroke-width="1.3" stroke-miterlimit="10" stroke-linecap="round"/>
<circle cx="5" cy="6.125" r="1.125" fill="black"/>
<path fill-rule="evenodd" clip-rule="evenodd" d="M4.35077 14.4969C4.35077 13.3095 5.31336 12.3469 6.50077 12.3469H12.5008C13.6882 12.3469 14.6508 13.3095 14.6508 14.4969V17.9969V18.6469H14.0008H5.00077H4.35077V17.9969V14.4969ZM6.50077 13.6469C6.03133 13.6469 5.65077 14.0275 5.65077 14.4969V17.3469H13.3508V14.4969C13.3508 14.0275 12.9702 13.6469 12.5008 13.6469H6.50077Z" fill="black"/>
</svg>
