<svg width="25" height="20" viewBox="0 0 25 20" fill="none" xmlns="http://www.w3.org/2000/svg">
<path fill-rule="evenodd" clip-rule="evenodd" d="M17.0145 1.47155L17.7331 2.27998L17.7355 2.28268C17.8361 2.3943 17.8897 2.44449 17.9126 2.46448C17.9456 2.47017 18.0244 2.47964 18.1797 2.47964H20.7662C21.8889 2.47964 22.9534 2.75795 23.7319 3.52164C24.5146 4.28945 24.806 5.34889 24.806 6.47422V15.9432C24.806 17.0686 24.5147 18.1287 23.734 18.8983C22.9564 19.6648 21.8918 19.9469 20.7662 19.9469H4.23389C3.10525 19.9469 2.03923 19.6655 1.26175 18.8973C0.481653 18.1265 0.194092 17.0656 0.194092 15.9432V6.47422C0.194092 5.35182 0.481721 4.29168 1.26382 3.52264C2.04221 2.75726 3.10814 2.47964 4.23389 2.47964H6.75716C6.91485 2.47964 6.99085 2.4689 7.0198 2.4631C7.03999 2.44665 7.09436 2.39855 7.20556 2.27787L7.93125 1.46158C8.22268 1.141 8.57949 0.824551 9.06858 0.603981C9.55442 0.384878 10.0821 0.300049 10.6641 0.300049H14.2727C14.8548 0.300049 15.3824 0.384878 15.8682 0.603981C16.3573 0.824551 16.7141 1.141 17.0056 1.46158L17.0145 1.47155ZM17.9154 11.1319C17.9154 14.1626 15.5008 16.5672 12.4999 16.5672C9.48917 16.5672 7.07458 14.1626 7.07458 11.1319C7.07458 8.11119 9.48917 5.70654 12.4999 5.70654C15.5107 5.70654 17.9154 8.11119 17.9154 11.1319ZM19.5748 8.71732C18.8991 8.71732 18.3228 8.17081 18.3228 7.47525C18.3228 6.81944 18.8991 6.24312 19.5748 6.24312C20.2405 6.24312 20.8069 6.81944 20.8069 7.47525C20.8069 8.16087 20.2405 8.70738 19.5748 8.71732ZM8.575 11.1319C8.575 13.3179 10.3437 15.0568 12.4999 15.0568C14.6661 15.0568 16.4149 13.3179 16.4149 11.1319C16.4149 8.9558 14.6661 7.20696 12.4999 7.20696C10.3338 7.20696 8.575 8.9558 8.575 11.1319Z" fill="#000000"/>
</svg>
