<svg width="75" height="75" viewBox="0 0 75 75" fill="none" xmlns="http://www.w3.org/2000/svg">
    <rect width="75" height="75" fill="#C3BEAE"/>
    <path d="M23.6445 26.7412H52.3408C52.8584 26.7412 53.2979 26.5605 53.6592 26.1992C54.0303 25.8281 54.2158 25.3838 54.2158 24.8662C54.2158 24.3486 54.0303 23.9092 53.6592 23.5479C53.2979 23.1768 52.8584 22.9912 52.3408 22.9912H23.6445C23.127 22.9912 22.6826 23.1768 22.3115 23.5479C21.9502 23.9092 21.7695 24.3486 21.7695 24.8662C21.7695 25.3838 21.9502 25.8281 22.3115 26.1992C22.6826 26.5605 23.127 26.7412 23.6445 26.7412ZM23.6445 34.417H39.9043C40.4219 34.417 40.8613 34.2363 41.2227 33.875C41.5938 33.5039 41.7793 33.0547 41.7793 32.5273C41.7793 32.0098 41.5938 31.5703 41.2227 31.209C40.8613 30.8379 40.4219 30.6523 39.9043 30.6523H23.6445C23.127 30.6523 22.6826 30.8379 22.3115 31.209C21.9502 31.5703 21.7695 32.0098 21.7695 32.5273C21.7695 33.0547 21.9502 33.5039 22.3115 33.875C22.6826 34.2363 23.127 34.417 23.6445 34.417ZM23.6445 42.0781H52.3408C52.8584 42.0781 53.2979 41.8975 53.6592 41.5361C54.0303 41.1748 54.2158 40.7305 54.2158 40.2031C54.2158 39.6855 54.0303 39.2461 53.6592 38.8848C53.2979 38.5137 52.8584 38.3281 52.3408 38.3281H23.6445C23.127 38.3281 22.6826 38.5137 22.3115 38.8848C21.9502 39.2461 21.7695 39.6855 21.7695 40.2031C21.7695 40.7305 21.9502 41.1748 22.3115 41.5361C22.6826 41.8975 23.127 42.0781 23.6445 42.0781ZM23.6445 49.7393H39.9043C40.4219 49.7393 40.8613 49.5586 41.2227 49.1973C41.5938 48.8359 41.7793 48.3916 41.7793 47.8643C41.7793 47.3467 41.5938 46.9072 41.2227 46.5459C40.8613 46.1748 40.4219 45.9893 39.9043 45.9893H23.6445C23.127 45.9893 22.6826 46.1748 22.3115 46.5459C21.9502 46.9072 21.7695 47.3467 21.7695 47.8643C21.7695 48.3916 21.9502 48.8359 22.3115 49.1973C22.6826 49.5586 23.127 49.7393 23.6445 49.7393Z" fill="white"/>
</svg>
