<svg width="22" height="34" viewBox="0 0 22 34" fill="none" xmlns="http://www.w3.org/2000/svg">
<path d="M2.12866 24.2717H19.8801C20.3396 24.2717 20.698 24.159 20.961 23.9364C21.224 23.7139 21.3541 23.4191 21.3541 23.0607C21.3541 22.5087 21.1315 21.9827 20.6865 21.4798C20.2414 20.9769 19.7847 20.4827 19.3165 19.9913C19.0448 19.6994 18.8396 19.3237 18.698 18.8613C18.5564 18.4017 18.4524 17.9046 18.3859 17.3728C18.3194 16.841 18.2645 16.3237 18.2154 15.8208C18.1489 13.8381 17.8021 12.1734 17.1807 10.8324C16.5593 9.48844 15.5304 8.56647 14.0911 8.06936C13.9003 7.34393 13.5362 6.7341 12.9986 6.23988C12.461 5.74566 11.7963 5.5 11.0015 5.5C10.2067 5.5 9.54484 5.74566 9.00149 6.23988C8.46103 6.7341 8.09686 7.34393 7.91189 8.06936C6.47259 8.56936 5.44079 9.48844 4.81652 10.8324C4.19224 12.1763 3.84542 13.8381 3.77894 15.8208C3.74137 16.3237 3.68935 16.8439 3.61999 17.3728C3.55062 17.9017 3.44946 18.3988 3.30785 18.8613C3.16623 19.3208 2.96103 19.6994 2.68935 19.9913C2.21825 20.4798 1.75871 20.9769 1.31363 21.4798C0.868539 21.9827 0.645996 22.5087 0.645996 23.0607C0.645996 23.422 0.776054 23.7139 1.03617 23.9364C1.29629 24.159 1.65756 24.2717 2.11998 24.2717H2.12866Z" fill="black"/>
<path d="M13.2847 27.4913C12.6748 28.0607 11.9147 28.3439 11.0014 28.3439C10.0824 28.3439 9.31935 28.0607 8.71242 27.4913C8.10548 26.922 7.76155 26.2572 7.67773 25.5H14.3222C14.2413 26.2601 13.8945 26.922 13.2847 27.4913Z" fill="black"/>
</svg>
