<svg width="21" height="23" viewBox="0 0 21 23" fill="none" xmlns="http://www.w3.org/2000/svg">
<path fill-rule="evenodd" clip-rule="evenodd" d="M13.2083 2.88422C13.0618 2.18195 12.7617 1.59344 12.3056 1.11603C11.8469 0.638672 11.2839 0.400024 10.6165 0.400024C9.94916 0.400024 9.39096 0.638672 8.93231 1.11603C8.47607 1.59082 8.17349 2.17957 8.02701 2.88489C7.87357 2.91827 7.73587 2.95544 7.61755 2.99634C6.21924 3.47931 5.2168 4.36102 4.61029 5.64423C4.00378 6.92743 3.66684 8.55603 3.60226 10.53C3.56573 11.0186 3.5152 11.5212 3.44781 12.0378C3.38324 12.5545 3.28214 13.0347 3.14456 13.4811C3.00696 13.9276 2.80762 14.2926 2.54367 14.5818C2.08597 15.0563 1.63953 15.5393 1.20709 16.0279C0.774689 16.5165 0.558472 17.0275 0.558472 17.5638H0.561279C0.561279 17.9148 0.687622 18.1984 0.940338 18.4146C1.19305 18.6308 1.54404 18.7375 1.99332 18.7375H6.80609H7.28864C7.32462 19.3387 7.47736 19.8976 7.74683 20.4141C8.03677 20.9698 8.42987 21.4138 8.92374 21.7488C9.41757 22.0811 9.9827 22.25 10.619 22.25C11.2554 22.25 11.823 22.0839 12.3168 21.7488C12.8107 21.4165 13.1989 20.9725 13.4863 20.4196C13.7537 19.9052 13.9063 19.3438 13.9461 18.7375H14.4296H19.2423C19.6888 18.7375 20.037 18.6308 20.2925 18.4146C20.548 18.1984 20.6743 17.9148 20.6743 17.5638C20.6743 17.0275 20.4582 16.5165 20.0257 16.0279C19.5933 15.5393 19.1497 15.0591 18.6948 14.5818C18.4308 14.2954 18.2315 13.9276 18.0939 13.4811C17.9563 13.0347 17.8552 12.5545 17.7906 12.0378C17.726 11.5212 17.6727 11.0186 17.625 10.53C17.5604 8.55603 17.2234 6.92743 16.6197 5.64423C16.016 4.36102 15.0164 3.47931 13.6181 2.99634C13.4985 2.95508 13.3608 2.91766 13.2083 2.88422Z" fill="black"/>
</svg>
