<svg width="37" height="37" viewBox="0 0 37 37" fill="none" xmlns="http://www.w3.org/2000/svg">
<rect x="2.84741" y="0.5" width="33.2308" height="36" rx="8" fill="#66635B"/>
<path d="M19.46 28.8798C20.8822 28.8798 22.2201 28.6085 23.4711 28.0686C24.7221 27.5287 25.8256 26.7781 26.7816 25.8195C27.7377 24.8582 28.4883 23.752 29.0308 22.501C29.5733 21.25 29.8472 19.9174 29.8472 18.5004C29.8472 17.0835 29.576 15.7535 29.0308 14.4999C28.4856 13.2489 27.735 12.1427 26.7737 11.1814C25.8124 10.2201 24.7063 9.47217 23.4553 8.93227C22.2043 8.39236 20.8664 8.12109 19.4442 8.12109C18.022 8.12109 16.6973 8.39236 15.4436 8.93227C14.1926 9.47217 13.0891 10.2228 12.1383 11.1814C11.1876 12.1427 10.4396 13.2489 9.89445 14.4999C9.34927 15.7509 9.078 17.0835 9.078 18.5004C9.078 19.9174 9.34927 21.2474 9.89445 22.501C10.4396 23.752 11.1902 24.8582 12.1436 25.8195C13.0996 26.7807 14.2032 27.5287 15.4542 28.0686C16.7052 28.6085 18.0378 28.8798 19.4547 28.8798H19.46ZM19.46 27.1442C18.7226 27.1442 17.9878 27.0467 17.2556 26.8545C16.5234 26.6622 15.8229 26.3778 15.1592 25.9985C14.4955 25.6219 13.9003 25.1584 13.3788 24.6106C13.7396 24.0522 14.2242 23.5782 14.8326 23.1831C15.441 22.7881 16.1389 22.4878 16.929 22.2771C17.7165 22.0665 18.5619 21.9611 19.4626 21.9611C20.3633 21.9611 21.1824 22.0638 21.9699 22.2692C22.7574 22.4747 23.4606 22.7749 24.0716 23.17C24.6826 23.565 25.1751 24.0443 25.5438 24.6106C25.0197 25.1584 24.4271 25.6219 23.7634 25.9985C23.0997 26.3752 22.3992 26.6596 21.6617 26.8545C20.9243 27.0467 20.1922 27.1442 19.4626 27.1442H19.46ZM19.46 20.265C18.8095 20.2571 18.2222 20.0859 17.6981 19.7567C17.1739 19.4275 16.7605 18.9771 16.4497 18.4056C16.1415 17.8368 15.9862 17.1862 15.9862 16.4567C15.9862 15.7798 16.1415 15.1583 16.4497 14.5921C16.7578 14.0258 17.1739 13.5728 17.6981 13.2357C18.2222 12.896 18.8095 12.7274 19.46 12.7274C20.1105 12.7274 20.6846 12.896 21.2088 13.2357C21.7329 13.5755 22.1463 14.0258 22.4571 14.5921C22.7653 15.1583 22.9206 15.7798 22.9206 16.4567C22.9206 17.1862 22.7679 17.8368 22.465 18.4109C22.1621 18.985 21.746 19.4407 21.2167 19.7751C20.6899 20.1096 20.1052 20.2729 19.46 20.265Z" fill="#C9C7BC"/>
<path d="M17.2569 26.8668C17.9891 27.0591 18.7239 27.1565 19.4613 27.1565H19.4639C20.1935 27.1565 20.9256 27.0591 21.6631 26.8668C22.4005 26.6719 23.1011 26.3875 23.7647 26.0109C24.4284 25.6343 25.021 25.1707 25.5451 24.6229C25.1764 24.0567 24.6839 23.5774 24.0729 23.1823C23.4619 22.7872 22.7587 22.487 21.9712 22.2816C21.1837 22.0762 20.3647 21.9734 19.4639 21.9734C18.5632 21.9734 17.7178 22.0788 16.9303 22.2895C16.1402 22.5002 15.4423 22.8004 14.8339 23.1955C14.2255 23.5905 13.7409 24.0646 13.3801 24.6229C13.9016 25.1707 14.4968 25.6343 15.1605 26.0109C15.8242 26.3901 16.5247 26.6746 17.2569 26.8668Z" fill="#191816"/>
<path d="M17.6994 19.769C18.2235 20.0983 18.8108 20.2694 19.4613 20.2773C20.1066 20.2853 20.6912 20.122 21.218 19.7875C21.7473 19.453 22.1635 18.9974 22.4663 18.4232C22.7692 17.8491 22.922 17.1986 22.922 16.469C22.922 15.7922 22.7666 15.1706 22.4584 14.6044C22.1477 14.0382 21.7342 13.5878 21.2101 13.248C20.686 12.9083 20.1118 12.7397 19.4613 12.7397C18.8108 12.7397 18.2235 12.9083 17.6994 13.248C17.1753 13.5852 16.7591 14.0382 16.451 14.6044C16.1429 15.1706 15.9875 15.7922 15.9875 16.469C15.9875 17.1986 16.1429 17.8491 16.451 18.418C16.7618 18.9895 17.1753 19.4398 17.6994 19.769Z" fill="#191816"/>
<path fill-rule="evenodd" clip-rule="evenodd" d="M0.337402 10.2521C0.337402 9.6458 0.828905 9.1543 1.4352 9.1543H4.36268C4.96898 9.1543 5.46048 9.6458 5.46048 10.2521C5.46048 10.8584 4.96898 11.3499 4.36268 11.3499H1.4352C0.828905 11.3499 0.337402 10.8584 0.337402 10.2521Z" fill="#C9C7BC"/>
<path fill-rule="evenodd" clip-rule="evenodd" d="M0.337402 15.6486C0.337402 15.0423 0.828905 14.5508 1.4352 14.5508H4.36268C4.96898 14.5508 5.46048 15.0423 5.46048 15.6486C5.46048 16.2549 4.96898 16.7464 4.36268 16.7464H1.4352C0.828905 16.7464 0.337402 16.2549 0.337402 15.6486Z" fill="#C9C7BC"/>
<path fill-rule="evenodd" clip-rule="evenodd" d="M0.337402 21.046C0.337402 20.4397 0.828905 19.9482 1.4352 19.9482H4.36268C4.96898 19.9482 5.46048 20.4397 5.46048 21.046C5.46048 21.6523 4.96898 22.1438 4.36268 22.1438H1.4352C0.828905 22.1438 0.337402 21.6523 0.337402 21.046Z" fill="#C9C7BC"/>
<path fill-rule="evenodd" clip-rule="evenodd" d="M0.337402 26.4445C0.337402 25.8382 0.828905 25.3467 1.4352 25.3467H4.36268C4.96898 25.3467 5.46048 25.8382 5.46048 26.4445C5.46048 27.0508 4.96898 27.5423 4.36268 27.5423H1.4352C0.828905 27.5423 0.337402 27.0508 0.337402 26.4445Z" fill="#C9C7BC"/>
</svg>
