<svg width="30" height="31" viewBox="0 0 30 31" fill="none" xmlns="http://www.w3.org/2000/svg">
<path d="M15 30.3799C23.1738 30.3799 29.9414 23.6123 29.9414 15.4385C29.9414 7.2793 23.1592 0.49707 14.9854 0.49707C6.82617 0.49707 0.0585938 7.2793 0.0585938 15.4385C0.0585938 23.6123 6.84082 30.3799 15 30.3799ZM7.48535 21.957C7.06055 21.957 6.65039 21.5908 6.65039 20.8877C6.65039 14.8672 9.21387 11.1465 15.0293 11.1465H15.2637V8.07031C15.2637 7.52832 15.6592 7.08887 16.2305 7.08887C16.6406 7.08887 16.8896 7.25 17.3145 7.66016L23.7305 13.6514C24.0527 13.9443 24.1553 14.2373 24.1553 14.5156C24.1553 14.8086 24.0527 15.1016 23.7305 15.3945L17.3145 21.4297C16.9336 21.7812 16.626 21.957 16.2158 21.957C15.6592 21.957 15.2637 21.5469 15.2637 21.0195V17.8994H15.0293C11.8799 17.8994 9.90234 18.7051 8.48145 21.3564C8.21777 21.8691 7.83691 21.957 7.48535 21.957Z" fill="#C3BEAE"/>
</svg>
