<svg width="28" height="34" viewBox="0 0 28 34" fill="none" xmlns="http://www.w3.org/2000/svg">
<path fill-rule="evenodd" clip-rule="evenodd" d="M15.8157 25.1059C16.054 25.182 16.2978 25.2499 16.5467 25.3096C17.7474 25.5868 18.9913 25.6215 20.2056 25.4117C20.3641 25.3862 20.5267 25.4118 20.6697 25.4849C21.9279 26.0802 23.2201 26.6025 24.5802 26.8695C24.7084 26.8946 24.8443 26.9179 24.9853 26.9377L25.0004 26.9398C25.034 26.9444 25.0678 26.9488 25.1019 26.953C25.3395 26.9824 25.5889 27.0007 25.837 26.9997C26.542 26.9969 26.6288 26.2279 26.0884 25.7752C25.9949 25.6969 25.9098 25.6223 25.8313 25.5491C25.7825 25.5037 25.7363 25.4587 25.6921 25.4138L25.6755 25.3968C25.4013 25.1147 25.2069 24.83 24.9798 24.4064C24.8858 24.2293 24.8124 24.0451 24.7388 23.8602C24.7113 23.791 24.6837 23.7218 24.655 23.6528C24.6208 23.5738 24.6121 23.4861 24.6301 23.402C24.6481 23.3178 24.6919 23.2413 24.7554 23.1833C25.1031 22.8189 25.4317 22.4368 25.7398 22.0384C26.769 20.655 27.257 18.9428 27.1119 17.2243C26.9657 15.3344 26.1597 13.7728 24.8489 12.4833C23.4513 11.1139 21.7596 10.3553 19.8587 10.0933C19.6283 10.0611 19.396 10.0449 19.1632 10.0326C20.1712 11.3071 20.8632 12.8206 21.157 14.5829C21.5624 16.884 21.0985 19.2537 19.8552 21.2318C18.7943 22.9495 17.4241 24.2222 15.8157 25.1059Z" fill="black"/>
<path fill-rule="evenodd" clip-rule="evenodd" d="M2.53702 23.9434C2.19471 24.5819 1.9157 24.952 1.42129 25.3913L1.41753 25.3947C1.39611 25.4137 1.37428 25.4328 1.35203 25.4521C1.25457 25.5366 1.14892 25.6242 1.0332 25.7171C0.483441 26.1584 0.566486 26.9488 1.27046 26.9862C1.86876 27.018 2.49176 26.941 3.00693 26.8404C4.60662 26.5263 6.12633 25.9121 7.60604 25.2118C7.77427 25.1259 7.96546 25.0958 8.15194 25.1258C9.58003 25.3726 11.043 25.3318 12.4551 25.0058C15.1126 24.3676 17.2682 22.9491 18.7519 20.5443C19.8267 18.8367 20.2274 16.7897 19.8757 14.8025C19.4638 12.3217 18.158 10.4111 16.1984 9.00064C14.4359 7.70468 12.3068 7.00394 10.1196 7C9.96032 7.01042 9.80071 7.01802 9.64107 7.02562C9.27949 7.04284 8.91775 7.06007 8.55986 7.11004C6.32429 7.41813 4.33467 8.31042 2.69099 9.92094C1.14929 11.4374 0.20147 13.274 0.029503 15.4967C-0.141164 17.5178 0.432776 19.5315 1.64319 21.1585C2.00559 21.6271 2.39203 22.0765 2.80097 22.505C2.87564 22.5733 2.92714 22.6632 2.94829 22.7622C2.96944 22.8612 2.95918 22.9643 2.91895 23.0572C2.88519 23.1383 2.85277 23.2198 2.8204 23.3011C2.73385 23.5186 2.64762 23.7352 2.53702 23.9434Z" fill="black"/>
</svg>
