<svg width="26" height="24" viewBox="0 0 26 24" fill="none" xmlns="http://www.w3.org/2000/svg">
<path d="M5.24121 23.7168C5.56348 23.7168 5.986 23.638 6.50879 23.4805C7.03158 23.3301 7.59375 23.1224 8.19531 22.8574C8.79688 22.5924 9.39844 22.2952 10 21.9658C10.6016 21.6436 11.1423 21.3105 11.6221 20.9668C11.7295 20.8952 11.8262 20.8451 11.9121 20.8164C11.998 20.7878 12.084 20.7734 12.1699 20.7734C12.2344 20.7806 12.2988 20.7842 12.3633 20.7842C12.4349 20.7913 12.4958 20.7949 12.5459 20.7949C14.0999 20.7949 15.5501 20.6338 16.8965 20.3115C18.25 19.9893 19.471 19.5273 20.5596 18.9258C21.6553 18.3242 22.5934 17.6117 23.374 16.7881C24.1546 15.9645 24.7526 15.0479 25.168 14.0381C25.5905 13.0212 25.8018 11.9362 25.8018 10.7832C25.8018 9.40104 25.4831 8.10482 24.8457 6.89453C24.2083 5.67708 23.3203 4.61361 22.1816 3.7041C21.043 2.78743 19.7181 2.07129 18.207 1.55566C16.7031 1.04004 15.0882 0.782227 13.3623 0.782227C11.6364 0.782227 10.0179 1.04004 8.50684 1.55566C7.00293 2.07129 5.68164 2.78743 4.54297 3.7041C3.41146 4.61361 2.52344 5.67708 1.87891 6.89453C1.24154 8.10482 0.922852 9.40104 0.922852 10.7832C0.922852 11.9362 1.14486 13.0355 1.58887 14.0811C2.03288 15.1266 2.67383 16.0898 3.51172 16.9707C4.34961 17.8444 5.35579 18.5964 6.53027 19.2266C6.62337 19.2839 6.68424 19.3519 6.71289 19.4307C6.74154 19.5094 6.73079 19.5954 6.68066 19.6885C6.46582 20.0322 6.22233 20.3831 5.9502 20.7412C5.67806 21.0993 5.41667 21.4251 5.16602 21.7188C4.91536 22.0195 4.71842 22.2594 4.5752 22.4385C4.33887 22.7464 4.28158 23.0365 4.40332 23.3086C4.52507 23.5807 4.80436 23.7168 5.24121 23.7168Z" fill="#007AFF"/>
</svg>
