<svg width="34" height="34" viewBox="0 0 34 34" fill="none" xmlns="http://www.w3.org/2000/svg">
<path d="M13.6909 26.7C14.2284 26.7 14.6642 26.2402 14.6642 25.6729V20.4768C14.6642 19.9095 15.0999 19.4497 15.6374 19.4497H18.3626C18.9001 19.4497 19.3359 19.9095 19.3359 20.4768V25.6729C19.3359 26.2402 19.7716 26.7 20.3091 26.7H24.2022C24.7397 26.7 25.1755 26.2402 25.1755 25.6729V18.0474C25.1755 17.4871 25.6058 17.0328 26.1368 17.0328C27.0224 17.0328 27.4369 15.8761 26.7728 15.2576L17.6439 6.75695C17.276 6.41435 16.724 6.41435 16.3561 6.75695L7.22724 15.2576C6.56313 15.8761 6.97759 17.0328 7.86326 17.0328C8.39418 17.0328 8.82458 17.4871 8.82458 18.0474V25.6729C8.82458 26.2402 9.26033 26.7 9.79784 26.7H13.6909Z" stroke="black" stroke-width="1.6"/>
</svg>
