<svg width="21" height="25" viewBox="0 0 21 25" fill="none" xmlns="http://www.w3.org/2000/svg">
<path d="M4.51985 24.6416H16.8949C18.055 24.6416 18.9323 24.3444 19.5267 23.75C20.1211 23.1628 20.4183 22.2962 20.4183 21.1504V10.5801C20.4183 9.43424 20.1211 8.56771 19.5267 7.98047C18.9323 7.38607 18.055 7.08887 16.8949 7.08887H13.973V9.20508H16.7552C17.2493 9.20508 17.6289 9.33757 17.8939 9.60254C18.166 9.86035 18.3021 10.2507 18.3021 10.7734V20.9678C18.3021 21.4906 18.166 21.8809 17.8939 22.1387C17.6289 22.4036 17.2493 22.5361 16.7552 22.5361H4.64876C4.14746 22.5361 3.76432 22.4036 3.49935 22.1387C3.24153 21.8809 3.11263 21.4906 3.11263 20.9678V10.7734C3.11263 10.2507 3.24153 9.86035 3.49935 9.60254C3.76432 9.33757 4.14746 9.20508 4.64876 9.20508H7.45247V7.08887H4.51985C3.3597 7.08887 2.48242 7.38607 1.88802 7.98047C1.29362 8.56771 0.996416 9.43424 0.996416 10.5801V21.1504C0.996416 22.3034 1.29362 23.1735 1.88802 23.7607C2.48242 24.348 3.3597 24.6416 4.51985 24.6416ZM10.7074 16.0801C10.9795 16.0801 11.2122 15.9834 11.4056 15.79C11.6061 15.5967 11.7064 15.3675 11.7064 15.1025V4.28516L11.6204 2.68457L12.2865 3.46875L13.7904 5.08008C13.9694 5.27344 14.1914 5.37012 14.4564 5.37012C14.6999 5.37012 14.9075 5.29134 15.0794 5.13379C15.2585 4.96908 15.348 4.76139 15.348 4.51074C15.348 4.28158 15.2549 4.07031 15.0687 3.87695L11.4593 0.407227C11.3304 0.27832 11.2051 0.188802 11.0833 0.138672C10.9616 0.0885417 10.8363 0.0634766 10.7074 0.0634766C10.5784 0.0634766 10.4531 0.0885417 10.3314 0.138672C10.2096 0.188802 10.0807 0.27832 9.94466 0.407227L6.33528 3.87695C6.15625 4.07031 6.06673 4.28158 6.06673 4.51074C6.06673 4.76139 6.14909 4.96908 6.3138 5.13379C6.48567 5.29134 6.69694 5.37012 6.94759 5.37012C7.21972 5.37012 7.44173 5.27344 7.6136 5.08008L9.11751 3.46875L9.79427 2.68457L9.70833 4.28516V15.1025C9.70833 15.3675 9.80501 15.5967 9.99837 15.79C10.1989 15.9834 10.4352 16.0801 10.7074 16.0801Z" fill="black"/>
</svg>
