<svg width="21" height="21" viewBox="0 0 21 21" fill="none" xmlns="http://www.w3.org/2000/svg">
<path d="M11.3333 2.84897V5.83333H16.3374C17.2556 5.83333 18 6.57876 18 7.49505V17.5049C18 18.4227 17.2561 19.1667 16.3374 19.1667H4.66257C3.74436 19.1667 3 18.4212 3 17.5049V7.49505C3 6.57731 3.74385 5.83333 4.66257 5.83333H9.66667V2.84627L8.72545 3.78749C8.40301 4.10993 7.88008 4.10976 7.55237 3.78206C7.22693 3.45662 7.22886 2.92706 7.54694 2.60898L9.91483 0.24109C10.0752 0.0807634 10.2851 0.000197517 10.4959 0L10.5022 0.0024878C10.7139 0.00293928 10.9243 0.0829322 11.0825 0.24109L13.4504 2.60898C13.7728 2.93142 13.7726 3.45435 13.4449 3.78206C13.1195 4.1075 12.5899 4.10557 12.2719 3.78749L11.3333 2.84897ZM9.66667 7.5H4.66667V17.5H16.3333V7.5H11.3333V10.8346C11.3333 11.2941 10.9634 11.6667 10.5 11.6667C10.0398 11.6667 9.66667 11.2938 9.66667 10.8346V7.5ZM7.16667 5.83333V7.5H13.8333V5.83333H7.16667ZM9.66667 5.83333H11.3333V7.5H9.66667V5.83333Z" fill="black"/>
</svg>
