<svg width="42" height="43" viewBox="0 0 42 43" fill="none" xmlns="http://www.w3.org/2000/svg">
<rect y="0.498047" width="42" height="42" rx="9" fill="#7E8388"/>
<path d="M20.9902 23.0254C21.4883 23.0254 21.8984 22.6152 21.8984 22.1367V12.3027L21.8203 10.8477L22.4258 11.5605L23.8027 13.0254C23.959 13.2012 24.1836 13.2891 24.4082 13.2891C24.8477 13.2891 25.209 12.9668 25.209 12.5078C25.209 12.2734 25.1211 12.0977 24.9551 11.9316L21.6738 8.77734C21.4492 8.54297 21.2344 8.46484 20.9902 8.46484C20.7559 8.46484 20.541 8.54297 20.3164 8.77734L17.0352 11.9316C16.8691 12.0977 16.7715 12.2734 16.7715 12.5078C16.7715 12.9668 17.1328 13.2891 17.5723 13.2891C17.7969 13.2891 18.0312 13.2012 18.1875 13.0254L19.5547 11.5605L20.1699 10.8477L20.0918 12.3027V22.1367C20.0918 22.6152 20.502 23.0254 20.9902 23.0254ZM15.375 30.8086H26.6152C28.7246 30.8086 29.8184 29.7246 29.8184 27.6445V18.0254C29.8184 15.9453 28.7246 14.8613 26.6152 14.8613H23.9688V16.7754H26.498C27.3965 16.7754 27.9043 17.2441 27.9043 18.1914V27.4785C27.9043 28.4258 27.3965 28.8945 26.498 28.8945H15.4922C14.584 28.8945 14.0859 28.4258 14.0859 27.4785V18.1914C14.0859 17.2441 14.584 16.7754 15.4922 16.7754H18.041V14.8613H15.375C13.2656 14.8613 12.1719 15.9453 12.1719 18.0254V27.6445C12.1719 29.7246 13.2656 30.8086 15.375 30.8086Z" fill="white"/>
</svg>
