<svg width="31" height="21" viewBox="0 0 31 21" fill="none" xmlns="http://www.w3.org/2000/svg">
<path fill-rule="evenodd" clip-rule="evenodd" d="M21.0015 8.19075C20.7276 8.81845 20.3641 9.39815 19.9274 9.91375C20.7065 10.5525 21.7031 10.9358 22.7892 10.9358C25.2841 10.9358 27.3066 8.9133 27.3066 6.41845C27.3066 3.9236 25.2841 1.90112 22.7892 1.90112C22.1049 1.90112 21.4562 2.05328 20.8749 2.3256C21.1693 2.92737 21.3797 3.57763 21.4912 4.26117C21.8702 4.03261 22.3144 3.90112 22.7892 3.90112C24.1795 3.90112 25.3066 5.02817 25.3066 6.41845C25.3066 7.80873 24.1795 8.93577 22.7892 8.93577C22.0902 8.93577 21.4577 8.65083 21.0015 8.19075Z" fill="black"/>
<path fill-rule="evenodd" clip-rule="evenodd" d="M25.5817 19.1399H28.9797C29.9565 19.1399 30.7484 18.2686 30.7484 17.1937V16.9504C30.7484 14.0384 25.4457 12.5715 22.7893 12.5715C22.4038 12.5715 21.9626 12.6024 21.49 12.6641C22.4779 13.1295 23.4392 13.7303 24.1941 14.497C24.2717 14.5758 24.3476 14.6569 24.4215 14.7403C25.2471 14.8916 26.1541 15.1445 26.9583 15.499C27.6538 15.8056 28.154 16.1371 28.4532 16.4409C28.7339 16.726 28.7484 16.8863 28.7484 16.9504V17.1399H25.627C25.6701 17.3853 25.6931 17.6401 25.6931 17.904V18.1945C25.6931 18.5149 25.6548 18.8324 25.5817 19.1399Z" fill="black"/>
<path d="M18.9825 5.39503C18.9825 7.82234 17.0148 9.79006 14.5875 9.79006C12.1602 9.79006 10.1924 7.82234 10.1924 5.39503C10.1924 2.96772 12.1602 1 14.5875 1C17.0148 1 18.9825 2.96772 18.9825 5.39503Z" stroke="black" stroke-width="2"/>
<path d="M6.08197 17.904C6.08197 17.3664 6.31932 16.8435 6.83364 16.3212C7.35721 15.7894 8.12519 15.3068 9.04843 14.8998C10.9007 14.0833 13.1396 13.674 14.5875 13.674C16.0354 13.674 18.2744 14.0833 20.1266 14.8998C21.0498 15.3068 21.8178 15.7894 22.3414 16.3212C22.8557 16.8435 23.093 17.3664 23.093 17.904V18.1945C23.093 19.0182 22.5072 19.5189 21.9807 19.5189H7.19431C6.66785 19.5189 6.08197 19.0182 6.08197 18.1945V17.904Z" stroke="black" stroke-width="2"/>
<path d="M4.62921 6.17532V13.5245" stroke="black" stroke-width="2" stroke-miterlimit="100" stroke-linecap="round" stroke-linejoin="round"/>
<path d="M1.04834 9.84988H8.21005" stroke="black" stroke-width="2" stroke-miterlimit="100" stroke-linecap="round" stroke-linejoin="round"/>
</svg>
