
<svg width="21px" height="20px" viewBox="0 0 21 20" version="1.1" xmlns="http://www.w3.org/2000/svg" xmlns:xlink="http://www.w3.org/1999/xlink">
    <g id="Page-1" stroke="none" stroke-width="1" fill="none" fill-rule="evenodd">
        <g id="favorites2" transform="translate(1.000000, 1.000000)" fill-rule="nonzero" stroke="#000000" stroke-width="1.5">
            <path d="M18.1781934,6.05582814 L12.6272954,5.58103828 L10.4594962,0.595659817 C10.3843962,0.419179871 10.2580963,0.268489917 10.0963963,0.16250995 C9.93479637,0.0565399826 9.74489644,0 9.55079651,0 C9.35659658,0 9.16679665,0.0565399826 9.00509671,0.16250995 C8.84340677,0.268489917 8.71709682,0.419179871 8.64202684,0.595659817 L6.45230764,5.64577826 L0.912339667,6.10978812 C0.717889738,6.12402811 0.532099806,6.19480809 0.378489862,6.31316806 C0.224879918,6.43152802 0.11033996,6.59213797 0.049389982,6.77468791 C-0.0115669958,6.95722786 -0.0162039941,7.1534878 0.0360599868,7.33862774 C0.0883299677,7.52376768 0.195149929,7.68946763 0.343009875,7.81473759 L4.58010833,11.3864965 L3.31006879,16.7818948 C3.26277881,16.9700948 3.2730688,17.1678947 3.33962878,17.3502947 C3.40619876,17.5327946 3.52606871,17.6916946 3.68412865,17.8070945 C3.8421986,17.9224945 4.03137853,17.9891945 4.22784846,17.9987945 C4.42430838,18.0083945 4.61925831,17.9604945 4.78812825,17.8609945 L9.55079651,14.9150954 L14.3242948,17.7530945 C14.4923947,17.8546945 14.6873946,17.9042945 14.8843946,17.8954945 C15.0812945,17.8866945 15.2709944,17.8198945 15.4289944,17.7036945 C15.5868943,17.5874946 15.7058943,17.4271946 15.7705942,17.2436947 C15.8351942,17.0600947 15.8424942,16.8616948 15.7913942,16.6739949 L14.5323947,11.2785965 L18.7365932,7.67445764 C18.8575931,7.54604768 18.9410931,7.38774773 18.9782931,7.21634778 C19.0153931,7.04494783 19.0047931,6.86683789 18.9475931,6.70090794 C18.8902931,6.53496799 18.7885931,6.38739803 18.6530932,6.27382807 C18.5176932,6.1602581 18.3535933,6.08493813 18.1781934,6.05582814 Z" id="Shape"></path>
        </g>
    </g>
</svg>