<svg width="37" height="44" viewBox="0 0 37 44" fill="none" xmlns="http://www.w3.org/2000/svg">
<path d="M18.143 24.1442C20.3247 24.1442 22.0859 22.3831 22.0859 20.2014V12.3157C22.0859 10.1339 20.3247 8.3728 18.143 8.3728C15.9613 8.3728 14.2002 10.1339 14.2002 12.3157V20.2014C14.2002 22.3831 15.9613 24.1442 18.143 24.1442Z" fill="white"/>
<path d="M26.0287 20.2014C25.3029 20.2014 24.7282 20.7957 24.5845 21.5072C23.9784 24.5098 21.3234 26.7728 18.143 26.7728C14.9627 26.7728 12.3077 24.5098 11.7015 21.5072C11.5579 20.7957 10.9832 20.2014 10.2573 20.2014V20.2014C9.53145 20.2014 8.9331 20.7929 9.03559 21.5115C9.61053 25.5428 12.8007 28.714 16.8287 29.2962V32.0299C16.8287 32.7558 17.4172 33.3442 18.143 33.3442V33.3442C18.8689 33.3442 19.4573 32.7558 19.4573 32.0299V29.2962C23.4854 28.714 26.6755 25.5428 27.2505 21.5115C27.3529 20.7929 26.7546 20.2014 26.0287 20.2014V20.2014Z" fill="white"/>
</svg>
