<svg width="75" height="75" viewBox="0 0 75 75" fill="none" xmlns="http://www.w3.org/2000/svg">
<rect width="75" height="75" fill="#46423B"/>
<path d="M36.6662 52.2501C37.9601 52.2501 38.9185 51.2517 38.9185 49.904V24.5794C38.9185 23.2316 37.9601 22.1667 36.6503 22.1667C35.7877 22.1667 35.1648 22.5328 34.2383 23.4313L27.6414 29.854C27.5456 29.9372 27.4338 29.9871 27.29 29.9871H22.8016C20.3417 29.9871 19 31.4347 19 34.1468V40.3033C19 43.0154 20.3417 44.4464 22.8016 44.4464H27.29C27.4338 44.4464 27.5456 44.4963 27.6414 44.5795L34.2383 51.0521C35.0849 51.884 35.7877 52.2501 36.6662 52.2501ZM51.3296 49.3216C52.1442 49.8374 53.1345 49.6378 53.6936 48.7892C55.786 45.6278 57 41.4846 57 37.1918C57 32.8989 55.802 28.7225 53.6936 25.5944C53.1345 24.7292 52.1442 24.5295 51.3296 25.0619C50.451 25.611 50.3392 26.7258 50.9622 27.7242C52.6393 30.3365 53.5818 33.6976 53.5818 37.1918C53.5818 40.686 52.6074 44.0304 50.9622 46.6427C50.3552 47.6411 50.451 48.7725 51.3296 49.3216ZM44.6049 44.7958C45.3716 45.3116 46.3619 45.1286 46.905 44.3466C48.2148 42.4663 49.0135 39.8873 49.0135 37.1918C49.0135 34.4963 48.2148 31.9172 46.905 30.037C46.3619 29.255 45.3716 29.0719 44.6049 29.5877C43.7423 30.1701 43.5507 31.2516 44.2535 32.3665C45.116 33.6643 45.5792 35.3948 45.5792 37.1918C45.5792 38.9888 45.1 40.7026 44.2535 42.0005C43.5666 43.1319 43.7423 44.2134 44.6049 44.7958Z" fill="white"/>
</svg>
