<svg width="34" height="37" viewBox="0 0 34 37" fill="none" xmlns="http://www.w3.org/2000/svg">
<path fill-rule="evenodd" clip-rule="evenodd" d="M21.3863 2.9942C20.9097 2.51372 20.4313 2.04245 19.9468 1.59704C19.1054 0.823484 18.0649 0.438965 16.8209 0.438965C15.5769 0.438965 14.5409 0.823484 13.6905 1.59704C12.9443 2.27935 12.2148 3.0262 11.4844 3.77399C10.6895 4.58787 9.89345 5.40287 9.07365 6.13697C8.27105 6.85568 7.62652 7.73808 7.14008 8.78528C6.16295 10.8888 5.6201 13.49 5.51605 16.5933C5.45724 17.3804 5.37581 18.1947 5.26724 19.0225C5.15867 19.8504 5.00034 20.6285 4.77868 21.3523C4.55701 22.0715 4.23583 22.6641 3.8106 23.121C3.07322 23.8856 2.35395 24.6636 1.65729 25.4508C0.960633 26.2379 0.612305 27.0612 0.612305 27.9253C0.612305 28.4907 0.815873 28.9476 1.22301 29.296C1.63015 29.6443 2.19562 29.8207 2.91942 29.8207H2.93299H30.7179C31.4371 29.8207 31.9981 29.6443 32.4097 29.296C32.8214 28.9476 33.025 28.4862 33.025 27.9253C33.025 27.0612 32.6766 26.2379 31.98 25.4508C31.2833 24.6636 30.5686 23.8901 29.8357 23.121C29.4105 22.6641 29.0893 22.0761 28.8676 21.3523C28.646 20.633 28.4831 19.8549 28.3791 19.0225C28.275 18.1902 28.1891 17.3804 28.1122 16.5933C28.0731 15.4285 27.9723 14.3338 27.81 13.3096C23.9307 12.9374 20.8972 9.66894 20.8972 5.69202C20.8972 4.74242 21.0702 3.83322 21.3863 2.9942ZM20.3992 35.1045C19.4447 35.9956 18.2549 36.439 16.8254 36.439C15.3869 36.439 14.1926 35.9956 13.2426 35.1045C11.8456 33.7939 13.2979 31.9876 15.2135 31.9876H18.4291C20.3493 31.9876 21.8028 33.794 20.3992 35.1045Z" fill="#66635B"/>
<path d="M33.8031 5.69192C33.8031 8.59304 31.4513 10.9449 28.5502 10.9449C25.6491 10.9449 23.2972 8.59304 23.2972 5.69192C23.2972 2.79079 25.6491 0.438965 28.5502 0.438965C31.4513 0.438965 33.8031 2.79079 33.8031 5.69192Z" fill="#C9C7BC"/>
</svg>
