<svg width="37" height="39" viewBox="0 0 37 39" fill="none" xmlns="http://www.w3.org/2000/svg">
<path d="M2.93299 31.8207H30.7179C31.4371 31.8207 31.9981 31.6443 32.4097 31.296C32.8214 30.9476 33.025 30.4862 33.025 29.9253C33.025 29.0612 32.6766 28.2379 31.98 27.4508C31.2833 26.6636 30.5686 25.8901 29.8357 25.121C29.4105 24.6641 29.0893 24.0761 28.8676 23.3523C28.646 22.633 28.4831 21.8549 28.3791 21.0225C28.275 20.1902 28.1891 19.3804 28.1122 18.5933C28.0081 15.49 27.4653 12.8843 26.4927 10.7853C26.009 9.73923 25.3676 8.85651 24.568 8.13767C22.9961 6.72468 21.5028 5.02753 19.9468 3.59704C19.1054 2.82348 18.0649 2.43896 16.8209 2.43896C15.5769 2.43896 14.5409 2.82348 13.6905 3.59704C12.1322 5.02196 10.6467 6.72838 9.07365 8.13697C8.27105 8.85568 7.62652 9.73808 7.14008 10.7853C6.16295 12.8888 5.6201 15.49 5.51605 18.5933C5.45724 19.3804 5.37581 20.1947 5.26724 21.0225C5.15867 21.8504 5.00034 22.6285 4.77868 23.3523C4.55701 24.0715 4.23583 24.6641 3.8106 25.121C3.07322 25.8856 2.35395 26.6636 1.65729 27.4508C0.960633 28.2379 0.612305 29.0612 0.612305 29.9253C0.612305 30.4907 0.815873 30.9476 1.22301 31.296C1.63015 31.6443 2.19562 31.8207 2.91942 31.8207H2.93299ZM16.8254 38.439C18.2549 38.439 19.4447 37.9956 20.3992 37.1045C21.8028 35.794 20.3493 33.9876 18.4291 33.9876H15.2135C13.2979 33.9876 11.8456 35.7939 13.2426 37.1045C14.1926 37.9956 15.3869 38.439 16.8254 38.439Z" fill="#C9C7BC"/>
<circle cx="28.5501" cy="7.69192" r="6.45295" fill="#66635B" stroke="white" stroke-width="2.4"/>
</svg>
