<svg width="25" height="21" viewBox="0 0 25 21" fill="none" xmlns="http://www.w3.org/2000/svg">
<path fill-rule="evenodd" clip-rule="evenodd" d="M3.42529 20.3954C1.18018 20.3954 0.0522461 19.289 0.0522461 17.0654V3.97064C0.0522461 1.81146 1.13721 0.737244 3.01709 0.737244H6.07861C7.14209 0.737244 7.68994 0.930603 8.39893 1.53217L9.0542 2.06927C9.59131 2.53119 10.0317 2.70306 10.7622 2.70306H21.0747C23.3091 2.70306 24.4478 3.82025 24.4478 6.03314V17.0654C24.4478 19.2783 23.3198 20.3954 21.397 20.3954H3.42529ZM13.5444 17.2547C13.3288 17.2547 13.1731 17.099 13.1372 16.8834C12.7207 13.7061 12.6115 13.6852 9.35697 13.0626L9.29198 13.0502C9.08834 13.0143 8.93262 12.8705 8.93262 12.6549C8.93262 12.4273 9.08834 12.2716 9.29198 12.2476C12.6101 11.7805 12.7299 11.6727 13.1372 8.42641C13.1731 8.19881 13.3288 8.04309 13.5444 8.04309C13.772 8.04309 13.9278 8.19881 13.9517 8.43839C14.3413 11.5901 14.5214 11.6244 17.6559 12.2208L17.7969 12.2476C18.0005 12.2836 18.1562 12.4273 18.1562 12.6549C18.1562 12.8825 18.0005 13.0143 17.749 13.0502C14.5027 13.5773 14.347 13.6611 13.9517 16.8594C13.9278 17.099 13.772 17.2547 13.5444 17.2547ZM8.5625 10.8125C8.42605 10.8125 8.34645 10.7329 8.32371 10.6078C8.31879 10.5813 8.31394 10.5552 8.30916 10.5294C7.97145 8.70813 7.96633 8.68055 6.01537 8.28811C5.87891 8.26537 5.79932 8.18577 5.79932 8.04932C5.79932 7.91286 5.87891 7.83327 6.01537 7.81052C7.91591 7.42823 7.92791 7.37118 8.27864 5.70439C8.29304 5.63596 8.30801 5.56481 8.32371 5.49081C8.34645 5.36573 8.42605 5.28613 8.5625 5.28613C8.69895 5.28613 8.76718 5.36573 8.78992 5.49081C8.80614 5.56515 8.82161 5.63662 8.83649 5.70534C9.19709 7.37121 9.20945 7.4283 11.1096 7.81052C11.2347 7.83327 11.3257 7.91286 11.3257 8.04932C11.3257 8.18577 11.2347 8.26537 11.1096 8.28811C9.15138 8.6595 9.1424 8.70787 8.80067 10.5499L8.78992 10.6078C8.76718 10.7329 8.69895 10.8125 8.5625 10.8125Z" fill="#007AFF"/>
</svg>
