<svg width="24" height="22" viewBox="0 0 24 22" fill="none" xmlns="http://www.w3.org/2000/svg">
<g clip-path="url(#clip0_1344_2044)">
<path fill-rule="evenodd" clip-rule="evenodd" d="M16.4901 6.48004C16.2901 6.78004 16.3001 7.05004 16.5301 7.27004C16.7801 7.52004 17.0501 7.53004 17.3401 7.31004C17.9301 6.88004 18.4001 6.55004 18.7501 6.32004C19.1101 6.09004 19.4301 5.98004 19.7101 5.97004C19.9901 5.96004 20.3001 6.06004 20.6301 6.28004C20.9701 6.50004 21.4301 6.84004 21.9901 7.29004C22.2801 7.53004 22.5501 7.52004 22.8001 7.27004C23.0501 7.02004 23.0501 6.75004 22.8201 6.44004C22.4101 5.90004 22.1101 5.46004 21.9101 5.14004C21.7101 4.81004 21.6101 4.52004 21.6101 4.24004C21.6101 3.96004 21.7201 3.64004 21.9301 3.27004C22.1401 2.90004 22.4501 2.41004 22.8601 1.78004C23.0601 1.48004 23.0501 1.21004 22.8101 0.980041C22.5801 0.750041 22.3001 0.750041 21.9801 0.980041C21.3901 1.40004 20.9101 1.72004 20.5501 1.93004C20.1901 2.15004 19.8701 2.26004 19.5901 2.26004C19.3101 2.26004 19.0101 2.16004 18.6701 1.95004C18.3401 1.73004 17.9101 1.41004 17.3601 0.970041C17.0701 0.730041 16.8001 0.740041 16.5401 1.00004C16.4301 1.11004 16.3701 1.24004 16.3701 1.39004C16.3701 1.54004 16.4101 1.67004 16.5001 1.80004C16.8901 2.35004 17.1901 2.80004 17.4001 3.14004C17.6101 3.47004 17.7101 3.77004 17.7101 4.04004C17.7101 4.32004 17.6201 4.64004 17.4101 5.00004C17.2101 5.36004 16.9001 5.86004 16.4901 6.48004ZM4.82994 4.77005C4.53994 4.60005 4.12994 4.38005 3.59994 4.13005C3.47994 4.08005 3.38994 3.99005 3.32994 3.88005C3.25994 3.77005 3.24994 3.65005 3.28994 3.52005C3.37994 3.22005 3.57994 3.10005 3.89994 3.16005C4.49994 3.26005 4.95994 3.32005 5.29994 3.35005C5.64994 3.37005 5.91994 3.32005 6.12994 3.20005C6.34994 3.08005 6.53994 2.87005 6.71994 2.55005C6.89994 2.24005 7.12994 1.80005 7.39994 1.24005C7.54994 0.930047 7.75994 0.810047 8.02994 0.890047C8.29994 0.970047 8.42994 1.17005 8.39994 1.48005C8.34994 2.12005 8.31994 2.62005 8.31994 2.99005C8.31994 3.36005 8.36994 3.65005 8.47994 3.86005C8.58994 4.07005 8.78994 4.25005 9.07994 4.41005C9.36994 4.57005 9.77994 4.77005 10.3099 5.01005C10.6099 5.14005 10.7199 5.35005 10.6399 5.64005C10.5499 5.93005 10.3499 6.05005 10.0299 5.99005C9.41994 5.89005 8.93994 5.82005 8.58994 5.80005C8.23994 5.77005 7.96994 5.82005 7.75994 5.95005C7.54994 6.07005 7.35994 6.29005 7.17994 6.61005C7.02859 6.88603 6.84554 7.27298 6.61668 7.75678L6.61667 7.75679L6.52994 7.94005C6.39994 8.23005 6.18994 8.33005 5.89994 8.25005C5.62994 8.18005 5.50994 7.98005 5.53994 7.67005C5.58994 7.03005 5.61994 6.53005 5.61994 6.17005C5.61994 5.81005 5.55994 5.53005 5.43994 5.32005C5.32994 5.12005 5.12994 4.93005 4.82994 4.77005ZM14.6352 7.75772L14.5652 7.68772L14.5352 7.66772C14.1252 7.30772 13.6352 7.12772 13.0752 7.12772C12.9052 7.12772 12.7452 7.14772 12.5952 7.17772H12.5852C12.1752 7.26772 11.8252 7.45772 11.5252 7.75772L1.22522 18.1777C0.805216 18.6077 0.595215 19.1177 0.595215 19.7277C0.595215 20.3377 0.805216 20.8677 1.22522 21.2877C1.65522 21.7177 2.17522 21.9277 2.78522 21.9277C3.39521 21.9277 3.91522 21.7177 4.33522 21.2877L14.6252 10.8677C15.0452 10.4377 15.2552 9.92772 15.2552 9.31772C15.2552 8.83772 15.1252 8.41772 14.8652 8.04772C14.7952 7.94772 14.7152 7.84772 14.6252 7.75772L14.6352 7.75772ZM3.27522 20.2377C3.13521 20.3777 3.00521 20.4277 2.79521 20.4277C2.58522 20.4277 2.44521 20.3777 2.29521 20.2277C2.15521 20.0877 2.10521 19.9377 2.10521 19.7177C2.10521 19.4977 2.16522 19.3677 2.30522 19.2177L7.79521 13.6577L8.76521 14.6777L3.28522 20.2277L3.27522 20.2377ZM9.79185 13.7443L13.4618 10.0843H13.4718C13.6718 9.85434 13.7718 9.67434 13.8218 9.48434C13.8618 9.27434 13.8118 9.07434 13.6818 8.90434L13.6018 8.80434C13.4718 8.68434 13.3318 8.61434 13.1718 8.60434H13.1318C13.085 8.60434 13.0484 8.6112 13.0181 8.61689C12.9967 8.62091 12.9784 8.62434 12.9618 8.62434C12.8318 8.65434 12.7118 8.70434 12.5918 8.77434C12.5218 8.81434 12.4519 8.86434 12.3918 8.92434L12.2918 9.02434L8.72185 12.6143L9.79185 13.7443ZM22.57 13.3301C22.87 13.2801 23.07 13.3701 23.15 13.6201L23.17 13.6101C23.25 13.8601 23.17 14.0501 22.92 14.1901C22.41 14.4801 22.02 14.7201 21.74 14.9001C21.46 15.0801 21.27 15.2701 21.17 15.4601C21.07 15.6501 21.04 15.8901 21.07 16.1901C21.1 16.4901 21.16 16.9001 21.25 17.4201C21.3 17.7201 21.2 17.9101 20.94 18.0001C20.67 18.0901 20.48 18.0001 20.36 17.7301C20.12 17.2201 19.92 16.8301 19.76 16.5501C19.6 16.2701 19.42 16.0901 19.22 16.0001C19.02 15.9101 18.75 15.8801 18.42 15.9101C18.0976 15.9394 17.6701 16.0069 17.1189 16.0939L17.08 16.1001C16.79 16.1501 16.61 16.0501 16.52 15.7901C16.44 15.5501 16.52 15.3601 16.77 15.2201C17.28 14.9301 17.67 14.6901 17.94 14.5101C18.21 14.3301 18.4 14.1401 18.49 13.9401C18.59 13.7501 18.62 13.5101 18.59 13.2001C18.57 12.8901 18.52 12.4801 18.44 11.9501C18.42 11.8301 18.44 11.7201 18.49 11.6201C18.54 11.5201 18.62 11.4501 18.74 11.4101C19.02 11.3201 19.21 11.4101 19.33 11.6801C19.56 12.1801 19.75 12.5601 19.9 12.8301C20.07 13.1001 20.24 13.2901 20.44 13.3801C20.64 13.4901 20.9 13.5201 21.23 13.4901C21.56 13.4701 22.01 13.4101 22.57 13.3301Z" fill="#848178"/>
</g>
<defs>
<clipPath id="clip0_1344_2044">
<rect width="22.58" height="21.12" fill="white" transform="translate(0.600098 0.810059)"/>
</clipPath>
</defs>
</svg>
