<svg width="24" height="22" viewBox="0 0 24 22" fill="none" xmlns="http://www.w3.org/2000/svg">
<path fill-rule="evenodd" clip-rule="evenodd" d="M16.5346 1.01229C16.4239 1.12305 16.3685 1.25227 16.3685 1.39994C16.3685 1.54762 16.4116 1.683 16.4977 1.80606C16.8915 2.35986 17.19 2.80597 17.393 3.1444C17.6022 3.47668 17.7068 3.77819 17.7068 4.04894C17.713 4.32583 17.6145 4.6458 17.4115 5.00885C17.2084 5.37189 16.9007 5.86416 16.4885 6.48564C16.2854 6.78715 16.2977 7.05174 16.5254 7.27941C16.7715 7.52554 17.0423 7.53785 17.3376 7.31633C17.9283 6.8856 18.3991 6.5564 18.7498 6.32873C19.1129 6.10106 19.4328 5.98414 19.7097 5.97799C19.9928 5.96568 20.3004 6.07029 20.6327 6.29181C20.9773 6.51333 21.4296 6.84868 21.9895 7.29787C22.2787 7.53785 22.5495 7.5317 22.8018 7.27941C23.0479 7.03328 23.054 6.75638 22.8202 6.44872C22.4141 5.90723 22.1095 5.47342 21.9064 5.1473C21.7034 4.82117 21.6019 4.52274 21.6019 4.25199C21.608 3.9751 21.7157 3.65205 21.9249 3.28285C22.1341 2.91365 22.4449 2.41831 22.8571 1.79683C23.0602 1.49532 23.0448 1.22765 22.811 0.993827C22.5772 0.760002 22.3003 0.760002 21.9803 0.993827C21.3896 1.41225 20.9127 1.72914 20.5496 1.94451C20.1928 2.16603 19.8728 2.27679 19.5897 2.27679C19.3128 2.28294 19.0052 2.17833 18.6667 1.96297C18.3406 1.7476 17.9037 1.42148 17.3561 0.984597C17.0669 0.744619 16.7931 0.753848 16.5346 1.01229ZM2.79336 20.336C2.99259 20.336 3.09486 20.2856 3.20467 20.1739L8.62017 14.6898L7.79142 13.8129L2.37119 19.3018L2.37018 19.3028C2.25034 19.425 2.20059 19.5375 2.20059 19.7324C2.20059 19.9379 2.25302 20.052 2.36643 20.169C2.48526 20.2862 2.59635 20.336 2.79336 20.336ZM2.79336 21.936C3.40849 21.936 3.92593 21.7225 4.34567 21.2956L14.6365 10.8745C15.0562 10.4475 15.2661 9.93005 15.2661 9.32215C15.2661 8.84465 15.1366 8.42072 14.8776 8.05038C14.8069 7.94926 14.7265 7.85213 14.6365 7.75899C14.6126 7.73549 14.5884 7.71265 14.5639 7.69047L14.5364 7.66591C14.1289 7.30823 13.6412 7.12938 13.0733 7.12938C12.9062 7.12938 12.7466 7.14452 12.5946 7.17479L12.5842 7.1769C12.1746 7.26053 11.8202 7.45456 11.521 7.75899L1.23019 18.1801C0.810455 18.6071 0.600586 19.1245 0.600586 19.7324C0.600586 20.3475 0.810455 20.8686 1.23019 21.2956C1.65717 21.7225 2.17822 21.936 2.79336 21.936ZM13.3122 9.94091C13.3317 9.92134 13.3505 9.90151 13.3685 9.88144C13.5033 9.73081 13.5931 9.56609 13.6378 9.38729C13.6743 9.21113 13.6342 9.04772 13.5177 8.89706C13.5095 8.88644 13.5009 8.87589 13.4919 8.8654C13.4766 8.8474 13.46 8.82958 13.4424 8.81196C13.3302 8.70482 13.2072 8.64624 13.0733 8.63621C13.0173 8.63201 12.9594 8.63631 12.8997 8.64913C12.782 8.67348 12.67 8.71831 12.5636 8.78363L12.5606 8.78553C12.4829 8.83358 12.4083 8.89257 12.3367 8.96252L12.3352 8.96398C12.334 8.96517 12.3385 8.98041 12.3429 8.99565L12.3429 8.99567C12.3518 9.02618 12.3607 9.05669 12.3243 8.97478L8.78549 12.5353L9.71905 13.5232L13.3122 9.94091ZM18.4897 11.6351C18.5418 11.5317 18.6262 11.4607 18.7429 11.4222C19.0151 11.3324 19.2102 11.4225 19.3281 11.6927C19.5575 12.1919 19.7485 12.5746 19.9009 12.8405C20.062 13.1108 20.2406 13.2926 20.4368 13.386C20.635 13.4859 20.8983 13.5212 21.2264 13.4919C21.5567 13.4692 22.0026 13.4155 22.564 13.3308C22.8707 13.2799 23.0646 13.3776 23.1459 13.6239C23.2272 13.8702 23.1435 14.0631 22.8949 14.2027C22.3868 14.4926 21.9944 14.7299 21.7175 14.9147C21.4407 15.0995 21.2513 15.2878 21.1493 15.4796C21.0537 15.6693 21.0196 15.9141 21.0467 16.2142C21.0739 16.5143 21.1342 16.9257 21.2276 17.4483C21.2828 17.7463 21.1808 17.9381 20.9216 18.0237C20.6558 18.1114 20.464 18.0201 20.3461 17.75C20.1123 17.2378 19.9139 16.8433 19.7506 16.5665C19.596 16.2941 19.4174 16.1123 19.2148 16.021C19.0187 15.9276 18.7533 15.8966 18.4187 15.928C18.0926 15.9637 17.6467 16.0282 17.081 16.1215C16.7959 16.1724 16.6106 16.0683 16.525 15.809C16.4459 15.5692 16.5306 15.3795 16.7792 15.24C17.2873 14.9501 17.6765 14.7138 17.9469 14.5312C18.2172 14.3485 18.3991 14.1591 18.4925 13.963C18.588 13.7733 18.6211 13.5252 18.5918 13.2186C18.569 12.9099 18.5174 12.4921 18.4369 11.9652C18.42 11.8486 18.4376 11.7386 18.4897 11.6351ZM3.30011 3.51998C3.26262 3.64973 3.27462 3.77034 3.33612 3.88184C3.39762 3.99333 3.48651 4.07759 3.6028 4.13463C4.13073 4.38872 4.54182 4.60124 4.83606 4.77218C5.13238 4.93592 5.33691 5.11998 5.44966 5.32439C5.56962 5.53087 5.62854 5.81344 5.62643 6.17208C5.62431 6.53073 5.59703 7.0305 5.5446 7.67138C5.51686 7.98357 5.63633 8.1782 5.90303 8.25527C6.19135 8.33859 6.40088 8.23514 6.53161 7.9449C6.7982 7.37371 7.01649 6.92915 7.18648 6.61121C7.36575 6.28814 7.55863 6.06662 7.76511 5.94666C7.97368 5.8195 8.24952 5.77035 8.59262 5.79921C8.94502 5.82295 9.42612 5.88779 10.0359 5.99373C10.3542 6.05446 10.556 5.93707 10.6414 5.64154C10.7248 5.35322 10.6141 5.14161 10.3094 5.00671C9.77734 4.76703 9.36674 4.56637 9.07762 4.40472C8.78851 4.24307 8.58758 4.06004 8.47483 3.85564C8.36416 3.64403 8.31093 3.35529 8.31513 2.98944C8.31933 2.62359 8.34764 2.12022 8.40008 1.47933C8.42782 1.16714 8.30474 0.97147 8.03084 0.892315C7.75693 0.81316 7.54789 0.928472 7.40369 1.23825C7.13197 1.80014 6.90392 2.23798 6.71952 2.55176C6.54233 2.86762 6.34689 3.08449 6.13319 3.20236C5.92671 3.32232 5.65087 3.37147 5.30568 3.34981C4.96978 3.32303 4.50414 3.25876 3.90875 3.15699C3.59048 3.09625 3.3876 3.21725 3.30011 3.51998Z" fill="#848178"/>
</svg>
