<svg width="24" height="22" viewBox="0 0 24 22" fill="none" xmlns="http://www.w3.org/2000/svg">
<path fill-rule="evenodd" clip-rule="evenodd" d="M16.5346 1.0123C16.4239 1.12306 16.3685 1.25228 16.3685 1.39996C16.3685 1.54764 16.4116 1.68301 16.4977 1.80607C16.8915 2.35987 17.19 2.80598 17.393 3.14441C17.6022 3.47669 17.7068 3.7782 17.7068 4.04895C17.713 4.32585 17.6145 4.64582 17.4115 5.00886C17.2084 5.3719 16.9007 5.86417 16.4885 6.48565C16.2854 6.78716 16.2977 7.05175 16.5254 7.27942C16.7715 7.52556 17.0423 7.53786 17.3376 7.31634C17.9283 6.88561 18.3991 6.55641 18.7498 6.32874C19.1129 6.10107 19.4328 5.98416 19.7097 5.978C19.9928 5.9657 20.3004 6.0703 20.6327 6.29182C20.9773 6.51334 21.4296 6.84869 21.9895 7.29788C22.2787 7.53786 22.5495 7.53171 22.8018 7.27942C23.0479 7.03329 23.054 6.7564 22.8202 6.44873C22.4141 5.90724 22.1095 5.47343 21.9064 5.14731C21.7034 4.82119 21.6019 4.52275 21.6019 4.25201C21.608 3.97511 21.7157 3.65206 21.9249 3.28286C22.1341 2.91367 22.4449 2.41833 22.8571 1.79684C23.0602 1.49533 23.0448 1.22766 22.811 0.993839C22.5772 0.760014 22.3003 0.760014 21.9803 0.993839C21.3896 1.41226 20.9127 1.72916 20.5496 1.94452C20.1928 2.16604 19.8728 2.2768 19.5897 2.2768C19.3128 2.28295 19.0052 2.17835 18.6667 1.96298C18.3406 1.74762 17.9037 1.42149 17.3561 0.984609C17.0669 0.744631 16.7931 0.753861 16.5346 1.0123ZM2.79336 20.336C2.99259 20.336 3.09486 20.2856 3.20467 20.1739L8.62017 14.6899L7.79142 13.8129L2.37119 19.3018L2.37018 19.3028C2.25034 19.425 2.20059 19.5375 2.20059 19.7324C2.20059 19.9379 2.25302 20.052 2.36643 20.169C2.48526 20.2863 2.59635 20.336 2.79336 20.336ZM2.79336 21.936C3.40849 21.936 3.92593 21.7226 4.34567 21.2956L14.6365 10.8745C15.0562 10.4475 15.2661 9.93007 15.2661 9.32217C15.2661 8.84466 15.1366 8.42074 14.8776 8.05039C14.8069 7.94927 14.7265 7.85214 14.6365 7.759C14.6126 7.7355 14.5884 7.71266 14.5639 7.69048L14.5364 7.66593C14.1289 7.30824 13.6412 7.12939 13.0733 7.12939C12.9062 7.12939 12.7466 7.14453 12.5946 7.1748L12.5842 7.17691C12.1746 7.26054 11.8202 7.45457 11.521 7.759L1.23019 18.1801C0.810455 18.6071 0.600586 19.1245 0.600586 19.7324C0.600586 20.3475 0.810455 20.8686 1.23019 21.2956C1.65717 21.7226 2.17822 21.936 2.79336 21.936ZM13.3122 9.94092C13.3317 9.92135 13.3505 9.90153 13.3685 9.88145C13.5033 9.73082 13.5931 9.56611 13.6378 9.3873C13.6743 9.21115 13.6342 9.04774 13.5177 8.89707C13.5095 8.88646 13.5009 8.8759 13.4919 8.86541C13.4766 8.84741 13.46 8.8296 13.4424 8.81197C13.3302 8.70483 13.2072 8.64625 13.0733 8.63622C13.0173 8.63202 12.9594 8.63633 12.8997 8.64914C12.782 8.67349 12.67 8.71832 12.5636 8.78364L12.5606 8.78554C12.4829 8.83359 12.4083 8.89259 12.3367 8.96253L12.3352 8.964C12.334 8.96519 12.3385 8.98042 12.3429 8.99566L12.3429 8.99569C12.3518 9.02619 12.3607 9.0567 12.3243 8.9748L8.78549 12.5353L9.71905 13.5232L13.3122 9.94092ZM18.4897 11.6352C18.5418 11.5317 18.6262 11.4607 18.7429 11.4222C19.0151 11.3324 19.2102 11.4225 19.3281 11.6927C19.5575 12.192 19.7485 12.5746 19.9009 12.8405C20.062 13.1108 20.2406 13.2926 20.4368 13.386C20.635 13.4859 20.8983 13.5212 21.2264 13.492C21.5567 13.4692 22.0026 13.4155 22.564 13.3308C22.8707 13.2799 23.0646 13.3776 23.1459 13.6239C23.2272 13.8702 23.1435 14.0632 22.8949 14.2027C22.3868 14.4926 21.9944 14.7299 21.7175 14.9147C21.4407 15.0995 21.2513 15.2878 21.1493 15.4796C21.0537 15.6693 21.0196 15.9141 21.0467 16.2142C21.0739 16.5143 21.1342 16.9257 21.2276 17.4483C21.2828 17.7463 21.1808 17.9381 20.9216 18.0237C20.6558 18.1114 20.464 18.0202 20.3461 17.75C20.1123 17.2378 19.9139 16.8433 19.7506 16.5665C19.596 16.2941 19.4174 16.1123 19.2148 16.021C19.0187 15.9276 18.7533 15.8966 18.4187 15.928C18.0926 15.9637 17.6467 16.0282 17.081 16.1215C16.7959 16.1725 16.6106 16.0683 16.525 15.809C16.4459 15.5692 16.5306 15.3795 16.7792 15.24C17.2873 14.9501 17.6765 14.7138 17.9469 14.5312C18.2172 14.3485 18.3991 14.1591 18.4925 13.963C18.588 13.7733 18.6211 13.5252 18.5918 13.2186C18.569 12.9099 18.5174 12.4921 18.4369 11.9652C18.42 11.8486 18.4376 11.7386 18.4897 11.6352ZM3.30011 3.51999C3.26262 3.64974 3.27462 3.77036 3.33612 3.88185C3.39762 3.99334 3.48651 4.0776 3.6028 4.13464C4.13073 4.38874 4.54182 4.60125 4.83606 4.7722C5.13238 4.93593 5.33691 5.12 5.44966 5.3244C5.56962 5.53088 5.62854 5.81345 5.62643 6.1721C5.62431 6.53074 5.59703 7.03051 5.5446 7.67139C5.51686 7.98358 5.63633 8.17821 5.90303 8.25529C6.19135 8.33861 6.40088 8.23515 6.53161 7.94491C6.7982 7.37373 7.01649 6.92916 7.18648 6.61122C7.36575 6.28815 7.55863 6.06663 7.76511 5.94668C7.97368 5.81951 8.24952 5.77036 8.59262 5.79923C8.94502 5.82296 9.42612 5.8878 10.0359 5.99374C10.3542 6.05448 10.556 5.93708 10.6414 5.64155C10.7248 5.35323 10.6141 5.14162 10.3094 5.00672C9.77734 4.76704 9.36674 4.56638 9.07762 4.40473C8.78851 4.24308 8.58758 4.06005 8.47483 3.85565C8.36416 3.64404 8.31093 3.35531 8.31513 2.98945C8.31933 2.6236 8.34764 2.12023 8.40008 1.47935C8.42782 1.16716 8.30474 0.971482 8.03084 0.892328C7.75693 0.813173 7.54789 0.928484 7.40369 1.23826C7.13197 1.80016 6.90392 2.23799 6.71952 2.55177C6.54233 2.86763 6.34689 3.0845 6.13319 3.20237C5.92671 3.32233 5.65087 3.37148 5.30568 3.34983C4.96978 3.32304 4.50414 3.25877 3.90875 3.157C3.59048 3.09626 3.3876 3.21726 3.30011 3.51999Z" fill="#848178"/>
</svg>
