<svg width="46" height="32" viewBox="0 0 46 32" fill="none" xmlns="http://www.w3.org/2000/svg">
<path d="M29.9185 8.03992H24.3845V10.8069H29.9185C32.2013 10.8069 34.069 12.6746 34.069 14.9574C34.069 17.2402 32.2013 19.1079 29.9185 19.1079H24.3845V21.8749H29.9185C33.737 21.8749 36.836 18.7759 36.836 14.9574C36.836 11.139 33.737 8.03992 29.9185 8.03992ZM21.6175 19.1079H16.0835C13.8007 19.1079 11.933 17.2402 11.933 14.9574C11.933 12.6746 13.8007 10.8069 16.0835 10.8069H21.6175V8.03992H16.0835C12.2651 8.03992 9.16602 11.139 9.16602 14.9574C9.16602 18.7759 12.2651 21.8749 16.0835 21.8749H21.6175V19.1079ZM17.467 13.5739H28.535V16.3409H17.467V13.5739Z" fill="white"/>
</svg>
