<svg width="26" height="34" viewBox="0 0 26 34" fill="none" xmlns="http://www.w3.org/2000/svg">
<path fill-rule="evenodd" clip-rule="evenodd" d="M14.7678 16.03C15.557 16.7517 16.6078 17.1919 17.7614 17.1919C20.212 17.1919 22.1986 15.2053 22.1986 12.7546C22.1986 10.304 20.212 8.31738 17.7614 8.31738C16.9905 8.31738 16.2655 8.51398 15.6338 8.85978C16.0716 9.74122 16.3178 10.7347 16.3178 11.7857C16.3178 13.4028 15.7349 14.8838 14.7678 16.03Z" fill="black"/>
<path fill-rule="evenodd" clip-rule="evenodd" d="M20.2286 25.2508C20.3051 24.9511 20.3453 24.6398 20.3453 24.3246V24.0399C20.3453 22.7566 19.7516 21.7002 18.9537 20.8898C18.1678 20.0917 17.1355 19.4765 16.079 19.0108C16.0451 18.9959 16.0111 18.981 15.9771 18.9663C16.633 18.8547 17.2477 18.7988 17.7616 18.7988C20.3709 18.7988 25.5796 20.2398 25.5796 23.1002V23.3391C25.5796 24.395 24.8018 25.2508 23.8423 25.2508H20.2286Z" fill="black"/>
<path fill-rule="evenodd" clip-rule="evenodd" d="M9.73249 17.0712C12.6516 17.0712 15.018 14.7048 15.018 11.7857C15.018 8.86661 12.6516 6.50022 9.73249 6.50022C6.81341 6.50022 4.44702 8.86661 4.44702 11.7857C4.44702 14.7048 6.81341 17.0712 9.73249 17.0712Z" fill="black"/>
<path fill-rule="evenodd" clip-rule="evenodd" d="M0.420166 24.04C0.420166 20.6327 6.62462 18.9163 9.73267 18.9163C12.8408 18.9163 19.0452 20.6327 19.0452 24.04V24.3246C19.0452 25.5823 18.1187 26.6018 16.9757 26.6018H2.48961C1.34669 26.6018 0.420166 25.5823 0.420166 24.3246V24.04Z" fill="black"/>
</svg>
