<svg width="21" height="21" viewBox="0 0 21 21" fill="none" xmlns="http://www.w3.org/2000/svg">
<path fill-rule="evenodd" clip-rule="evenodd" d="M7.5 8.17266C8.71503 8.17266 9.7 7.18768 9.7 5.97266C9.7 4.75763 8.71503 3.77266 7.5 3.77266C6.28497 3.77266 5.3 4.75763 5.3 5.97266C5.3 7.18768 6.28497 8.17266 7.5 8.17266ZM7.5 9.97266C9.70914 9.97266 11.5 8.1818 11.5 5.97266C11.5 3.76352 9.70914 1.97266 7.5 1.97266C5.29086 1.97266 3.5 3.76352 3.5 5.97266C3.5 8.1818 5.29086 9.97266 7.5 9.97266Z" fill="black"/>
<path fill-rule="evenodd" clip-rule="evenodd" d="M2.08267 16.0828C1.80856 16.3526 1.8 16.4999 1.8 16.5472V16.7472H13.2V16.5472C13.2 16.4999 13.1914 16.3526 12.9173 16.0828C12.6275 15.7975 12.1457 15.4888 11.4814 15.205C10.1449 14.6338 8.51065 14.3472 7.5 14.3472C6.48937 14.3472 4.85516 14.6338 3.51861 15.205C2.85429 15.4888 2.37247 15.7975 2.08267 16.0828ZM0 16.5472C0 13.8872 4.99687 12.5472 7.5 12.5472C10.0032 12.5472 15 13.8872 15 16.5472V16.7695C15 17.7513 14.2538 18.5472 13.3333 18.5472H1.66667C0.746192 18.5472 0 17.7513 0 16.7695V16.5472Z" fill="black"/>
<path d="M16.8438 6.58813V13.2381" stroke="black" stroke-width="1.6" stroke-miterlimit="100" stroke-linecap="round" stroke-linejoin="round"/>
<path d="M13.5625 9.91382H20.125" stroke="black" stroke-width="1.6" stroke-miterlimit="100" stroke-linecap="round" stroke-linejoin="round"/>
</svg>
