<svg width="18" height="18" viewBox="0 0 18 18" fill="none" xmlns="http://www.w3.org/2000/svg">
<g clip-path="url(#clip0)">
<path d="M9.42815 1.95949C13.1502 1.95949 16.1781 4.43133 16.1781 7.46983C16.1781 10.5079 13.15 12.9802 9.42815 12.9802L9.20045 12.9813L9.02879 12.9819C8.76419 12.9819 8.59062 12.974 8.31931 12.9272L7.77927 12.839L7.43259 13.3186C7.27307 13.5386 6.45981 14.3022 5.56255 14.7937C5.74522 14.2418 5.87984 13.6398 5.89149 13.0446L5.8966 13.0116V12.9175V12.2426L5.37125 11.9362C3.66008 10.9362 2.67819 9.3077 2.67819 7.46983C2.67819 4.43133 5.70626 1.95949 9.42815 1.95949ZM9.42815 0.857422C5.16765 0.857422 1.71387 3.81807 1.71387 7.46964C1.71387 9.74396 2.89313 11.7253 4.93228 12.9173C4.93228 12.9311 4.92829 12.9414 4.92829 12.9568C4.92829 13.9449 4.44397 15.0311 4.16005 15.5903C4.1377 15.6503 4.1246 15.7161 4.1246 15.7865C4.1246 16.0635 4.31989 16.286 4.56181 16.286C4.59838 16.286 4.65587 16.2774 4.67726 16.2774C4.68237 16.2774 4.68493 16.2787 4.68493 16.2787C6.19154 15.9972 7.84809 14.4761 8.17752 14.017C8.51668 14.075 8.74535 14.0836 9.02879 14.0836C9.14823 14.0836 9.27741 14.0815 9.42815 14.0815C13.6888 14.0815 17.1424 11.1214 17.1424 7.46945C17.1424 3.81807 13.6888 0.857422 9.42815 0.857422Z" fill="black"/>
<path d="M9.42815 12.7802L9.42714 12.7802L9.19977 12.7813L9.19944 12.7813L9.02879 12.7819C9.02866 12.7819 9.02853 12.7819 9.0284 12.7819C8.77114 12.7819 8.6097 12.7744 8.35331 12.7301L8.35155 12.7299L7.81151 12.6417C7.73677 12.6294 7.66154 12.6605 7.61718 12.7219L7.27069 13.2012C7.27068 13.2012 7.27067 13.2012 7.27066 13.2013C7.20641 13.2898 6.97974 13.5224 6.6461 13.8008C6.42904 13.9819 6.17358 14.1765 5.90012 14.3564C6.00807 13.9386 6.08128 13.5002 6.09117 13.0621L6.09425 13.0422C6.09582 13.0321 6.0966 13.0219 6.0966 13.0116V12.9175V12.2426C6.0966 12.1715 6.05882 12.1057 5.99737 12.0699L5.47216 11.7635C5.47215 11.7635 5.47213 11.7635 5.47212 11.7635C3.8165 10.7959 2.87819 9.23008 2.87819 7.46983C2.87819 4.57781 5.77686 2.15949 9.42815 2.15949C13.0796 2.15949 15.9781 4.57781 15.9781 7.46983C15.9781 10.3615 13.0794 12.7802 9.42815 12.7802ZM3.98172 15.4997C3.9783 15.5065 3.97527 15.5134 3.97263 15.5205C3.94243 15.6015 3.9246 15.6909 3.9246 15.7865C3.9246 16.1483 4.1854 16.486 4.56181 16.486C4.59167 16.486 4.62501 16.4827 4.64509 16.4807L4.67047 16.4782C4.68748 16.4794 4.70468 16.4785 4.72166 16.4753C5.51878 16.3264 6.33855 15.855 6.99108 15.3756C7.56622 14.9531 8.03504 14.5066 8.26239 14.2332C8.55412 14.2766 8.77205 14.2836 9.02879 14.2836C9.0858 14.2836 9.14489 14.2831 9.20638 14.2826L9.21833 14.2825C9.28439 14.282 9.35366 14.2815 9.42815 14.2815C13.7692 14.2815 17.3424 11.2597 17.3424 7.46945C17.3424 3.6798 13.7692 0.657422 9.42815 0.657422C5.08722 0.657422 1.51387 3.6798 1.51387 7.46964C1.51387 9.78006 2.6942 11.7961 4.7274 13.0281C4.70494 13.9462 4.25748 14.9566 3.98172 15.4997ZM4.59654 16.4581C4.59655 16.4581 4.59655 16.4581 4.59656 16.4581L4.59655 16.4581L4.59654 16.4581ZM4.59308 16.4564L4.59269 16.4562C4.59287 16.4563 4.59306 16.4564 4.59324 16.4565L4.59308 16.4564Z" stroke="black" stroke-opacity="0.75" stroke-width="0.4" stroke-linecap="round" stroke-linejoin="round"/>
</g>
<defs>
<clipPath id="clip0">
<rect width="18" height="18" fill="white"/>
</clipPath>
</defs>
</svg>
