<svg width="21" height="23" viewBox="0 0 21 23" fill="none" xmlns="http://www.w3.org/2000/svg">
<path fill-rule="evenodd" clip-rule="evenodd" d="M3.5 0.59082C1.84315 0.59082 0.5 1.93397 0.5 3.59082V19.409C0.5 21.0659 1.84315 22.409 3.5 22.409H17.5C19.1569 22.409 20.5 21.0659 20.5 19.409V3.59082C20.5 1.93397 19.1569 0.59082 17.5 0.59082H3.5ZM3.50002 2.99084H17.5C17.8314 2.99084 18.1 3.25947 18.1 3.59084V16.409C18.1 16.7404 17.8314 17.009 17.5 17.009H3.50002C3.16865 17.009 2.90002 16.7404 2.90002 16.409V3.59085C2.90002 3.25947 3.16865 2.99084 3.50002 2.99084Z" fill="white"/>
</svg>
