<svg width="23" height="30" viewBox="0 0 23 30" fill="none" xmlns="http://www.w3.org/2000/svg">
<path d="M11.4029 18.715C13.9899 18.715 16.0782 16.6267 16.0782 14.0396V4.689C16.0782 2.10198 13.9899 0.0136719 11.4029 0.0136719C8.81585 0.0136719 6.72754 2.10198 6.72754 4.689V14.0396C6.72754 16.6267 8.81585 18.715 11.4029 18.715Z" fill="black"/>
<path d="M20.7539 14.0391C19.8932 14.0391 19.2117 14.7438 19.0414 15.5875C18.3226 19.1478 15.1744 21.8313 11.4032 21.8313C7.63207 21.8313 4.48385 19.1478 3.76509 15.5875C3.59477 14.7438 2.91329 14.0391 2.05258 14.0391V14.0391C1.19188 14.0391 0.482376 14.7405 0.603899 15.5926C1.28565 20.3728 5.06844 24.1331 9.84479 24.8235V28.065C9.84479 28.9257 10.5425 29.6235 11.4032 29.6235V29.6235C12.2639 29.6235 12.9617 28.9257 12.9617 28.065V24.8235C17.738 24.1331 21.5208 20.3728 22.2026 15.5926C22.3241 14.7405 21.6146 14.0391 20.7539 14.0391V14.0391Z" fill="black"/>
</svg>
