<svg width="37" height="37" viewBox="0 0 37 37" fill="none" xmlns="http://www.w3.org/2000/svg">
<rect x="4.04717" y="1.7" width="30.8308" height="33.6" rx="6.8" fill="#81ACFF" stroke="#81ACFF" stroke-width="2.4"/>
<path d="M19.4601 28.8798C20.8823 28.8798 22.2202 28.6085 23.4712 28.0686C24.7222 27.5287 25.8257 26.7781 26.7817 25.8195C27.7378 24.8582 28.4884 23.752 29.0309 22.501C29.5735 21.25 29.8474 19.9174 29.8474 18.5004C29.8474 17.0835 29.5761 15.7535 29.0309 14.4999C28.4857 13.2489 27.7351 12.1427 26.7738 11.1814C25.8126 10.2201 24.7064 9.47217 23.4554 8.93227C22.2044 8.39236 20.8665 8.12109 19.4443 8.12109C18.0221 8.12109 16.6974 8.39236 15.4437 8.93227C14.1927 9.47217 13.0892 10.2228 12.1385 11.1814C11.1877 12.1427 10.4397 13.2489 9.89457 14.4999C9.34939 15.7509 9.07812 17.0835 9.07812 18.5004C9.07812 19.9174 9.34939 21.2474 9.89457 22.501C10.4397 23.752 11.1903 24.8582 12.1437 25.8195C13.0998 26.7807 14.2033 27.5287 15.4543 28.0686C16.7053 28.6085 18.0379 28.8798 19.4548 28.8798H19.4601ZM19.4601 27.1442C18.7227 27.1442 17.9879 27.0467 17.2557 26.8545C16.5236 26.6622 15.823 26.3778 15.1593 25.9985C14.4956 25.6219 13.9004 25.1584 13.3789 24.6106C13.7397 24.0522 14.2243 23.5782 14.8327 23.1831C15.4411 22.7881 16.139 22.4878 16.9291 22.2771C17.7166 22.0665 18.562 21.9611 19.4627 21.9611C20.3635 21.9611 21.1825 22.0638 21.97 22.2692C22.7575 22.4747 23.4607 22.7749 24.0717 23.17C24.6827 23.565 25.1752 24.0443 25.5439 24.6106C25.0198 25.1584 24.4272 25.6219 23.7635 25.9985C23.0999 26.3752 22.3993 26.6596 21.6619 26.8545C20.9244 27.0467 20.1923 27.1442 19.4627 27.1442H19.4601ZM19.4601 20.265C18.8096 20.2571 18.2223 20.0859 17.6982 19.7567C17.1741 19.4275 16.7606 18.9771 16.4498 18.4056C16.1417 17.8368 15.9863 17.1862 15.9863 16.4567C15.9863 15.7798 16.1417 15.1583 16.4498 14.5921C16.7579 14.0258 17.1741 13.5728 17.6982 13.2357C18.2223 12.896 18.8096 12.7274 19.4601 12.7274C20.1106 12.7274 20.6848 12.896 21.2089 13.2357C21.733 13.5755 22.1465 14.0258 22.4572 14.5921C22.7654 15.1583 22.9208 15.7798 22.9208 16.4567C22.9208 17.1862 22.768 17.8368 22.4651 18.4109C22.1623 18.985 21.7461 19.4407 21.2168 19.7751C20.69 20.1096 20.1054 20.2729 19.4601 20.265Z" fill="white"/>
<path d="M17.2572 26.8673C17.9893 27.0596 18.7241 27.157 19.4615 27.157H19.4642C20.1937 27.157 20.9259 27.0596 21.6633 26.8673C22.4007 26.6724 23.1013 26.388 23.765 26.0114C24.4287 25.6348 25.0213 25.1712 25.5454 24.6234C25.1766 24.0572 24.6841 23.5778 24.0731 23.1828C23.4621 22.7877 22.7589 22.4875 21.9714 22.2821C21.184 22.0766 20.3649 21.9739 19.4642 21.9739C18.5635 21.9739 17.718 22.0793 16.9306 22.29C16.1405 22.5007 15.4425 22.8009 14.8342 23.196C14.2258 23.591 13.7412 24.0651 13.3804 24.6234C13.9018 25.1712 14.4971 25.6348 15.1607 26.0114C15.8244 26.3906 16.525 26.6751 17.2572 26.8673Z" fill="#007AFF"/>
<path d="M17.6996 19.7695C18.2237 20.0987 18.811 20.2699 19.4615 20.2778C20.1068 20.2857 20.6915 20.1225 21.2182 19.788C21.7476 19.4535 22.1637 18.9979 22.4666 18.4237C22.7695 17.8496 22.9222 17.1991 22.9222 16.4695C22.9222 15.7927 22.7668 15.1711 22.4587 14.6049C22.1479 14.0386 21.7344 13.5883 21.2103 13.2485C20.6862 12.9088 20.1121 12.7402 19.4615 12.7402C18.811 12.7402 18.2237 12.9088 17.6996 13.2485C17.1755 13.5856 16.7594 14.0386 16.4512 14.6049C16.1431 15.1711 15.9877 15.7927 15.9877 16.4695C15.9877 17.1991 16.1431 17.8496 16.4512 18.4185C16.762 18.99 17.1755 19.4403 17.6996 19.7695Z" fill="#007AFF"/>
<path fill-rule="evenodd" clip-rule="evenodd" d="M0.337402 10.2521C0.337402 9.6458 0.828905 9.1543 1.4352 9.1543H4.36268C4.96898 9.1543 5.46048 9.6458 5.46048 10.2521C5.46048 10.8584 4.96898 11.3499 4.36268 11.3499H1.4352C0.828905 11.3499 0.337402 10.8584 0.337402 10.2521Z" fill="white"/>
<path fill-rule="evenodd" clip-rule="evenodd" d="M0.337402 15.6486C0.337402 15.0423 0.828905 14.5508 1.4352 14.5508H4.36268C4.96898 14.5508 5.46048 15.0423 5.46048 15.6486C5.46048 16.2549 4.96898 16.7464 4.36268 16.7464H1.4352C0.828905 16.7464 0.337402 16.2549 0.337402 15.6486Z" fill="white"/>
<path fill-rule="evenodd" clip-rule="evenodd" d="M0.337402 21.046C0.337402 20.4397 0.828905 19.9482 1.4352 19.9482H4.36268C4.96898 19.9482 5.46048 20.4397 5.46048 21.046C5.46048 21.6523 4.96898 22.1438 4.36268 22.1438H1.4352C0.828905 22.1438 0.337402 21.6523 0.337402 21.046Z" fill="white"/>
<path fill-rule="evenodd" clip-rule="evenodd" d="M0.337402 26.4445C0.337402 25.8382 0.828905 25.3467 1.4352 25.3467H4.36268C4.96898 25.3467 5.46048 25.8382 5.46048 26.4445C5.46048 27.0508 4.96898 27.5423 4.36268 27.5423H1.4352C0.828905 27.5423 0.337402 27.0508 0.337402 26.4445Z" fill="white"/>
</svg>
