<svg width="180" height="180" viewBox="0 0 180 180" fill="none" xmlns="http://www.w3.org/2000/svg">
<path d="M0 0H180V180H0V0Z" fill="#FF4500"/>
<path d="M75.1216 120.345C75.1216 122.477 74.5073 124.121 73.2788 125.277C72.0503 126.433 70.1353 127.011 67.5337 127.011C64.9683 127.011 63.0713 126.433 61.8428 125.277C60.6143 124.121 60 122.477 60 120.345V58.2324C60 56.1006 60.6143 54.4565 61.8428 53.3003C63.0713 52.144 64.9683 51.5659 67.5337 51.5659C70.1353 51.5659 72.0503 52.144 73.2788 53.3003C74.5073 54.4565 75.1216 56.1006 75.1216 58.2324V82.4595H105.148V58.2324C105.148 56.1006 105.762 54.4565 106.991 53.3003C108.219 52.144 110.134 51.5659 112.736 51.5659C115.265 51.5659 117.144 52.144 118.373 53.3003C119.637 54.4565 120.27 56.1006 120.27 58.2324V120.345C120.27 122.477 119.655 124.121 118.427 125.277C117.198 126.433 115.301 127.011 112.736 127.011C110.134 127.011 108.219 126.433 106.991 125.277C105.762 124.121 105.148 122.477 105.148 120.345V94.6543H75.1216V120.345Z" fill="#FF4500"/>
<path d="M75.1216 120.345C75.1216 122.477 74.5073 124.121 73.2788 125.277C72.0503 126.433 70.1353 127.011 67.5337 127.011C64.9683 127.011 63.0713 126.433 61.8428 125.277C60.6143 124.121 60 122.477 60 120.345V58.2324C60 56.1006 60.6143 54.4565 61.8428 53.3003C63.0713 52.144 64.9683 51.5659 67.5337 51.5659C70.1353 51.5659 72.0503 52.144 73.2788 53.3003C74.5073 54.4565 75.1216 56.1006 75.1216 58.2324V82.4595H105.148V58.2324C105.148 56.1006 105.762 54.4565 106.991 53.3003C108.219 52.144 110.134 51.5659 112.736 51.5659C115.265 51.5659 117.144 52.144 118.373 53.3003C119.637 54.4565 120.27 56.1006 120.27 58.2324V120.345C120.27 122.477 119.655 124.121 118.427 125.277C117.198 126.433 115.301 127.011 112.736 127.011C110.134 127.011 108.219 126.433 106.991 125.277C105.762 124.121 105.148 122.477 105.148 120.345V94.6543H75.1216V120.345Z" fill="#FF4500"/>
<path fill-rule="evenodd" clip-rule="evenodd" d="M81.1216 120.345C81.1216 123.667 80.1246 127.073 77.391 129.646C74.5776 132.294 70.8613 133.566 67.5337 133.566C64.2149 133.566 60.531 132.282 57.7306 129.646C54.997 127.073 54 123.667 54 120.345V58.2324C54 54.9097 54.997 51.5039 57.7306 48.9311C60.531 46.2954 64.2149 45.0659 67.5337 45.0659C70.8613 45.0659 74.5776 46.2832 77.391 48.9311C80.1246 51.5039 81.1216 54.9097 81.1216 58.2324V71.4595C81.1216 74.2209 83.3602 76.4595 86.1216 76.4595H94.1479C96.9094 76.4595 99.1479 74.2209 99.1479 71.4595V58.2324C99.1479 54.9097 100.145 51.5039 102.879 48.9311C105.692 46.2832 109.408 45.0659 112.736 45.0659C116.033 45.0659 119.67 46.3023 122.453 48.9009C125.229 51.4578 126.27 54.87 126.27 58.2324V120.345C126.27 123.667 125.273 127.073 122.539 129.646C119.739 132.282 116.055 133.566 112.736 133.566C109.408 133.566 105.692 132.294 102.879 129.646C100.145 127.073 99.1479 123.667 99.1479 120.345V105.654C99.1479 102.893 96.9094 100.654 94.1479 100.654H86.1216C83.3602 100.654 81.1216 102.893 81.1216 105.654V120.345ZM75.1216 120.345C75.1216 122.477 74.5073 124.121 73.2788 125.277C72.0503 126.433 70.1353 127.011 67.5337 127.011C64.9683 127.011 63.0713 126.433 61.8428 125.277C60.6143 124.121 60 122.477 60 120.345V58.2324C60 56.1006 60.6143 54.4565 61.8428 53.3003C63.0713 52.144 64.9683 51.5659 67.5337 51.5659C70.1353 51.5659 72.0503 52.144 73.2788 53.3003C74.5073 54.4565 75.1216 56.1006 75.1216 58.2324V82.4595H105.148V58.2324C105.148 56.1006 105.762 54.4565 106.991 53.3003C108.219 52.144 110.134 51.5659 112.736 51.5659C115.265 51.5659 117.144 52.144 118.373 53.3003C119.637 54.4565 120.27 56.1006 120.27 58.2324V120.345C120.27 122.477 119.655 124.121 118.427 125.277C117.198 126.433 115.301 127.011 112.736 127.011C110.134 127.011 108.219 126.433 106.991 125.277C105.762 124.121 105.148 122.477 105.148 120.345V94.6543H75.1216V120.345Z" fill="#FF4500"/>
<path fill-rule="evenodd" clip-rule="evenodd" d="M81.1216 120.345C81.1216 123.667 80.1246 127.073 77.391 129.646C74.5776 132.294 70.8613 133.566 67.5337 133.566C64.2149 133.566 60.531 132.282 57.7306 129.646C54.997 127.073 54 123.667 54 120.345V58.2324C54 54.9097 54.997 51.5039 57.7306 48.9311C60.531 46.2954 64.2149 45.0659 67.5337 45.0659C70.8613 45.0659 74.5776 46.2832 77.391 48.9311C80.1246 51.5039 81.1216 54.9097 81.1216 58.2324V71.4595C81.1216 74.2209 83.3602 76.4595 86.1216 76.4595H94.1479C96.9094 76.4595 99.1479 74.2209 99.1479 71.4595V58.2324C99.1479 54.9097 100.145 51.5039 102.879 48.9311C105.692 46.2832 109.408 45.0659 112.736 45.0659C116.033 45.0659 119.67 46.3023 122.453 48.9009C125.229 51.4578 126.27 54.87 126.27 58.2324V120.345C126.27 123.667 125.273 127.073 122.539 129.646C119.739 132.282 116.055 133.566 112.736 133.566C109.408 133.566 105.692 132.294 102.879 129.646C100.145 127.073 99.1479 123.667 99.1479 120.345V105.654C99.1479 102.893 96.9094 100.654 94.1479 100.654H86.1216C83.3602 100.654 81.1216 102.893 81.1216 105.654V120.345ZM75.1216 120.345C75.1216 122.477 74.5073 124.121 73.2788 125.277C72.0503 126.433 70.1353 127.011 67.5337 127.011C64.9683 127.011 63.0713 126.433 61.8428 125.277C60.6143 124.121 60 122.477 60 120.345V58.2324C60 56.1006 60.6143 54.4565 61.8428 53.3003C63.0713 52.144 64.9683 51.5659 67.5337 51.5659C70.1353 51.5659 72.0503 52.144 73.2788 53.3003C74.5073 54.4565 75.1216 56.1006 75.1216 58.2324V82.4595H105.148V58.2324C105.148 56.1006 105.762 54.4565 106.991 53.3003C108.219 52.144 110.134 51.5659 112.736 51.5659C115.265 51.5659 117.144 52.144 118.373 53.3003C119.637 54.4565 120.27 56.1006 120.27 58.2324V120.345C120.27 122.477 119.655 124.121 118.427 125.277C117.198 126.433 115.301 127.011 112.736 127.011C110.134 127.011 108.219 126.433 106.991 125.277C105.762 124.121 105.148 122.477 105.148 120.345V94.6543H75.1216V120.345Z" fill="#FF4500"/>
<path fill-rule="evenodd" clip-rule="evenodd" d="M81.2216 104.654C81.156 104.977 81.1216 105.312 81.1216 105.654V120.345C81.1216 122.47 80.7136 124.63 79.7038 126.584C79.1352 127.684 78.3758 128.719 77.391 129.646C74.5776 132.294 70.8613 133.566 67.5337 133.566C64.2149 133.566 60.531 132.282 57.7306 129.646C54.997 127.073 54 123.667 54 120.345V58.2324C54 54.9097 54.997 51.5039 57.7306 48.9311C60.531 46.2954 64.2149 45.0659 67.5337 45.0659C70.8613 45.0659 74.5776 46.2832 77.391 48.9311C78.3758 49.858 79.1352 50.893 79.7038 51.9933C80.7136 53.9471 81.1216 56.1067 81.1216 58.2324V71.4595C81.1216 71.8019 81.156 72.1364 81.2216 72.4595C81.6193 74.4186 83.1625 75.9618 85.1216 76.3595C85.4447 76.425 85.7791 76.4595 86.1216 76.4595H94.1479C94.4904 76.4595 94.8248 76.425 95.1479 76.3595C97.1071 75.9618 98.6502 74.4186 99.0479 72.4595C99.1135 72.1364 99.1479 71.8019 99.1479 71.4595V58.2324C99.1479 56.1067 99.556 53.9471 100.566 51.9933C101.134 50.893 101.894 49.858 102.879 48.9311C105.692 46.2832 109.408 45.0659 112.736 45.0659C116.021 45.0659 119.642 46.2931 122.421 48.8719C122.432 48.8815 122.442 48.8912 122.453 48.9009C122.463 48.9109 122.474 48.9209 122.485 48.9309C125.237 51.4844 126.27 54.8831 126.27 58.2324V120.345C126.27 123.667 125.273 127.073 122.539 129.646C119.739 132.282 116.055 133.566 112.736 133.566C109.408 133.566 105.692 132.294 102.879 129.646C101.894 128.719 101.134 127.684 100.566 126.584C99.556 124.63 99.1479 122.47 99.1479 120.345V105.654C99.1479 105.312 99.1135 104.977 99.0479 104.654C98.6502 102.695 97.1071 101.152 95.1479 100.754C94.8248 100.689 94.4904 100.654 94.1479 100.654H86.1216C85.7791 100.654 85.4447 100.689 85.1216 100.754C83.1625 101.152 81.6193 102.695 81.2216 104.654ZM90.1348 33.4945C83.3773 27.6074 75.0292 25.0659 67.5337 25.0659C59.5997 25.0659 50.8686 27.9244 44.0233 34.3671C36.2467 41.6862 34 50.9852 34 58.2324V120.345C34 127.592 36.2467 136.891 44.0233 144.21C50.7256 150.518 59.3901 153.566 67.5337 153.566C75.2224 153.566 83.5085 150.859 90.1348 145.083C96.761 150.859 105.047 153.566 112.736 153.566C120.879 153.566 129.544 150.518 136.246 144.21C144.023 136.891 146.27 127.592 146.27 120.345V58.2324C146.27 50.8058 143.893 41.488 136.053 34.237C129.314 27.9689 120.714 25.0659 112.736 25.0659C105.24 25.0659 96.8923 27.6074 90.1348 33.4945Z" fill="white"/>
</svg>
