<svg width="52" height="17" viewBox="0 0 52 17" fill="none" xmlns="http://www.w3.org/2000/svg">
<mask id="path-1-outside-1_15868_9680" maskUnits="userSpaceOnUse" x="0" y="0" width="52" height="17" fill="black">
<rect fill="white" width="52" height="17"/>
<path d="M11.1587 1.4832C11.5327 1.4832 11.8332 1.59906 12.0603 1.83079C12.2874 2.06251 12.4009 2.36239 12.4009 2.73042V14.5483C12.4009 14.9027 12.2807 15.2026 12.0403 15.448C11.7998 15.6797 11.4926 15.7955 11.1186 15.7955C10.7846 15.7955 10.4975 15.6797 10.257 15.448C10.0166 15.2026 9.89635 14.9027 9.89635 14.5483V9.78436H3.5046V14.5483C3.5046 14.9027 3.3777 15.2026 3.1239 15.448C2.8701 15.6797 2.57623 15.7955 2.24228 15.7955C1.88162 15.7955 1.58107 15.6797 1.34063 15.448C1.11354 15.2026 1 14.9027 1 14.5483V2.73042C1 2.37602 1.12022 2.08296 1.36066 1.85123C1.6011 1.60588 1.90834 1.4832 2.28236 1.4832C2.6163 1.4832 2.9035 1.60588 3.14394 1.85123C3.38438 2.08296 3.5046 2.37602 3.5046 2.73042V7.43304H9.89635V2.73042C9.89635 2.37602 10.0232 2.08296 10.277 1.85123C10.5308 1.60588 10.8247 1.4832 11.1587 1.4832Z"/>
<path d="M23.877 4.65236C24.2243 4.65236 24.5115 4.76822 24.7386 4.99995C24.9657 5.23167 25.0792 5.53155 25.0792 5.89958V14.5483C25.0792 14.9027 24.9657 15.2026 24.7386 15.448C24.5115 15.6797 24.2243 15.7955 23.877 15.7955C23.5297 15.7955 23.2425 15.6797 23.0155 15.448C22.8017 15.2162 22.6882 14.9232 22.6748 14.5688C22.3409 14.9641 21.8867 15.3048 21.3123 15.5911C20.7513 15.8637 20.1569 16 19.529 16C18.6074 16 17.7725 15.7615 17.0244 15.2844C16.2764 14.7937 15.682 14.1189 15.2412 13.2602C14.8137 12.4015 14.6 11.4269 14.6 10.3364C14.6 9.24594 14.8137 8.27134 15.2412 7.4126C15.6686 6.54023 16.2497 5.8655 16.9844 5.38842C17.7324 4.89772 18.5539 4.65236 19.4489 4.65236C20.0901 4.65236 20.6912 4.77504 21.2522 5.02039C21.8132 5.25212 22.2874 5.55199 22.6748 5.92003V5.89958C22.6748 5.54518 22.7884 5.25212 23.0155 5.02039C23.2425 4.77504 23.5297 4.65236 23.877 4.65236ZM19.8296 13.7509C20.6979 13.7509 21.4058 13.4306 21.9535 12.7899C22.5012 12.1357 22.775 11.3178 22.775 10.3364C22.775 9.35499 22.5012 8.53714 21.9535 7.88286C21.4058 7.22858 20.6979 6.90144 19.8296 6.90144C18.9747 6.90144 18.2734 7.22858 17.7257 7.88286C17.1781 8.53714 16.9042 9.35499 16.9042 10.3364C16.9042 11.3178 17.1714 12.1357 17.7057 12.7899C18.2534 13.4306 18.9613 13.7509 19.8296 13.7509Z"/>
<path d="M27.7816 2.19802C27.7816 1.81865 27.8893 1.5258 28.1045 1.31947C28.3263 1.10649 28.6622 1 29.1122 1C29.5622 1 29.8949 1.10649 30.1101 1.31947C30.3319 1.5258 30.4428 1.81865 30.4428 2.19802V12.471C30.4428 12.7306 30.4591 12.9469 30.4917 13.12C30.5243 13.293 30.57 13.4295 30.6287 13.5293C30.6939 13.6291 30.7689 13.699 30.8537 13.7389C30.9385 13.7789 31.0331 13.7988 31.1374 13.7988C31.2287 13.7988 31.3103 13.7955 31.382 13.7889C31.4537 13.7755 31.5255 13.7689 31.5972 13.7689C31.682 13.7689 31.7636 13.7855 31.8418 13.8188C31.9201 13.8521 31.9886 13.902 32.0473 13.9686C32.106 14.0351 32.1516 14.1183 32.1843 14.2181C32.2234 14.3113 32.243 14.4211 32.243 14.5476C32.243 14.7406 32.2136 14.9037 32.1549 15.0368C32.1027 15.1699 32.0277 15.2864 31.9299 15.3862C31.8647 15.4528 31.7864 15.516 31.6951 15.5759C31.6038 15.6358 31.4929 15.6924 31.3624 15.7456C31.2385 15.7922 31.0885 15.8288 30.9124 15.8554C30.7363 15.8887 30.5341 15.9054 30.3058 15.9054C29.4775 15.9054 28.848 15.6824 28.4176 15.2365C27.9936 14.7839 27.7816 14.1017 27.7816 13.1898V2.19802Z"/>
<path d="M34.2897 2.19802C34.2897 1.81865 34.3973 1.5258 34.6125 1.31947C34.8343 1.10649 35.1702 1 35.6203 1C36.0703 1 36.4029 1.10649 36.6182 1.31947C36.8399 1.5258 36.9508 1.81865 36.9508 2.19802V12.471C36.9508 12.7306 36.9671 12.9469 36.9997 13.12C37.0324 13.293 37.078 13.4295 37.1367 13.5293C37.2019 13.6291 37.2769 13.699 37.3617 13.7389C37.4465 13.7789 37.5411 13.7988 37.6455 13.7988C37.7368 13.7988 37.8183 13.7955 37.89 13.7889C37.9618 13.7755 38.0335 13.7689 38.1053 13.7689C38.1901 13.7689 38.2716 13.7855 38.3499 13.8188C38.4281 13.8521 38.4966 13.902 38.5553 13.9686C38.614 14.0351 38.6597 14.1183 38.6923 14.2181C38.7314 14.3113 38.751 14.4211 38.751 14.5476C38.751 14.7406 38.7217 14.9037 38.663 15.0368C38.6108 15.1699 38.5358 15.2864 38.4379 15.3862C38.3727 15.4528 38.2944 15.516 38.2031 15.5759C38.1118 15.6358 38.0009 15.6924 37.8705 15.7456C37.7466 15.7922 37.5965 15.8288 37.4204 15.8554C37.2443 15.8887 37.0421 15.9054 36.8139 15.9054C35.9855 15.9054 35.3561 15.6824 34.9256 15.2365C34.5017 14.7839 34.2897 14.1017 34.2897 13.1898V2.19802Z"/>
<path d="M51 10.3364C51 11.4269 50.7596 12.4083 50.2787 13.2807C49.7978 14.1394 49.1366 14.8073 48.295 15.2844C47.4668 15.7615 46.5518 16 45.55 16C44.5348 16 43.6131 15.7615 42.7849 15.2844C41.9567 14.8073 41.3022 14.1394 40.8213 13.2807C40.3404 12.4083 40.1 11.4269 40.1 10.3364C40.1 9.24594 40.3404 8.27134 40.8213 7.4126C41.3022 6.54023 41.9567 5.8655 42.7849 5.38842C43.6131 4.89772 44.5348 4.65236 45.55 4.65236C46.5518 4.65236 47.4668 4.89772 48.295 5.38842C49.1366 5.8655 49.7978 6.54023 50.2787 7.4126C50.7596 8.27134 51 9.24594 51 10.3364ZM48.5956 10.3364C48.5956 9.6685 48.4553 9.07555 48.1748 8.55759C47.9076 8.02598 47.5403 7.61706 47.0728 7.33081C46.6186 7.04457 46.111 6.90144 45.55 6.90144C44.989 6.90144 44.4747 7.04457 44.0071 7.33081C43.553 7.61706 43.1856 8.02598 42.9051 8.55759C42.638 9.07555 42.5044 9.6685 42.5044 10.3364C42.5044 11.0043 42.638 11.5973 42.9051 12.1152C43.1856 12.6332 43.553 13.0353 44.0071 13.3215C44.4747 13.6078 44.989 13.7509 45.55 13.7509C46.111 13.7509 46.6186 13.6078 47.0728 13.3215C47.5403 13.0353 47.9076 12.6332 48.1748 12.1152C48.4553 11.5973 48.5956 11.0043 48.5956 10.3364Z"/>
</mask>
<path d="M11.1587 1.4832C11.5327 1.4832 11.8332 1.59906 12.0603 1.83079C12.2874 2.06251 12.4009 2.36239 12.4009 2.73042V14.5483C12.4009 14.9027 12.2807 15.2026 12.0403 15.448C11.7998 15.6797 11.4926 15.7955 11.1186 15.7955C10.7846 15.7955 10.4975 15.6797 10.257 15.448C10.0166 15.2026 9.89635 14.9027 9.89635 14.5483V9.78436H3.5046V14.5483C3.5046 14.9027 3.3777 15.2026 3.1239 15.448C2.8701 15.6797 2.57623 15.7955 2.24228 15.7955C1.88162 15.7955 1.58107 15.6797 1.34063 15.448C1.11354 15.2026 1 14.9027 1 14.5483V2.73042C1 2.37602 1.12022 2.08296 1.36066 1.85123C1.6011 1.60588 1.90834 1.4832 2.28236 1.4832C2.6163 1.4832 2.9035 1.60588 3.14394 1.85123C3.38438 2.08296 3.5046 2.37602 3.5046 2.73042V7.43304H9.89635V2.73042C9.89635 2.37602 10.0232 2.08296 10.277 1.85123C10.5308 1.60588 10.8247 1.4832 11.1587 1.4832Z" fill="white"/>
<path d="M23.877 4.65236C24.2243 4.65236 24.5115 4.76822 24.7386 4.99995C24.9657 5.23167 25.0792 5.53155 25.0792 5.89958V14.5483C25.0792 14.9027 24.9657 15.2026 24.7386 15.448C24.5115 15.6797 24.2243 15.7955 23.877 15.7955C23.5297 15.7955 23.2425 15.6797 23.0155 15.448C22.8017 15.2162 22.6882 14.9232 22.6748 14.5688C22.3409 14.9641 21.8867 15.3048 21.3123 15.5911C20.7513 15.8637 20.1569 16 19.529 16C18.6074 16 17.7725 15.7615 17.0244 15.2844C16.2764 14.7937 15.682 14.1189 15.2412 13.2602C14.8137 12.4015 14.6 11.4269 14.6 10.3364C14.6 9.24594 14.8137 8.27134 15.2412 7.4126C15.6686 6.54023 16.2497 5.8655 16.9844 5.38842C17.7324 4.89772 18.5539 4.65236 19.4489 4.65236C20.0901 4.65236 20.6912 4.77504 21.2522 5.02039C21.8132 5.25212 22.2874 5.55199 22.6748 5.92003V5.89958C22.6748 5.54518 22.7884 5.25212 23.0155 5.02039C23.2425 4.77504 23.5297 4.65236 23.877 4.65236ZM19.8296 13.7509C20.6979 13.7509 21.4058 13.4306 21.9535 12.7899C22.5012 12.1357 22.775 11.3178 22.775 10.3364C22.775 9.35499 22.5012 8.53714 21.9535 7.88286C21.4058 7.22858 20.6979 6.90144 19.8296 6.90144C18.9747 6.90144 18.2734 7.22858 17.7257 7.88286C17.1781 8.53714 16.9042 9.35499 16.9042 10.3364C16.9042 11.3178 17.1714 12.1357 17.7057 12.7899C18.2534 13.4306 18.9613 13.7509 19.8296 13.7509Z" fill="white"/>
<path d="M27.7816 2.19802C27.7816 1.81865 27.8893 1.5258 28.1045 1.31947C28.3263 1.10649 28.6622 1 29.1122 1C29.5622 1 29.8949 1.10649 30.1101 1.31947C30.3319 1.5258 30.4428 1.81865 30.4428 2.19802V12.471C30.4428 12.7306 30.4591 12.9469 30.4917 13.12C30.5243 13.293 30.57 13.4295 30.6287 13.5293C30.6939 13.6291 30.7689 13.699 30.8537 13.7389C30.9385 13.7789 31.0331 13.7988 31.1374 13.7988C31.2287 13.7988 31.3103 13.7955 31.382 13.7889C31.4537 13.7755 31.5255 13.7689 31.5972 13.7689C31.682 13.7689 31.7636 13.7855 31.8418 13.8188C31.9201 13.8521 31.9886 13.902 32.0473 13.9686C32.106 14.0351 32.1516 14.1183 32.1843 14.2181C32.2234 14.3113 32.243 14.4211 32.243 14.5476C32.243 14.7406 32.2136 14.9037 32.1549 15.0368C32.1027 15.1699 32.0277 15.2864 31.9299 15.3862C31.8647 15.4528 31.7864 15.516 31.6951 15.5759C31.6038 15.6358 31.4929 15.6924 31.3624 15.7456C31.2385 15.7922 31.0885 15.8288 30.9124 15.8554C30.7363 15.8887 30.5341 15.9054 30.3058 15.9054C29.4775 15.9054 28.848 15.6824 28.4176 15.2365C27.9936 14.7839 27.7816 14.1017 27.7816 13.1898V2.19802Z" fill="white"/>
<path d="M34.2897 2.19802C34.2897 1.81865 34.3973 1.5258 34.6125 1.31947C34.8343 1.10649 35.1702 1 35.6203 1C36.0703 1 36.4029 1.10649 36.6182 1.31947C36.8399 1.5258 36.9508 1.81865 36.9508 2.19802V12.471C36.9508 12.7306 36.9671 12.9469 36.9997 13.12C37.0324 13.293 37.078 13.4295 37.1367 13.5293C37.2019 13.6291 37.2769 13.699 37.3617 13.7389C37.4465 13.7789 37.5411 13.7988 37.6455 13.7988C37.7368 13.7988 37.8183 13.7955 37.89 13.7889C37.9618 13.7755 38.0335 13.7689 38.1053 13.7689C38.1901 13.7689 38.2716 13.7855 38.3499 13.8188C38.4281 13.8521 38.4966 13.902 38.5553 13.9686C38.614 14.0351 38.6597 14.1183 38.6923 14.2181C38.7314 14.3113 38.751 14.4211 38.751 14.5476C38.751 14.7406 38.7217 14.9037 38.663 15.0368C38.6108 15.1699 38.5358 15.2864 38.4379 15.3862C38.3727 15.4528 38.2944 15.516 38.2031 15.5759C38.1118 15.6358 38.0009 15.6924 37.8705 15.7456C37.7466 15.7922 37.5965 15.8288 37.4204 15.8554C37.2443 15.8887 37.0421 15.9054 36.8139 15.9054C35.9855 15.9054 35.3561 15.6824 34.9256 15.2365C34.5017 14.7839 34.2897 14.1017 34.2897 13.1898V2.19802Z" fill="white"/>
<path d="M51 10.3364C51 11.4269 50.7596 12.4083 50.2787 13.2807C49.7978 14.1394 49.1366 14.8073 48.295 15.2844C47.4668 15.7615 46.5518 16 45.55 16C44.5348 16 43.6131 15.7615 42.7849 15.2844C41.9567 14.8073 41.3022 14.1394 40.8213 13.2807C40.3404 12.4083 40.1 11.4269 40.1 10.3364C40.1 9.24594 40.3404 8.27134 40.8213 7.4126C41.3022 6.54023 41.9567 5.8655 42.7849 5.38842C43.6131 4.89772 44.5348 4.65236 45.55 4.65236C46.5518 4.65236 47.4668 4.89772 48.295 5.38842C49.1366 5.8655 49.7978 6.54023 50.2787 7.4126C50.7596 8.27134 51 9.24594 51 10.3364ZM48.5956 10.3364C48.5956 9.6685 48.4553 9.07555 48.1748 8.55759C47.9076 8.02598 47.5403 7.61706 47.0728 7.33081C46.6186 7.04457 46.111 6.90144 45.55 6.90144C44.989 6.90144 44.4747 7.04457 44.0071 7.33081C43.553 7.61706 43.1856 8.02598 42.9051 8.55759C42.638 9.07555 42.5044 9.6685 42.5044 10.3364C42.5044 11.0043 42.638 11.5973 42.9051 12.1152C43.1856 12.6332 43.553 13.0353 44.0071 13.3215C44.4747 13.6078 44.989 13.7509 45.55 13.7509C46.111 13.7509 46.6186 13.6078 47.0728 13.3215C47.5403 13.0353 47.9076 12.6332 48.1748 12.1152C48.4553 11.5973 48.5956 11.0043 48.5956 10.3364Z" fill="white"/>
<path d="M11.1587 1.4832C11.5327 1.4832 11.8332 1.59906 12.0603 1.83079C12.2874 2.06251 12.4009 2.36239 12.4009 2.73042V14.5483C12.4009 14.9027 12.2807 15.2026 12.0403 15.448C11.7998 15.6797 11.4926 15.7955 11.1186 15.7955C10.7846 15.7955 10.4975 15.6797 10.257 15.448C10.0166 15.2026 9.89635 14.9027 9.89635 14.5483V9.78436H3.5046V14.5483C3.5046 14.9027 3.3777 15.2026 3.1239 15.448C2.8701 15.6797 2.57623 15.7955 2.24228 15.7955C1.88162 15.7955 1.58107 15.6797 1.34063 15.448C1.11354 15.2026 1 14.9027 1 14.5483V2.73042C1 2.37602 1.12022 2.08296 1.36066 1.85123C1.6011 1.60588 1.90834 1.4832 2.28236 1.4832C2.6163 1.4832 2.9035 1.60588 3.14394 1.85123C3.38438 2.08296 3.5046 2.37602 3.5046 2.73042V7.43304H9.89635V2.73042C9.89635 2.37602 10.0232 2.08296 10.277 1.85123C10.5308 1.60588 10.8247 1.4832 11.1587 1.4832Z" stroke="white" stroke-width="0.2" mask="url(#path-1-outside-1_15868_9680)"/>
<path d="M23.877 4.65236C24.2243 4.65236 24.5115 4.76822 24.7386 4.99995C24.9657 5.23167 25.0792 5.53155 25.0792 5.89958V14.5483C25.0792 14.9027 24.9657 15.2026 24.7386 15.448C24.5115 15.6797 24.2243 15.7955 23.877 15.7955C23.5297 15.7955 23.2425 15.6797 23.0155 15.448C22.8017 15.2162 22.6882 14.9232 22.6748 14.5688C22.3409 14.9641 21.8867 15.3048 21.3123 15.5911C20.7513 15.8637 20.1569 16 19.529 16C18.6074 16 17.7725 15.7615 17.0244 15.2844C16.2764 14.7937 15.682 14.1189 15.2412 13.2602C14.8137 12.4015 14.6 11.4269 14.6 10.3364C14.6 9.24594 14.8137 8.27134 15.2412 7.4126C15.6686 6.54023 16.2497 5.8655 16.9844 5.38842C17.7324 4.89772 18.5539 4.65236 19.4489 4.65236C20.0901 4.65236 20.6912 4.77504 21.2522 5.02039C21.8132 5.25212 22.2874 5.55199 22.6748 5.92003V5.89958C22.6748 5.54518 22.7884 5.25212 23.0155 5.02039C23.2425 4.77504 23.5297 4.65236 23.877 4.65236ZM19.8296 13.7509C20.6979 13.7509 21.4058 13.4306 21.9535 12.7899C22.5012 12.1357 22.775 11.3178 22.775 10.3364C22.775 9.35499 22.5012 8.53714 21.9535 7.88286C21.4058 7.22858 20.6979 6.90144 19.8296 6.90144C18.9747 6.90144 18.2734 7.22858 17.7257 7.88286C17.1781 8.53714 16.9042 9.35499 16.9042 10.3364C16.9042 11.3178 17.1714 12.1357 17.7057 12.7899C18.2534 13.4306 18.9613 13.7509 19.8296 13.7509Z" stroke="white" stroke-width="0.2" mask="url(#path-1-outside-1_15868_9680)"/>
<path d="M27.7816 2.19802C27.7816 1.81865 27.8893 1.5258 28.1045 1.31947C28.3263 1.10649 28.6622 1 29.1122 1C29.5622 1 29.8949 1.10649 30.1101 1.31947C30.3319 1.5258 30.4428 1.81865 30.4428 2.19802V12.471C30.4428 12.7306 30.4591 12.9469 30.4917 13.12C30.5243 13.293 30.57 13.4295 30.6287 13.5293C30.6939 13.6291 30.7689 13.699 30.8537 13.7389C30.9385 13.7789 31.0331 13.7988 31.1374 13.7988C31.2287 13.7988 31.3103 13.7955 31.382 13.7889C31.4537 13.7755 31.5255 13.7689 31.5972 13.7689C31.682 13.7689 31.7636 13.7855 31.8418 13.8188C31.9201 13.8521 31.9886 13.902 32.0473 13.9686C32.106 14.0351 32.1516 14.1183 32.1843 14.2181C32.2234 14.3113 32.243 14.4211 32.243 14.5476C32.243 14.7406 32.2136 14.9037 32.1549 15.0368C32.1027 15.1699 32.0277 15.2864 31.9299 15.3862C31.8647 15.4528 31.7864 15.516 31.6951 15.5759C31.6038 15.6358 31.4929 15.6924 31.3624 15.7456C31.2385 15.7922 31.0885 15.8288 30.9124 15.8554C30.7363 15.8887 30.5341 15.9054 30.3058 15.9054C29.4775 15.9054 28.848 15.6824 28.4176 15.2365C27.9936 14.7839 27.7816 14.1017 27.7816 13.1898V2.19802Z" stroke="white" stroke-width="0.2" mask="url(#path-1-outside-1_15868_9680)"/>
<path d="M34.2897 2.19802C34.2897 1.81865 34.3973 1.5258 34.6125 1.31947C34.8343 1.10649 35.1702 1 35.6203 1C36.0703 1 36.4029 1.10649 36.6182 1.31947C36.8399 1.5258 36.9508 1.81865 36.9508 2.19802V12.471C36.9508 12.7306 36.9671 12.9469 36.9997 13.12C37.0324 13.293 37.078 13.4295 37.1367 13.5293C37.2019 13.6291 37.2769 13.699 37.3617 13.7389C37.4465 13.7789 37.5411 13.7988 37.6455 13.7988C37.7368 13.7988 37.8183 13.7955 37.89 13.7889C37.9618 13.7755 38.0335 13.7689 38.1053 13.7689C38.1901 13.7689 38.2716 13.7855 38.3499 13.8188C38.4281 13.8521 38.4966 13.902 38.5553 13.9686C38.614 14.0351 38.6597 14.1183 38.6923 14.2181C38.7314 14.3113 38.751 14.4211 38.751 14.5476C38.751 14.7406 38.7217 14.9037 38.663 15.0368C38.6108 15.1699 38.5358 15.2864 38.4379 15.3862C38.3727 15.4528 38.2944 15.516 38.2031 15.5759C38.1118 15.6358 38.0009 15.6924 37.8705 15.7456C37.7466 15.7922 37.5965 15.8288 37.4204 15.8554C37.2443 15.8887 37.0421 15.9054 36.8139 15.9054C35.9855 15.9054 35.3561 15.6824 34.9256 15.2365C34.5017 14.7839 34.2897 14.1017 34.2897 13.1898V2.19802Z" stroke="white" stroke-width="0.2" mask="url(#path-1-outside-1_15868_9680)"/>
<path d="M51 10.3364C51 11.4269 50.7596 12.4083 50.2787 13.2807C49.7978 14.1394 49.1366 14.8073 48.295 15.2844C47.4668 15.7615 46.5518 16 45.55 16C44.5348 16 43.6131 15.7615 42.7849 15.2844C41.9567 14.8073 41.3022 14.1394 40.8213 13.2807C40.3404 12.4083 40.1 11.4269 40.1 10.3364C40.1 9.24594 40.3404 8.27134 40.8213 7.4126C41.3022 6.54023 41.9567 5.8655 42.7849 5.38842C43.6131 4.89772 44.5348 4.65236 45.55 4.65236C46.5518 4.65236 47.4668 4.89772 48.295 5.38842C49.1366 5.8655 49.7978 6.54023 50.2787 7.4126C50.7596 8.27134 51 9.24594 51 10.3364ZM48.5956 10.3364C48.5956 9.6685 48.4553 9.07555 48.1748 8.55759C47.9076 8.02598 47.5403 7.61706 47.0728 7.33081C46.6186 7.04457 46.111 6.90144 45.55 6.90144C44.989 6.90144 44.4747 7.04457 44.0071 7.33081C43.553 7.61706 43.1856 8.02598 42.9051 8.55759C42.638 9.07555 42.5044 9.6685 42.5044 10.3364C42.5044 11.0043 42.638 11.5973 42.9051 12.1152C43.1856 12.6332 43.553 13.0353 44.0071 13.3215C44.4747 13.6078 44.989 13.7509 45.55 13.7509C46.111 13.7509 46.6186 13.6078 47.0728 13.3215C47.5403 13.0353 47.9076 12.6332 48.1748 12.1152C48.4553 11.5973 48.5956 11.0043 48.5956 10.3364Z" stroke="white" stroke-width="0.2" mask="url(#path-1-outside-1_15868_9680)"/>
</svg>
