<svg width="20" height="20" viewBox="0 0 20 20" fill="none" xmlns="http://www.w3.org/2000/svg">
<path d="M20 10C20 15.5229 15.5228 20 10 20C4.47715 20 0 15.5229 0 10C0 4.47715 4.47715 0 10 0C15.5228 0 20 4.47715 20 10Z" fill="white"/>
<path d="M15.579 7.45048L12.01 7.14075L10.6162 3.88858C10.568 3.77345 10.4868 3.67515 10.3828 3.60601C10.2789 3.53688 10.1568 3.5 10.032 3.5C9.90714 3.5 9.78508 3.53688 9.68114 3.60601C9.57719 3.67515 9.49598 3.77345 9.44771 3.88858L8.03984 7.18299L4.47794 7.48568C4.35292 7.49497 4.23347 7.54114 4.13471 7.61835C4.03594 7.69556 3.9623 7.80034 3.92311 7.91942C3.88392 8.0385 3.88094 8.16653 3.91454 8.2873C3.94815 8.40808 4.01683 8.51617 4.11189 8.59789L6.83612 10.9279L6.01955 14.4476C5.98915 14.5703 5.99576 14.6994 6.03856 14.8184C6.08136 14.9374 6.15843 15.0411 6.26005 15.1163C6.36168 15.1916 6.48332 15.2351 6.60963 15.2414C6.73595 15.2476 6.86129 15.2164 6.96987 15.1515L10.032 13.2298L13.1011 15.0811C13.2092 15.1474 13.3346 15.1798 13.4612 15.174C13.5878 15.1683 13.7098 15.1247 13.8113 15.0489C13.9129 14.9731 13.9894 14.8685 14.031 14.7488C14.0725 14.6291 14.0772 14.4996 14.0444 14.3772L13.2349 10.8575L15.938 8.50638C16.0158 8.42261 16.0695 8.31934 16.0934 8.20753C16.1172 8.09572 16.1104 7.97954 16.0736 7.87129C16.0368 7.76304 15.9714 7.66677 15.8843 7.59269C15.7972 7.5186 15.6917 7.46946 15.579 7.45048Z" fill="#FFAC2F"/>
</svg>
