<svg width="20" height="20" viewBox="0 0 20 20" fill="none" xmlns="http://www.w3.org/2000/svg">
<path d="M9.35938 13.5098L10.7456 12.1235C9.82422 12.0322 9.12695 11.7168 8.64551 11.2354C7.26758 9.85742 7.26758 7.92334 8.63721 6.55371L11.4263 3.77295C12.8042 2.39502 14.73 2.39502 16.0996 3.76465C17.4858 5.15088 17.4775 7.07666 16.1079 8.44629L14.8379 9.71631C15.1284 10.3804 15.2363 11.2021 15.0537 11.9243L17.3862 9.5918C19.4697 7.5332 19.4697 4.57812 17.3779 2.49463C15.2861 0.394531 12.3477 0.411133 10.2808 2.47803L7.35889 5.4082C5.28369 7.4751 5.27539 10.4219 7.36719 12.5054C7.82373 12.9702 8.47119 13.3354 9.35938 13.5098ZM10.4966 6.396L9.11865 7.77393C10.0317 7.87354 10.729 8.18066 11.2104 8.66211C12.5884 10.04 12.5884 11.9741 11.2188 13.3438L8.42969 16.1328C7.06006 17.5024 5.13428 17.5024 3.75635 16.1328C2.37842 14.7466 2.37842 12.8208 3.74805 11.4512L5.01807 10.1812C4.72754 9.51709 4.61963 8.69531 4.80225 7.97314L2.46973 10.3057C0.38623 12.3643 0.38623 15.3193 2.47803 17.4028C4.56982 19.5029 7.5083 19.4863 9.5835 17.4194L12.5054 14.4893C14.5723 12.4224 14.5806 9.47559 12.4888 7.39209C12.0322 6.92725 11.3848 6.56201 10.4966 6.396Z" fill="#007AFF"/>
</svg>
