<svg width="22" height="34" viewBox="0 0 22 34" fill="none" xmlns="http://www.w3.org/2000/svg">
<path d="M12.6547 26.8333C12.2305 27.2294 11.7 27.4393 11.0014 27.4393C10.2955 27.4393 9.76363 27.2283 9.34399 26.8346C9.16105 26.663 9.01408 26.4851 8.89983 26.3H13.101C12.9865 26.4841 12.8388 26.6614 12.6547 26.8333Z" stroke="black" stroke-width="1.6"/>
<path d="M18.7309 20.5364L18.7309 20.5364L18.7374 20.5432C19.2 21.0287 19.6499 21.5156 20.0874 22.01C20.4328 22.4002 20.5541 22.7447 20.5541 23.0607C20.5541 23.2005 20.5153 23.2656 20.4443 23.3257C20.3656 23.3922 20.2103 23.4717 19.8801 23.4717H2.12866H2.11998C1.78339 23.4717 1.62877 23.3906 1.55625 23.3285C1.4847 23.2673 1.446 23.2029 1.446 23.0607C1.446 22.7447 1.56732 22.4002 1.91269 22.01C2.35009 21.5158 2.80187 21.0271 3.26516 20.5467L3.27011 20.5416L3.27496 20.5364C3.64612 20.1376 3.90352 19.6448 4.07237 19.0969L4.07278 19.0955C4.22998 18.5822 4.3393 18.0403 4.41319 17.4769C4.48463 16.9321 4.53812 16.397 4.57672 15.8804L4.57794 15.864L4.5785 15.8476C4.6425 13.9386 4.97535 12.3894 5.54206 11.1694C6.07183 10.0289 6.93241 9.25652 8.17442 8.82506L8.5808 8.68389L8.68709 8.26702C8.83413 7.69037 9.11754 7.21807 9.54058 6.83097C9.92451 6.48209 10.3894 6.3 11.0015 6.3C11.6157 6.3 12.0813 6.4833 12.4572 6.82882C12.8788 7.21648 13.1645 7.69119 13.3174 8.27281L13.426 8.68604L13.8299 8.82553C15.0693 9.25358 15.927 10.0272 16.4545 11.1681L16.4548 11.1687C17.0189 12.386 17.3518 13.9383 17.4158 15.8476L17.4167 15.8732L17.4192 15.8986C17.4687 16.4059 17.5244 16.9309 17.5921 17.4721C17.6636 18.0441 17.7764 18.5869 17.9331 19.0955C18.1025 19.6488 18.3605 20.1384 18.7309 20.5364Z" stroke="black" stroke-width="1.6"/>
</svg>
