<svg width="21" height="23" viewBox="0 0 21 23" fill="none" xmlns="http://www.w3.org/2000/svg">
<path d="M0.56128 17.5637C0.56128 17.9147 0.687636 18.1983 0.940348 18.4145C1.19306 18.6307 1.54405 18.7374 1.99332 18.7374H6.80608C6.82854 19.4113 7.00544 20.0347 7.33677 20.6075C7.66811 21.1803 8.11737 21.638 8.68176 21.9833C9.24615 22.3259 9.89197 22.5 10.6192 22.5C11.3465 22.5 11.9951 22.3287 12.5595 21.9833C13.1239 21.6408 13.5675 21.1831 13.8961 20.6131C14.2246 20.0431 14.4015 19.4169 14.4296 18.7374H19.2423C19.6888 18.7374 20.037 18.6307 20.2925 18.4145C20.548 18.1983 20.6744 17.9147 20.6744 17.5637C20.6744 17.0274 20.4582 16.5163 20.0257 16.0278C19.5933 15.5392 19.1497 15.059 18.6948 14.5817C18.4308 14.2953 18.2315 13.9274 18.0939 13.481C17.9563 13.0345 17.8552 12.5544 17.7906 12.0377C17.7261 11.5211 17.6727 11.0184 17.625 10.5299C17.5604 8.5559 17.2234 6.92731 16.6197 5.6441C16.016 4.36088 15.0164 3.4792 13.6181 2.99623C13.4496 2.28864 13.1014 1.69617 12.5707 1.21602C12.04 0.738673 11.3886 0.5 10.6164 0.5C9.84424 0.5 9.19842 0.738673 8.66773 1.21602C8.13703 1.69336 7.78604 2.28583 7.61757 2.99623C6.21922 3.4792 5.2168 4.36088 4.61029 5.6441C4.00378 6.92731 3.66683 8.5559 3.60225 10.5299C3.56575 11.0184 3.5152 11.5211 3.44781 12.0377C3.38323 12.5544 3.28215 13.0345 3.14456 13.481C3.00697 13.9274 2.80761 14.2925 2.54367 14.5817C2.08598 15.0562 1.63952 15.5392 1.2071 16.0278C0.774681 16.5163 0.558472 17.0274 0.558472 17.5637H0.56128ZM2.39485 17.2997V17.1706C2.47628 16.9853 2.6616 16.7354 2.95081 16.4153C3.24003 16.0951 3.53205 15.775 3.82407 15.4521C4.11329 15.132 4.34354 14.7361 4.51763 14.27C4.68891 13.8011 4.82088 13.2648 4.91074 12.6583C5.00059 12.0518 5.06798 11.3891 5.11852 10.6646C5.16345 9.21857 5.33192 8.06171 5.62114 7.19406C5.91035 6.32642 6.29785 5.66937 6.78081 5.22291C7.26377 4.77645 7.81412 4.47039 8.42624 4.30472C8.56945 4.26822 8.68457 4.21487 8.76319 4.14186C8.84462 4.06886 8.88955 3.95935 8.89797 3.81615C8.92886 3.26018 9.09734 2.80249 9.40059 2.44588C9.70384 2.08647 10.1082 1.90676 10.6192 1.90676C11.1303 1.90676 11.5346 2.08647 11.8379 2.44588C12.1411 2.8053 12.3068 3.26018 12.3349 3.81615C12.3433 3.96216 12.3882 4.06886 12.4668 4.14186C12.5455 4.21487 12.6578 4.26822 12.8038 4.30472C13.4243 4.4732 13.9747 4.77926 14.4548 5.22291C14.935 5.66937 15.3197 6.32642 15.6117 7.19406C15.9009 8.06171 16.0722 9.21857 16.1255 10.6646C16.1733 11.3891 16.2435 12.0546 16.3333 12.6583C16.4232 13.2648 16.5523 13.8011 16.7208 14.27C16.8893 14.7389 17.1224 15.132 17.4172 15.4521C17.7092 15.7722 18.0012 16.0951 18.2904 16.4153C18.5797 16.7354 18.765 16.9881 18.8464 17.1706V17.2997H2.39485ZM8.28304 18.7374H12.9526C12.9105 19.4787 12.6746 20.0683 12.2422 20.5064C11.8098 20.9444 11.2707 21.1634 10.6164 21.1634C9.96217 21.1634 9.42025 20.9444 8.99063 20.5064C8.56102 20.0683 8.32516 19.4787 8.28023 18.7374H8.28304Z" fill="black"/>
</svg>
