<svg width="24" height="24" viewBox="0 0 24 24" fill="none" xmlns="http://www.w3.org/2000/svg">
<g clip-path="url(#clip0_11166_3443)">
<path fill-rule="evenodd" clip-rule="evenodd" d="M2.3501 8.2501C2.3501 4.99162 4.99162 2.3501 8.2501 2.3501H15.7501C19.0086 2.3501 21.6501 4.99162 21.6501 8.2501V15.7501C21.6501 19.0086 19.0086 21.6501 15.7501 21.6501H8.2501C4.99162 21.6501 2.3501 19.0086 2.3501 15.7501V8.2501ZM8.2501 4.1501C5.98573 4.1501 4.1501 5.98573 4.1501 8.2501V15.7501C4.1501 18.0145 5.98573 19.8501 8.2501 19.8501H15.7501C18.0145 19.8501 19.8501 18.0145 19.8501 15.7501V8.2501C19.8501 5.98573 18.0145 4.1501 15.7501 4.1501H8.2501Z" fill="#007AFF"/>
<path fill-rule="evenodd" clip-rule="evenodd" d="M12.0795 9.34541C10.563 9.34541 9.33369 10.5748 9.33369 12.0912C9.33369 13.6077 10.563 14.8371 12.0795 14.8371C13.596 14.8371 14.8254 13.6077 14.8254 12.0912C14.8254 10.5748 13.596 9.34541 12.0795 9.34541ZM7.53369 12.0912C7.53369 9.58065 9.56893 7.54541 12.0795 7.54541C14.5901 7.54541 16.6254 9.58065 16.6254 12.0912C16.6254 14.6018 14.5901 16.6371 12.0795 16.6371C9.56893 16.6371 7.53369 14.6018 7.53369 12.0912Z" fill="#007AFF"/>
<path d="M18.2777 7.16935C18.2777 7.87409 17.7064 8.44539 17.0016 8.44539C16.2969 8.44539 15.7256 7.87409 15.7256 7.16935C15.7256 6.46461 16.2969 5.89331 17.0016 5.89331C17.7064 5.89331 18.2777 6.46461 18.2777 7.16935Z" fill="#007AFF"/>
</g>
<defs>
<clipPath id="clip0_11166_3443">
<rect width="24" height="24" fill="white"/>
</clipPath>
</defs>
</svg>
