<svg width="18" height="18" viewBox="0 0 18 18" fill="none" xmlns="http://www.w3.org/2000/svg">
<path fill-rule="evenodd" clip-rule="evenodd" d="M0.875 6.5C0.875 3.3934 3.3934 0.875 6.5 0.875H12C15.1066 0.875 17.625 3.3934 17.625 6.5V12C17.625 15.1066 15.1066 17.625 12 17.625H6.5C3.3934 17.625 0.875 15.1066 0.875 12V6.5ZM6.5 2.125C4.08375 2.125 2.125 4.08375 2.125 6.5V12C2.125 14.4162 4.08375 16.375 6.5 16.375H12C14.4162 16.375 16.375 14.4162 16.375 12V6.5C16.375 4.08375 14.4162 2.125 12 2.125H6.5ZM9.32023 6.72656C7.88199 6.72656 6.71606 7.89249 6.71606 9.33073C6.71606 10.769 7.88199 11.9349 9.32023 11.9349C10.7585 11.9349 11.9244 10.769 11.9244 9.33073C11.9244 7.89249 10.7585 6.72656 9.32023 6.72656ZM5.46606 9.33073C5.46606 7.20213 7.19163 5.47656 9.32023 5.47656C11.4488 5.47656 13.1744 7.20213 13.1744 9.33073C13.1744 11.4593 11.4488 13.1849 9.32023 13.1849C7.19163 13.1849 5.46606 11.4593 5.46606 9.33073ZM13.68 6.10124C14.3042 6.10124 14.8102 5.59523 14.8102 4.97103C14.8102 4.34683 14.3042 3.84082 13.68 3.84082C13.0558 3.84082 12.5498 4.34683 12.5498 4.97103C12.5498 5.59523 13.0558 6.10124 13.68 6.10124Z" fill="black"/>
</svg>
