<svg width="105" height="121" viewBox="0 0 105 121" fill="none" xmlns="http://www.w3.org/2000/svg">
<path fill-rule="evenodd" clip-rule="evenodd" d="M52.5 8.28129C46.18 2.77538 38.3725 0.398438 31.3624 0.398438C23.9421 0.398438 15.7764 3.07183 9.37428 9.09735C2.10122 15.9426 0 24.6395 0 31.4174V89.5079C0 96.2858 2.10122 104.983 9.37427 111.828C15.6426 117.728 23.7461 120.578 31.3624 120.578C38.5532 120.578 46.3028 118.046 52.5 112.644C58.6972 118.046 66.4468 120.578 73.6376 120.578C81.2539 120.578 89.3574 117.728 95.6257 111.828C102.899 104.983 105 96.2858 105 89.5079V31.4174C105 24.4717 102.777 15.7573 95.4452 8.97588C89.1421 3.11347 81.0993 0.398438 73.6376 0.398438C66.6275 0.398438 58.82 2.77538 52.5 8.28129Z" fill="black"/>
</svg>
