<svg width="11" height="6" viewBox="0 0 11 6" fill="none" xmlns="http://www.w3.org/2000/svg">
<path d="M5.03012 5.54195C5.13649 5.5415 5.2415 5.51817 5.33804 5.47353C5.45069 5.41988 5.55631 5.35258 5.65251 5.27313L9.79906 1.9298C9.88432 1.85862 9.95226 1.76895 9.99771 1.66761C10.0432 1.56626 10.0649 1.45589 10.0614 1.34488C10.0642 1.23698 10.0445 1.12968 10.0035 1.02982C9.96257 0.929955 9.90126 0.839713 9.82351 0.76485C9.712 0.655593 9.57063 0.581811 9.41724 0.552815C9.26384 0.523818 9.10532 0.540904 8.96162 0.60192C8.85676 0.646167 8.75859 0.704847 8.66997 0.776256L5.03012 3.69759L1.39026 0.776256C1.30036 0.705835 1.20181 0.647244 1.09699 0.60192C1.00513 0.563261 0.906634 0.542789 0.806973 0.541637C0.701577 0.5405 0.597002 0.560377 0.499372 0.6001C0.401741 0.639824 0.313013 0.698606 0.23835 0.773005C0.160352 0.847683 0.0988713 0.937887 0.0578977 1.0378C0.016924 1.1377 -0.00262562 1.2451 0.000478412 1.35303C-0.00350378 1.46348 0.0174153 1.57339 0.0616965 1.67465C0.105978 1.7759 0.172477 1.86589 0.25627 1.93795L4.40772 5.28127C4.50363 5.36031 4.60866 5.42759 4.72055 5.48167C4.81804 5.52434 4.92375 5.54493 5.03012 5.54195Z" fill="white"/>
</svg>
