<svg width="26" height="34" viewBox="0 0 26 34" fill="none" xmlns="http://www.w3.org/2000/svg">
<path fill-rule="evenodd" clip-rule="evenodd" d="M14.7679 16.03C15.5571 16.7517 16.6079 17.1919 17.7615 17.1919C20.2121 17.1919 22.1988 15.2053 22.1988 12.7546C22.1988 10.304 20.2121 8.31738 17.7615 8.31738C16.9906 8.31738 16.2656 8.51398 15.6339 8.85978C15.8743 9.34364 16.0569 9.86126 16.1727 10.4036C16.626 10.0967 17.1728 9.91738 17.7615 9.91738C19.3285 9.91738 20.5988 11.1877 20.5988 12.7546C20.5988 14.3216 19.3285 15.5919 17.7615 15.5919C16.9279 15.5919 16.1783 15.2324 15.6592 14.66C15.419 15.1544 15.1188 15.6142 14.7679 16.03Z" fill="black"/>
<path fill-rule="evenodd" clip-rule="evenodd" d="M20.2288 25.2508H23.8424C24.8019 25.2508 25.5797 24.395 25.5797 23.3391V23.1002C25.5797 20.2398 20.371 18.7988 17.7617 18.7988C17.2478 18.7988 16.6331 18.8547 15.9772 18.9663C16.0113 18.981 16.0452 18.9959 16.0791 19.0108C16.925 19.3837 17.7554 19.8524 18.4562 20.4341C19.5042 20.5321 20.855 20.8345 22.0038 21.3409C22.7113 21.6528 23.2475 22.0012 23.585 22.3439C23.9077 22.6717 23.9797 22.9162 23.9797 23.1002V23.3391C23.9797 23.4734 23.9307 23.5665 23.8868 23.6148C23.8655 23.6383 23.849 23.6475 23.8436 23.65L23.8417 23.6508H20.327C20.3392 23.7781 20.3455 23.9078 20.3455 24.0399V24.3246C20.3455 24.6398 20.3052 24.9511 20.2288 25.2508ZM23.8426 23.6508L23.8424 23.6508C23.8425 23.6508 23.8425 23.6508 23.8426 23.6508Z" fill="black"/>
<path fill-rule="evenodd" clip-rule="evenodd" d="M9.73262 15.4712C11.768 15.4712 13.4181 13.8211 13.4181 11.7857C13.4181 9.75026 11.768 8.10022 9.73262 8.10022C7.69719 8.10022 6.04714 9.75026 6.04714 11.7857C6.04714 13.8211 7.69719 15.4712 9.73262 15.4712ZM9.73262 17.0712C12.6517 17.0712 15.0181 14.7048 15.0181 11.7857C15.0181 8.86661 12.6517 6.50022 9.73262 6.50022C6.81353 6.50022 4.44714 8.86661 4.44714 11.7857C4.44714 14.7048 6.81353 17.0712 9.73262 17.0712Z" fill="black"/>
<path fill-rule="evenodd" clip-rule="evenodd" d="M2.57839 22.9245C2.15453 23.355 2.02029 23.7193 2.02029 24.04V24.3246C2.02029 24.5598 2.10649 24.7443 2.21051 24.8588C2.31224 24.9707 2.41258 25.0018 2.48973 25.0018H16.9758C17.053 25.0018 17.1534 24.9707 17.2551 24.8588C17.3591 24.7443 17.4453 24.5598 17.4453 24.3246V24.04C17.4453 23.7192 17.311 23.355 16.8872 22.9245C16.4485 22.479 15.7723 22.0449 14.9092 21.6644C13.1737 20.8994 11.0655 20.5162 9.73279 20.5162C8.40013 20.5162 6.29188 20.8994 4.55641 21.6644C3.69327 22.0449 3.01706 22.479 2.57839 22.9245ZM0.420288 24.04C0.420288 20.6327 6.62474 18.9162 9.73279 18.9162C12.8409 18.9162 19.0453 20.6327 19.0453 24.04V24.3246C19.0453 25.5823 18.1188 26.6018 16.9758 26.6018H2.48973C1.34681 26.6018 0.420288 25.5823 0.420288 24.3246V24.04Z" fill="black"/>
</svg>
