<svg width="27" height="22" viewBox="0 0 27 22" fill="none" xmlns="http://www.w3.org/2000/svg">
<path d="M13.4999 17.5672C16.5008 17.5672 18.9154 15.1626 18.9154 12.1319C18.9154 9.11119 16.5107 6.70654 13.4999 6.70654C10.4892 6.70654 8.07458 9.11119 8.07458 12.1319C8.07458 15.1626 10.4892 17.5672 13.4999 17.5672ZM19.3228 8.47525C19.3228 9.17081 19.8991 9.71732 20.5748 9.71732C21.2405 9.70738 21.8069 9.16087 21.8069 8.47525C21.8069 7.81944 21.2405 7.24312 20.5748 7.24312C19.8991 7.24312 19.3228 7.81944 19.3228 8.47525ZM13.4999 16.0568C11.3437 16.0568 9.575 14.3179 9.575 12.1319C9.575 9.9558 11.3338 8.20696 13.4999 8.20696C15.6661 8.20696 17.4149 9.9558 17.4149 12.1319C17.4149 14.3179 15.6661 16.0568 13.4999 16.0568Z" fill="#000000"/>
<path d="M9.22718 2.7306L9.22714 2.73056L9.2212 2.73725L8.50212 3.54621C8.30861 3.75651 8.23878 3.80371 8.19223 3.82604C8.15372 3.84452 8.06001 3.87959 7.75711 3.87959H5.23384C4.16831 3.87959 3.22104 4.1423 2.54422 4.80781C1.86493 5.47575 1.59404 6.4154 1.59404 7.47417V16.9432C1.59404 18.002 1.86489 18.9429 2.54284 19.6127C3.21906 20.2809 4.16639 20.5468 5.23384 20.5468H21.7662C22.8301 20.5468 23.7764 20.2804 24.4531 19.6134C25.1319 18.9443 25.406 18.0039 25.406 16.9432V7.47417C25.406 6.41344 25.1318 5.47427 24.4517 4.80714C23.7745 4.14276 22.8282 3.87959 21.7662 3.87959H19.1796C18.865 3.87959 18.7737 3.84499 18.7393 3.82858C18.6992 3.80944 18.6333 3.76683 18.4374 3.54935C18.4369 3.54874 18.4363 3.54813 18.4358 3.54752L17.7155 2.73724L17.7156 2.73721L17.7096 2.7306C17.4399 2.43398 17.1259 2.15895 16.7038 1.96857C16.2838 1.77916 15.8159 1.7 15.2726 1.7H11.6641C11.1208 1.7 10.653 1.77916 10.233 1.96857C9.81083 2.15895 9.49683 2.43398 9.22718 2.7306Z" stroke="#000000" stroke-width="1.6"/>
</svg>
