<svg width="21" height="21" viewBox="0 0 21 21" fill="none" xmlns="http://www.w3.org/2000/svg">
<rect x="1.85" y="1.85" width="17.3" height="17.3" rx="6.15" stroke="black" stroke-width="1.7"/>
<path d="M13.4591 5.9C13.6498 5.9 13.8058 5.96067 13.9271 6.082C14.0485 6.19467 14.1091 6.342 14.1091 6.524V14.363C14.1005 14.545 14.0355 14.6967 13.9141 14.818C13.7928 14.9393 13.6368 15 13.4461 15C13.2728 15 13.1211 14.9393 12.9911 14.818C12.8698 14.6967 12.8091 14.545 12.8091 14.363V10.996H8.19413V14.363C8.19413 14.545 8.12913 14.6967 7.99913 14.818C7.86913 14.9393 7.71746 15 7.54412 15C7.35346 15 7.19746 14.9393 7.07613 14.818C6.96346 14.6967 6.90713 14.545 6.90713 14.363V6.524C6.90713 6.35067 6.96779 6.20333 7.08913 6.082C7.21046 5.96067 7.36646 5.9 7.55713 5.9C7.73046 5.9 7.87779 5.96067 7.99913 6.082C8.12913 6.20333 8.19413 6.35067 8.19413 6.524V9.8H12.8091V6.524C12.8091 6.35067 12.8741 6.20333 13.0041 6.082C13.1341 5.96067 13.2858 5.9 13.4591 5.9Z" fill="black"/>
<path d="M13.9271 6.082L13.5736 6.43555L13.5801 6.4421L13.5869 6.4484L13.9271 6.082ZM14.1091 14.363L14.6086 14.3868L14.6091 14.3749V14.363H14.1091ZM12.9911 14.818L12.6376 15.1716L12.6437 15.1776L12.65 15.1835L12.9911 14.818ZM12.8091 10.996H13.3091V10.496H12.8091V10.996ZM8.19413 10.996V10.496H7.69413V10.996H8.19413ZM7.07613 14.818L6.70973 15.1582L6.71603 15.165L6.72257 15.1716L7.07613 14.818ZM7.08913 6.082L6.73557 5.72845H6.73557L7.08913 6.082ZM7.99913 6.082L7.64557 6.43555L7.65167 6.44165L7.65797 6.44753L7.99913 6.082ZM8.19413 9.8H7.69413V10.3H8.19413V9.8ZM12.8091 9.8V10.3H13.3091V9.8H12.8091ZM13.0041 6.082L13.3453 6.44753L13.3453 6.44753L13.0041 6.082ZM13.4591 6.4C13.5333 6.4 13.5568 6.41882 13.5736 6.43555L14.2807 5.72845C14.0547 5.50251 13.7663 5.4 13.4591 5.4V6.4ZM13.5869 6.4484C13.5967 6.45754 13.5995 6.46315 13.6013 6.46737C13.6035 6.47267 13.6091 6.48909 13.6091 6.524H14.6091C14.6091 6.2183 14.5013 5.93283 14.2674 5.7156L13.5869 6.4484ZM13.6091 6.524V14.363H14.6091V6.524H13.6091ZM13.6097 14.3392C13.6065 14.4054 13.5882 14.4368 13.5606 14.4644L14.2677 15.1716C14.4827 14.9565 14.5944 14.6846 14.6086 14.3868L13.6097 14.3392ZM13.5606 14.4644C13.5438 14.4812 13.5203 14.5 13.4461 14.5V15.5C13.7533 15.5 14.0417 15.3975 14.2677 15.1716L13.5606 14.4644ZM13.4461 14.5C13.403 14.5 13.3724 14.4899 13.3323 14.4525L12.65 15.1835C12.8699 15.3888 13.1426 15.5 13.4461 15.5V14.5ZM13.3447 14.4644C13.3232 14.443 13.3091 14.4213 13.3091 14.363H12.3091C12.3091 14.6687 12.4163 14.9503 12.6376 15.1716L13.3447 14.4644ZM13.3091 14.363V10.996H12.3091V14.363H13.3091ZM12.8091 10.496H8.19413V11.496H12.8091V10.496ZM7.69413 10.996V14.363H8.69413V10.996H7.69413ZM7.69413 14.363C7.69413 14.4101 7.68398 14.4282 7.65797 14.4525L8.34028 15.1835C8.57427 14.9651 8.69413 14.6799 8.69413 14.363H7.69413ZM7.65797 14.4525C7.61789 14.4899 7.58722 14.5 7.54412 14.5V15.5C7.84769 15.5 8.12036 15.3888 8.34028 15.1835L7.65797 14.4525ZM7.54412 14.5C7.46992 14.5 7.44641 14.4812 7.42968 14.4644L6.72257 15.1716C6.94851 15.3975 7.237 15.5 7.54412 15.5V14.5ZM7.44252 14.4778C7.42456 14.4584 7.40713 14.4324 7.40713 14.363H6.40713C6.40713 14.6576 6.50236 14.9349 6.70973 15.1582L7.44252 14.4778ZM7.40713 14.363V6.524H6.40713V14.363H7.40713ZM7.40713 6.524C7.40713 6.48176 7.41618 6.46205 7.44268 6.43555L6.73557 5.72845C6.51941 5.94461 6.40713 6.21957 6.40713 6.524H7.40713ZM7.44268 6.43555C7.45941 6.41882 7.48292 6.4 7.55712 6.4V5.4C7.25 5.4 6.96151 5.50251 6.73557 5.72845L7.44268 6.43555ZM7.55712 6.4C7.59936 6.4 7.61907 6.40905 7.64557 6.43555L8.35268 5.72845C8.13651 5.51228 7.86155 5.4 7.55712 5.4V6.4ZM7.65797 6.44753C7.68962 6.47707 7.69413 6.49327 7.69413 6.524H8.69413C8.69413 6.20806 8.56863 5.92959 8.34028 5.71647L7.65797 6.44753ZM7.69413 6.524V9.8H8.69413V6.524H7.69413ZM8.19413 10.3H12.8091V9.3H8.19413V10.3ZM13.3091 9.8V6.524H12.3091V9.8H13.3091ZM13.3091 6.524C13.3091 6.49327 13.3136 6.47707 13.3453 6.44753L12.663 5.71647C12.4346 5.92959 12.3091 6.20806 12.3091 6.524H13.3091ZM13.3453 6.44753C13.3854 6.41013 13.416 6.4 13.4591 6.4V5.4C13.1556 5.4 12.8829 5.51121 12.663 5.71647L13.3453 6.44753Z" fill="black"/>
</svg>
