<svg width="28" height="34" viewBox="0 0 28 34" fill="none" xmlns="http://www.w3.org/2000/svg">
<path fill-rule="evenodd" clip-rule="evenodd" d="M15.8157 25.1059C16.054 25.182 16.2978 25.2499 16.5467 25.3096C17.7474 25.5868 18.9913 25.6215 20.2056 25.4117C20.3641 25.3862 20.5267 25.4118 20.6697 25.4849C21.9279 26.0802 23.2201 26.6025 24.5802 26.8695C24.7084 26.8946 24.8443 26.9179 24.9853 26.9377L25.0004 26.9398C25.034 26.9444 25.0678 26.9488 25.1019 26.953C25.3395 26.9824 25.5889 27.0007 25.837 26.9997C26.542 26.9969 26.6288 26.2279 26.0884 25.7752C25.9949 25.6969 25.9098 25.6223 25.8313 25.5491C25.7825 25.5037 25.7363 25.4587 25.6921 25.4138L25.6755 25.3968C25.4013 25.1147 25.2069 24.83 24.9798 24.4064C24.8858 24.2293 24.8124 24.0451 24.7388 23.8602C24.7113 23.791 24.6837 23.7218 24.655 23.6528C24.6208 23.5738 24.6121 23.4861 24.6301 23.402C24.6481 23.3178 24.6919 23.2413 24.7554 23.1833C25.1031 22.8189 25.4317 22.4368 25.7398 22.0384C26.769 20.655 27.257 18.9428 27.1119 17.2243C26.9657 15.3344 26.1597 13.7728 24.8489 12.4833C23.4513 11.1139 21.7596 10.3553 19.8587 10.0933C19.6283 10.0611 19.396 10.0449 19.1632 10.0326C19.5919 10.5746 19.9634 11.1598 20.2715 11.7891C21.5989 12.0744 22.7521 12.6693 23.728 13.6251C24.7923 14.6724 25.4033 15.8827 25.5166 17.3477L25.5175 17.3589L25.5176 17.3589C25.6294 18.6837 25.255 20.0036 24.4647 21.0718C24.1998 21.4134 23.918 21.7416 23.6203 22.055C23.3408 22.3308 23.1477 22.6827 23.0654 23.0676C22.979 23.4719 23.0192 23.8929 23.1803 24.2733C23.1916 24.3007 23.206 24.3371 23.2231 24.3803L23.2238 24.3821C23.2763 24.5146 23.3539 24.7102 23.4439 24.9066C22.7625 24.6741 22.076 24.3798 21.3697 24.046C20.9309 23.8291 20.4351 23.7542 19.9513 23.832L19.9422 23.8335L19.9331 23.8351C19.161 23.9685 18.3744 23.9824 17.6007 23.8775C17.0455 24.3496 16.449 24.7579 15.8157 25.1059Z" fill="black"/>
<path fill-rule="evenodd" clip-rule="evenodd" d="M2.53702 23.9434C2.19471 24.5819 1.9157 24.952 1.42129 25.3913C1.42004 25.3924 1.41879 25.3935 1.41753 25.3947C1.39611 25.4137 1.37428 25.4328 1.35203 25.4521C1.25457 25.5366 1.14892 25.6242 1.0332 25.7171C0.483441 26.1584 0.566486 26.9488 1.27046 26.9862C1.86876 27.018 2.49176 26.941 3.00693 26.8404C4.60662 26.5263 6.12633 25.9121 7.60604 25.2118C7.77427 25.1259 7.96546 25.0958 8.15194 25.1258C9.58003 25.3726 11.043 25.3318 12.4551 25.0058C15.1126 24.3676 17.2682 22.9491 18.7519 20.5443C19.8267 18.8367 20.2274 16.7897 19.8757 14.8025C19.4638 12.3217 18.158 10.4111 16.1984 9.00064C14.4359 7.70468 12.3068 7.00394 10.1196 7C9.96032 7.01042 9.80071 7.01802 9.64107 7.02562C9.27949 7.04284 8.91775 7.06007 8.55986 7.11004C6.32429 7.41813 4.33467 8.31042 2.69099 9.92094C1.14929 11.4374 0.20147 13.274 0.029503 15.4967C-0.141164 17.5178 0.432776 19.5315 1.64319 21.1585C2.00559 21.6271 2.39203 22.0765 2.80097 22.505C2.87564 22.5733 2.92714 22.6632 2.94829 22.7622C2.96944 22.8612 2.95918 22.9643 2.91895 23.0572C2.88519 23.1383 2.85277 23.2198 2.8204 23.3011C2.73385 23.5186 2.64762 23.7352 2.53702 23.9434ZM3.93483 21.3755C4.22616 21.6617 4.42745 22.0276 4.51298 22.4279C4.60252 22.8469 4.56082 23.2833 4.39376 23.6776C4.37786 23.7161 4.35833 23.7653 4.33567 23.8224C4.24595 24.0485 4.10714 24.3983 3.95004 24.694L3.94713 24.6995C3.88951 24.807 3.83259 24.9091 3.7758 25.0068C4.81213 24.7055 5.84448 24.2748 6.90554 23.7732C7.3697 23.5433 7.89428 23.4638 8.40621 23.5462L8.4153 23.5476L8.42436 23.5492C9.6403 23.7593 10.8859 23.725 12.0884 23.4484C14.3753 22.8976 16.1522 21.7108 17.3902 19.7042L17.394 19.6981L17.3978 19.692C18.2608 18.3209 18.5826 16.6771 18.3002 15.0813L18.2987 15.073L18.2973 15.0646C17.9612 13.0406 16.9145 11.4874 15.2637 10.2992L15.2571 10.2945L15.2505 10.2897C13.7755 9.20507 11.9965 8.61414 10.1671 8.60023C9.96377 8.613 9.78971 8.62111 9.63216 8.62844C9.31637 8.64315 9.06695 8.65476 8.78108 8.69467L8.7783 8.69506C6.84756 8.96114 5.1855 9.71725 3.81187 11.0627C2.51677 12.3371 1.76383 13.8223 1.62474 15.6201L1.62387 15.6314L1.62383 15.6314C1.48641 17.2587 1.94678 18.8801 2.91824 20.1918C3.23707 20.6032 3.57636 20.9983 3.93483 21.3755Z" fill="black"/>
</svg>
