<svg width="29" height="29" viewBox="0 0 29 29" fill="none" xmlns="http://www.w3.org/2000/svg">
<path d="M19.604 17.284V8.11999C19.604 6.84399 18.56 5.79999 17.284 5.79999H8.11999C6.84399 5.79999 5.79999 6.84399 5.79999 8.11999V17.284C5.79999 18.56 6.84399 19.604 8.11999 19.604H17.284C18.56 19.604 19.604 18.56 19.604 17.284Z" fill="white"/>
<path d="M21.7791 9.88902C21.6921 9.83102 21.5761 9.83102 21.4891 9.88902C21.4021 9.94702 21.3441 10.034 21.3441 10.15V18.937C21.3441 20.184 20.3291 21.17 19.1111 21.17H10.0341C9.91814 21.17 9.83114 21.228 9.77314 21.315C9.71514 21.402 9.71514 21.518 9.77314 21.605C10.3241 22.591 11.3391 23.2 12.4701 23.2H20.0971C21.8081 23.2 23.2001 21.808 23.2001 20.126V12.499C23.2001 11.426 22.6781 10.469 21.7791 9.88902Z" fill="white"/>
</svg>
