<svg width="79" height="18" viewBox="0 0 79 18" fill="none" xmlns="http://www.w3.org/2000/svg">
<mask id="mask0_8512_33052" style="mask-type:alpha" maskUnits="userSpaceOnUse" x="0" y="0" width="79" height="18">
<path d="M78.2138 0.234436H0.683655V17.066H78.2138V0.234436Z" fill="white"/>
<path fill-rule="evenodd" clip-rule="evenodd" d="M0.448669 0H78.4487V17.3014H0.448669V0ZM78.2137 0.234891V17.0665H0.683609V0.234891H78.2137Z" fill="white"/>
<path d="M9.80257 1.07233C10.1224 1.07233 10.3794 1.16962 10.5736 1.36422C10.7677 1.55881 10.8648 1.81064 10.8648 2.11971V12.0441C10.8648 12.3417 10.762 12.5935 10.5564 12.7995C10.3508 12.9941 10.0881 13.0914 9.7683 13.0914C9.48275 13.0914 9.23716 12.9941 9.03156 12.7995C8.82596 12.5935 8.72317 12.3417 8.72317 12.0441V8.04341H3.25763V12.0441C3.25763 12.3417 3.14911 12.5935 2.9321 12.7995C2.71508 12.9941 2.46379 13.0914 2.17823 13.0914C1.86983 13.0914 1.61283 12.9941 1.40723 12.7995C1.21306 12.5935 1.11597 12.3417 1.11597 12.0441V2.11971C1.11597 1.82209 1.21877 1.57598 1.42437 1.38139C1.62997 1.17535 1.89268 1.07233 2.2125 1.07233C2.49805 1.07233 2.74364 1.17535 2.94924 1.38139C3.15484 1.57598 3.25763 1.82209 3.25763 2.11971V6.06885H8.72317V2.11971C8.72317 1.82209 8.83168 1.57598 9.04869 1.38139C9.26572 1.17535 9.517 1.07233 9.80257 1.07233Z" fill="white"/>
<path fill-rule="evenodd" clip-rule="evenodd" d="M10.7205 12.9682L10.718 12.9705C10.463 13.2119 10.1399 13.3267 9.76838 13.3267C9.42333 13.3267 9.11977 13.2068 8.87012 12.9705L8.86769 12.9682L8.86532 12.9658C8.61467 12.7147 8.48831 12.4027 8.48831 12.0444V8.27869H3.49264V12.0444C3.49264 12.4069 3.3574 12.7201 3.09396 12.9703L3.09153 12.9726L3.08904 12.9748C2.8299 13.2072 2.52309 13.3267 2.17831 13.3267C1.81569 13.3267 1.49911 13.2103 1.24579 12.9705L1.24092 12.9659L1.23632 12.961C0.998798 12.709 0.881104 12.3986 0.881104 12.0444V2.1201C0.881104 1.76282 1.00701 1.45463 1.26049 1.21351C1.51438 0.960339 1.83828 0.83783 2.21258 0.83783C2.56077 0.83783 2.86499 0.965822 3.11327 1.21352C3.36675 1.45464 3.49264 1.76283 3.49264 2.1201V5.83435H8.48831V2.1201C8.48831 1.75849 8.62318 1.44907 8.8894 1.20917C9.14727 0.965368 9.45483 0.83783 9.80265 0.83783C10.1739 0.83783 10.4945 0.952719 10.74 1.19871C10.9837 1.44298 11.0998 1.75727 11.0998 2.1201V12.0444C11.0998 12.4027 10.9735 12.7147 10.7228 12.9658L10.7205 12.9682ZM9.04877 1.38178C8.83176 1.57638 8.72325 1.82248 8.72325 2.1201V6.06924H3.2577V2.1201C3.2577 1.82248 3.15491 1.57638 2.94931 1.38178C2.74372 1.17574 2.49813 1.07272 2.21258 1.07272C1.89275 1.07272 1.63004 1.17574 1.42444 1.38178C1.21884 1.57638 1.11604 1.82248 1.11604 2.1201V12.0444C1.11604 12.3421 1.21313 12.5939 1.40731 12.7999C1.61291 12.9945 1.86991 13.0918 2.17831 13.0918C2.46387 13.0918 2.71515 12.9945 2.93218 12.7999C3.14919 12.5939 3.2577 12.3421 3.2577 12.0444V8.0438H8.72325V12.0444C8.72325 12.3421 8.82604 12.5939 9.03164 12.7999C9.23724 12.9945 9.48283 13.0918 9.76838 13.0918C10.0882 13.0918 10.3509 12.9945 10.5565 12.7999C10.7621 12.5939 10.8649 12.3421 10.8649 12.0444V2.1201C10.8649 1.81103 10.7678 1.55921 10.5736 1.36461C10.3795 1.17002 10.1225 1.07272 9.80265 1.07272C9.51708 1.07272 9.2658 1.17574 9.04877 1.38178Z" fill="white"/>
<path d="M20.6779 3.73364C20.9749 3.73364 21.2204 3.83095 21.4147 4.02553C21.6088 4.22013 21.7059 4.47196 21.7059 4.78103V12.044C21.7059 12.3416 21.6088 12.5935 21.4147 12.7995C21.2204 12.9941 20.9749 13.0914 20.6779 13.0914C20.3809 13.0914 20.1353 12.9941 19.9412 12.7995C19.7585 12.6049 19.6613 12.3588 19.65 12.0612C19.3643 12.3931 18.976 12.6793 18.4848 12.9197C18.0051 13.1486 17.4968 13.2631 16.96 13.2631C16.1719 13.2631 15.458 13.0628 14.8183 12.6621C14.1787 12.25 13.6704 11.6834 13.2935 10.9623C12.9279 10.2411 12.7452 9.4227 12.7452 8.50696C12.7452 7.5912 12.9279 6.77277 13.2935 6.05161C13.659 5.31902 14.1558 4.75241 14.784 4.35177C15.4237 3.93969 16.1262 3.73364 16.8914 3.73364C17.4398 3.73364 17.9537 3.83666 18.4334 4.04271C18.9131 4.23731 19.3187 4.48914 19.65 4.79819V4.78103C19.65 4.48341 19.7469 4.23731 19.9412 4.04271C20.1353 3.83666 20.3809 3.73364 20.6779 3.73364ZM17.217 11.3744C17.9594 11.3744 18.5648 11.1054 19.0332 10.5674C19.5014 10.0179 19.7356 9.33112 19.7356 8.50696C19.7356 7.68278 19.5014 6.99598 19.0332 6.44652C18.5648 5.89708 17.9594 5.62236 17.217 5.62236C16.4859 5.62236 15.8863 5.89708 15.4179 6.44652C14.9497 6.99598 14.7155 7.68278 14.7155 8.50696C14.7155 9.33112 14.944 10.0179 15.4008 10.5674C15.8691 11.1054 16.4745 11.3744 17.217 11.3744Z" fill="white"/>
<path fill-rule="evenodd" clip-rule="evenodd" d="M21.581 3.86011L21.5811 3.86018C21.8247 4.10443 21.9409 4.4187 21.9409 4.78154V12.0445C21.9409 12.3986 21.8232 12.7091 21.5857 12.9611L21.5834 12.9635L21.581 12.9659C21.3389 13.2084 21.0318 13.3268 20.6779 13.3268C20.324 13.3268 20.0168 13.2084 19.7749 12.9659L19.7724 12.9634L19.7699 12.9608C19.6523 12.8355 19.5646 12.6935 19.5057 12.5372C19.2474 12.7612 18.9406 12.9587 18.5882 13.1312L18.5861 13.1322L18.5861 13.1322C18.0744 13.3763 17.5315 13.4985 16.96 13.4985C16.1299 13.4985 15.3724 13.2868 14.6936 12.8617L14.6911 12.8601L14.6911 12.8601C14.0148 12.4244 13.4797 11.8262 13.0852 11.0716L13.0839 11.069L13.0839 11.069C12.6996 10.3108 12.5103 9.45517 12.5103 8.50747C12.5103 7.56003 12.6995 6.70465 13.0836 5.94661C13.466 5.18031 13.9901 4.58016 14.6573 4.15454C15.335 3.71807 16.0816 3.49927 16.8915 3.49927C17.4692 3.49927 18.0141 3.60784 18.5239 3.82646C18.8791 3.9707 19.1983 4.14615 19.4803 4.35367C19.5384 4.17696 19.6354 4.01783 19.7725 3.87972C20.0131 3.62565 20.3209 3.49927 20.6779 3.49927C21.0318 3.49927 21.3389 3.61764 21.581 3.86011ZM19.9412 4.04323C19.8092 4.17543 19.7222 4.3314 19.6799 4.51115C19.6599 4.59598 19.65 4.68612 19.65 4.78154V4.79871C19.6438 4.79297 19.6376 4.78725 19.6314 4.78154C19.5655 4.721 19.4968 4.66269 19.4251 4.6066C19.1402 4.38362 18.8096 4.19583 18.4334 4.04323C17.9537 3.83718 17.4398 3.73416 16.8915 3.73416C16.1262 3.73416 15.4237 3.94021 14.7841 4.35228C14.1558 4.75293 13.659 5.31954 13.2935 6.05213C12.928 6.77328 12.7452 7.59172 12.7452 8.50747C12.7452 9.42321 12.928 10.2416 13.2935 10.9628C13.6704 11.6839 14.1787 12.2506 14.8183 12.6626C15.458 13.0633 16.1719 13.2636 16.96 13.2636C17.4969 13.2636 18.0051 13.1491 18.4849 12.9202C18.8633 12.735 19.1807 12.5226 19.4371 12.283C19.5135 12.2116 19.5844 12.1379 19.65 12.0617C19.654 12.1676 19.6689 12.267 19.6947 12.3598C19.7413 12.5279 19.8235 12.6747 19.9412 12.8C20.1353 12.9946 20.3809 13.0919 20.6779 13.0919C20.9749 13.0919 21.2205 12.9946 21.4147 12.8C21.6088 12.594 21.706 12.3421 21.706 12.0445V4.78154C21.706 4.47248 21.6088 4.22065 21.4147 4.02605C21.2205 3.83147 20.9749 3.73416 20.6779 3.73416C20.3809 3.73416 20.1353 3.83718 19.9412 4.04323ZM18.8552 10.4146C19.2815 9.91379 19.5006 9.2837 19.5006 8.50747C19.5006 7.73076 19.2813 7.10038 18.8544 6.5994C18.4321 6.104 17.8929 5.85777 17.217 5.85777C16.5538 5.85777 16.0198 6.10306 15.5968 6.5994C15.1698 7.10037 14.9505 7.73075 14.9505 8.50747C14.9505 9.28459 15.1644 9.9151 15.5798 10.4157C16.0012 10.8987 16.5403 11.14 17.217 11.14C17.8942 11.14 18.4336 10.8984 18.8552 10.4146ZM15.4008 10.5679C14.944 10.0184 14.7155 9.33163 14.7155 8.50747C14.7155 7.6833 14.9497 6.9965 15.418 6.44704C15.8863 5.89759 16.4859 5.62288 17.217 5.62288C17.9594 5.62288 18.5648 5.89759 19.0332 6.44704C19.5014 6.9965 19.7356 7.6833 19.7356 8.50747C19.7356 9.33163 19.5014 10.0184 19.0332 10.5679C18.5648 11.1059 17.9594 11.3749 17.217 11.3749C16.4745 11.3749 15.8692 11.1059 15.4008 10.5679Z" fill="white"/>
<path d="M24.0167 1.67306C24.0167 1.35447 24.1086 1.10854 24.2928 0.935276C24.4824 0.75642 24.7696 0.666992 25.1544 0.666992C25.5393 0.666992 25.8236 0.75642 26.0077 0.935276C26.1973 1.10854 26.2921 1.35447 26.2921 1.67306V10.3001C26.2921 10.518 26.3061 10.6997 26.3341 10.845C26.3619 10.9903 26.4009 11.1049 26.4511 11.1887C26.5068 11.2726 26.571 11.3313 26.6436 11.3648C26.7161 11.3983 26.7969 11.4151 26.8861 11.4151C26.9642 11.4151 27.034 11.4123 27.0952 11.4067C27.1566 11.3955 27.218 11.39 27.2794 11.39C27.3519 11.39 27.4215 11.4039 27.4885 11.4319C27.5554 11.4598 27.614 11.5017 27.6642 11.5576C27.7143 11.6135 27.7534 11.6834 27.7813 11.7672C27.8148 11.8455 27.8315 11.9377 27.8315 12.0439C27.8315 12.206 27.8064 12.3429 27.7563 12.4547C27.7116 12.5665 27.6475 12.6643 27.5637 12.7481C27.508 12.804 27.4411 12.8571 27.363 12.9074C27.2849 12.9577 27.1901 13.0052 27.0785 13.05C26.9726 13.0891 26.8443 13.1198 26.6938 13.1422C26.5432 13.1701 26.3702 13.1841 26.1751 13.1841C25.4667 13.1841 24.9286 12.9969 24.5604 12.6224C24.1979 12.2423 24.0167 11.6694 24.0167 10.9037V1.67306Z" fill="white"/>
<path fill-rule="evenodd" clip-rule="evenodd" d="M26.5648 10.8006L26.5649 10.8008C26.5892 10.9276 26.6201 11.0116 26.65 11.0635C26.6866 11.1171 26.7188 11.1407 26.7422 11.1515L26.7423 11.1516C26.7805 11.1692 26.8271 11.1802 26.8862 11.1802C26.9547 11.1802 27.0139 11.1779 27.0644 11.1736C27.1358 11.1613 27.2075 11.155 27.2795 11.155C27.3831 11.155 27.4835 11.1752 27.579 11.2151L27.5792 11.2151C27.6793 11.2569 27.7664 11.3197 27.8391 11.4007C27.9122 11.4822 27.965 11.5785 28.0013 11.684C28.0471 11.7953 28.0665 11.917 28.0665 12.0439C28.0665 12.2271 28.0386 12.3972 27.9727 12.5463C27.9165 12.6852 27.8356 12.8084 27.7301 12.9141C27.6606 12.9836 27.5802 13.047 27.4903 13.1049C27.3966 13.1652 27.2876 13.2192 27.166 13.2679L27.1601 13.2703L27.16 13.2703C27.0358 13.3162 26.8923 13.3499 26.7325 13.3739C26.5656 13.4045 26.3793 13.419 26.1752 13.419C25.4264 13.419 24.819 13.2203 24.3929 12.787L24.3904 12.7845L24.3904 12.7844C23.9706 12.3442 23.7818 11.7023 23.7818 10.9037V1.67302C23.7818 1.30773 23.8888 0.992926 24.1317 0.764281C24.3819 0.528459 24.7379 0.432068 25.1545 0.432068C25.569 0.432068 25.9234 0.527514 26.1689 0.764278C26.4167 0.992177 26.5271 1.30681 26.5271 1.67302V10.3C26.5271 10.5094 26.5407 10.675 26.5648 10.8006ZM26.0077 0.935243C25.8237 0.756386 25.5394 0.666959 25.1545 0.666959C24.7697 0.666959 24.4825 0.756386 24.2928 0.935243C24.1087 1.10851 24.0167 1.35444 24.0167 1.67302V10.9037C24.0167 11.6694 24.198 12.2423 24.5605 12.6223C24.9287 12.9968 25.4668 13.1841 26.1752 13.1841C26.3703 13.1841 26.5432 13.1701 26.6938 13.1422C26.8444 13.1198 26.9727 13.0891 27.0786 13.0499C27.1901 13.0052 27.285 12.9577 27.3631 12.9074C27.4412 12.8571 27.508 12.804 27.5638 12.7481C27.6475 12.6643 27.7117 12.5665 27.7563 12.4547C27.8065 12.3429 27.8316 12.206 27.8316 12.0439C27.8316 11.9377 27.8148 11.8454 27.7814 11.7672C27.7535 11.6834 27.7144 11.6135 27.6643 11.5576C27.6141 11.5017 27.5555 11.4598 27.4886 11.4318C27.4216 11.4039 27.352 11.3899 27.2795 11.3899C27.2181 11.3899 27.1567 11.3955 27.0953 11.4067C27.0341 11.4123 26.9643 11.4151 26.8862 11.4151C26.797 11.4151 26.7162 11.3983 26.6437 11.3648C26.5711 11.3312 26.5069 11.2726 26.4512 11.1887C26.401 11.1049 26.362 10.9903 26.3341 10.845C26.3062 10.6996 26.2922 10.518 26.2922 10.3V1.67302C26.2922 1.35444 26.1974 1.10851 26.0077 0.935243Z" fill="white"/>
<path d="M29.5817 1.67306C29.5817 1.35447 29.6737 1.10854 29.8577 0.935276C30.0473 0.75642 30.3345 0.666992 30.7195 0.666992C31.1042 0.666992 31.3887 0.75642 31.5727 0.935276C31.7624 1.10854 31.8572 1.35447 31.8572 1.67306V10.3001C31.8572 10.518 31.8712 10.6997 31.899 10.845C31.9269 10.9903 31.966 11.1049 32.0161 11.1887C32.0719 11.2726 32.136 11.3313 32.2085 11.3648C32.281 11.3983 32.362 11.4151 32.4512 11.4151C32.5293 11.4151 32.5989 11.4123 32.6603 11.4067C32.7217 11.3955 32.7831 11.39 32.8443 11.39C32.9168 11.39 32.9866 11.4039 33.0536 11.4319C33.1204 11.4598 33.179 11.5017 33.2293 11.5576C33.2794 11.6135 33.3185 11.6834 33.3463 11.7672C33.3798 11.8455 33.3966 11.9377 33.3966 12.0439C33.3966 12.206 33.3715 12.3429 33.3212 12.4547C33.2767 12.5665 33.2125 12.6643 33.1288 12.7481C33.073 12.804 33.0062 12.8571 32.9281 12.9074C32.85 12.9577 32.7551 13.0052 32.6436 13.05C32.5377 13.0891 32.4094 13.1198 32.2588 13.1422C32.1082 13.1701 31.9353 13.1841 31.74 13.1841C31.0317 13.1841 30.4935 12.9969 30.1254 12.6224C29.7629 12.2423 29.5817 11.6694 29.5817 10.9037V1.67306Z" fill="white"/>
<path fill-rule="evenodd" clip-rule="evenodd" d="M33.1441 11.2151L33.1442 11.2151C33.2445 11.257 33.3313 11.3198 33.4039 11.4005L33.4041 11.4007C33.4771 11.4821 33.53 11.5784 33.5662 11.684C33.6122 11.7954 33.6315 11.9172 33.6315 12.0439C33.6315 12.2269 33.6037 12.3972 33.5376 12.5463C33.4815 12.6853 33.4005 12.8085 33.2951 12.9141C33.2257 12.9836 33.1452 13.047 33.0553 13.1049C32.9616 13.1652 32.8527 13.2192 32.731 13.2679L32.7251 13.2703L32.725 13.2703C32.6008 13.3162 32.4573 13.3499 32.2975 13.3739C32.1306 13.4045 31.9443 13.419 31.7401 13.419C30.9914 13.419 30.3838 13.2203 29.9579 12.787L29.9554 12.7845L29.9555 12.7845C29.5355 12.3442 29.3468 11.7023 29.3468 10.9037V1.67302C29.3468 1.30772 29.4538 0.992941 29.6966 0.764307C29.9467 0.52846 30.3028 0.432068 30.7195 0.432068C31.1339 0.432068 31.4884 0.527507 31.7339 0.764277C31.9817 0.992176 32.0922 1.30681 32.0922 1.67302V10.3C32.0922 10.5093 32.1057 10.675 32.1297 10.8008C32.1542 10.9276 32.1851 11.0116 32.215 11.0635C32.2516 11.1171 32.2838 11.1408 32.3072 11.1516C32.3453 11.1692 32.392 11.1802 32.4512 11.1802C32.5197 11.1802 32.5788 11.1779 32.6295 11.1736C32.7008 11.1613 32.7725 11.155 32.8444 11.155C32.9479 11.155 33.0484 11.1752 33.1441 11.2151ZM32.6603 11.4067C32.5989 11.4123 32.5293 11.4151 32.4512 11.4151C32.362 11.4151 32.281 11.3983 32.2085 11.3648C32.1361 11.3312 32.0719 11.2726 32.0162 11.1887C31.966 11.1049 31.927 10.9903 31.899 10.845C31.8712 10.6996 31.8572 10.518 31.8572 10.3V1.67302C31.8572 1.35444 31.7624 1.10851 31.5727 0.935243C31.3887 0.756386 31.1042 0.666959 30.7195 0.666959C30.3346 0.666959 30.0474 0.756386 29.8577 0.935243C29.6737 1.10851 29.5817 1.35444 29.5817 1.67302V10.9037C29.5817 11.6694 29.7629 12.2423 30.1255 12.6223C30.4935 12.9968 31.0318 13.1841 31.7401 13.1841C31.9353 13.1841 32.1082 13.1701 32.2588 13.1422C32.4094 13.1198 32.5377 13.0891 32.6436 13.0499C32.7551 13.0052 32.85 12.9577 32.9281 12.9074C33.0062 12.8571 33.0731 12.804 33.1288 12.7481C33.2126 12.6643 33.2767 12.5665 33.3212 12.4547C33.3715 12.3429 33.3966 12.206 33.3966 12.0439C33.3966 11.9377 33.3799 11.8454 33.3463 11.7672C33.3185 11.6834 33.2794 11.6135 33.2293 11.5576C33.179 11.5017 33.1205 11.4598 33.0536 11.4318C32.9866 11.4039 32.9168 11.3899 32.8444 11.3899C32.7831 11.3899 32.7217 11.3955 32.6603 11.4067Z" fill="white"/>
<path d="M43.8706 8.50696C43.8706 9.4227 43.665 10.2469 43.2537 10.9794C42.8425 11.7006 42.2772 12.2615 41.5575 12.6621C40.8494 13.0628 40.0669 13.2631 39.2103 13.2631C38.3422 13.2631 37.5541 13.0628 36.8459 12.6621C36.1376 12.2615 35.5781 11.7006 35.1668 10.9794C34.7556 10.2469 34.55 9.4227 34.55 8.50696C34.55 7.5912 34.7556 6.77277 35.1668 6.05161C35.5781 5.31902 36.1376 4.75241 36.8459 4.35177C37.5541 3.93969 38.3422 3.73364 39.2103 3.73364C40.0669 3.73364 40.8494 3.93969 41.5575 4.35177C42.2772 4.75241 42.8425 5.31902 43.2537 6.05161C43.665 6.77277 43.8706 7.5912 43.8706 8.50696ZM41.8145 8.50696C41.8145 7.94606 41.6946 7.44812 41.4548 7.01314C41.2262 6.56672 40.9122 6.22332 40.5125 5.98293C40.1241 5.74256 39.69 5.62236 39.2103 5.62236C38.7306 5.62236 38.2907 5.74256 37.891 5.98293C37.5026 6.22332 37.1886 6.56672 36.9487 7.01314C36.7203 7.44812 36.606 7.94606 36.606 8.50696C36.606 9.06784 36.7203 9.56578 36.9487 10.0008C37.1886 10.4357 37.5026 10.7734 37.891 11.0138C38.2907 11.2542 38.7306 11.3744 39.2103 11.3744C39.69 11.3744 40.1241 11.2542 40.5125 11.0138C40.9122 10.7734 41.2262 10.4357 41.4548 10.0008C41.6946 9.56578 41.8145 9.06784 41.8145 8.50696Z" fill="white"/>
<path fill-rule="evenodd" clip-rule="evenodd" d="M43.4587 11.0949L43.4579 11.0963C43.0259 11.8541 42.4298 12.4458 41.6727 12.8675C40.9275 13.2889 40.1051 13.4985 39.2104 13.4985C38.3046 13.4985 37.4762 13.289 36.7303 12.8671C35.9844 12.4451 35.3946 11.8534 34.9628 11.0963L34.962 11.0949L34.962 11.0949C34.5294 10.3241 34.3152 9.45975 34.3152 8.50747C34.3152 7.55551 34.5293 6.69647 34.9624 5.93648C35.3937 5.16854 35.983 4.57088 36.7291 4.14855C37.475 3.71483 38.3039 3.49927 39.2104 3.49927C40.1058 3.49927 40.9287 3.71498 41.6739 4.14815C42.4312 4.5702 43.0268 5.16783 43.4583 5.93653C43.8916 6.69651 44.1057 7.55554 44.1057 8.50747C44.1057 9.45975 43.8914 10.3241 43.4587 11.0949ZM43.2538 6.05213C42.8427 5.31954 42.2773 4.75293 41.5577 4.35228C40.8495 3.94021 40.067 3.73416 39.2104 3.73416C38.3423 3.73416 37.5542 3.94021 36.8461 4.35228C36.1378 4.75293 35.5782 5.31954 35.1669 6.05213C34.7558 6.77328 34.5501 7.59172 34.5501 8.50747C34.5501 9.42321 34.7558 10.2474 35.1669 10.98C35.5782 11.7011 36.1378 12.262 36.8461 12.6626C37.5542 13.0633 38.3423 13.2636 39.2104 13.2636C40.067 13.2636 40.8495 13.0633 41.5577 12.6626C42.2773 12.262 42.8427 11.7011 43.2538 10.98C43.6651 10.2474 43.8707 9.42321 43.8707 8.50747C43.8707 7.59172 43.6651 6.77328 43.2538 6.05213ZM41.2474 7.12389L41.2458 7.12069C41.0356 6.71019 40.7508 6.40081 40.3915 6.18474L40.3889 6.18318L40.3889 6.18317C40.0396 5.96696 39.6488 5.85777 39.2104 5.85777C38.7726 5.85777 38.3753 5.96674 38.0135 6.18396C37.6648 6.40012 37.3786 6.71062 37.1563 7.12386C36.9483 7.52044 36.8411 7.97965 36.8411 8.50747C36.8411 9.03478 36.9481 9.49362 37.1557 9.88994C37.3775 10.2913 37.6636 10.5969 38.0135 10.8138C38.3753 11.031 38.7726 11.14 39.2104 11.14C39.6488 11.14 40.0396 11.0308 40.3889 10.8146L40.3915 10.813L40.3915 10.813C40.7524 10.596 41.0372 10.2911 41.2469 9.89203L41.2491 9.88786L41.2492 9.88789C41.4674 9.49193 41.5797 9.03391 41.5797 8.50747C41.5797 7.98102 41.4674 7.523 41.2492 7.12704L41.2474 7.12389ZM37.8911 11.0143C37.5028 10.7739 37.1887 10.4362 36.9488 10.0013C36.7204 9.56629 36.6061 9.06835 36.6061 8.50747C36.6061 7.94658 36.7204 7.44863 36.9488 7.01366C37.1887 6.56723 37.5028 6.22384 37.8911 5.98345C38.2909 5.74307 38.7307 5.62288 39.2104 5.62288C39.6902 5.62288 40.1242 5.74307 40.5126 5.98345C40.9123 6.22384 41.2264 6.56723 41.4549 7.01366C41.6947 7.44863 41.8146 7.94658 41.8146 8.50747C41.8146 9.06835 41.6947 9.56629 41.4549 10.0013C41.2264 10.4362 40.9123 10.7739 40.5126 11.0143C40.1242 11.2547 39.6902 11.3749 39.2104 11.3749C38.7307 11.3749 38.2909 11.2547 37.8911 11.0143Z" fill="white"/>
<path d="M55.5942 11.7527C55.6512 11.9015 55.6798 12.0389 55.6798 12.1648C55.6798 12.4624 55.5826 12.7085 55.3885 12.9031C55.1943 13.0862 54.9716 13.1778 54.7203 13.1778C54.5147 13.1778 54.3262 13.1149 54.155 12.989C53.995 12.863 53.8693 12.6913 53.778 12.4739L52.8871 10.3963H47.7813L46.8903 12.491C46.8104 12.7085 46.6848 12.8802 46.5135 13.0061C46.3535 13.1206 46.1764 13.1778 45.9823 13.1778C45.6853 13.1778 45.4569 13.0977 45.2969 12.9374C45.1485 12.7772 45.0743 12.5597 45.0743 12.285C45.0743 12.182 45.0913 12.0732 45.1256 11.9587L49.3918 1.69099C49.4833 1.46206 49.6203 1.28463 49.803 1.15872C49.9858 1.0328 50.1914 0.981291 50.4198 1.00418C50.6255 1.00418 50.814 1.06714 50.9852 1.19306C51.168 1.30752 51.2993 1.4735 51.3793 1.69099L55.5942 11.7527ZM48.398 8.40142C48.3192 8.59089 48.4587 8.79944 48.6642 8.79944H52.0841C52.2896 8.79944 52.4291 8.59089 52.3503 8.40142L50.6403 4.28864C50.542 4.05207 50.2064 4.05207 50.108 4.28864L48.398 8.40142Z" fill="white"/>
<path fill-rule="evenodd" clip-rule="evenodd" d="M55.8124 11.6651L55.8137 11.6684C55.8785 11.8373 55.9149 12.0035 55.9149 12.1646C55.9149 12.5188 55.7969 12.8263 55.5551 13.0688L55.5525 13.0714L55.5499 13.0738C55.3151 13.2952 55.0358 13.4126 54.7205 13.4126C54.463 13.4126 54.226 13.3325 54.0159 13.178L54.0128 13.1757L54.0098 13.1733C53.8141 13.0193 53.6662 12.8135 53.5619 12.5656C53.5618 12.5653 53.5617 12.5649 53.5616 12.5646L52.7324 10.631H47.9369L47.1089 12.5776C47.0144 12.8316 46.8632 13.0407 46.6528 13.1952L46.6504 13.197C46.4512 13.3396 46.2263 13.4126 45.9825 13.4126C45.6433 13.4126 45.3473 13.3201 45.1308 13.1032L45.1277 13.1001L45.1248 13.0969C44.9265 12.8828 44.8395 12.6028 44.8395 12.2848C44.8395 12.1558 44.8608 12.0243 44.9007 11.8912L44.9042 11.8796L49.1744 1.60215C49.2811 1.33591 49.4453 1.11995 49.6699 0.965149C49.897 0.808672 50.1545 0.743863 50.4318 0.769187C50.6819 0.771567 50.9124 0.849702 51.1175 0.998522C51.3425 1.14166 51.5024 1.34749 51.5981 1.60468L55.8124 11.6651ZM51.3795 1.69083C51.2995 1.47334 51.1682 1.30736 50.9854 1.19289C50.8142 1.06698 50.6257 1.00402 50.42 1.00402C50.1916 0.981128 49.986 1.03264 49.8032 1.15855C49.6205 1.28447 49.4835 1.46189 49.392 1.69083L45.1258 11.9586C45.0915 12.0731 45.0745 12.1818 45.0745 12.2848C45.0745 12.5595 45.1487 12.777 45.2971 12.9373C45.4571 13.0975 45.6855 13.1777 45.9825 13.1777C46.1766 13.1777 46.3537 13.1204 46.5137 13.006C46.685 12.88 46.8105 12.7083 46.8905 12.4909L47.7815 10.3961H52.8873L53.7782 12.4737C53.8695 12.6912 53.9952 12.8629 54.1552 12.9888C54.3264 13.1147 54.5148 13.1777 54.7205 13.1777C54.9718 13.1777 55.1945 13.0861 55.3887 12.9029C55.5828 12.7083 55.68 12.4622 55.68 12.1646C55.68 12.0387 55.6514 11.9013 55.5944 11.7525L51.3795 1.69083ZM48.6151 8.49147C48.6009 8.52568 48.6258 8.56439 48.6644 8.56439H52.0843C52.1228 8.56439 52.1478 8.52568 52.1336 8.49147L50.4236 4.37864C50.4178 4.36479 50.4106 4.35802 50.4042 4.35399C50.3967 4.34927 50.3864 4.34594 50.3744 4.34594C50.3624 4.34594 50.352 4.34927 50.3445 4.35401C50.3381 4.35806 50.3309 4.36479 50.3251 4.37864C50.3251 4.37866 50.3251 4.37863 50.3251 4.37864L48.6151 8.49147ZM50.1082 4.28848C50.2066 4.0519 50.5422 4.0519 50.6405 4.28848L52.3505 8.40126C52.4293 8.59072 52.2898 8.79928 52.0843 8.79928H48.6644C48.4589 8.79928 48.3194 8.59072 48.3982 8.40126L50.1082 4.28848Z" fill="white"/>
<path d="M62.5619 3.73364C63.35 3.73364 64.0638 3.93969 64.7035 4.35176C65.3432 4.75241 65.8457 5.3133 66.2113 6.03445C66.5881 6.75559 66.7766 7.57404 66.7766 8.48978C66.7766 9.40552 66.5939 10.2297 66.2285 10.9623C65.8629 11.6834 65.3603 12.25 64.7207 12.6621C64.0925 13.0628 63.3957 13.2631 62.6304 13.2631C62.0822 13.2631 61.5624 13.1543 61.0713 12.9368C60.5915 12.7079 60.1918 12.4332 59.872 12.1127V15.478C59.872 15.7757 59.7749 16.0218 59.5806 16.2163C59.3865 16.4225 59.1409 16.5255 58.8439 16.5255C58.5469 16.5255 58.3014 16.4281 58.1072 16.2336C57.913 16.0389 57.8159 15.787 57.8159 15.478V4.95272C57.8159 4.65511 57.913 4.40901 58.1072 4.21441C58.3014 4.00837 58.5469 3.90535 58.8439 3.90535C59.1409 3.90535 59.3865 4.00837 59.5806 4.21441C59.7749 4.40901 59.872 4.65511 59.872 4.95272V5.0214C60.1461 4.67801 60.5287 4.38039 61.0198 4.12855C61.5111 3.86529 62.025 3.73364 62.5619 3.73364ZM62.3048 11.3744C63.0359 11.3744 63.6355 11.0996 64.1039 10.5502C64.5722 10.0008 64.8063 9.31395 64.8063 8.48978C64.8063 7.6656 64.5722 6.98453 64.1039 6.44652C63.6469 5.89708 63.0473 5.62236 62.3048 5.62236C61.5624 5.62236 60.957 5.89708 60.4888 6.44652C60.0204 6.98453 59.7862 7.6656 59.7862 8.48978C59.7862 9.31395 60.0204 10.0008 60.4888 10.5502C60.957 11.0996 61.5624 11.3744 62.3048 11.3744Z" fill="white"/>
<path fill-rule="evenodd" clip-rule="evenodd" d="M58.1072 16.2341C57.9129 16.0394 57.8158 15.7875 57.8158 15.4785V4.95324C57.8158 4.65562 57.9129 4.40952 58.1072 4.21492C58.3013 4.00889 58.5469 3.90587 58.8439 3.90587C59.1409 3.90587 59.3864 4.00889 59.5806 4.21492C59.7156 4.35017 59.8037 4.51029 59.8448 4.69529C59.8629 4.77648 59.8719 4.86246 59.8719 4.95324V5.02192C59.8904 4.99882 59.9093 4.97593 59.9287 4.95324C59.981 4.89214 60.0369 4.83254 60.0963 4.77444C60.3429 4.53346 60.6507 4.31834 61.0198 4.12907C61.511 3.8658 62.0249 3.73416 62.5619 3.73416C63.35 3.73416 64.0638 3.94021 64.7035 4.35228C65.3432 4.75293 65.8457 5.31381 66.2113 6.03497C66.5881 6.75611 66.7766 7.57455 66.7766 8.49029C66.7766 9.40603 66.5939 10.2302 66.2284 10.9628C65.8628 11.6839 65.3603 12.2506 64.7206 12.6626C64.0924 13.0633 63.3957 13.2636 62.6303 13.2636C62.0821 13.2636 61.5623 13.1548 61.0712 12.9374C60.7025 12.7614 60.3811 12.5584 60.1069 12.3284C60.0243 12.2591 59.946 12.1874 59.8719 12.1132V15.4785C59.8719 15.7762 59.7748 16.0223 59.5806 16.2168C59.3864 16.423 59.1409 16.526 58.8439 16.526C58.5469 16.526 58.3013 16.4286 58.1072 16.2341ZM60.1069 12.629V15.4785C60.1069 15.8315 59.9897 16.1383 59.7493 16.3803C59.5087 16.6345 59.2009 16.7609 58.8439 16.7609C58.4899 16.7609 58.1828 16.6424 57.9409 16.4C57.6971 16.1557 57.5809 15.8413 57.5809 15.4785V4.95324C57.5809 4.60024 57.6981 4.29352 57.9385 4.0514C58.1791 3.79736 58.4869 3.67098 58.8439 3.67098C59.2009 3.67098 59.5087 3.79735 59.7492 4.0514C59.8822 4.18529 59.9775 4.33894 60.0361 4.50925C60.282 4.28927 60.5744 4.09363 60.9107 3.92103C61.4341 3.64088 61.9854 3.49927 62.5619 3.49927C63.3929 3.49927 64.1507 3.71715 64.8294 4.15401C65.507 4.57867 66.037 5.17217 66.4202 5.92749C66.8162 6.68589 67.0115 7.54201 67.0115 8.49029C67.0115 9.43806 66.8222 10.2988 66.4387 11.0676L66.438 11.069C66.0548 11.8249 65.5248 12.424 64.8479 12.8601L64.847 12.8607C64.18 13.2861 63.4392 13.4985 62.6303 13.4985C62.0501 13.4985 61.4978 13.3832 60.9761 13.1521L60.973 13.1508L60.97 13.1493C60.6505 12.9969 60.3624 12.8236 60.1069 12.629ZM63.9232 6.59722C63.5128 6.10379 62.9805 5.85777 62.3048 5.85777C61.6289 5.85777 61.0897 6.104 60.6676 6.59937L60.666 6.60126C60.2405 7.08994 60.0211 7.71345 60.0211 8.49029C60.0211 9.26702 60.2405 9.89739 60.6675 10.3984C61.0897 10.8937 61.6289 11.14 62.3048 11.14C62.968 11.14 63.5019 10.8947 63.925 10.3984C64.352 9.89741 64.5713 9.26706 64.5713 8.49029C64.5713 7.71342 64.352 7.08991 63.9266 6.60125L63.9232 6.59722ZM64.1038 6.44704C64.5722 6.98504 64.8062 7.66612 64.8062 8.49029C64.8062 9.31447 64.5722 10.0013 64.1038 10.5507C63.6355 11.1002 63.0358 11.3749 62.3048 11.3749C61.5623 11.3749 60.9569 11.1002 60.4887 10.5507C60.0204 10.0013 59.7862 9.31447 59.7862 8.49029C59.7862 7.66612 60.0204 6.98504 60.4887 6.44704C60.9569 5.89759 61.5623 5.62288 62.3048 5.62288C63.0472 5.62288 63.6469 5.89759 64.1038 6.44704Z" fill="white"/>
<path d="M73.4956 3.73364C74.2837 3.73364 74.9976 3.93969 75.6373 4.35176C76.2769 4.7524 76.7795 5.3133 77.145 6.03445C77.522 6.75559 77.7105 7.57404 77.7105 8.48978C77.7105 9.40552 77.5277 10.2297 77.1621 10.9623C76.7967 11.6834 76.294 12.25 75.6545 12.6621C75.0262 13.0628 74.3294 13.2631 73.5642 13.2631C73.0159 13.2631 72.4962 13.1543 72.0051 12.9368C71.5254 12.7079 71.1256 12.4332 70.8057 12.1127V15.478C70.8057 15.7757 70.7087 16.0218 70.5144 16.2163C70.3203 16.4225 70.0748 16.5255 69.7778 16.5255C69.4808 16.5255 69.2352 16.4281 69.0409 16.2336C68.8468 16.0389 68.7497 15.787 68.7497 15.478V4.95272C68.7497 4.65511 68.8468 4.40901 69.0409 4.21441C69.2352 4.00837 69.4808 3.90535 69.7778 3.90535C70.0748 3.90535 70.3203 4.00837 70.5144 4.21441C70.7087 4.40901 70.8057 4.65511 70.8057 4.95272V5.0214C71.0799 4.67801 71.4625 4.38039 71.9536 4.12855C72.4448 3.86529 72.9588 3.73364 73.4956 3.73364ZM73.2387 11.3744C73.9697 11.3744 74.5694 11.0996 75.0377 10.5502C75.5059 10.0008 75.7401 9.31395 75.7401 8.48978C75.7401 7.6656 75.5059 6.98453 75.0377 6.44652C74.5807 5.89708 73.9811 5.62236 73.2387 5.62236C72.4962 5.62236 71.8908 5.89708 71.4225 6.44652C70.9543 6.98453 70.7201 7.6656 70.7201 8.48978C70.7201 9.31395 70.9543 10.0008 71.4225 10.5502C71.8908 11.0996 72.4962 11.3744 73.2387 11.3744Z" fill="white"/>
<path fill-rule="evenodd" clip-rule="evenodd" d="M77.3724 11.0677L77.3717 11.069C76.9886 11.8249 76.4586 12.424 75.7818 12.8601L75.7808 12.8607C75.1137 13.2861 74.3729 13.4985 73.5642 13.4985C72.9838 13.4985 72.4317 13.3832 71.91 13.1521L71.9069 13.1508L71.9039 13.1493C71.5843 12.9968 71.2962 12.8236 71.0406 12.629V15.4785C71.0406 15.8314 70.9237 16.1382 70.6832 16.3803C70.4426 16.6345 70.1348 16.7609 69.7778 16.7609C69.4238 16.7609 69.1167 16.6424 68.8747 16.4001C68.6311 16.1558 68.5148 15.8413 68.5148 15.4785V4.95324C68.5148 4.60022 68.632 4.29351 68.8723 4.0514C69.1129 3.79738 69.4207 3.67098 69.7778 3.67098C70.1348 3.67098 70.4426 3.79735 70.6831 4.0514C70.8161 4.18532 70.9114 4.33898 70.9699 4.50928C71.2158 4.2893 71.5083 4.09365 71.8445 3.92104C72.3679 3.64087 72.9193 3.49927 73.4956 3.49927C74.3267 3.49927 75.0846 3.71715 75.7634 4.15403C76.4407 4.57865 76.9709 5.17214 77.3539 5.9275C77.7501 6.68591 77.9454 7.54203 77.9454 8.49029C77.9454 9.43806 77.7561 10.2988 77.3724 11.0677ZM77.145 6.03497C76.7796 5.31381 76.2769 4.75292 75.6374 4.35228C74.9977 3.94021 74.2837 3.73416 73.4956 3.73416C72.9588 3.73416 72.4448 3.8658 71.9537 4.12907C71.5845 4.31835 71.2767 4.5335 71.0301 4.7745C70.9707 4.83258 70.9148 4.89216 70.8625 4.95324C70.8431 4.97593 70.8241 4.99882 70.8057 5.02192V4.95324C70.8057 4.86247 70.7967 4.7765 70.7786 4.69531C70.7375 4.5103 70.6495 4.35017 70.5145 4.21492C70.3203 4.00889 70.0748 3.90587 69.7778 3.90587C69.4808 3.90587 69.2352 4.00889 69.041 4.21492C68.8468 4.40952 68.7497 4.65562 68.7497 4.95324V15.4785C68.7497 15.7875 68.8468 16.0394 69.041 16.2341C69.2352 16.4286 69.4808 16.526 69.7778 16.526C70.0748 16.526 70.3203 16.423 70.5145 16.2168C70.7087 16.0223 70.8057 15.7762 70.8057 15.4785V12.1132C70.8797 12.1874 70.958 12.2591 71.0406 12.3284C71.3149 12.5584 71.6364 12.7614 72.0051 12.9374C72.4962 13.1548 73.0159 13.2636 73.5642 13.2636C74.3294 13.2636 75.0262 13.0633 75.6545 12.6626C76.2941 12.2506 76.7967 11.6839 77.1622 10.9628C77.5278 10.2302 77.7105 9.40603 77.7105 8.49029C77.7105 7.57455 77.522 6.75611 77.145 6.03497ZM74.8571 6.59722C74.4467 6.10379 73.9144 5.85777 73.2387 5.85777C72.5628 5.85777 72.0236 6.104 71.6013 6.5994L71.5997 6.60123C71.1744 7.08993 70.955 7.71345 70.955 8.49029C70.955 9.26702 71.1744 9.89741 71.6013 10.3984C72.0236 10.8938 72.5628 11.14 73.2387 11.14C73.9019 11.14 74.4358 10.8947 74.8589 10.3984M74.8571 6.59722L74.8605 6.60122L74.8571 6.59722ZM74.8589 10.3984C75.2858 9.89741 75.5052 9.26701 75.5052 8.49029C75.5052 7.71345 75.2858 7.08992 74.8605 6.60122M75.0377 10.5507C74.5694 11.1002 73.9697 11.3749 73.2387 11.3749C72.4962 11.3749 71.8908 11.1002 71.4225 10.5507C70.9543 10.0013 70.7201 9.31447 70.7201 8.49029C70.7201 7.66612 70.9543 6.98504 71.4225 6.44704C71.8908 5.89759 72.4962 5.62288 73.2387 5.62288C73.9811 5.62288 74.5808 5.89759 75.0377 6.44704C75.5059 6.98504 75.7401 7.66612 75.7401 8.49029C75.7401 9.31447 75.5059 10.0013 75.0377 10.5507Z" fill="white"/>
</mask>
<g mask="url(#mask0_8512_33052)">
<path d="M9.80257 1.07227C10.1224 1.07227 10.3794 1.16956 10.5736 1.36416C10.7677 1.55875 10.8648 1.81058 10.8648 2.11964V12.044C10.8648 12.3416 10.762 12.5934 10.5564 12.7995C10.3508 12.9941 10.0881 13.0914 9.7683 13.0914C9.48275 13.0914 9.23716 12.9941 9.03156 12.7995C8.82596 12.5934 8.72317 12.3416 8.72317 12.044V8.04335H3.25763V12.044C3.25763 12.3416 3.14911 12.5934 2.9321 12.7995C2.71508 12.9941 2.46379 13.0914 2.17823 13.0914C1.86983 13.0914 1.61283 12.9941 1.40723 12.7995C1.21306 12.5934 1.11597 12.3416 1.11597 12.044V2.11964C1.11597 1.82203 1.21877 1.57592 1.42437 1.38133C1.62997 1.17529 1.89268 1.07227 2.2125 1.07227C2.49805 1.07227 2.74364 1.17529 2.94924 1.38133C3.15484 1.57592 3.25763 1.82203 3.25763 2.11964V6.06878H8.72317V2.11964C8.72317 1.82203 8.83168 1.57592 9.04869 1.38133C9.26572 1.17529 9.517 1.07227 9.80257 1.07227Z" fill="#FF4500"/>
<path fill-rule="evenodd" clip-rule="evenodd" d="M10.7205 12.9681L10.718 12.9704C10.463 13.2117 10.1399 13.3266 9.76838 13.3266C9.42333 13.3266 9.11977 13.2067 8.87012 12.9704L8.86769 12.9681L8.86532 12.9657C8.61467 12.7145 8.48831 12.4026 8.48831 12.0443V8.27857H3.49264V12.0443C3.49264 12.4067 3.3574 12.72 3.09396 12.9701L3.09153 12.9724L3.08904 12.9747C2.8299 13.207 2.52309 13.3266 2.17831 13.3266C1.81569 13.3266 1.49911 13.2102 1.24579 12.9704L1.24092 12.9658L1.23632 12.9609C0.998798 12.7089 0.881104 12.3984 0.881104 12.0443V2.11998C0.881104 1.7627 1.00701 1.45451 1.26049 1.21339C1.51438 0.960216 1.83828 0.837708 2.21258 0.837708C2.56077 0.837708 2.86499 0.9657 3.11327 1.2134C3.36675 1.45452 3.49264 1.76271 3.49264 2.11998V5.83423H8.48831V2.11998C8.48831 1.75837 8.62318 1.44895 8.8894 1.20905C9.14727 0.965246 9.45483 0.837708 9.80265 0.837708C10.1739 0.837708 10.4945 0.952597 10.74 1.19859C10.9837 1.44286 11.0998 1.75715 11.0998 2.11998V12.0443C11.0998 12.4026 10.9735 12.7145 10.7228 12.9657L10.7205 12.9681ZM9.04877 1.38166C8.83176 1.57626 8.72325 1.82236 8.72325 2.11998V6.06912H3.2577V2.11998C3.2577 1.82236 3.15491 1.57626 2.94931 1.38166C2.74372 1.17562 2.49813 1.0726 2.21258 1.0726C1.89275 1.0726 1.63004 1.17562 1.42444 1.38166C1.21884 1.57626 1.11604 1.82236 1.11604 2.11998V12.0443C1.11604 12.3419 1.21313 12.5938 1.40731 12.7998C1.61291 12.9944 1.86991 13.0917 2.17831 13.0917C2.46387 13.0917 2.71515 12.9944 2.93218 12.7998C3.14919 12.5938 3.2577 12.3419 3.2577 12.0443V8.04368H8.72325V12.0443C8.72325 12.3419 8.82604 12.5938 9.03164 12.7998C9.23724 12.9944 9.48283 13.0917 9.76838 13.0917C10.0882 13.0917 10.3509 12.9944 10.5565 12.7998C10.7621 12.5938 10.8649 12.3419 10.8649 12.0443V2.11998C10.8649 1.81091 10.7678 1.55909 10.5736 1.36449C10.3795 1.1699 10.1225 1.0726 9.80265 1.0726C9.51708 1.0726 9.2658 1.17562 9.04877 1.38166Z" fill="#FF4500"/>
<path d="M20.6779 3.73364C20.9749 3.73364 21.2204 3.83095 21.4147 4.02553C21.6088 4.22013 21.7059 4.47196 21.7059 4.78103V12.044C21.7059 12.3416 21.6088 12.5935 21.4147 12.7995C21.2204 12.9941 20.9749 13.0914 20.6779 13.0914C20.3809 13.0914 20.1353 12.9941 19.9412 12.7995C19.7585 12.6049 19.6613 12.3588 19.65 12.0612C19.3643 12.3931 18.976 12.6793 18.4848 12.9197C18.0051 13.1486 17.4968 13.2631 16.96 13.2631C16.1719 13.2631 15.458 13.0628 14.8183 12.6621C14.1787 12.25 13.6704 11.6834 13.2935 10.9623C12.9279 10.2411 12.7452 9.4227 12.7452 8.50696C12.7452 7.5912 12.9279 6.77277 13.2935 6.05161C13.659 5.31902 14.1558 4.75241 14.784 4.35177C15.4237 3.93969 16.1262 3.73364 16.8914 3.73364C17.4398 3.73364 17.9537 3.83666 18.4334 4.04271C18.9131 4.23731 19.3187 4.48914 19.65 4.79819V4.78103C19.65 4.48341 19.7469 4.23731 19.9412 4.04271C20.1353 3.83666 20.3809 3.73364 20.6779 3.73364ZM17.217 11.3744C17.9594 11.3744 18.5648 11.1054 19.0332 10.5674C19.5014 10.0179 19.7356 9.33112 19.7356 8.50696C19.7356 7.68278 19.5014 6.99598 19.0332 6.44652C18.5648 5.89708 17.9594 5.62236 17.217 5.62236C16.4859 5.62236 15.8863 5.89708 15.4179 6.44652C14.9497 6.99598 14.7155 7.68278 14.7155 8.50696C14.7155 9.33112 14.944 10.0179 15.4008 10.5674C15.8691 11.1054 16.4745 11.3744 17.217 11.3744Z" fill="#FF4500"/>
<path fill-rule="evenodd" clip-rule="evenodd" d="M21.581 3.85993L21.5811 3.86C21.8247 4.10425 21.9409 4.41851 21.9409 4.78136V12.0443C21.9409 12.3985 21.8232 12.7089 21.5857 12.9609L21.5834 12.9633L21.581 12.9658C21.3389 13.2082 21.0318 13.3266 20.6779 13.3266C20.324 13.3266 20.0168 13.2083 19.7749 12.9657L19.7724 12.9632L19.7699 12.9606C19.6523 12.8353 19.5646 12.6933 19.5057 12.5371C19.2474 12.761 18.9406 12.9585 18.5882 13.131L18.5861 13.132L18.5861 13.132C18.0744 13.3762 17.5315 13.4983 16.96 13.4983C16.1299 13.4983 15.3724 13.2866 14.6936 12.8615L14.6911 12.8599L14.6911 12.8599C14.0148 12.4243 13.4797 11.826 13.0852 11.0714L13.0839 11.0688L13.0839 11.0688C12.6996 10.3106 12.5103 9.45499 12.5103 8.50729C12.5103 7.55985 12.6995 6.70447 13.0836 5.94643C13.466 5.18013 13.9901 4.57998 14.6573 4.15436C15.335 3.71789 16.0816 3.49908 16.8915 3.49908C17.4692 3.49908 18.0141 3.60765 18.5239 3.82628C18.8791 3.97052 19.1983 4.14597 19.4803 4.35349C19.5384 4.17677 19.6354 4.01765 19.7725 3.87953C20.0131 3.62546 20.3209 3.49908 20.6779 3.49908C21.0318 3.49908 21.3389 3.61746 21.581 3.85993ZM19.9412 4.04304C19.8092 4.17525 19.7222 4.33122 19.6799 4.51097C19.6599 4.5958 19.65 4.68593 19.65 4.78136V4.79852C19.6438 4.79278 19.6376 4.78706 19.6314 4.78136C19.5655 4.72082 19.4968 4.66251 19.4251 4.60642C19.1402 4.38344 18.8096 4.19564 18.4334 4.04304C17.9537 3.83699 17.4398 3.73398 16.8915 3.73398C16.1262 3.73398 15.4237 3.94003 14.7841 4.3521C14.1558 4.75275 13.659 5.31935 13.2935 6.05195C12.928 6.7731 12.7452 7.59153 12.7452 8.50729C12.7452 9.42303 12.928 10.2415 13.2935 10.9626C13.6704 11.6838 14.1787 12.2504 14.8183 12.6625C15.458 13.0631 16.1719 13.2634 16.96 13.2634C17.4969 13.2634 18.0051 13.1489 18.4849 12.92C18.8633 12.7348 19.1807 12.5224 19.4371 12.2828C19.5135 12.2114 19.5844 12.1377 19.65 12.0615C19.654 12.1674 19.6689 12.2668 19.6947 12.3597C19.7413 12.5278 19.8235 12.6745 19.9412 12.7998C20.1353 12.9944 20.3809 13.0917 20.6779 13.0917C20.9749 13.0917 21.2205 12.9944 21.4147 12.7998C21.6088 12.5938 21.706 12.3419 21.706 12.0443V4.78136C21.706 4.47229 21.6088 4.22047 21.4147 4.02587C21.2205 3.83128 20.9749 3.73398 20.6779 3.73398C20.3809 3.73398 20.1353 3.83699 19.9412 4.04304ZM18.8552 10.4144C19.2815 9.91361 19.5006 9.28352 19.5006 8.50729C19.5006 7.73057 19.2813 7.1002 18.8544 6.59921C18.4321 6.10381 17.8929 5.85759 17.217 5.85759C16.5538 5.85759 16.0198 6.10288 15.5968 6.59921C15.1698 7.10019 14.9505 7.73057 14.9505 8.50729C14.9505 9.28441 15.1644 9.91492 15.5798 10.4155C16.0012 10.8986 16.5403 11.1398 17.217 11.1398C17.8942 11.1398 18.4336 10.8982 18.8552 10.4144ZM15.4008 10.5677C14.944 10.0183 14.7155 9.33145 14.7155 8.50729C14.7155 7.68312 14.9497 6.99631 15.418 6.44686C15.8863 5.89741 16.4859 5.6227 17.217 5.6227C17.9594 5.6227 18.5648 5.89741 19.0332 6.44686C19.5014 6.99631 19.7356 7.68312 19.7356 8.50729C19.7356 9.33145 19.5014 10.0183 19.0332 10.5677C18.5648 11.1057 17.9594 11.3747 17.217 11.3747C16.4745 11.3747 15.8692 11.1057 15.4008 10.5677Z" fill="#FF4500"/>
<path d="M24.0167 1.67281C24.0167 1.35423 24.1086 1.1083 24.2928 0.935032C24.4824 0.756176 24.7696 0.666748 25.1544 0.666748C25.5393 0.666748 25.8236 0.756176 26.0077 0.935032C26.1973 1.1083 26.2921 1.35423 26.2921 1.67281V10.2998C26.2921 10.5178 26.3061 10.6994 26.3341 10.8448C26.3619 10.9901 26.4009 11.1047 26.4511 11.1885C26.5068 11.2723 26.571 11.331 26.6436 11.3646C26.7161 11.3981 26.7969 11.4149 26.8861 11.4149C26.9642 11.4149 27.034 11.4121 27.0952 11.4065C27.1566 11.3953 27.218 11.3897 27.2794 11.3897C27.3519 11.3897 27.4215 11.4037 27.4885 11.4316C27.5554 11.4596 27.614 11.5015 27.6642 11.5574C27.7143 11.6133 27.7534 11.6831 27.7813 11.767C27.8148 11.8452 27.8315 11.9375 27.8315 12.0437C27.8315 12.2057 27.8064 12.3427 27.7563 12.4545C27.7116 12.5662 27.6475 12.6641 27.5637 12.7479C27.508 12.8038 27.4411 12.8569 27.363 12.9072C27.2849 12.9575 27.1901 13.005 27.0785 13.0497C26.9726 13.0888 26.8443 13.1196 26.6938 13.1419C26.5432 13.1699 26.3702 13.1839 26.1751 13.1839C25.4667 13.1839 24.9286 12.9966 24.5604 12.6221C24.1979 12.2421 24.0167 11.6692 24.0167 10.9034V1.67281Z" fill="#FF4500"/>
<path fill-rule="evenodd" clip-rule="evenodd" d="M26.5648 10.8001L26.5649 10.8003C26.5892 10.9271 26.6201 11.011 26.65 11.0629C26.6866 11.1165 26.7188 11.1402 26.7422 11.151L26.7423 11.151C26.7805 11.1687 26.8271 11.1796 26.8862 11.1796C26.9547 11.1796 27.0139 11.1773 27.0644 11.1731C27.1358 11.1607 27.2075 11.1545 27.2795 11.1545C27.3831 11.1545 27.4835 11.1747 27.579 11.2145L27.5792 11.2146C27.6793 11.2564 27.7664 11.3192 27.8391 11.4002C27.9122 11.4816 27.965 11.5779 28.0013 11.6835C28.0471 11.7947 28.0665 11.9165 28.0665 12.0433C28.0665 12.2265 28.0386 12.3967 27.9727 12.5457C27.9165 12.6846 27.8356 12.8079 27.7301 12.9135C27.6606 12.9831 27.5802 13.0464 27.4903 13.1043C27.3966 13.1647 27.2876 13.2186 27.166 13.2674L27.1601 13.2698L27.16 13.2697C27.0358 13.3156 26.8923 13.3494 26.7325 13.3733C26.5656 13.404 26.3793 13.4184 26.1752 13.4184C25.4264 13.4184 24.819 13.2198 24.3929 12.7865L24.3904 12.7839L24.3904 12.7839C23.9706 12.3437 23.7818 11.7018 23.7818 10.9031V1.67247C23.7818 1.30718 23.8888 0.992376 24.1317 0.763732C24.3819 0.52791 24.7379 0.431519 25.1545 0.431519C25.569 0.431519 25.9234 0.526965 26.1689 0.763729C26.4167 0.991628 26.5271 1.30626 26.5271 1.67247V10.2995C26.5271 10.5089 26.5407 10.6744 26.5648 10.8001ZM26.0077 0.934694C25.8237 0.755837 25.5394 0.666409 25.1545 0.666409C24.7697 0.666409 24.4825 0.755837 24.2928 0.934694C24.1087 1.10796 24.0167 1.35389 24.0167 1.67247V10.9031C24.0167 11.6688 24.198 12.2417 24.5605 12.6218C24.9287 12.9963 25.4668 13.1835 26.1752 13.1835C26.3703 13.1835 26.5432 13.1695 26.6938 13.1416C26.8444 13.1193 26.9727 13.0885 27.0786 13.0494C27.1901 13.0047 27.285 12.9572 27.3631 12.9069C27.4412 12.8565 27.508 12.8035 27.5638 12.7476C27.6475 12.6637 27.7117 12.5659 27.7563 12.4541C27.8065 12.3423 27.8316 12.2054 27.8316 12.0433C27.8316 11.9371 27.8148 11.8449 27.7814 11.7667C27.7535 11.6828 27.7144 11.6129 27.6643 11.557C27.6141 11.5012 27.5555 11.4592 27.4886 11.4313C27.4216 11.4033 27.352 11.3894 27.2795 11.3894C27.2181 11.3894 27.1567 11.395 27.0953 11.4061C27.0341 11.4117 26.9643 11.4145 26.8862 11.4145C26.797 11.4145 26.7162 11.3978 26.6437 11.3642C26.5711 11.3307 26.5069 11.272 26.4512 11.1882C26.401 11.1043 26.362 10.9897 26.3341 10.8444C26.3062 10.6991 26.2922 10.5175 26.2922 10.2995V1.67247C26.2922 1.35389 26.1974 1.10796 26.0077 0.934694Z" fill="#FF4500"/>
<path d="M29.5818 1.67281C29.5818 1.35423 29.6737 1.1083 29.8578 0.935032C30.0474 0.756176 30.3346 0.666748 30.7195 0.666748C31.1043 0.666748 31.3888 0.756176 31.5728 0.935032C31.7624 1.1083 31.8573 1.35423 31.8573 1.67281V10.2998C31.8573 10.5178 31.8712 10.6994 31.899 10.8448C31.927 10.9901 31.9661 11.1047 32.0162 11.1885C32.072 11.2723 32.1361 11.331 32.2086 11.3646C32.2811 11.3981 32.3621 11.4149 32.4513 11.4149C32.5294 11.4149 32.599 11.4121 32.6604 11.4065C32.7218 11.3953 32.7832 11.3897 32.8444 11.3897C32.9169 11.3897 32.9866 11.4037 33.0536 11.4316C33.1205 11.4596 33.179 11.5015 33.2293 11.5574C33.2795 11.6133 33.3185 11.6831 33.3463 11.767C33.3799 11.8452 33.3966 11.9375 33.3966 12.0437C33.3966 12.2057 33.3715 12.3427 33.3213 12.4545C33.2767 12.5662 33.2126 12.6641 33.1289 12.7479C33.0731 12.8038 33.0062 12.8569 32.9281 12.9072C32.85 12.9575 32.7552 13.005 32.6437 13.0497C32.5377 13.0888 32.4095 13.1196 32.2589 13.1419C32.1083 13.1699 31.9354 13.1839 31.7401 13.1839C31.0318 13.1839 30.4936 12.9966 30.1255 12.6221C29.7629 12.2421 29.5818 11.6692 29.5818 10.9034V1.67281Z" fill="#FF4500"/>
<path fill-rule="evenodd" clip-rule="evenodd" d="M33.1441 11.2145L33.1442 11.2146C33.2445 11.2565 33.3313 11.3193 33.4039 11.3999L33.4041 11.4002C33.4771 11.4815 33.53 11.5778 33.5662 11.6835C33.6122 11.7948 33.6315 11.9166 33.6315 12.0433C33.6315 12.2264 33.6037 12.3966 33.5376 12.5457C33.4815 12.6847 33.4005 12.808 33.2951 12.9135C33.2257 12.9831 33.1452 13.0464 33.0553 13.1043C32.9616 13.1647 32.8527 13.2186 32.731 13.2674L32.7251 13.2698L32.725 13.2697C32.6008 13.3156 32.4573 13.3494 32.2975 13.3733C32.1306 13.404 31.9443 13.4184 31.7401 13.4184C30.9914 13.4184 30.3838 13.2198 29.9579 12.7864L29.9554 12.7839L29.9555 12.7839C29.5355 12.3437 29.3468 11.7017 29.3468 10.9031V1.67247C29.3468 1.30717 29.4538 0.992392 29.6966 0.763758C29.9467 0.527911 30.3028 0.431519 30.7195 0.431519C31.1339 0.431519 31.4884 0.526957 31.7339 0.763728C31.9817 0.991627 32.0922 1.30626 32.0922 1.67247V10.2995C32.0922 10.5088 32.1057 10.6745 32.1297 10.8002C32.1542 10.9271 32.1851 11.011 32.215 11.0629C32.2516 11.1165 32.2838 11.1402 32.3072 11.151C32.3453 11.1687 32.392 11.1796 32.4512 11.1796C32.5197 11.1796 32.5788 11.1773 32.6295 11.1731C32.7008 11.1607 32.7725 11.1545 32.8444 11.1545C32.9479 11.1545 33.0484 11.1746 33.1441 11.2145ZM32.6603 11.4061C32.5989 11.4117 32.5293 11.4145 32.4512 11.4145C32.362 11.4145 32.281 11.3978 32.2085 11.3642C32.1361 11.3307 32.0719 11.272 32.0162 11.1882C31.966 11.1043 31.927 10.9897 31.899 10.8444C31.8712 10.6991 31.8572 10.5175 31.8572 10.2995V1.67247C31.8572 1.35389 31.7624 1.10796 31.5727 0.934694C31.3887 0.755837 31.1042 0.666409 30.7195 0.666409C30.3346 0.666409 30.0474 0.755837 29.8577 0.934694C29.6737 1.10796 29.5817 1.35389 29.5817 1.67247V10.9031C29.5817 11.6688 29.7629 12.2417 30.1255 12.6218C30.4935 12.9963 31.0318 13.1835 31.7401 13.1835C31.9353 13.1835 32.1082 13.1695 32.2588 13.1416C32.4094 13.1193 32.5377 13.0885 32.6436 13.0494C32.7551 13.0047 32.85 12.9572 32.9281 12.9069C33.0062 12.8565 33.0731 12.8035 33.1288 12.7476C33.2126 12.6637 33.2767 12.5659 33.3212 12.4541C33.3715 12.3423 33.3966 12.2054 33.3966 12.0433C33.3966 11.9371 33.3799 11.8449 33.3463 11.7667C33.3185 11.6828 33.2794 11.6129 33.2293 11.557C33.179 11.5012 33.1205 11.4592 33.0536 11.4313C32.9866 11.4033 32.9168 11.3894 32.8444 11.3894C32.7831 11.3894 32.7217 11.395 32.6603 11.4061Z" fill="#FF4500"/>
<path d="M43.8707 8.50696C43.8707 9.4227 43.6651 10.2469 43.2538 10.9794C42.8427 11.7006 42.2773 12.2615 41.5576 12.6621C40.8495 13.0628 40.067 13.2631 39.2104 13.2631C38.3423 13.2631 37.5542 13.0628 36.846 12.6621C36.1377 12.2615 35.5782 11.7006 35.1669 10.9794C34.7558 10.2469 34.5501 9.4227 34.5501 8.50696C34.5501 7.5912 34.7558 6.77277 35.1669 6.05161C35.5782 5.31902 36.1377 4.75241 36.846 4.35177C37.5542 3.93969 38.3423 3.73364 39.2104 3.73364C40.067 3.73364 40.8495 3.93969 41.5576 4.35177C42.2773 4.75241 42.8427 5.31902 43.2538 6.05161C43.6651 6.77277 43.8707 7.5912 43.8707 8.50696ZM41.8146 8.50696C41.8146 7.94606 41.6947 7.44812 41.4549 7.01314C41.2263 6.56672 40.9123 6.22332 40.5126 5.98293C40.1242 5.74256 39.6902 5.62236 39.2104 5.62236C38.7307 5.62236 38.2909 5.74256 37.8911 5.98293C37.5027 6.22332 37.1887 6.56672 36.9488 7.01314C36.7204 7.44812 36.6061 7.94606 36.6061 8.50696C36.6061 9.06784 36.7204 9.56578 36.9488 10.0008C37.1887 10.4357 37.5027 10.7734 37.8911 11.0138C38.2909 11.2542 38.7307 11.3744 39.2104 11.3744C39.6902 11.3744 40.1242 11.2542 40.5126 11.0138C40.9123 10.7734 41.2263 10.4357 41.4549 10.0008C41.6947 9.56578 41.8146 9.06784 41.8146 8.50696Z" fill="#FF4500"/>
<path fill-rule="evenodd" clip-rule="evenodd" d="M43.4587 11.0947L43.4579 11.0961C43.0259 11.854 42.4298 12.4456 41.6727 12.8673C40.9275 13.2887 40.1051 13.4983 39.2104 13.4983C38.3046 13.4983 37.4762 13.2888 36.7303 12.8669C35.9844 12.4449 35.3946 11.8533 34.9628 11.0961L34.962 11.0947L34.962 11.0947C34.5294 10.3239 34.3152 9.45957 34.3152 8.50729C34.3152 7.55532 34.5293 6.69629 34.9624 5.9363C35.3937 5.16836 35.983 4.5707 36.7291 4.14837C37.475 3.71464 38.3039 3.49908 39.2104 3.49908C40.1058 3.49908 40.9287 3.71479 41.6739 4.14797C42.4312 4.57002 43.0268 5.16765 43.4583 5.93634C43.8916 6.69633 44.1057 7.55535 44.1057 8.50729C44.1057 9.45957 43.8914 10.3239 43.4587 11.0947ZM43.2538 6.05195C42.8427 5.31935 42.2773 4.75275 41.5577 4.3521C40.8495 3.94003 40.067 3.73398 39.2104 3.73398C38.3423 3.73398 37.5542 3.94003 36.8461 4.3521C36.1378 4.75275 35.5782 5.31935 35.1669 6.05195C34.7558 6.7731 34.5501 7.59153 34.5501 8.50729C34.5501 9.42303 34.7558 10.2472 35.1669 10.9798C35.5782 11.7009 36.1378 12.2618 36.8461 12.6625C37.5542 13.0631 38.3423 13.2634 39.2104 13.2634C40.067 13.2634 40.8495 13.0631 41.5577 12.6625C42.2773 12.2618 42.8427 11.7009 43.2538 10.9798C43.6651 10.2472 43.8707 9.42303 43.8707 8.50729C43.8707 7.59153 43.6651 6.7731 43.2538 6.05195ZM41.2474 7.12371L41.2458 7.1205C41.0356 6.71001 40.7508 6.40063 40.3915 6.18455L40.3889 6.183L40.3889 6.18299C40.0396 5.96678 39.6488 5.85759 39.2104 5.85759C38.7726 5.85759 38.3753 5.96655 38.0135 6.18378C37.6648 6.39994 37.3786 6.71044 37.1563 7.12368C36.9483 7.52026 36.8411 7.97947 36.8411 8.50729C36.8411 9.03459 36.9481 9.49344 37.1557 9.88976C37.3775 10.2911 37.6636 10.5968 38.0135 10.8136C38.3753 11.0308 38.7726 11.1398 39.2104 11.1398C39.6488 11.1398 40.0396 11.0306 40.3889 10.8144L40.3915 10.8128L40.3915 10.8128C40.7524 10.5958 41.0372 10.2909 41.2469 9.89185L41.2491 9.88768L41.2492 9.8877C41.4674 9.49174 41.5797 9.03372 41.5797 8.50729C41.5797 7.98084 41.4674 7.52282 41.2492 7.12686L41.2474 7.12371ZM37.8911 11.0141C37.5028 10.7737 37.1887 10.4361 36.9488 10.0011C36.7204 9.56611 36.6061 9.06817 36.6061 8.50729C36.6061 7.94639 36.7204 7.44845 36.9488 7.01348C37.1887 6.56705 37.5028 6.22366 37.8911 5.98327C38.2909 5.74289 38.7307 5.6227 39.2104 5.6227C39.6902 5.6227 40.1242 5.74289 40.5126 5.98327C40.9123 6.22366 41.2264 6.56705 41.4549 7.01348C41.6947 7.44845 41.8146 7.94639 41.8146 8.50729C41.8146 9.06817 41.6947 9.56611 41.4549 10.0011C41.2264 10.4361 40.9123 10.7737 40.5126 11.0141C40.1242 11.2545 39.6902 11.3747 39.2104 11.3747C38.7307 11.3747 38.2909 11.2545 37.8911 11.0141Z" fill="#FF4500"/>
<path d="M55.5943 11.7525C55.6514 11.9013 55.6799 12.0386 55.6799 12.1645C55.6799 12.4622 55.5828 12.7083 55.3886 12.9029C55.1944 13.086 54.9717 13.1776 54.7204 13.1776C54.5148 13.1776 54.3263 13.1146 54.1551 12.9887C53.9951 12.8628 53.8695 12.6911 53.7781 12.4736L52.8872 10.396H47.7815L46.8905 12.4908C46.8105 12.7083 46.685 12.88 46.5136 13.0059C46.3536 13.1203 46.1765 13.1776 45.9824 13.1776C45.6854 13.1776 45.457 13.0975 45.2971 12.9372C45.1486 12.7769 45.0744 12.5595 45.0744 12.2847C45.0744 12.1817 45.0914 12.073 45.1257 11.9585L49.3919 1.69075C49.4834 1.46181 49.6204 1.28439 49.8032 1.15847C49.9859 1.03256 50.1915 0.981047 50.4199 1.00394C50.6256 1.00394 50.8141 1.0669 50.9853 1.19281C51.1682 1.30728 51.2994 1.47326 51.3794 1.69075L55.5943 11.7525ZM48.3981 8.40118C48.3193 8.59064 48.4588 8.7992 48.6643 8.7992H52.0842C52.2897 8.7992 52.4292 8.59064 52.3504 8.40118L50.6404 4.2884C50.5421 4.05182 50.2065 4.05182 50.1081 4.2884L48.3981 8.40118Z" fill="#FF4500"/>
<path fill-rule="evenodd" clip-rule="evenodd" d="M55.8124 11.665L55.8137 11.6683C55.8785 11.8371 55.9149 12.0033 55.9149 12.1645C55.9149 12.5187 55.7969 12.8262 55.5551 13.0687L55.5525 13.0712L55.5499 13.0737C55.3151 13.2951 55.0358 13.4124 54.7205 13.4124C54.463 13.4124 54.226 13.3324 54.0159 13.1779L54.0128 13.1756L54.0098 13.1732C53.8141 13.0192 53.6662 12.8134 53.5619 12.5654C53.5618 12.5651 53.5617 12.5648 53.5616 12.5645L52.7324 10.6309H47.9369L47.1089 12.5775C47.0144 12.8315 46.8632 13.0405 46.6528 13.1951L46.6504 13.1969C46.4512 13.3395 46.2263 13.4124 45.9825 13.4124C45.6433 13.4124 45.3473 13.32 45.1308 13.1031L45.1277 13.1L45.1248 13.0968C44.9265 12.8827 44.8395 12.6027 44.8395 12.2847C44.8395 12.1557 44.8608 12.0242 44.9007 11.8911L44.9042 11.8795L49.1744 1.60203C49.2811 1.33579 49.4453 1.11983 49.6699 0.965027C49.897 0.80855 50.1545 0.743741 50.4318 0.769065C50.6819 0.771445 50.9124 0.84958 51.1175 0.9984C51.3425 1.14154 51.5024 1.34737 51.5981 1.60456L55.8124 11.665ZM51.3795 1.69071C51.2995 1.47322 51.1682 1.30724 50.9854 1.19277C50.8142 1.06686 50.6257 1.0039 50.42 1.0039C50.1916 0.981006 49.986 1.03252 49.8032 1.15843C49.6205 1.28435 49.4835 1.46177 49.392 1.69071L45.1258 11.9585C45.0915 12.0729 45.0745 12.1817 45.0745 12.2847C45.0745 12.5594 45.1487 12.7769 45.2971 12.9372C45.4571 13.0974 45.6855 13.1775 45.9825 13.1775C46.1766 13.1775 46.3537 13.1203 46.5137 13.0058C46.685 12.8799 46.8105 12.7082 46.8905 12.4907L47.7815 10.396H52.8873L53.7782 12.4736C53.8695 12.6911 53.9952 12.8628 54.1552 12.9887C54.3264 13.1146 54.5148 13.1775 54.7205 13.1775C54.9718 13.1775 55.1945 13.086 55.3887 12.9028C55.5828 12.7082 55.68 12.4621 55.68 12.1645C55.68 12.0386 55.6514 11.9012 55.5944 11.7524L51.3795 1.69071ZM48.6151 8.49135C48.6009 8.52555 48.6258 8.56426 48.6644 8.56426H52.0843C52.1228 8.56426 52.1478 8.52555 52.1336 8.49135L50.4236 4.37852C50.4178 4.36466 50.4106 4.3579 50.4042 4.35387C50.3967 4.34914 50.3864 4.34582 50.3744 4.34582C50.3624 4.34582 50.352 4.34915 50.3445 4.35389C50.3381 4.35794 50.3309 4.36466 50.3251 4.37852C50.3251 4.37854 50.3251 4.3785 50.3251 4.37852L48.6151 8.49135ZM50.1082 4.28836C50.2066 4.05178 50.5422 4.05178 50.6405 4.28836L52.3505 8.40114C52.4293 8.5906 52.2898 8.79916 52.0843 8.79916H48.6644C48.4589 8.79916 48.3194 8.5906 48.3982 8.40114L50.1082 4.28836Z" fill="#FF4500"/>
<path d="M62.5619 3.73364C63.35 3.73364 64.0638 3.93969 64.7035 4.35176C65.3432 4.75241 65.8457 5.3133 66.2113 6.03445C66.5881 6.75559 66.7766 7.57404 66.7766 8.48978C66.7766 9.40552 66.5939 10.2297 66.2285 10.9623C65.8629 11.6834 65.3603 12.25 64.7207 12.6621C64.0925 13.0628 63.3957 13.2631 62.6304 13.2631C62.0822 13.2631 61.5624 13.1543 61.0713 12.9368C60.5915 12.7079 60.1918 12.4332 59.872 12.1127V15.478C59.872 15.7757 59.7749 16.0218 59.5806 16.2163C59.3865 16.4225 59.1409 16.5255 58.8439 16.5255C58.5469 16.5255 58.3014 16.4281 58.1072 16.2336C57.913 16.0389 57.8159 15.787 57.8159 15.478V4.95272C57.8159 4.65511 57.913 4.40901 58.1072 4.21441C58.3014 4.00837 58.5469 3.90535 58.8439 3.90535C59.1409 3.90535 59.3865 4.00837 59.5806 4.21441C59.7749 4.40901 59.872 4.65511 59.872 4.95272V5.0214C60.1461 4.67801 60.5287 4.38039 61.0198 4.12855C61.5111 3.86529 62.025 3.73364 62.5619 3.73364ZM62.3048 11.3744C63.0359 11.3744 63.6355 11.0996 64.1039 10.5502C64.5722 10.0008 64.8063 9.31395 64.8063 8.48978C64.8063 7.6656 64.5722 6.98453 64.1039 6.44652C63.6469 5.89708 63.0473 5.62236 62.3048 5.62236C61.5624 5.62236 60.957 5.89708 60.4888 6.44652C60.0204 6.98453 59.7862 7.6656 59.7862 8.48978C59.7862 9.31395 60.0204 10.0008 60.4888 10.5502C60.957 11.0996 61.5624 11.3744 62.3048 11.3744Z" fill="#FF4500"/>
<path fill-rule="evenodd" clip-rule="evenodd" d="M58.1072 16.2339C57.9129 16.0393 57.8158 15.7874 57.8158 15.4783V4.95306C57.8158 4.65544 57.9129 4.40934 58.1072 4.21474C58.3013 4.0087 58.5469 3.90569 58.8439 3.90569C59.1409 3.90569 59.3864 4.0087 59.5806 4.21474C59.7156 4.34998 59.8037 4.5101 59.8448 4.6951C59.8629 4.7763 59.8719 4.86228 59.8719 4.95306V5.02174C59.8904 4.99864 59.9093 4.97574 59.9287 4.95306C59.981 4.89195 60.0369 4.83235 60.0963 4.77425C60.3429 4.53328 60.6507 4.31815 61.0198 4.12888C61.511 3.86562 62.0249 3.73398 62.5619 3.73398C63.35 3.73398 64.0638 3.94003 64.7035 4.3521C65.3432 4.75275 65.8457 5.31363 66.2113 6.03478C66.5881 6.75592 66.7766 7.57437 66.7766 8.49011C66.7766 9.40585 66.5939 10.23 66.2284 10.9626C65.8628 11.6838 65.3603 12.2504 64.7206 12.6625C64.0924 13.0631 63.3957 13.2634 62.6303 13.2634C62.0821 13.2634 61.5623 13.1547 61.0712 12.9372C60.7025 12.7612 60.3811 12.5583 60.1069 12.3282C60.0243 12.259 59.946 12.1872 59.8719 12.113V15.4783C59.8719 15.776 59.7748 16.0221 59.5806 16.2166C59.3864 16.4228 59.1409 16.5258 58.8439 16.5258C58.5469 16.5258 58.3013 16.4284 58.1072 16.2339ZM60.1069 12.6289V15.4783C60.1069 15.8313 59.9897 16.1381 59.7493 16.3801C59.5087 16.6343 59.2009 16.7607 58.8439 16.7607C58.4899 16.7607 58.1828 16.6422 57.9409 16.3998C57.6971 16.1555 57.5809 15.8411 57.5809 15.4783V4.95306C57.5809 4.60006 57.6981 4.29333 57.9385 4.05122C58.1791 3.79717 58.4869 3.6708 58.8439 3.6708C59.2009 3.6708 59.5087 3.79717 59.7492 4.05122C59.8822 4.18511 59.9775 4.33876 60.0361 4.50907C60.282 4.28909 60.5744 4.09345 60.9107 3.92085C61.4341 3.64069 61.9854 3.49908 62.5619 3.49908C63.3929 3.49908 64.1507 3.71696 64.8294 4.15383C65.507 4.57849 66.037 5.17198 66.4202 5.92731C66.8162 6.68571 67.0115 7.54183 67.0115 8.49011C67.0115 9.43788 66.8222 10.2986 66.4387 11.0675L66.438 11.0688C66.0548 11.8247 65.5248 12.4238 64.8479 12.8599L64.847 12.8605C64.18 13.2859 63.4392 13.4983 62.6303 13.4983C62.0501 13.4983 61.4978 13.383 60.9761 13.1519L60.973 13.1506L60.97 13.1492C60.6505 12.9967 60.3624 12.8235 60.1069 12.6289ZM63.9232 6.59703C63.5128 6.10361 62.9805 5.85759 62.3048 5.85759C61.6289 5.85759 61.0897 6.10382 60.6676 6.59919L60.666 6.60107C60.2405 7.08976 60.0211 7.71327 60.0211 8.49011C60.0211 9.26684 60.2405 9.89721 60.6675 10.3982C61.0897 10.8935 61.6289 11.1398 62.3048 11.1398C62.968 11.1398 63.5019 10.8945 63.925 10.3982C64.352 9.89723 64.5713 9.26687 64.5713 8.49011C64.5713 7.71324 64.352 7.08973 63.9266 6.60106L63.9232 6.59703ZM64.1038 6.44685C64.5722 6.98486 64.8062 7.66594 64.8062 8.49011C64.8062 9.31428 64.5722 10.0011 64.1038 10.5505C63.6355 11.1 63.0358 11.3747 62.3048 11.3747C61.5623 11.3747 60.9569 11.1 60.4887 10.5505C60.0204 10.0011 59.7862 9.31428 59.7862 8.49011C59.7862 7.66594 60.0204 6.98486 60.4887 6.44685C60.9569 5.89741 61.5623 5.6227 62.3048 5.6227C63.0472 5.6227 63.6469 5.89741 64.1038 6.44685Z" fill="#FF4500"/>
<path d="M73.4956 3.73364C74.2837 3.73364 74.9976 3.93969 75.6373 4.35176C76.2769 4.7524 76.7795 5.3133 77.145 6.03445C77.522 6.75559 77.7105 7.57404 77.7105 8.48978C77.7105 9.40552 77.5277 10.2297 77.1621 10.9623C76.7967 11.6834 76.294 12.25 75.6545 12.6621C75.0262 13.0628 74.3294 13.2631 73.5642 13.2631C73.0159 13.2631 72.4962 13.1543 72.0051 12.9368C71.5254 12.7079 71.1256 12.4332 70.8057 12.1127V15.478C70.8057 15.7757 70.7087 16.0218 70.5144 16.2163C70.3203 16.4225 70.0748 16.5255 69.7778 16.5255C69.4808 16.5255 69.2352 16.4281 69.0409 16.2336C68.8468 16.0389 68.7497 15.787 68.7497 15.478V4.95272C68.7497 4.65511 68.8468 4.40901 69.0409 4.21441C69.2352 4.00837 69.4808 3.90535 69.7778 3.90535C70.0748 3.90535 70.3203 4.00837 70.5144 4.21441C70.7087 4.40901 70.8057 4.65511 70.8057 4.95272V5.0214C71.0799 4.67801 71.4625 4.38039 71.9536 4.12855C72.4448 3.86529 72.9588 3.73364 73.4956 3.73364ZM73.2387 11.3744C73.9697 11.3744 74.5694 11.0996 75.0377 10.5502C75.5059 10.0008 75.7401 9.31395 75.7401 8.48978C75.7401 7.6656 75.5059 6.98453 75.0377 6.44652C74.5807 5.89708 73.9811 5.62236 73.2387 5.62236C72.4962 5.62236 71.8908 5.89708 71.4225 6.44652C70.9543 6.98453 70.7201 7.6656 70.7201 8.48978C70.7201 9.31395 70.9543 10.0008 71.4225 10.5502C71.8908 11.0996 72.4962 11.3744 73.2387 11.3744Z" fill="#FF4500"/>
<path fill-rule="evenodd" clip-rule="evenodd" d="M77.3724 11.0675L77.3717 11.0688C76.9886 11.8247 76.4586 12.4238 75.7818 12.8599L75.7808 12.8605C75.1137 13.2859 74.3729 13.4983 73.5642 13.4983C72.9838 13.4983 72.4317 13.383 71.91 13.1519L71.9069 13.1506L71.9039 13.1492C71.5843 12.9967 71.2962 12.8234 71.0406 12.6288V15.4783C71.0406 15.8312 70.9237 16.138 70.6832 16.3801C70.4426 16.6343 70.1348 16.7607 69.7778 16.7607C69.4238 16.7607 69.1167 16.6422 68.8747 16.3999C68.6311 16.1556 68.5148 15.8411 68.5148 15.4783V4.95306C68.5148 4.60004 68.632 4.29333 68.8723 4.05122C69.1129 3.7972 69.4207 3.6708 69.7778 3.6708C70.1348 3.6708 70.4426 3.79717 70.6831 4.05122C70.8161 4.18513 70.9114 4.3388 70.9699 4.5091C71.2158 4.28912 71.5083 4.09347 71.8445 3.92086C72.3679 3.64069 72.9193 3.49908 73.4956 3.49908C74.3267 3.49908 75.0846 3.71696 75.7634 4.15384C76.4407 4.57847 76.9709 5.17196 77.3539 5.92731C77.7501 6.68572 77.9454 7.54184 77.9454 8.49011C77.9454 9.43788 77.7561 10.2986 77.3724 11.0675ZM77.145 6.03478C76.7796 5.31363 76.2769 4.75273 75.6374 4.3521C74.9977 3.94003 74.2837 3.73398 73.4956 3.73398C72.9588 3.73398 72.4448 3.86562 71.9537 4.12888C71.5845 4.31817 71.2767 4.53331 71.0301 4.77432C70.9707 4.83239 70.9148 4.89197 70.8625 4.95306C70.8431 4.97574 70.8241 4.99864 70.8057 5.02174V4.95306C70.8057 4.86229 70.7967 4.77631 70.7786 4.69513C70.7375 4.51012 70.6495 4.34999 70.5145 4.21474C70.3203 4.0087 70.0748 3.90569 69.7778 3.90569C69.4808 3.90569 69.2352 4.0087 69.041 4.21474C68.8468 4.40934 68.7497 4.65544 68.7497 4.95306V15.4783C68.7497 15.7874 68.8468 16.0393 69.041 16.2339C69.2352 16.4284 69.4808 16.5258 69.7778 16.5258C70.0748 16.5258 70.3203 16.4228 70.5145 16.2166C70.7087 16.0221 70.8057 15.776 70.8057 15.4783V12.113C70.8797 12.1872 70.958 12.2589 71.0406 12.3282C71.3149 12.5582 71.6364 12.7612 72.0051 12.9372C72.4962 13.1547 73.0159 13.2634 73.5642 13.2634C74.3294 13.2634 75.0262 13.0631 75.6545 12.6625C76.2941 12.2504 76.7967 11.6838 77.1622 10.9626C77.5278 10.23 77.7105 9.40585 77.7105 8.49011C77.7105 7.57437 77.522 6.75592 77.145 6.03478ZM74.8571 6.59703C74.4467 6.10361 73.9144 5.85759 73.2387 5.85759C72.5628 5.85759 72.0236 6.10381 71.6013 6.59921L71.5997 6.60105C71.1744 7.08974 70.955 7.71327 70.955 8.49011C70.955 9.26684 71.1744 9.89723 71.6013 10.3982C72.0236 10.8936 72.5628 11.1398 73.2387 11.1398C73.9019 11.1398 74.4358 10.8945 74.8589 10.3982M74.8571 6.59703L74.8605 6.60104L74.8571 6.59703ZM74.8589 10.3982C75.2858 9.89723 75.5052 9.26683 75.5052 8.49011C75.5052 7.71327 75.2858 7.08974 74.8605 6.60104M75.0377 10.5505C74.5694 11.1 73.9697 11.3747 73.2387 11.3747C72.4962 11.3747 71.8908 11.1 71.4225 10.5505C70.9543 10.0011 70.7201 9.31428 70.7201 8.49011C70.7201 7.66594 70.9543 6.98486 71.4225 6.44685C71.8908 5.89741 72.4962 5.6227 73.2387 5.6227C73.9811 5.6227 74.5808 5.89741 75.0377 6.44685C75.5059 6.98486 75.7401 7.66594 75.7401 8.49011C75.7401 9.31428 75.5059 10.0011 75.0377 10.5505Z" fill="#FF4500"/>
<path d="M9.80257 1.07227C10.1224 1.07227 10.3794 1.16956 10.5736 1.36416C10.7677 1.55875 10.8648 1.81058 10.8648 2.11964V12.044C10.8648 12.3416 10.762 12.5934 10.5564 12.7995C10.3508 12.9941 10.0881 13.0914 9.7683 13.0914C9.48275 13.0914 9.23716 12.9941 9.03156 12.7995C8.82596 12.5934 8.72317 12.3416 8.72317 12.044V8.04335H3.25763V12.044C3.25763 12.3416 3.14911 12.5934 2.9321 12.7995C2.71508 12.9941 2.46379 13.0914 2.17823 13.0914C1.86983 13.0914 1.61283 12.9941 1.40723 12.7995C1.21306 12.5934 1.11597 12.3416 1.11597 12.044V2.11964C1.11597 1.82203 1.21877 1.57592 1.42437 1.38133C1.62997 1.17529 1.89268 1.07227 2.2125 1.07227C2.49805 1.07227 2.74364 1.17529 2.94924 1.38133C3.15484 1.57592 3.25763 1.82203 3.25763 2.11964V6.06878H8.72317V2.11964C8.72317 1.82203 8.83168 1.57592 9.04869 1.38133C9.26572 1.17529 9.517 1.07227 9.80257 1.07227Z" fill="#FF4500"/>
<path fill-rule="evenodd" clip-rule="evenodd" d="M10.7205 12.9681L10.718 12.9704C10.463 13.2117 10.1399 13.3266 9.76838 13.3266C9.42333 13.3266 9.11977 13.2067 8.87012 12.9704L8.86769 12.9681L8.86532 12.9657C8.61467 12.7145 8.48831 12.4026 8.48831 12.0443V8.27857H3.49264V12.0443C3.49264 12.4067 3.3574 12.72 3.09396 12.9701L3.09153 12.9724L3.08904 12.9747C2.8299 13.207 2.52309 13.3266 2.17831 13.3266C1.81569 13.3266 1.49911 13.2102 1.24579 12.9704L1.24092 12.9658L1.23632 12.9609C0.998798 12.7089 0.881104 12.3984 0.881104 12.0443V2.11998C0.881104 1.7627 1.00701 1.45451 1.26049 1.21339C1.51438 0.960216 1.83828 0.837708 2.21258 0.837708C2.56077 0.837708 2.86499 0.9657 3.11327 1.2134C3.36675 1.45452 3.49264 1.76271 3.49264 2.11998V5.83423H8.48831V2.11998C8.48831 1.75837 8.62318 1.44895 8.8894 1.20905C9.14727 0.965246 9.45483 0.837708 9.80265 0.837708C10.1739 0.837708 10.4945 0.952597 10.74 1.19859C10.9837 1.44286 11.0998 1.75715 11.0998 2.11998V12.0443C11.0998 12.4026 10.9735 12.7145 10.7228 12.9657L10.7205 12.9681ZM9.04877 1.38166C8.83176 1.57626 8.72325 1.82236 8.72325 2.11998V6.06912H3.2577V2.11998C3.2577 1.82236 3.15491 1.57626 2.94931 1.38166C2.74372 1.17562 2.49813 1.0726 2.21258 1.0726C1.89275 1.0726 1.63004 1.17562 1.42444 1.38166C1.21884 1.57626 1.11604 1.82236 1.11604 2.11998V12.0443C1.11604 12.3419 1.21313 12.5938 1.40731 12.7998C1.61291 12.9944 1.86991 13.0917 2.17831 13.0917C2.46387 13.0917 2.71515 12.9944 2.93218 12.7998C3.14919 12.5938 3.2577 12.3419 3.2577 12.0443V8.04368H8.72325V12.0443C8.72325 12.3419 8.82604 12.5938 9.03164 12.7998C9.23724 12.9944 9.48283 13.0917 9.76838 13.0917C10.0882 13.0917 10.3509 12.9944 10.5565 12.7998C10.7621 12.5938 10.8649 12.3419 10.8649 12.0443V2.11998C10.8649 1.81091 10.7678 1.55909 10.5736 1.36449C10.3795 1.1699 10.1225 1.0726 9.80265 1.0726C9.51708 1.0726 9.2658 1.17562 9.04877 1.38166Z" fill="#FF4500"/>
<path d="M20.6779 3.73364C20.9749 3.73364 21.2204 3.83095 21.4147 4.02553C21.6088 4.22013 21.7059 4.47196 21.7059 4.78103V12.044C21.7059 12.3416 21.6088 12.5935 21.4147 12.7995C21.2204 12.9941 20.9749 13.0914 20.6779 13.0914C20.3809 13.0914 20.1353 12.9941 19.9412 12.7995C19.7585 12.6049 19.6613 12.3588 19.65 12.0612C19.3643 12.3931 18.976 12.6793 18.4848 12.9197C18.0051 13.1486 17.4968 13.2631 16.96 13.2631C16.1719 13.2631 15.458 13.0628 14.8183 12.6621C14.1787 12.25 13.6704 11.6834 13.2935 10.9623C12.9279 10.2411 12.7452 9.4227 12.7452 8.50696C12.7452 7.5912 12.9279 6.77277 13.2935 6.05161C13.659 5.31902 14.1558 4.75241 14.784 4.35177C15.4237 3.93969 16.1262 3.73364 16.8914 3.73364C17.4398 3.73364 17.9537 3.83666 18.4334 4.04271C18.9131 4.23731 19.3187 4.48914 19.65 4.79819V4.78103C19.65 4.48341 19.7469 4.23731 19.9412 4.04271C20.1353 3.83666 20.3809 3.73364 20.6779 3.73364ZM17.217 11.3744C17.9594 11.3744 18.5648 11.1054 19.0332 10.5674C19.5014 10.0179 19.7356 9.33112 19.7356 8.50696C19.7356 7.68278 19.5014 6.99598 19.0332 6.44652C18.5648 5.89708 17.9594 5.62236 17.217 5.62236C16.4859 5.62236 15.8863 5.89708 15.4179 6.44652C14.9497 6.99598 14.7155 7.68278 14.7155 8.50696C14.7155 9.33112 14.944 10.0179 15.4008 10.5674C15.8691 11.1054 16.4745 11.3744 17.217 11.3744Z" fill="#FF4500"/>
<path fill-rule="evenodd" clip-rule="evenodd" d="M21.581 3.85993L21.5811 3.86C21.8247 4.10425 21.9409 4.41851 21.9409 4.78136V12.0443C21.9409 12.3985 21.8232 12.7089 21.5857 12.9609L21.5834 12.9633L21.581 12.9658C21.3389 13.2082 21.0318 13.3266 20.6779 13.3266C20.324 13.3266 20.0168 13.2083 19.7749 12.9657L19.7724 12.9632L19.7699 12.9606C19.6523 12.8353 19.5646 12.6933 19.5057 12.5371C19.2474 12.761 18.9406 12.9585 18.5882 13.131L18.5861 13.132L18.5861 13.132C18.0744 13.3762 17.5315 13.4983 16.96 13.4983C16.1299 13.4983 15.3724 13.2866 14.6936 12.8615L14.6911 12.8599L14.6911 12.8599C14.0148 12.4243 13.4797 11.826 13.0852 11.0714L13.0839 11.0688L13.0839 11.0688C12.6996 10.3106 12.5103 9.45499 12.5103 8.50729C12.5103 7.55985 12.6995 6.70447 13.0836 5.94643C13.466 5.18013 13.9901 4.57998 14.6573 4.15436C15.335 3.71789 16.0816 3.49908 16.8915 3.49908C17.4692 3.49908 18.0141 3.60765 18.5239 3.82628C18.8791 3.97052 19.1983 4.14597 19.4803 4.35349C19.5384 4.17677 19.6354 4.01765 19.7725 3.87953C20.0131 3.62546 20.3209 3.49908 20.6779 3.49908C21.0318 3.49908 21.3389 3.61746 21.581 3.85993ZM19.9412 4.04304C19.8092 4.17525 19.7222 4.33122 19.6799 4.51097C19.6599 4.5958 19.65 4.68593 19.65 4.78136V4.79852C19.6438 4.79278 19.6376 4.78706 19.6314 4.78136C19.5655 4.72082 19.4968 4.66251 19.4251 4.60642C19.1402 4.38344 18.8096 4.19564 18.4334 4.04304C17.9537 3.83699 17.4398 3.73398 16.8915 3.73398C16.1262 3.73398 15.4237 3.94003 14.7841 4.3521C14.1558 4.75275 13.659 5.31935 13.2935 6.05195C12.928 6.7731 12.7452 7.59153 12.7452 8.50729C12.7452 9.42303 12.928 10.2415 13.2935 10.9626C13.6704 11.6838 14.1787 12.2504 14.8183 12.6625C15.458 13.0631 16.1719 13.2634 16.96 13.2634C17.4969 13.2634 18.0051 13.1489 18.4849 12.92C18.8633 12.7348 19.1807 12.5224 19.4371 12.2828C19.5135 12.2114 19.5844 12.1377 19.65 12.0615C19.654 12.1674 19.6689 12.2668 19.6947 12.3597C19.7413 12.5278 19.8235 12.6745 19.9412 12.7998C20.1353 12.9944 20.3809 13.0917 20.6779 13.0917C20.9749 13.0917 21.2205 12.9944 21.4147 12.7998C21.6088 12.5938 21.706 12.3419 21.706 12.0443V4.78136C21.706 4.47229 21.6088 4.22047 21.4147 4.02587C21.2205 3.83128 20.9749 3.73398 20.6779 3.73398C20.3809 3.73398 20.1353 3.83699 19.9412 4.04304ZM18.8552 10.4144C19.2815 9.91361 19.5006 9.28352 19.5006 8.50729C19.5006 7.73057 19.2813 7.1002 18.8544 6.59921C18.4321 6.10381 17.8929 5.85759 17.217 5.85759C16.5538 5.85759 16.0198 6.10288 15.5968 6.59921C15.1698 7.10019 14.9505 7.73057 14.9505 8.50729C14.9505 9.28441 15.1644 9.91492 15.5798 10.4155C16.0012 10.8986 16.5403 11.1398 17.217 11.1398C17.8942 11.1398 18.4336 10.8982 18.8552 10.4144ZM15.4008 10.5677C14.944 10.0183 14.7155 9.33145 14.7155 8.50729C14.7155 7.68312 14.9497 6.99631 15.418 6.44686C15.8863 5.89741 16.4859 5.6227 17.217 5.6227C17.9594 5.6227 18.5648 5.89741 19.0332 6.44686C19.5014 6.99631 19.7356 7.68312 19.7356 8.50729C19.7356 9.33145 19.5014 10.0183 19.0332 10.5677C18.5648 11.1057 17.9594 11.3747 17.217 11.3747C16.4745 11.3747 15.8692 11.1057 15.4008 10.5677Z" fill="#FF4500"/>
<path d="M24.0167 1.67281C24.0167 1.35423 24.1086 1.1083 24.2928 0.935032C24.4824 0.756176 24.7696 0.666748 25.1544 0.666748C25.5393 0.666748 25.8236 0.756176 26.0077 0.935032C26.1973 1.1083 26.2921 1.35423 26.2921 1.67281V10.2998C26.2921 10.5178 26.3061 10.6994 26.3341 10.8448C26.3619 10.9901 26.4009 11.1047 26.4511 11.1885C26.5068 11.2723 26.571 11.331 26.6436 11.3646C26.7161 11.3981 26.7969 11.4149 26.8861 11.4149C26.9642 11.4149 27.034 11.4121 27.0952 11.4065C27.1566 11.3953 27.218 11.3897 27.2794 11.3897C27.3519 11.3897 27.4215 11.4037 27.4885 11.4316C27.5554 11.4596 27.614 11.5015 27.6642 11.5574C27.7143 11.6133 27.7534 11.6831 27.7813 11.767C27.8148 11.8452 27.8315 11.9375 27.8315 12.0437C27.8315 12.2057 27.8064 12.3427 27.7563 12.4545C27.7116 12.5662 27.6475 12.6641 27.5637 12.7479C27.508 12.8038 27.4411 12.8569 27.363 12.9072C27.2849 12.9575 27.1901 13.005 27.0785 13.0497C26.9726 13.0888 26.8443 13.1196 26.6938 13.1419C26.5432 13.1699 26.3702 13.1839 26.1751 13.1839C25.4667 13.1839 24.9286 12.9966 24.5604 12.6221C24.1979 12.2421 24.0167 11.6692 24.0167 10.9034V1.67281Z" fill="#FF4500"/>
<path fill-rule="evenodd" clip-rule="evenodd" d="M26.5648 10.8001L26.5649 10.8003C26.5892 10.9271 26.6201 11.011 26.65 11.0629C26.6866 11.1165 26.7188 11.1402 26.7422 11.151L26.7423 11.151C26.7805 11.1687 26.8271 11.1796 26.8862 11.1796C26.9547 11.1796 27.0139 11.1773 27.0644 11.1731C27.1358 11.1607 27.2075 11.1545 27.2795 11.1545C27.3831 11.1545 27.4835 11.1747 27.579 11.2145L27.5792 11.2146C27.6793 11.2564 27.7664 11.3192 27.8391 11.4002C27.9122 11.4816 27.965 11.5779 28.0013 11.6835C28.0471 11.7947 28.0665 11.9165 28.0665 12.0433C28.0665 12.2265 28.0386 12.3967 27.9727 12.5457C27.9165 12.6846 27.8356 12.8079 27.7301 12.9135C27.6606 12.9831 27.5802 13.0464 27.4903 13.1043C27.3966 13.1647 27.2876 13.2186 27.166 13.2674L27.1601 13.2698L27.16 13.2697C27.0358 13.3156 26.8923 13.3494 26.7325 13.3733C26.5656 13.404 26.3793 13.4184 26.1752 13.4184C25.4264 13.4184 24.819 13.2198 24.3929 12.7865L24.3904 12.7839L24.3904 12.7839C23.9706 12.3437 23.7818 11.7018 23.7818 10.9031V1.67247C23.7818 1.30718 23.8888 0.992376 24.1317 0.763732C24.3819 0.52791 24.7379 0.431519 25.1545 0.431519C25.569 0.431519 25.9234 0.526965 26.1689 0.763729C26.4167 0.991628 26.5271 1.30626 26.5271 1.67247V10.2995C26.5271 10.5089 26.5407 10.6744 26.5648 10.8001ZM26.0077 0.934694C25.8237 0.755837 25.5394 0.666409 25.1545 0.666409C24.7697 0.666409 24.4825 0.755837 24.2928 0.934694C24.1087 1.10796 24.0167 1.35389 24.0167 1.67247V10.9031C24.0167 11.6688 24.198 12.2417 24.5605 12.6218C24.9287 12.9963 25.4668 13.1835 26.1752 13.1835C26.3703 13.1835 26.5432 13.1695 26.6938 13.1416C26.8444 13.1193 26.9727 13.0885 27.0786 13.0494C27.1901 13.0047 27.285 12.9572 27.3631 12.9069C27.4412 12.8565 27.508 12.8035 27.5638 12.7476C27.6475 12.6637 27.7117 12.5659 27.7563 12.4541C27.8065 12.3423 27.8316 12.2054 27.8316 12.0433C27.8316 11.9371 27.8148 11.8449 27.7814 11.7667C27.7535 11.6828 27.7144 11.6129 27.6643 11.557C27.6141 11.5012 27.5555 11.4592 27.4886 11.4313C27.4216 11.4033 27.352 11.3894 27.2795 11.3894C27.2181 11.3894 27.1567 11.395 27.0953 11.4061C27.0341 11.4117 26.9643 11.4145 26.8862 11.4145C26.797 11.4145 26.7162 11.3978 26.6437 11.3642C26.5711 11.3307 26.5069 11.272 26.4512 11.1882C26.401 11.1043 26.362 10.9897 26.3341 10.8444C26.3062 10.6991 26.2922 10.5175 26.2922 10.2995V1.67247C26.2922 1.35389 26.1974 1.10796 26.0077 0.934694Z" fill="#FF4500"/>
<path d="M29.5818 1.67281C29.5818 1.35423 29.6737 1.1083 29.8578 0.935032C30.0474 0.756176 30.3346 0.666748 30.7195 0.666748C31.1043 0.666748 31.3888 0.756176 31.5728 0.935032C31.7624 1.1083 31.8573 1.35423 31.8573 1.67281V10.2998C31.8573 10.5178 31.8712 10.6994 31.899 10.8448C31.927 10.9901 31.9661 11.1047 32.0162 11.1885C32.072 11.2723 32.1361 11.331 32.2086 11.3646C32.2811 11.3981 32.3621 11.4149 32.4513 11.4149C32.5294 11.4149 32.599 11.4121 32.6604 11.4065C32.7218 11.3953 32.7832 11.3897 32.8444 11.3897C32.9169 11.3897 32.9866 11.4037 33.0536 11.4316C33.1205 11.4596 33.179 11.5015 33.2293 11.5574C33.2795 11.6133 33.3185 11.6831 33.3463 11.767C33.3799 11.8452 33.3966 11.9375 33.3966 12.0437C33.3966 12.2057 33.3715 12.3427 33.3213 12.4545C33.2767 12.5662 33.2126 12.6641 33.1289 12.7479C33.0731 12.8038 33.0062 12.8569 32.9281 12.9072C32.85 12.9575 32.7552 13.005 32.6437 13.0497C32.5377 13.0888 32.4095 13.1196 32.2589 13.1419C32.1083 13.1699 31.9354 13.1839 31.7401 13.1839C31.0318 13.1839 30.4936 12.9966 30.1255 12.6221C29.7629 12.2421 29.5818 11.6692 29.5818 10.9034V1.67281Z" fill="#FF4500"/>
<path fill-rule="evenodd" clip-rule="evenodd" d="M33.1441 11.2145L33.1442 11.2146C33.2445 11.2565 33.3313 11.3193 33.4039 11.3999L33.4041 11.4002C33.4771 11.4815 33.53 11.5778 33.5662 11.6835C33.6122 11.7948 33.6315 11.9166 33.6315 12.0433C33.6315 12.2264 33.6037 12.3966 33.5376 12.5457C33.4815 12.6847 33.4005 12.808 33.2951 12.9135C33.2257 12.9831 33.1452 13.0464 33.0553 13.1043C32.9616 13.1647 32.8527 13.2186 32.731 13.2674L32.7251 13.2698L32.725 13.2697C32.6008 13.3156 32.4573 13.3494 32.2975 13.3733C32.1306 13.404 31.9443 13.4184 31.7401 13.4184C30.9914 13.4184 30.3838 13.2198 29.9579 12.7864L29.9554 12.7839L29.9555 12.7839C29.5355 12.3437 29.3468 11.7017 29.3468 10.9031V1.67247C29.3468 1.30717 29.4538 0.992392 29.6966 0.763758C29.9467 0.527911 30.3028 0.431519 30.7195 0.431519C31.1339 0.431519 31.4884 0.526957 31.7339 0.763728C31.9817 0.991627 32.0922 1.30626 32.0922 1.67247V10.2995C32.0922 10.5088 32.1057 10.6745 32.1297 10.8002C32.1542 10.9271 32.1851 11.011 32.215 11.0629C32.2516 11.1165 32.2838 11.1402 32.3072 11.151C32.3453 11.1687 32.392 11.1796 32.4512 11.1796C32.5197 11.1796 32.5788 11.1773 32.6295 11.1731C32.7008 11.1607 32.7725 11.1545 32.8444 11.1545C32.9479 11.1545 33.0484 11.1746 33.1441 11.2145ZM32.6603 11.4061C32.5989 11.4117 32.5293 11.4145 32.4512 11.4145C32.362 11.4145 32.281 11.3978 32.2085 11.3642C32.1361 11.3307 32.0719 11.272 32.0162 11.1882C31.966 11.1043 31.927 10.9897 31.899 10.8444C31.8712 10.6991 31.8572 10.5175 31.8572 10.2995V1.67247C31.8572 1.35389 31.7624 1.10796 31.5727 0.934694C31.3887 0.755837 31.1042 0.666409 30.7195 0.666409C30.3346 0.666409 30.0474 0.755837 29.8577 0.934694C29.6737 1.10796 29.5817 1.35389 29.5817 1.67247V10.9031C29.5817 11.6688 29.7629 12.2417 30.1255 12.6218C30.4935 12.9963 31.0318 13.1835 31.7401 13.1835C31.9353 13.1835 32.1082 13.1695 32.2588 13.1416C32.4094 13.1193 32.5377 13.0885 32.6436 13.0494C32.7551 13.0047 32.85 12.9572 32.9281 12.9069C33.0062 12.8565 33.0731 12.8035 33.1288 12.7476C33.2126 12.6637 33.2767 12.5659 33.3212 12.4541C33.3715 12.3423 33.3966 12.2054 33.3966 12.0433C33.3966 11.9371 33.3799 11.8449 33.3463 11.7667C33.3185 11.6828 33.2794 11.6129 33.2293 11.557C33.179 11.5012 33.1205 11.4592 33.0536 11.4313C32.9866 11.4033 32.9168 11.3894 32.8444 11.3894C32.7831 11.3894 32.7217 11.395 32.6603 11.4061Z" fill="#FF4500"/>
<path d="M43.8707 8.50696C43.8707 9.4227 43.6651 10.2469 43.2538 10.9794C42.8427 11.7006 42.2773 12.2615 41.5576 12.6621C40.8495 13.0628 40.067 13.2631 39.2104 13.2631C38.3423 13.2631 37.5542 13.0628 36.846 12.6621C36.1377 12.2615 35.5782 11.7006 35.1669 10.9794C34.7558 10.2469 34.5501 9.4227 34.5501 8.50696C34.5501 7.5912 34.7558 6.77277 35.1669 6.05161C35.5782 5.31902 36.1377 4.75241 36.846 4.35177C37.5542 3.93969 38.3423 3.73364 39.2104 3.73364C40.067 3.73364 40.8495 3.93969 41.5576 4.35177C42.2773 4.75241 42.8427 5.31902 43.2538 6.05161C43.6651 6.77277 43.8707 7.5912 43.8707 8.50696ZM41.8146 8.50696C41.8146 7.94606 41.6947 7.44812 41.4549 7.01314C41.2263 6.56672 40.9123 6.22332 40.5126 5.98293C40.1242 5.74256 39.6902 5.62236 39.2104 5.62236C38.7307 5.62236 38.2909 5.74256 37.8911 5.98293C37.5027 6.22332 37.1887 6.56672 36.9488 7.01314C36.7204 7.44812 36.6061 7.94606 36.6061 8.50696C36.6061 9.06784 36.7204 9.56578 36.9488 10.0008C37.1887 10.4357 37.5027 10.7734 37.8911 11.0138C38.2909 11.2542 38.7307 11.3744 39.2104 11.3744C39.6902 11.3744 40.1242 11.2542 40.5126 11.0138C40.9123 10.7734 41.2263 10.4357 41.4549 10.0008C41.6947 9.56578 41.8146 9.06784 41.8146 8.50696Z" fill="#FF4500"/>
<path fill-rule="evenodd" clip-rule="evenodd" d="M43.4587 11.0947L43.4579 11.0961C43.0259 11.854 42.4298 12.4456 41.6727 12.8673C40.9275 13.2887 40.1051 13.4983 39.2104 13.4983C38.3046 13.4983 37.4762 13.2888 36.7303 12.8669C35.9844 12.4449 35.3946 11.8533 34.9628 11.0961L34.962 11.0947L34.962 11.0947C34.5294 10.3239 34.3152 9.45957 34.3152 8.50729C34.3152 7.55532 34.5293 6.69629 34.9624 5.9363C35.3937 5.16836 35.983 4.5707 36.7291 4.14837C37.475 3.71464 38.3039 3.49908 39.2104 3.49908C40.1058 3.49908 40.9287 3.71479 41.6739 4.14797C42.4312 4.57002 43.0268 5.16765 43.4583 5.93634C43.8916 6.69633 44.1057 7.55535 44.1057 8.50729C44.1057 9.45957 43.8914 10.3239 43.4587 11.0947ZM43.2538 6.05195C42.8427 5.31935 42.2773 4.75275 41.5577 4.3521C40.8495 3.94003 40.067 3.73398 39.2104 3.73398C38.3423 3.73398 37.5542 3.94003 36.8461 4.3521C36.1378 4.75275 35.5782 5.31935 35.1669 6.05195C34.7558 6.7731 34.5501 7.59153 34.5501 8.50729C34.5501 9.42303 34.7558 10.2472 35.1669 10.9798C35.5782 11.7009 36.1378 12.2618 36.8461 12.6625C37.5542 13.0631 38.3423 13.2634 39.2104 13.2634C40.067 13.2634 40.8495 13.0631 41.5577 12.6625C42.2773 12.2618 42.8427 11.7009 43.2538 10.9798C43.6651 10.2472 43.8707 9.42303 43.8707 8.50729C43.8707 7.59153 43.6651 6.7731 43.2538 6.05195ZM41.2474 7.12371L41.2458 7.1205C41.0356 6.71001 40.7508 6.40063 40.3915 6.18455L40.3889 6.183L40.3889 6.18299C40.0396 5.96678 39.6488 5.85759 39.2104 5.85759C38.7726 5.85759 38.3753 5.96655 38.0135 6.18378C37.6648 6.39994 37.3786 6.71044 37.1563 7.12368C36.9483 7.52026 36.8411 7.97947 36.8411 8.50729C36.8411 9.03459 36.9481 9.49344 37.1557 9.88976C37.3775 10.2911 37.6636 10.5968 38.0135 10.8136C38.3753 11.0308 38.7726 11.1398 39.2104 11.1398C39.6488 11.1398 40.0396 11.0306 40.3889 10.8144L40.3915 10.8128L40.3915 10.8128C40.7524 10.5958 41.0372 10.2909 41.2469 9.89185L41.2491 9.88768L41.2492 9.8877C41.4674 9.49174 41.5797 9.03372 41.5797 8.50729C41.5797 7.98084 41.4674 7.52282 41.2492 7.12686L41.2474 7.12371ZM37.8911 11.0141C37.5028 10.7737 37.1887 10.4361 36.9488 10.0011C36.7204 9.56611 36.6061 9.06817 36.6061 8.50729C36.6061 7.94639 36.7204 7.44845 36.9488 7.01348C37.1887 6.56705 37.5028 6.22366 37.8911 5.98327C38.2909 5.74289 38.7307 5.6227 39.2104 5.6227C39.6902 5.6227 40.1242 5.74289 40.5126 5.98327C40.9123 6.22366 41.2264 6.56705 41.4549 7.01348C41.6947 7.44845 41.8146 7.94639 41.8146 8.50729C41.8146 9.06817 41.6947 9.56611 41.4549 10.0011C41.2264 10.4361 40.9123 10.7737 40.5126 11.0141C40.1242 11.2545 39.6902 11.3747 39.2104 11.3747C38.7307 11.3747 38.2909 11.2545 37.8911 11.0141Z" fill="#FF4500"/>
<path d="M55.5943 11.7525C55.6514 11.9013 55.6799 12.0386 55.6799 12.1645C55.6799 12.4622 55.5828 12.7083 55.3886 12.9029C55.1944 13.086 54.9717 13.1776 54.7204 13.1776C54.5148 13.1776 54.3263 13.1146 54.1551 12.9887C53.9951 12.8628 53.8695 12.6911 53.7781 12.4736L52.8872 10.396H47.7815L46.8905 12.4908C46.8105 12.7083 46.685 12.88 46.5136 13.0059C46.3536 13.1203 46.1765 13.1776 45.9824 13.1776C45.6854 13.1776 45.457 13.0975 45.2971 12.9372C45.1486 12.7769 45.0744 12.5595 45.0744 12.2847C45.0744 12.1817 45.0914 12.073 45.1257 11.9585L49.3919 1.69075C49.4834 1.46181 49.6204 1.28439 49.8032 1.15847C49.9859 1.03256 50.1915 0.981047 50.4199 1.00394C50.6256 1.00394 50.8141 1.0669 50.9853 1.19281C51.1682 1.30728 51.2994 1.47326 51.3794 1.69075L55.5943 11.7525ZM48.3981 8.40118C48.3193 8.59064 48.4588 8.7992 48.6643 8.7992H52.0842C52.2897 8.7992 52.4292 8.59064 52.3504 8.40118L50.6404 4.2884C50.5421 4.05182 50.2065 4.05182 50.1081 4.2884L48.3981 8.40118Z" fill="#FF4500"/>
<path fill-rule="evenodd" clip-rule="evenodd" d="M55.8124 11.665L55.8137 11.6683C55.8785 11.8371 55.9149 12.0033 55.9149 12.1645C55.9149 12.5187 55.7969 12.8262 55.5551 13.0687L55.5525 13.0712L55.5499 13.0737C55.3151 13.2951 55.0358 13.4124 54.7205 13.4124C54.463 13.4124 54.226 13.3324 54.0159 13.1779L54.0128 13.1756L54.0098 13.1732C53.8141 13.0192 53.6662 12.8134 53.5619 12.5654C53.5618 12.5651 53.5617 12.5648 53.5616 12.5645L52.7324 10.6309H47.9369L47.1089 12.5775C47.0144 12.8315 46.8632 13.0405 46.6528 13.1951L46.6504 13.1969C46.4512 13.3395 46.2263 13.4124 45.9825 13.4124C45.6433 13.4124 45.3473 13.32 45.1308 13.1031L45.1277 13.1L45.1248 13.0968C44.9265 12.8827 44.8395 12.6027 44.8395 12.2847C44.8395 12.1557 44.8608 12.0242 44.9007 11.8911L44.9042 11.8795L49.1744 1.60203C49.2811 1.33579 49.4453 1.11983 49.6699 0.965027C49.897 0.80855 50.1545 0.743741 50.4318 0.769065C50.6819 0.771445 50.9124 0.84958 51.1175 0.9984C51.3425 1.14154 51.5024 1.34737 51.5981 1.60456L55.8124 11.665ZM51.3795 1.69071C51.2995 1.47322 51.1682 1.30724 50.9854 1.19277C50.8142 1.06686 50.6257 1.0039 50.42 1.0039C50.1916 0.981006 49.986 1.03252 49.8032 1.15843C49.6205 1.28435 49.4835 1.46177 49.392 1.69071L45.1258 11.9585C45.0915 12.0729 45.0745 12.1817 45.0745 12.2847C45.0745 12.5594 45.1487 12.7769 45.2971 12.9372C45.4571 13.0974 45.6855 13.1775 45.9825 13.1775C46.1766 13.1775 46.3537 13.1203 46.5137 13.0058C46.685 12.8799 46.8105 12.7082 46.8905 12.4907L47.7815 10.396H52.8873L53.7782 12.4736C53.8695 12.6911 53.9952 12.8628 54.1552 12.9887C54.3264 13.1146 54.5148 13.1775 54.7205 13.1775C54.9718 13.1775 55.1945 13.086 55.3887 12.9028C55.5828 12.7082 55.68 12.4621 55.68 12.1645C55.68 12.0386 55.6514 11.9012 55.5944 11.7524L51.3795 1.69071ZM48.6151 8.49135C48.6009 8.52555 48.6258 8.56426 48.6644 8.56426H52.0843C52.1228 8.56426 52.1478 8.52555 52.1336 8.49135L50.4236 4.37852C50.4178 4.36466 50.4106 4.3579 50.4042 4.35387C50.3967 4.34914 50.3864 4.34582 50.3744 4.34582C50.3624 4.34582 50.352 4.34915 50.3445 4.35389C50.3381 4.35794 50.3309 4.36466 50.3251 4.37852C50.3251 4.37854 50.3251 4.3785 50.3251 4.37852L48.6151 8.49135ZM50.1082 4.28836C50.2066 4.05178 50.5422 4.05178 50.6405 4.28836L52.3505 8.40114C52.4293 8.5906 52.2898 8.79916 52.0843 8.79916H48.6644C48.4589 8.79916 48.3194 8.5906 48.3982 8.40114L50.1082 4.28836Z" fill="#FF4500"/>
<path d="M62.5619 3.73364C63.35 3.73364 64.0638 3.93969 64.7035 4.35176C65.3432 4.75241 65.8457 5.3133 66.2113 6.03445C66.5881 6.75559 66.7766 7.57404 66.7766 8.48978C66.7766 9.40552 66.5939 10.2297 66.2285 10.9623C65.8629 11.6834 65.3603 12.25 64.7207 12.6621C64.0925 13.0628 63.3957 13.2631 62.6304 13.2631C62.0822 13.2631 61.5624 13.1543 61.0713 12.9368C60.5915 12.7079 60.1918 12.4332 59.872 12.1127V15.478C59.872 15.7757 59.7749 16.0218 59.5806 16.2163C59.3865 16.4225 59.1409 16.5255 58.8439 16.5255C58.5469 16.5255 58.3014 16.4281 58.1072 16.2336C57.913 16.0389 57.8159 15.787 57.8159 15.478V4.95272C57.8159 4.65511 57.913 4.40901 58.1072 4.21441C58.3014 4.00837 58.5469 3.90535 58.8439 3.90535C59.1409 3.90535 59.3865 4.00837 59.5806 4.21441C59.7749 4.40901 59.872 4.65511 59.872 4.95272V5.0214C60.1461 4.67801 60.5287 4.38039 61.0198 4.12855C61.5111 3.86529 62.025 3.73364 62.5619 3.73364ZM62.3048 11.3744C63.0359 11.3744 63.6355 11.0996 64.1039 10.5502C64.5722 10.0008 64.8063 9.31395 64.8063 8.48978C64.8063 7.6656 64.5722 6.98453 64.1039 6.44652C63.6469 5.89708 63.0473 5.62236 62.3048 5.62236C61.5624 5.62236 60.957 5.89708 60.4888 6.44652C60.0204 6.98453 59.7862 7.6656 59.7862 8.48978C59.7862 9.31395 60.0204 10.0008 60.4888 10.5502C60.957 11.0996 61.5624 11.3744 62.3048 11.3744Z" fill="#FF4500"/>
<path fill-rule="evenodd" clip-rule="evenodd" d="M58.1072 16.2339C57.9129 16.0393 57.8158 15.7874 57.8158 15.4783V4.95306C57.8158 4.65544 57.9129 4.40934 58.1072 4.21474C58.3013 4.0087 58.5469 3.90569 58.8439 3.90569C59.1409 3.90569 59.3864 4.0087 59.5806 4.21474C59.7156 4.34998 59.8037 4.5101 59.8448 4.6951C59.8629 4.7763 59.8719 4.86228 59.8719 4.95306V5.02174C59.8904 4.99864 59.9093 4.97574 59.9287 4.95306C59.981 4.89195 60.0369 4.83235 60.0963 4.77425C60.3429 4.53328 60.6507 4.31815 61.0198 4.12888C61.511 3.86562 62.0249 3.73398 62.5619 3.73398C63.35 3.73398 64.0638 3.94003 64.7035 4.3521C65.3432 4.75275 65.8457 5.31363 66.2113 6.03478C66.5881 6.75592 66.7766 7.57437 66.7766 8.49011C66.7766 9.40585 66.5939 10.23 66.2284 10.9626C65.8628 11.6838 65.3603 12.2504 64.7206 12.6625C64.0924 13.0631 63.3957 13.2634 62.6303 13.2634C62.0821 13.2634 61.5623 13.1547 61.0712 12.9372C60.7025 12.7612 60.3811 12.5583 60.1069 12.3282C60.0243 12.259 59.946 12.1872 59.8719 12.113V15.4783C59.8719 15.776 59.7748 16.0221 59.5806 16.2166C59.3864 16.4228 59.1409 16.5258 58.8439 16.5258C58.5469 16.5258 58.3013 16.4284 58.1072 16.2339ZM60.1069 12.6289V15.4783C60.1069 15.8313 59.9897 16.1381 59.7493 16.3801C59.5087 16.6343 59.2009 16.7607 58.8439 16.7607C58.4899 16.7607 58.1828 16.6422 57.9409 16.3998C57.6971 16.1555 57.5809 15.8411 57.5809 15.4783V4.95306C57.5809 4.60006 57.6981 4.29333 57.9385 4.05122C58.1791 3.79717 58.4869 3.6708 58.8439 3.6708C59.2009 3.6708 59.5087 3.79717 59.7492 4.05122C59.8822 4.18511 59.9775 4.33876 60.0361 4.50907C60.282 4.28909 60.5744 4.09345 60.9107 3.92085C61.4341 3.64069 61.9854 3.49908 62.5619 3.49908C63.3929 3.49908 64.1507 3.71696 64.8294 4.15383C65.507 4.57849 66.037 5.17198 66.4202 5.92731C66.8162 6.68571 67.0115 7.54183 67.0115 8.49011C67.0115 9.43788 66.8222 10.2986 66.4387 11.0675L66.438 11.0688C66.0548 11.8247 65.5248 12.4238 64.8479 12.8599L64.847 12.8605C64.18 13.2859 63.4392 13.4983 62.6303 13.4983C62.0501 13.4983 61.4978 13.383 60.9761 13.1519L60.973 13.1506L60.97 13.1492C60.6505 12.9967 60.3624 12.8235 60.1069 12.6289ZM63.9232 6.59703C63.5128 6.10361 62.9805 5.85759 62.3048 5.85759C61.6289 5.85759 61.0897 6.10382 60.6676 6.59919L60.666 6.60107C60.2405 7.08976 60.0211 7.71327 60.0211 8.49011C60.0211 9.26684 60.2405 9.89721 60.6675 10.3982C61.0897 10.8935 61.6289 11.1398 62.3048 11.1398C62.968 11.1398 63.5019 10.8945 63.925 10.3982C64.352 9.89723 64.5713 9.26687 64.5713 8.49011C64.5713 7.71324 64.352 7.08973 63.9266 6.60106L63.9232 6.59703ZM64.1038 6.44685C64.5722 6.98486 64.8062 7.66594 64.8062 8.49011C64.8062 9.31428 64.5722 10.0011 64.1038 10.5505C63.6355 11.1 63.0358 11.3747 62.3048 11.3747C61.5623 11.3747 60.9569 11.1 60.4887 10.5505C60.0204 10.0011 59.7862 9.31428 59.7862 8.49011C59.7862 7.66594 60.0204 6.98486 60.4887 6.44685C60.9569 5.89741 61.5623 5.6227 62.3048 5.6227C63.0472 5.6227 63.6469 5.89741 64.1038 6.44685Z" fill="#FF4500"/>
<path d="M73.4956 3.73364C74.2837 3.73364 74.9976 3.93969 75.6373 4.35176C76.2769 4.7524 76.7795 5.3133 77.145 6.03445C77.522 6.75559 77.7105 7.57404 77.7105 8.48978C77.7105 9.40552 77.5277 10.2297 77.1621 10.9623C76.7967 11.6834 76.294 12.25 75.6545 12.6621C75.0262 13.0628 74.3294 13.2631 73.5642 13.2631C73.0159 13.2631 72.4962 13.1543 72.0051 12.9368C71.5254 12.7079 71.1256 12.4332 70.8057 12.1127V15.478C70.8057 15.7757 70.7087 16.0218 70.5144 16.2163C70.3203 16.4225 70.0748 16.5255 69.7778 16.5255C69.4808 16.5255 69.2352 16.4281 69.0409 16.2336C68.8468 16.0389 68.7497 15.787 68.7497 15.478V4.95272C68.7497 4.65511 68.8468 4.40901 69.0409 4.21441C69.2352 4.00837 69.4808 3.90535 69.7778 3.90535C70.0748 3.90535 70.3203 4.00837 70.5144 4.21441C70.7087 4.40901 70.8057 4.65511 70.8057 4.95272V5.0214C71.0799 4.67801 71.4625 4.38039 71.9536 4.12855C72.4448 3.86529 72.9588 3.73364 73.4956 3.73364ZM73.2387 11.3744C73.9697 11.3744 74.5694 11.0996 75.0377 10.5502C75.5059 10.0008 75.7401 9.31395 75.7401 8.48978C75.7401 7.6656 75.5059 6.98453 75.0377 6.44652C74.5807 5.89708 73.9811 5.62236 73.2387 5.62236C72.4962 5.62236 71.8908 5.89708 71.4225 6.44652C70.9543 6.98453 70.7201 7.6656 70.7201 8.48978C70.7201 9.31395 70.9543 10.0008 71.4225 10.5502C71.8908 11.0996 72.4962 11.3744 73.2387 11.3744Z" fill="#FF4500"/>
<path fill-rule="evenodd" clip-rule="evenodd" d="M77.3724 11.0675L77.3717 11.0688C76.9886 11.8247 76.4586 12.4238 75.7818 12.8599L75.7808 12.8605C75.1137 13.2859 74.3729 13.4983 73.5642 13.4983C72.9838 13.4983 72.4317 13.383 71.91 13.1519L71.9069 13.1506L71.9039 13.1492C71.5843 12.9967 71.2962 12.8234 71.0406 12.6288V15.4783C71.0406 15.8312 70.9237 16.138 70.6832 16.3801C70.4426 16.6343 70.1348 16.7607 69.7778 16.7607C69.4238 16.7607 69.1167 16.6422 68.8747 16.3999C68.6311 16.1556 68.5148 15.8411 68.5148 15.4783V4.95306C68.5148 4.60004 68.632 4.29333 68.8723 4.05122C69.1129 3.7972 69.4207 3.6708 69.7778 3.6708C70.1348 3.6708 70.4426 3.79717 70.6831 4.05122C70.8161 4.18513 70.9114 4.3388 70.9699 4.5091C71.2158 4.28912 71.5083 4.09347 71.8445 3.92086C72.3679 3.64069 72.9193 3.49908 73.4956 3.49908C74.3267 3.49908 75.0846 3.71696 75.7634 4.15384C76.4407 4.57847 76.9709 5.17196 77.3539 5.92731C77.7501 6.68572 77.9454 7.54184 77.9454 8.49011C77.9454 9.43788 77.7561 10.2986 77.3724 11.0675ZM77.145 6.03478C76.7796 5.31363 76.2769 4.75273 75.6374 4.3521C74.9977 3.94003 74.2837 3.73398 73.4956 3.73398C72.9588 3.73398 72.4448 3.86562 71.9537 4.12888C71.5845 4.31817 71.2767 4.53331 71.0301 4.77432C70.9707 4.83239 70.9148 4.89197 70.8625 4.95306C70.8431 4.97574 70.8241 4.99864 70.8057 5.02174V4.95306C70.8057 4.86229 70.7967 4.77631 70.7786 4.69513C70.7375 4.51012 70.6495 4.34999 70.5145 4.21474C70.3203 4.0087 70.0748 3.90569 69.7778 3.90569C69.4808 3.90569 69.2352 4.0087 69.041 4.21474C68.8468 4.40934 68.7497 4.65544 68.7497 4.95306V15.4783C68.7497 15.7874 68.8468 16.0393 69.041 16.2339C69.2352 16.4284 69.4808 16.5258 69.7778 16.5258C70.0748 16.5258 70.3203 16.4228 70.5145 16.2166C70.7087 16.0221 70.8057 15.776 70.8057 15.4783V12.113C70.8797 12.1872 70.958 12.2589 71.0406 12.3282C71.3149 12.5582 71.6364 12.7612 72.0051 12.9372C72.4962 13.1547 73.0159 13.2634 73.5642 13.2634C74.3294 13.2634 75.0262 13.0631 75.6545 12.6625C76.2941 12.2504 76.7967 11.6838 77.1622 10.9626C77.5278 10.23 77.7105 9.40585 77.7105 8.49011C77.7105 7.57437 77.522 6.75592 77.145 6.03478ZM74.8571 6.59703C74.4467 6.10361 73.9144 5.85759 73.2387 5.85759C72.5628 5.85759 72.0236 6.10381 71.6013 6.59921L71.5997 6.60105C71.1744 7.08974 70.955 7.71327 70.955 8.49011C70.955 9.26684 71.1744 9.89723 71.6013 10.3982C72.0236 10.8936 72.5628 11.1398 73.2387 11.1398C73.9019 11.1398 74.4358 10.8945 74.8589 10.3982M74.8571 6.59703L74.8605 6.60104L74.8571 6.59703ZM74.8589 10.3982C75.2858 9.89723 75.5052 9.26683 75.5052 8.49011C75.5052 7.71327 75.2858 7.08974 74.8605 6.60104M75.0377 10.5505C74.5694 11.1 73.9697 11.3747 73.2387 11.3747C72.4962 11.3747 71.8908 11.1 71.4225 10.5505C70.9543 10.0011 70.7201 9.31428 70.7201 8.49011C70.7201 7.66594 70.9543 6.98486 71.4225 6.44685C71.8908 5.89741 72.4962 5.6227 73.2387 5.6227C73.9811 5.6227 74.5808 5.89741 75.0377 6.44685C75.5059 6.98486 75.7401 7.66594 75.7401 8.49011C75.7401 9.31428 75.5059 10.0011 75.0377 10.5505Z" fill="#FF4500"/>
</g>
</svg>
