<svg width="23" height="23" viewBox="0 0 23 23" fill="none" xmlns="http://www.w3.org/2000/svg">
<path d="M11.3711 22.3408C12.8893 22.3408 14.318 22.0508 15.6572 21.4707C16.9964 20.8978 18.1781 20.0993 19.2021 19.0752C20.2262 18.0511 21.0283 16.8695 21.6084 15.5303C22.1885 14.1911 22.4785 12.7624 22.4785 11.2441C22.4785 9.72591 22.1885 8.2972 21.6084 6.95801C21.0283 5.61882 20.2262 4.44076 19.2021 3.42383C18.1781 2.39974 16.9964 1.59766 15.6572 1.01758C14.318 0.4375 12.8857 0.147461 11.3604 0.147461C9.84212 0.147461 8.41341 0.4375 7.07422 1.01758C5.74219 1.59766 4.56413 2.39974 3.54004 3.42383C2.52311 4.44076 1.72461 5.61882 1.14453 6.95801C0.564453 8.2972 0.274414 9.72591 0.274414 11.2441C0.274414 12.7624 0.564453 14.1911 1.14453 15.5303C1.72461 16.8695 2.52311 18.0511 3.54004 19.0752C4.56413 20.0993 5.74577 20.8978 7.08496 21.4707C8.42415 22.0508 9.85286 22.3408 11.3711 22.3408ZM11.3711 20.1494C10.1393 20.1494 8.98275 19.9202 7.90137 19.4619C6.82715 19.0036 5.88184 18.3662 5.06543 17.5498C4.25618 16.7334 3.6224 15.7881 3.16406 14.7139C2.70573 13.6396 2.47656 12.4831 2.47656 11.2441C2.47656 10.0124 2.70573 8.85938 3.16406 7.78516C3.6224 6.70378 4.25618 5.75488 5.06543 4.93848C5.87467 4.12207 6.81641 3.4847 7.89062 3.02637C8.97201 2.56803 10.1286 2.33887 11.3604 2.33887C12.5993 2.33887 13.7559 2.56803 14.8301 3.02637C15.9043 3.4847 16.8496 4.12207 17.666 4.93848C18.4896 5.75488 19.1305 6.70378 19.5889 7.78516C20.0472 8.85938 20.2764 10.0124 20.2764 11.2441C20.2764 12.4831 20.0472 13.6396 19.5889 14.7139C19.1305 15.7881 18.4932 16.7334 17.6768 17.5498C16.8675 18.3662 15.9222 19.0036 14.8408 19.4619C13.7666 19.9202 12.61 20.1494 11.3711 20.1494ZM11.3604 16.5293C12.1123 16.5293 12.7712 16.3968 13.3369 16.1318C13.9027 15.8597 14.3431 15.5482 14.6582 15.1973C14.9733 14.8464 15.1309 14.5527 15.1309 14.3164C15.1309 14.1875 15.0771 14.098 14.9697 14.0479C14.8623 13.9906 14.7477 13.9906 14.626 14.0479C14.2393 14.2555 13.7917 14.4561 13.2832 14.6494C12.7819 14.8428 12.141 14.9395 11.3604 14.9395C10.5798 14.9395 9.9388 14.8428 9.4375 14.6494C8.9362 14.4561 8.48861 14.2555 8.09473 14.0479C7.97298 13.9906 7.8584 13.9906 7.75098 14.0479C7.65072 14.098 7.60059 14.1875 7.60059 14.3164C7.60059 14.5527 7.75456 14.8464 8.0625 15.1973C8.3776 15.5482 8.81803 15.8597 9.38379 16.1318C9.95671 16.3968 10.6156 16.5293 11.3604 16.5293ZM8.19141 10.2773C8.52799 10.2773 8.8252 10.1413 9.08301 9.86914C9.34082 9.59701 9.46973 9.24609 9.46973 8.81641C9.46973 8.39388 9.34082 8.04655 9.08301 7.77441C8.8252 7.49512 8.52799 7.35547 8.19141 7.35547C7.85482 7.35547 7.5612 7.49512 7.31055 7.77441C7.06706 8.04655 6.94531 8.39388 6.94531 8.81641C6.94531 9.24609 7.06706 9.59701 7.31055 9.86914C7.5612 10.1413 7.85482 10.2773 8.19141 10.2773ZM14.5293 10.2773C14.8659 10.2773 15.1631 10.1413 15.4209 9.86914C15.6787 9.59701 15.8076 9.24609 15.8076 8.81641C15.8076 8.39388 15.6787 8.04655 15.4209 7.77441C15.1631 7.49512 14.8659 7.35547 14.5293 7.35547C14.1927 7.35547 13.8991 7.49512 13.6484 7.77441C13.4049 8.04655 13.2832 8.39388 13.2832 8.81641C13.2832 9.24609 13.4049 9.59701 13.6484 9.86914C13.8991 10.1413 14.1927 10.2773 14.5293 10.2773Z" fill="black"/>
</svg>
