<svg width="24" height="22" viewBox="0 0 24 22" fill="none" xmlns="http://www.w3.org/2000/svg">
<path fill-rule="evenodd" clip-rule="evenodd" d="M16.3685 1.39994C16.3685 1.25227 16.4239 1.12305 16.5346 1.01229C16.7931 0.753848 17.0669 0.744619 17.3561 0.984597C17.9037 1.42148 18.3406 1.7476 18.6667 1.96297C19.0052 2.17834 19.3128 2.28294 19.5897 2.27679C19.8728 2.27679 20.1928 2.16603 20.5496 1.94451C20.9127 1.72915 21.3896 1.41225 21.9803 0.993827C22.3003 0.760002 22.5772 0.760002 22.811 0.993827C23.0448 1.22765 23.0602 1.49532 22.8571 1.79683C22.4449 2.41831 22.1341 2.91365 21.9249 3.28285C21.7157 3.65205 21.608 3.9751 21.6019 4.25199C21.6019 4.52274 21.7034 4.82117 21.9064 5.1473C22.1095 5.47342 22.4141 5.90723 22.8202 6.44872C23.054 6.75638 23.0479 7.03328 22.8018 7.27941C22.5495 7.5317 22.2787 7.53785 21.9895 7.29787C21.4296 6.84868 20.9773 6.51333 20.6327 6.29181C20.3004 6.07029 19.9928 5.96569 19.7097 5.97799C19.4328 5.98415 19.1129 6.10106 18.7498 6.32873C18.3991 6.5564 17.9283 6.8856 17.3376 7.31633C17.0423 7.53785 16.7715 7.52554 16.5254 7.27941C16.2977 7.05174 16.2854 6.78715 16.4885 6.48564C16.9007 5.86416 17.2084 5.37189 17.4115 5.00885C17.6145 4.6458 17.713 4.32583 17.7068 4.04894C17.7068 3.77819 17.6022 3.47668 17.393 3.1444C17.19 2.80597 16.8915 2.35986 16.4977 1.80606C16.4116 1.683 16.3685 1.54762 16.3685 1.39994ZM4.34567 21.2956L14.6365 10.8745C15.0562 10.4475 15.2661 9.93005 15.2661 9.32216C15.2661 8.71426 15.0562 8.1932 14.6365 7.75899C14.2095 7.33925 13.6885 7.12938 13.0733 7.12938C12.451 7.12938 11.9335 7.33925 11.521 7.75899L1.23019 18.1801C0.810455 18.6071 0.600586 19.1245 0.600586 19.7324C0.600586 20.3475 0.810455 20.8686 1.23019 21.2956C1.65717 21.7225 2.17822 21.936 2.79336 21.936C3.40849 21.936 3.92593 21.7225 4.34567 21.2956ZM9.71905 13.5232L8.78549 12.5353L12.3243 8.97479C12.498 8.8011 12.6898 8.69255 12.8997 8.64913C13.1023 8.60571 13.2832 8.65998 13.4424 8.81196C13.6161 8.98564 13.6812 9.17742 13.6378 9.38729C13.5872 9.58992 13.4786 9.77446 13.3122 9.94091L9.71905 13.5232ZM20.9399 18.046C21.0527 18.0083 21.1385 17.9387 21.1973 17.8373C21.2561 17.7359 21.2731 17.6239 21.2485 17.5012C21.1369 16.9716 21.0654 16.5538 21.0341 16.2481C21.0028 15.9424 21.0386 15.6905 21.1415 15.4926C21.246 15.2996 21.4412 15.1089 21.7272 14.9206C22.0083 14.734 22.4071 14.4917 22.9235 14.1937C23.1671 14.0578 23.2479 13.8672 23.1659 13.622C23.1266 13.5043 23.0562 13.4161 22.9548 13.3573C22.8484 13.3002 22.734 13.2839 22.6113 13.3085C22.0506 13.4251 21.6043 13.5006 21.2724 13.5352C20.9388 13.5649 20.6715 13.5316 20.4703 13.4353C20.2625 13.3357 20.0768 13.147 19.913 12.8692C19.7428 12.5881 19.5397 12.1925 19.3039 11.6826C19.1826 11.4178 18.9896 11.3296 18.7248 11.4181C18.4551 11.5083 18.3522 11.698 18.4162 11.9874C18.5327 12.5154 18.6066 12.9323 18.6379 13.2381C18.6676 13.5389 18.6302 13.7859 18.5257 13.9789C18.4212 14.1719 18.226 14.3626 17.94 14.5508C17.654 14.7391 17.2544 14.9789 16.7412 15.2704C16.4993 15.4112 16.4193 15.6042 16.5013 15.8494C16.5865 16.1044 16.7828 16.2024 17.0901 16.1433C17.6493 16.0382 18.0931 15.9716 18.4218 15.9436C18.7504 15.9155 19.0162 15.9521 19.219 16.0533C19.4186 16.1611 19.6019 16.3506 19.7688 16.6219C19.9326 16.8997 20.1266 17.2847 20.351 17.7767C20.4739 18.0464 20.6702 18.1361 20.9399 18.046ZM3.30011 3.51999C3.26262 3.64974 3.27462 3.77036 3.33612 3.88185C3.39762 3.99334 3.48651 4.0776 3.6028 4.13464C4.13073 4.38874 4.54182 4.60125 4.83606 4.7722C5.13238 4.93593 5.33691 5.12 5.44966 5.3244C5.56962 5.53088 5.62854 5.81345 5.62643 6.1721C5.62431 6.53074 5.59703 7.03051 5.5446 7.67139C5.51686 7.98358 5.63633 8.17821 5.90303 8.25529C6.19135 8.33861 6.40088 8.23515 6.53161 7.94491C6.7982 7.37373 7.01649 6.92916 7.18648 6.61122C7.36575 6.28815 7.55863 6.06663 7.76511 5.94668C7.97368 5.81951 8.24952 5.77036 8.59262 5.79923C8.94502 5.82296 9.42612 5.8878 10.0359 5.99374C10.3542 6.05448 10.556 5.93708 10.6414 5.64155C10.7248 5.35323 10.6141 5.14162 10.3094 5.00672C9.77734 4.76704 9.36674 4.56638 9.07762 4.40473C8.78851 4.24308 8.58758 4.06005 8.47483 3.85565C8.36416 3.64404 8.31093 3.35531 8.31513 2.98945C8.31933 2.6236 8.34764 2.12023 8.40008 1.47935C8.42782 1.16716 8.30474 0.971482 8.03084 0.892328C7.75693 0.813173 7.54789 0.928484 7.40369 1.23826C7.13197 1.80015 6.90392 2.23799 6.71952 2.55177C6.54233 2.86763 6.34689 3.0845 6.13319 3.20237C5.92671 3.32233 5.65087 3.37148 5.30568 3.34983C4.96978 3.32304 4.50414 3.25877 3.90875 3.157C3.59048 3.09626 3.3876 3.21726 3.30011 3.51999Z" fill="#007AFF"/>
</svg>
