<svg width="26" height="25" viewBox="0 0 26 25" fill="none" xmlns="http://www.w3.org/2000/svg">
<path d="M4.34579 24.2956L14.6366 13.8745C15.0564 13.4475 15.2662 12.9301 15.2662 12.3222C15.2662 11.7143 15.0564 11.1932 14.6366 10.759C14.2097 10.3393 13.6886 10.1294 13.0735 10.1294C12.4511 10.1294 11.9337 10.3393 11.5212 10.759L1.23032 21.1801C0.810577 21.6071 0.600708 22.1245 0.600708 22.7324C0.600708 23.3475 0.810577 23.8686 1.23032 24.2956C1.65729 24.7226 2.17835 24.936 2.79348 24.936C3.40862 24.936 3.92605 24.7226 4.34579 24.2956ZM9.71917 16.5232L8.78561 15.5353L12.3244 11.9748C12.4981 11.8011 12.6899 11.6926 12.8998 11.6491C13.1024 11.6057 13.2833 11.66 13.4425 11.812C13.6162 11.9857 13.6814 12.1774 13.6379 12.3873C13.5873 12.5899 13.4787 12.7745 13.3123 12.9409L9.71917 16.5232Z" fill="#007AFF"/>
<path d="M6.5454 10.9302C6.42963 11.2158 6.22439 11.3166 5.9297 11.2327C5.64297 11.1511 5.51993 10.9481 5.56059 10.6239C5.62604 10.0312 5.66828 9.56535 5.68731 9.22635C5.69838 8.88508 5.65093 8.61325 5.54495 8.41087C5.43102 8.20621 5.22609 8.01871 4.93018 7.84834C4.62858 7.66775 4.19895 7.43778 3.64131 7.15845C3.32267 7.00745 3.2019 6.79654 3.27901 6.52574C3.35612 6.25494 3.55507 6.13077 3.87588 6.15323C4.52545 6.20043 5.03508 6.22499 5.40478 6.22694C5.77448 6.22888 6.06451 6.178 6.27486 6.0743C6.47951 5.96036 6.66077 5.76227 6.81863 5.48002C6.9708 5.18754 7.15698 4.77558 7.37718 4.24416C7.49749 3.94261 7.70897 3.83492 8.01164 3.9211C8.2904 4.00048 8.41059 4.1983 8.3722 4.51457C8.31018 5.12547 8.27137 5.60953 8.25577 5.96673C8.23446 6.31369 8.27567 6.59235 8.37937 6.8027C8.48307 7.01305 8.68686 7.20454 8.99074 7.37717C9.29688 7.54184 9.74241 7.74619 10.3273 7.99024C10.6289 8.11054 10.7366 8.32203 10.6504 8.62469C10.5755 8.88752 10.3777 9.00771 10.0569 8.98525C9.4153 8.94032 8.91363 8.91802 8.5519 8.91835C8.1822 8.91641 7.89502 8.9724 7.69037 9.08634C7.48002 9.19004 7.29478 9.387 7.13465 9.67722C6.97452 9.96743 6.7781 10.3851 6.5454 10.9302Z" fill="#007AFF"/>
<path d="M21.1974 20.8373C21.1386 20.9387 21.0528 21.0083 20.94 21.046C20.6703 21.1361 20.474 21.0464 20.3512 20.7767C20.1268 20.2847 19.9327 19.8998 19.769 19.6219C19.602 19.3506 19.4187 19.1611 19.2191 19.0533C19.0163 18.9521 18.7505 18.9155 18.4219 18.9436C18.0933 18.9716 17.6494 19.0382 17.0903 19.1433C16.7829 19.2024 16.5866 19.1044 16.5014 18.8494C16.4194 18.6042 16.4994 18.4112 16.7413 18.2704C17.2545 17.979 17.6541 17.7391 17.9401 17.5508C18.2261 17.3626 18.4213 17.1719 18.5258 16.9789C18.6303 16.7859 18.6677 16.5389 18.6381 16.2381C18.6068 15.9324 18.5328 15.5155 18.4163 14.9874C18.3523 14.698 18.4552 14.5083 18.7249 14.4181C18.9897 14.3296 19.1828 14.4178 19.304 14.6826C19.5398 15.1925 19.7429 15.5881 19.9132 15.8692C20.0769 16.147 20.2626 16.3357 20.4704 16.4353C20.6716 16.5316 20.9389 16.5649 21.2725 16.5352C21.6044 16.5006 22.0507 16.4251 22.6115 16.3085C22.7341 16.2839 22.8486 16.3002 22.9549 16.3573C23.0563 16.4161 23.1267 16.5044 23.166 16.6221C23.248 16.8673 23.1672 17.0578 22.9237 17.1937C22.4072 17.4917 22.0084 17.734 21.7273 17.9207C21.4413 18.1089 21.2461 18.2996 21.1416 18.4926C21.0387 18.6905 21.003 18.9424 21.0343 19.2481C21.0656 19.5538 21.137 19.9716 21.2486 20.5013C21.2733 20.6239 21.2562 20.7359 21.1974 20.8373Z" fill="#007AFF"/>
<path d="M16.3687 4.39996C16.3687 4.25228 16.4241 4.12306 16.5348 4.0123C16.7932 3.75386 17.0671 3.74463 17.3563 3.98461C17.9039 4.42149 18.3408 4.74762 18.6669 4.96298C19.0054 5.17835 19.313 5.28295 19.5899 5.2768C19.873 5.2768 20.1929 5.16604 20.5498 4.94452C20.9129 4.72916 21.3898 4.41226 21.9805 3.99384C22.3004 3.76001 22.5773 3.76001 22.8112 3.99384C23.045 4.22766 23.0604 4.49533 22.8573 4.79684C22.445 5.41833 22.1343 5.91367 21.9251 6.28286C21.7159 6.65206 21.6082 6.97511 21.602 7.25201C21.602 7.52275 21.7036 7.82119 21.9066 8.14731C22.1097 8.47343 22.4143 8.90724 22.8204 9.44873C23.0542 9.7564 23.0481 10.0333 22.8019 10.2794C22.5497 10.5317 22.2789 10.5379 21.9897 10.2979C21.4298 9.84869 20.9775 9.51334 20.6329 9.29182C20.3006 9.0703 19.993 8.9657 19.7099 8.978C19.433 8.98416 19.113 9.10107 18.75 9.32874C18.3993 9.55641 17.9285 9.88561 17.3378 10.3163C17.0425 10.5379 16.7717 10.5256 16.5256 10.2794C16.2979 10.0518 16.2856 9.78716 16.4887 9.48565C16.9009 8.86417 17.2086 8.3719 17.4117 8.00886C17.6147 7.64582 17.7132 7.32585 17.707 7.04895C17.707 6.7782 17.6024 6.47669 17.3932 6.14441C17.1901 5.80598 16.8917 5.35987 16.4979 4.80607C16.4117 4.68301 16.3687 4.54764 16.3687 4.39996Z" fill="#007AFF"/>
</svg>
