<svg width="100" height="78" viewBox="0 0 100 78" fill="none" xmlns="http://www.w3.org/2000/svg">
<g clip-path="url(#clip0_1344_1595)">
<path opacity="0.25" d="M73.006 56.4973C71.1002 71.8435 57.1933 74.0829 33.1406 71.0958C9.0878 68.1087 1.07545 59.6035 2.45967 48.4574C3.84389 37.3113 18.3989 23.65 39.4325 20.4316C62.6542 16.8785 75.1604 39.1491 73.006 56.4973Z" fill="#78B9FF"/>
<path d="M19.5868 76.72L37.4091 58.672C38.136 57.9326 38.4995 57.0364 38.4995 55.9836C38.4995 54.9308 38.136 54.0284 37.4091 53.2764C36.6696 52.5495 35.7673 52.186 34.7019 52.186C33.6241 52.186 32.7279 52.5495 32.0135 53.2764L14.1912 71.3244C13.4642 72.0639 13.1008 72.96 13.1008 74.0128C13.1008 75.0781 13.4642 75.9805 14.1912 76.72C14.9306 77.4594 15.833 77.8292 16.8984 77.8292C17.9637 77.8292 18.8598 77.4594 19.5868 76.72ZM28.8927 63.2592L27.2759 61.5484L33.4047 55.382C33.7055 55.0812 34.0377 54.8932 34.4011 54.818C34.7521 54.7428 35.0654 54.8368 35.3411 55.1C35.6419 55.4008 35.7547 55.733 35.6795 56.0964C35.5918 56.4474 35.4038 56.767 35.1155 57.0552L28.8927 63.2592Z" fill="#3A82F6"/>
<path d="M23.396 53.5727C23.1955 54.0674 22.8401 54.242 22.3297 54.0967C21.8331 53.9553 21.62 53.6038 21.6905 53.0423C21.8038 52.0158 21.8769 51.209 21.9099 50.6219C21.9291 50.0309 21.8469 49.5601 21.6634 49.2096C21.466 48.8552 21.1111 48.5304 20.5987 48.2354C20.0763 47.9226 19.3323 47.5244 18.3665 47.0406C17.8147 46.7791 17.6055 46.4138 17.7391 45.9448C17.8726 45.4758 18.2172 45.2608 18.7728 45.2997C19.8977 45.3814 20.7803 45.424 21.4206 45.4273C22.0609 45.4307 22.5632 45.3426 22.9275 45.163C23.2819 44.9657 23.5958 44.6226 23.8692 44.1338C24.1327 43.6272 24.4552 42.9138 24.8366 41.9934C25.0449 41.4712 25.4112 41.2847 25.9353 41.4339C26.4181 41.5714 26.6263 41.914 26.5598 42.4617C26.4524 43.5198 26.3852 44.3581 26.3581 44.9767C26.3212 45.5776 26.3926 46.0602 26.5722 46.4245C26.7518 46.7888 27.1047 47.1204 27.631 47.4194C28.1612 47.7046 28.9328 48.0585 29.9458 48.4811C30.468 48.6895 30.6545 49.0558 30.5053 49.5799C30.3757 50.0351 30.0331 50.2433 29.4775 50.2044C28.3663 50.1266 27.4975 50.0879 26.871 50.0885C26.2307 50.0851 25.7334 50.1821 25.379 50.3794C25.0147 50.559 24.6938 50.9001 24.4165 51.4028C24.1392 51.9054 23.799 52.6287 23.396 53.5727Z" fill="#3A82F6"/>
<path d="M48.7711 70.7305C48.6693 70.9062 48.5207 71.0266 48.3254 71.0919C47.8582 71.248 47.5183 71.0925 47.3055 70.6255C46.9169 69.7734 46.5808 69.1068 46.2973 68.6256C46.008 68.1557 45.6906 67.8275 45.345 67.6409C44.9937 67.4656 44.5335 67.4022 43.9643 67.4508C43.3952 67.4994 42.6264 67.6147 41.6581 67.7967C41.1258 67.899 40.7858 67.7294 40.6382 67.2878C40.4963 66.8631 40.6348 66.5288 41.0537 66.285C41.9425 65.7802 42.6346 65.3648 43.1299 65.0388C43.6252 64.7127 43.9633 64.3825 44.1443 64.0482C44.3253 63.7139 44.3901 63.2863 44.3387 62.7653C44.2845 62.2358 44.1565 61.5137 43.9547 60.5992C43.8438 60.0981 44.022 59.7695 44.4891 59.6133C44.9477 59.4601 45.282 59.6127 45.4919 60.0713C45.9004 60.9545 46.2521 61.6395 46.547 62.1264C46.8306 62.6076 47.1522 62.9344 47.512 63.1068C47.8604 63.2736 48.3235 63.3313 48.9011 63.2799C49.476 63.22 50.2489 63.0891 51.2201 62.8873C51.4324 62.8446 51.6307 62.8728 51.8148 62.9718C51.9905 63.0736 52.1124 63.2264 52.1805 63.4302C52.3224 63.8549 52.1825 64.1849 51.7608 64.4203C50.8663 64.9364 50.1757 65.356 49.6889 65.6792C49.1936 66.0053 48.8554 66.3355 48.6744 66.6698C48.4963 67.0125 48.4343 67.4487 48.4886 67.9782C48.5428 68.5077 48.6665 69.2311 48.8598 70.1485C48.9025 70.3609 48.8729 70.5549 48.7711 70.7305Z" fill="#3A82F6"/>
<path d="M40.4086 42.2632C40.4086 42.0075 40.5045 41.7837 40.6963 41.5919C41.1439 41.1443 41.6181 41.1283 42.119 41.5439C43.0674 42.3005 43.824 42.8654 44.3889 43.2383C44.975 43.6113 45.5078 43.7925 45.9874 43.7818C46.4776 43.7818 47.0317 43.59 47.6498 43.2064C48.2785 42.8334 49.1044 42.2846 50.1275 41.5599C50.6816 41.155 51.1612 41.155 51.5661 41.5599C51.9711 41.9649 51.9977 42.4284 51.6461 42.9506C50.9321 44.0269 50.3939 44.8848 50.0316 45.5242C49.6692 46.1636 49.4827 46.7231 49.4721 47.2026C49.4721 47.6715 49.6479 48.1884 49.9996 48.7532C50.3513 49.318 50.8788 50.0693 51.5821 51.0071C51.9871 51.5399 51.9764 52.0194 51.5501 52.4457C51.1132 52.8826 50.6443 52.8933 50.1435 52.4777C49.1737 51.6997 48.3904 51.119 47.7937 50.7353C47.2182 50.3517 46.6854 50.1705 46.1952 50.1918C45.7156 50.2025 45.1615 50.405 44.5327 50.7993C43.9253 51.1935 43.1101 51.7637 42.087 52.5096C41.5755 52.8933 41.1066 52.872 40.6803 52.4457C40.286 52.0514 40.2647 51.5932 40.6164 51.071C41.3304 49.9947 41.8632 49.1421 42.2149 48.5134C42.5666 47.8846 42.7371 47.3305 42.7264 46.851C42.7264 46.3821 42.5452 45.8599 42.1829 45.2844C41.8312 44.6983 41.3144 43.9257 40.6324 42.9666C40.4832 42.7535 40.4086 42.519 40.4086 42.2632Z" fill="#3A82F6"/>
<path d="M55.93 26.6928L58.7145 12.2181C59.3205 9.05425 61.2302 7.77642 64.4434 8.38461L85.2401 12.3958C88.4478 13.0186 89.7312 14.9137 89.1251 18.0775L88.3165 22.3849L91.6154 23.6447C94.6515 24.8041 95.6045 26.9075 94.4562 29.9145L89.1998 43.6793C88.0515 46.6863 85.9392 47.6191 82.903 46.4597L62.9636 38.8454C59.8983 37.6748 58.9543 35.5916 60.1082 32.5701L60.1584 32.4387L59.8351 32.3654C56.6129 31.7371 55.3385 29.8622 55.93 26.6928ZM58.4223 27.0424C58.1165 28.6316 58.811 29.6161 60.3565 29.9052L61.0725 30.0448L65.3646 18.8052C66.5129 15.7982 68.6107 14.8598 71.676 16.0304L85.9372 21.4764L86.6473 17.7334C86.9441 16.124 86.2294 15.1486 84.7188 14.8561L64.0151 10.8637C62.4753 10.56 61.4673 11.2288 61.1559 12.8326L58.4223 27.0424ZM67.6645 19.834L63.0213 31.9932L67.4183 30.3774C68.1715 30.1131 68.8008 30.0858 69.3701 30.3031C69.9977 30.5428 70.4924 30.9994 70.8666 31.7276L72.3939 34.7361L80.2865 31.7623C81.1059 31.4563 81.8373 31.4681 82.5526 31.7412C83.2678 32.0143 83.8681 32.5446 84.2367 33.2875L87.7137 40.5194L92.056 29.1484C92.6357 27.6303 92.1193 26.5299 90.6742 25.9781L70.8078 18.3917C69.3481 17.8343 68.2443 18.3159 67.6645 19.834ZM73.2102 29.4448C71.5024 28.7926 70.671 26.8527 71.3231 25.1449C71.9642 23.4662 73.877 22.5743 75.5848 23.2265C77.2926 23.8786 78.1387 25.8241 77.4976 27.5027C76.8455 29.2106 74.9181 30.0969 73.2102 29.4448Z" fill="#3A82F6"/>
<path d="M18.1716 9.34402C17.3688 9.13077 17.0414 8.56634 17.258 7.75088L18.0805 4.65466C18.8015 1.94069 20.6043 0.905478 23.3565 1.63662L26.4527 2.45916C27.2682 2.67579 27.5957 3.24022 27.3824 4.04294C27.1692 4.84567 26.6047 5.17315 25.7893 4.95652L22.846 4.1746C21.661 3.8598 20.8487 4.29877 20.5204 5.53471L19.7554 8.41432C19.5387 9.22979 18.987 9.56066 18.1716 9.34402ZM40.9154 15.3861C40.1127 15.1729 39.7852 14.6084 40.0018 13.793L40.7668 10.9133C41.0952 9.67741 40.5951 8.8898 39.4228 8.57838L36.4795 7.79647C35.6641 7.57983 35.3366 7.0154 35.5498 6.21268C35.7631 5.40995 36.3275 5.08247 37.143 5.2991L40.2392 6.12164C42.9914 6.85278 44.0427 8.64622 43.3217 11.3602L42.4992 14.4564C42.2826 15.2719 41.7309 15.6027 40.9154 15.3861ZM21.6612 15.8229C20.5272 15.5217 20.6364 14.1866 21.7232 13.9979L34.7252 11.6273C35.902 11.4079 36.5757 12.569 35.814 13.4852L27.338 23.6194C26.6382 24.4566 25.4182 23.9142 25.7262 22.7547L27.0505 17.7184C27.1216 17.4508 27 17.2412 26.7579 17.1769L21.6612 15.8229ZM16.651 26.8778C13.8988 26.1467 12.8474 24.3532 13.5718 21.6265L14.3944 18.5303C14.611 17.7148 15.1627 17.384 15.9781 17.6006C16.7809 17.8139 17.1084 18.3783 16.8917 19.1938L16.1267 22.0734C15.795 23.322 16.2823 24.1063 17.4673 24.4211L20.4106 25.203C21.2261 25.4196 21.5536 25.9841 21.3403 26.7868C21.1271 27.5895 20.5627 27.917 19.7472 27.7003L16.651 26.8778ZM30.4374 30.5403C29.622 30.3237 29.2945 29.7592 29.5077 28.9565C29.721 28.1538 30.2854 27.8263 31.1009 28.0429L34.0442 28.8249C35.2164 29.1363 36.0415 28.7007 36.3732 27.452L37.1382 24.5724C37.3514 23.7697 37.9065 23.4261 38.722 23.6427C39.5247 23.8559 39.8522 24.4204 39.6355 25.2358L38.813 28.3321C38.0886 31.0588 36.2858 32.094 33.5337 31.3628L30.4374 30.5403Z" fill="#3A82F6"/>
</g>
<defs>
<clipPath id="clip0_1344_1595">
<rect width="99.0104" height="77.3026" fill="white" transform="translate(0.156738 0.526367)"/>
</clipPath>
</defs>
</svg>
