<svg width="100" height="78" viewBox="0 0 100 78" fill="none" xmlns="http://www.w3.org/2000/svg">
<path d="M73.006 56.4972C71.1002 71.8434 57.1933 74.0828 33.1406 71.0957C9.0878 68.1086 1.07545 59.6034 2.45967 48.4573C3.84389 37.3112 18.3989 23.6499 39.4325 20.4315C62.6542 16.8784 75.1604 39.149 73.006 56.4972Z" fill="#DCE9F8"/>
<path d="M19.5868 76.7197L37.4091 58.6718C38.136 57.9323 38.4995 57.0362 38.4995 55.9834C38.4995 54.9306 38.136 54.0282 37.4091 53.2762C36.6696 52.5493 35.7673 52.1858 34.7019 52.1858C33.6241 52.1858 32.7279 52.5493 32.0135 53.2762L14.1912 71.3242C13.4642 72.0636 13.1008 72.9597 13.1008 74.0125C13.1008 75.0779 13.4642 75.9803 14.1912 76.7197C14.9306 77.4592 15.833 77.8289 16.8984 77.8289C17.9637 77.8289 18.8598 77.4592 19.5868 76.7197ZM28.8927 63.259L27.2759 61.5482L33.4047 55.3818C33.7055 55.081 34.0377 54.893 34.4011 54.8178C34.7521 54.7426 35.0654 54.8366 35.3411 55.0998C35.6419 55.4006 35.7547 55.7327 35.6795 56.0962C35.5918 56.4471 35.4038 56.7667 35.1155 57.055L28.8927 63.259Z" fill="#007AFF"/>
<path d="M23.3963 53.5726C23.1958 54.0672 22.8403 54.2419 22.3299 54.0966C21.8334 53.9552 21.6203 53.6037 21.6907 53.0422C21.804 52.0157 21.8772 51.2089 21.9102 50.6218C21.9293 50.0308 21.8471 49.56 21.6636 49.2095C21.4663 48.8551 21.1114 48.5303 20.5989 48.2353C20.0766 47.9225 19.3325 47.5242 18.3668 47.0405C17.8149 46.779 17.6058 46.4137 17.7393 45.9447C17.8728 45.4757 18.2174 45.2607 18.773 45.2996C19.898 45.3813 20.7806 45.4238 21.4209 45.4272C22.0611 45.4306 22.5634 45.3425 22.9277 45.1629C23.2821 44.9655 23.5961 44.6225 23.8695 44.1336C24.133 43.6271 24.4554 42.9137 24.8368 41.9933C25.0452 41.4711 25.4114 41.2846 25.9356 41.4338C26.4184 41.5713 26.6265 41.9139 26.56 42.4616C26.4526 43.5196 26.3854 44.3579 26.3584 44.9766C26.3215 45.5775 26.3928 46.0601 26.5724 46.4244C26.752 46.7887 27.105 47.1203 27.6313 47.4193C28.1615 47.7044 28.933 48.0584 29.946 48.481C30.4683 48.6894 30.6548 49.0556 30.5055 49.5798C30.3759 50.035 30.0333 50.2431 29.4777 50.2042C28.3665 50.1264 27.4977 50.0878 26.8712 50.0884C26.231 50.085 25.7336 50.182 25.3792 50.3793C25.0149 50.5589 24.6941 50.9 24.4168 51.4026C24.1394 51.9052 23.7993 52.6286 23.3963 53.5726Z" fill="#007AFF"/>
<path d="M48.7716 70.7304C48.6698 70.906 48.5212 71.0265 48.3258 71.0918C47.8587 71.2479 47.5188 71.0924 47.306 70.6253C46.9174 69.7733 46.5813 69.1066 46.2977 68.6255C46.0085 68.1556 45.6911 67.8274 45.3455 67.6407C44.9942 67.4654 44.534 67.4021 43.9648 67.4507C43.3957 67.4993 42.6269 67.6146 41.6586 67.7966C41.1263 67.8989 40.7863 67.7293 40.6387 67.2876C40.4968 66.863 40.6353 66.5287 41.0542 66.2848C41.943 65.7801 42.635 65.3647 43.1304 65.0386C43.6257 64.7126 43.9638 64.3824 44.1448 64.0481C44.3258 63.7138 44.3906 63.2862 44.3392 62.7651C44.2849 62.2356 44.1569 61.5136 43.9552 60.5991C43.8443 60.098 44.0225 59.7693 44.4896 59.6132C44.9482 59.4599 45.2825 59.6126 45.4924 60.0712C45.9009 60.9544 46.2526 61.6394 46.5475 62.1262C46.831 62.6074 47.1527 62.9343 47.5125 63.1067C47.8609 63.2735 48.324 63.3312 48.9016 63.2798C49.4764 63.2199 50.2494 63.089 51.2206 62.8872C51.4329 62.8445 51.6312 62.8727 51.8153 62.9716C51.991 63.0734 52.1129 63.2263 52.181 63.4301C52.3229 63.8548 52.183 64.1848 51.7612 64.4202C50.8668 64.9363 50.1762 65.3559 49.6894 65.6791C49.194 66.0052 48.8559 66.3353 48.6749 66.6696C48.4968 67.0124 48.4348 67.4486 48.4891 67.9781C48.5433 68.5076 48.667 69.231 48.8603 70.1484C48.903 70.3607 48.8734 70.5547 48.7716 70.7304Z" fill="#007AFF"/>
<path d="M40.4088 42.2631C40.4088 42.0074 40.5047 41.7836 40.6966 41.5918C41.1441 41.1442 41.6184 41.1282 42.1192 41.5438C43.0677 42.3004 43.8243 42.8652 44.3891 43.2382C44.9752 43.6112 45.508 43.7924 45.9876 43.7817C46.4778 43.7817 47.032 43.5899 47.65 43.2062C48.2788 42.8333 49.1047 42.2844 50.1277 41.5598C50.6819 41.1548 51.1614 41.1548 51.5664 41.5598C51.9713 41.9647 51.998 42.4283 51.6463 42.9505C50.9323 44.0268 50.3941 44.8847 50.0318 45.5241C49.6695 46.1635 49.483 46.7229 49.4723 47.2025C49.4723 47.6714 49.6482 48.1882 49.9998 48.753C50.3515 49.3179 50.879 50.0691 51.5824 51.0069C51.9873 51.5398 51.9767 52.0193 51.5504 52.4456C51.1135 52.8825 50.6446 52.8932 50.1437 52.4776C49.1739 51.6996 48.3907 51.1188 47.7939 50.7352C47.2184 50.3515 46.6856 50.1704 46.1954 50.1917C45.7159 50.2024 45.1617 50.4048 44.533 50.7991C43.9255 51.1934 43.1103 51.7636 42.0873 52.5095C41.5757 52.8932 41.1068 52.8719 40.6806 52.4456C40.2863 52.0513 40.265 51.5931 40.6166 51.0709C41.3306 49.9945 41.8635 49.142 42.2151 48.5133C42.5668 47.8845 42.7373 47.3304 42.7267 46.8508C42.7267 46.3819 42.5455 45.8598 42.1832 45.2843C41.8315 44.6982 41.3146 43.9256 40.6326 42.9665C40.4834 42.7533 40.4088 42.5189 40.4088 42.2631Z" fill="#007AFF"/>
<path d="M55.9305 26.6926L58.7149 12.218C59.321 9.05413 61.2306 7.7763 64.4438 8.38449L85.2406 12.3957C88.4483 13.0185 89.7317 14.9135 89.1256 18.0774L88.317 22.3848L91.6159 23.6446C94.652 24.804 95.605 26.9074 94.4567 29.9143L89.2003 43.6792C88.052 46.6862 85.9396 47.619 82.9035 46.4595L62.9641 38.8452C59.8988 37.6747 58.9548 35.5915 60.1087 32.5699L60.1588 32.4386L59.8356 32.3653C56.6134 31.7369 55.339 29.8621 55.9305 26.6926ZM58.4228 27.0423C58.117 28.6315 58.8115 29.6159 60.357 29.905L61.073 30.0447L65.3651 18.8051C66.5134 15.7981 68.6112 14.8597 71.6765 16.0303L85.9377 21.4762L86.6478 17.7333C86.9446 16.1239 86.2299 15.1485 84.7193 14.856L64.0156 10.8636C62.4758 10.5599 61.4677 11.2287 61.1564 12.8325L58.4228 27.0423ZM67.665 19.8339L63.0218 31.9931L67.4188 30.3772C68.172 30.1129 68.8013 30.0856 69.3706 30.303C69.9982 30.5427 70.4929 30.9992 70.8671 31.7275L72.3943 34.7359L80.287 31.7622C81.1064 31.4562 81.8378 31.4679 82.553 31.7411C83.2683 32.0142 83.8686 32.5445 84.2372 33.2874L87.7142 40.5192L92.0565 29.1483C92.6362 27.6302 92.1197 26.5298 90.6746 25.978L70.8083 18.3915C69.3486 17.8341 68.2447 18.3158 67.665 19.8339ZM73.2107 29.4446C71.5029 28.7925 70.6715 26.8526 71.3236 25.1447C71.9647 23.4661 73.8775 22.5742 75.5853 23.2263C77.2931 23.8785 78.1391 25.824 77.4981 27.5026C76.8459 29.2104 74.9185 30.0968 73.2107 29.4446Z" fill="#007AFF"/>
<path d="M18.1716 9.34402C17.3688 9.13077 17.0414 8.56634 17.258 7.75088L18.0805 4.65466C18.8015 1.94069 20.6043 0.905478 23.3565 1.63662L26.4527 2.45916C27.2682 2.67579 27.5957 3.24022 27.3824 4.04294C27.1692 4.84567 26.6047 5.17315 25.7893 4.95652L22.846 4.1746C21.661 3.8598 20.8487 4.29877 20.5204 5.53471L19.7554 8.41432C19.5387 9.22979 18.987 9.56066 18.1716 9.34402ZM40.9154 15.3861C40.1127 15.1729 39.7852 14.6084 40.0018 13.793L40.7668 10.9133C41.0952 9.67741 40.5951 8.8898 39.4228 8.57838L36.4795 7.79647C35.6641 7.57983 35.3366 7.0154 35.5498 6.21268C35.7631 5.40995 36.3275 5.08247 37.143 5.2991L40.2392 6.12164C42.9914 6.85278 44.0427 8.64622 43.3217 11.3602L42.4992 14.4564C42.2826 15.2719 41.7309 15.6027 40.9154 15.3861ZM21.6612 15.8229C20.5272 15.5217 20.6364 14.1866 21.7232 13.9979L34.7252 11.6273C35.902 11.4079 36.5757 12.569 35.814 13.4852L27.338 23.6194C26.6382 24.4566 25.4182 23.9142 25.7262 22.7547L27.0505 17.7184C27.1216 17.4508 27 17.2412 26.7579 17.1769L21.6612 15.8229ZM16.651 26.8778C13.8988 26.1467 12.8474 24.3532 13.5718 21.6265L14.3944 18.5303C14.611 17.7148 15.1627 17.384 15.9781 17.6006C16.7809 17.8139 17.1084 18.3783 16.8917 19.1938L16.1267 22.0734C15.795 23.322 16.2823 24.1063 17.4673 24.4211L20.4106 25.203C21.2261 25.4196 21.5536 25.9841 21.3403 26.7868C21.1271 27.5895 20.5627 27.917 19.7472 27.7003L16.651 26.8778ZM30.4374 30.5403C29.622 30.3237 29.2945 29.7592 29.5077 28.9565C29.721 28.1538 30.2854 27.8263 31.1009 28.0429L34.0442 28.8249C35.2164 29.1363 36.0415 28.7007 36.3732 27.452L37.1382 24.5724C37.3514 23.7697 37.9065 23.4261 38.722 23.6427C39.5247 23.8559 39.8522 24.4204 39.6355 25.2358L38.813 28.3321C38.0886 31.0588 36.2858 32.094 33.5337 31.3628L30.4374 30.5403Z" fill="#007AFF"/>
</svg>
