<svg width="90" height="66" viewBox="0 0 90 66" fill="none" xmlns="http://www.w3.org/2000/svg">
<path d="M90 41.4919C90 61.0274 72.8557 66 42.1318 66C11.4079 66 0 56.5849 0 42.396C0 28.2072 16.1752 8.81453 42.1318 1.50511C70.7885 -6.56467 90 19.4078 90 41.4919Z" fill="#DCE6F8"/>
<path fill-rule="evenodd" clip-rule="evenodd" d="M33.6 32.0009C33.6 24.1752 39.944 17.8313 47.7696 17.8313C55.5953 17.8313 61.9392 24.1752 61.9392 32.0009V48.3751C61.9392 49.8555 60.7391 51.0556 59.2587 51.0556H36.2805C34.8001 51.0556 33.6 49.8555 33.6 48.3751V32.0009ZM47.7696 15.2313C38.508 15.2313 31 22.7393 31 32.0009V48.3751C31 51.2915 33.3642 53.6556 36.2805 53.6556H59.2587C62.1751 53.6556 64.5392 51.2915 64.5392 48.3751V32.0009C64.5392 22.7393 57.0312 15.2313 47.7696 15.2313ZM44.8969 32.9398L43.5767 30.0467L42.2566 32.9398L39.3634 34.26L42.2566 35.5801L43.5767 38.4732L44.8969 35.5801L47.79 34.26L44.8969 32.9398ZM50.5988 32.8555L52.3544 28.9934L56.2165 27.2378L52.3544 25.4823L50.5988 21.6201L48.8433 25.4823L44.9811 27.2378L48.8433 28.9934L50.5988 32.8555ZM39.9394 46.3797L42.4915 42.9955C42.8613 42.4962 43.6011 42.4962 43.9709 42.9955L46.2271 46.0099L50.351 40.5174C50.7209 40.0181 51.4606 40.0181 51.8305 40.5174L56.2318 46.3797C56.6941 46.99 56.2503 47.8592 55.4921 47.8592H40.6792C39.9209 47.8592 39.4771 46.99 39.9394 46.3797Z" fill="#316CD6"/>
</svg>
