<svg width="100" height="78" viewBox="0 0 100 78" fill="none" xmlns="http://www.w3.org/2000/svg">
<path d="M73.0061 56.1682C71.1003 71.5144 57.1934 73.7538 33.1407 70.7667C9.08792 67.7796 1.07557 59.2744 2.45979 48.1283C3.84401 36.9822 18.399 23.3209 39.4327 20.1025C62.6543 16.5494 75.1606 38.82 73.0061 56.1682Z" fill="#DCE9F8"/>
<path d="M19.5868 76.3909L37.4092 58.3429C38.1361 57.6035 38.4996 56.7073 38.4996 55.6545C38.4996 54.6017 38.1361 53.6993 37.4092 52.9473C36.6697 52.2204 35.7673 51.8569 34.702 51.8569C33.6241 51.8569 32.728 52.2204 32.0136 52.9473L14.1912 70.9953C13.4643 71.7348 13.1008 72.6309 13.1008 73.6837C13.1008 74.749 13.4643 75.6514 14.1912 76.3909C14.9307 77.1303 15.8331 77.5001 16.8984 77.5001C17.9637 77.5001 18.8599 77.1303 19.5868 76.3909ZM28.8928 62.9301L27.276 61.2193L33.4048 55.0529C33.7056 54.7521 34.0377 54.5641 34.4012 54.4889C34.7521 54.4137 35.0654 54.5077 35.3412 54.7709C35.642 55.0717 35.7548 55.4039 35.6796 55.7673C35.5918 56.1183 35.4038 56.4379 35.1156 56.7261L28.8928 62.9301Z" fill="#007AFF"/>
<path d="M23.3963 53.2436C23.1958 53.7383 22.8403 53.9129 22.3299 53.7676C21.8334 53.6262 21.6203 53.2747 21.6907 52.7132C21.804 51.6867 21.8772 50.8799 21.9102 50.2928C21.9293 49.7018 21.8471 49.231 21.6636 48.8805C21.4663 48.5261 21.1114 48.2013 20.5989 47.9063C20.0766 47.5935 19.3325 47.1953 18.3668 46.7115C17.8149 46.45 17.6058 46.0847 17.7393 45.6157C17.8728 45.1467 18.2174 44.9317 18.773 44.9706C19.898 45.0523 20.7806 45.0949 21.4209 45.0982C22.0611 45.1016 22.5634 45.0135 22.9277 44.8339C23.2821 44.6366 23.5961 44.2935 23.8695 43.8047C24.133 43.2981 24.4554 42.5847 24.8368 41.6643C25.0452 41.1421 25.4114 40.9556 25.9356 41.1048C26.4184 41.2423 26.6265 41.5849 26.56 42.1326C26.4526 43.1906 26.3854 44.029 26.3584 44.6476C26.3215 45.2485 26.3928 45.7311 26.5724 46.0954C26.752 46.4597 27.105 46.7913 27.6313 47.0903C28.1615 47.3755 28.933 47.7294 29.946 48.152C30.4683 48.3604 30.6548 48.7267 30.5055 49.2508C30.3759 49.706 30.0333 49.9142 29.4777 49.8753C28.3665 49.7975 27.4977 49.7588 26.8712 49.7594C26.231 49.756 25.7336 49.853 25.3792 50.0503C25.0149 50.2299 24.6941 50.571 24.4168 51.0737C24.1394 51.5763 23.7993 52.2996 23.3963 53.2436Z" fill="#007AFF"/>
<path d="M48.7716 70.4014C48.6698 70.5771 48.5212 70.6975 48.3258 70.7628C47.8587 70.9189 47.5188 70.7634 47.306 70.2964C46.9174 69.4443 46.5813 68.7777 46.2977 68.2965C46.0085 67.8266 45.6911 67.4984 45.3455 67.3118C44.9942 67.1365 44.534 67.0731 43.9648 67.1217C43.3957 67.1703 42.6269 67.2856 41.6586 67.4676C41.1263 67.5699 40.7863 67.4003 40.6387 66.9587C40.4968 66.534 40.6353 66.1997 41.0542 65.9559C41.943 65.4511 42.635 65.0357 43.1304 64.7097C43.6257 64.3836 43.9638 64.0534 44.1448 63.7191C44.3258 63.3848 44.3906 62.9572 44.3392 62.4362C44.2849 61.9067 44.1569 61.1846 43.9552 60.2701C43.8443 59.769 44.0225 59.4404 44.4896 59.2842C44.9482 59.131 45.2825 59.2836 45.4924 59.7422C45.9009 60.6254 46.2526 61.3104 46.5475 61.7973C46.831 62.2785 47.1527 62.6053 47.5125 62.7777C47.8609 62.9445 48.324 63.0022 48.9016 62.9508C49.4764 62.8909 50.2494 62.76 51.2206 62.5582C51.4329 62.5155 51.6312 62.5437 51.8153 62.6427C51.991 62.7445 52.1129 62.8973 52.181 63.1011C52.3229 63.5258 52.183 63.8558 51.7612 64.0912C50.8668 64.6073 50.1762 65.0269 49.6894 65.3501C49.194 65.6762 48.8559 66.0064 48.6749 66.3407C48.4968 66.6834 48.4348 67.1196 48.4891 67.6491C48.5433 68.1786 48.667 68.902 48.8603 69.8194C48.903 70.0317 48.8734 70.2258 48.7716 70.4014Z" fill="#007AFF"/>
<path d="M40.4088 41.9341C40.4088 41.6784 40.5047 41.4546 40.6966 41.2628C41.1441 40.8152 41.6184 40.7992 42.1192 41.2148C43.0677 41.9714 43.8243 42.5363 44.3891 42.9092C44.9752 43.2822 45.508 43.4634 45.9876 43.4527C46.4778 43.4527 47.032 43.2609 47.65 42.8773C48.2788 42.5043 49.1047 41.9555 50.1277 41.2308C50.6819 40.8259 51.1614 40.8259 51.5664 41.2308C51.9713 41.6358 51.998 42.0993 51.6463 42.6215C50.9323 43.6978 50.3941 44.5557 50.0318 45.1951C49.6695 45.8345 49.483 46.394 49.4723 46.8735C49.4723 47.3424 49.6482 47.8593 49.9998 48.4241C50.3515 48.9889 50.879 49.7402 51.5824 50.678C51.9873 51.2108 51.9767 51.6903 51.5504 52.1166C51.1135 52.5535 50.6446 52.5642 50.1437 52.1486C49.1739 51.3706 48.3907 50.7898 47.7939 50.4062C47.2184 50.0226 46.6856 49.8414 46.1954 49.8627C45.7159 49.8734 45.1617 50.0759 44.533 50.4701C43.9255 50.8644 43.1103 51.4346 42.0873 52.1805C41.5757 52.5642 41.1068 52.5429 40.6806 52.1166C40.2863 51.7223 40.265 51.2641 40.6166 50.7419C41.3306 49.6656 41.8635 48.813 42.2151 48.1843C42.5668 47.5555 42.7373 47.0014 42.7267 46.5218C42.7267 46.053 42.5455 45.5308 42.1832 44.9553C41.8315 44.3692 41.3146 43.5966 40.6326 42.6375C40.4834 42.4244 40.4088 42.1899 40.4088 41.9341Z" fill="#007AFF"/>
<path d="M55.9304 26.3637L58.7149 11.889C59.321 8.72514 61.2306 7.44732 64.4438 8.05551L85.2406 12.0667C88.4482 12.6895 89.7316 14.5845 89.1256 17.7484L88.317 22.0558L91.6159 23.3156C94.652 24.475 95.605 26.5784 94.4567 29.5853L89.2003 43.3502C88.052 46.3572 85.9396 47.29 82.9035 46.1306L62.9641 38.5163C59.8987 37.3457 58.9548 35.2625 60.1087 32.2409L60.1588 32.1096L59.8356 32.0363C56.6133 31.4079 55.339 29.5331 55.9304 26.3637ZM58.4228 26.7133C58.117 28.3025 58.8115 29.2869 60.3569 29.576L61.073 29.7157L65.3651 18.4761C66.5134 15.4691 68.6111 14.5307 71.6765 15.7013L85.9377 21.1473L86.6478 17.4043C86.9446 15.7949 86.2299 14.8195 84.7192 14.527L64.0156 10.5346C62.4758 10.2309 61.4677 10.8997 61.1563 12.5035L58.4228 26.7133ZM67.665 19.5049L63.0217 31.6641L67.4188 30.0483C68.172 29.784 68.8013 29.7567 69.3705 29.974C69.9982 30.2137 70.4929 30.6702 70.8671 31.3985L72.3943 34.4069L80.287 31.4332C81.1063 31.1272 81.8378 31.139 82.553 31.4121C83.2683 31.6852 83.8686 32.2155 84.2372 32.9584L87.7142 40.1903L92.0564 28.8193C92.6361 27.3012 92.1197 26.2008 90.6746 25.649L70.8082 18.0626C69.3486 17.5051 68.2447 17.9868 67.665 19.5049ZM73.2107 29.1156C71.5028 28.4635 70.6714 26.5236 71.3236 24.8158C71.9646 23.1371 73.8774 22.2452 75.5853 22.8974C77.2931 23.5495 78.1391 25.495 77.4981 27.1736C76.8459 28.8815 74.9185 29.7678 73.2107 29.1156Z" fill="#007AFF"/>
<path d="M18.1717 9.0151C17.3689 8.80185 17.0415 8.23742 17.2581 7.42195L18.0806 4.32573C18.8016 1.61176 20.6044 0.576553 23.3566 1.3077L26.4528 2.13023C27.2683 2.34687 27.5958 2.9113 27.3825 3.71402C27.1693 4.51674 26.6048 4.84423 25.7894 4.62759L22.8461 3.84568C21.6611 3.53088 20.8488 3.96985 20.5204 5.20579L19.7555 8.0854C19.5388 8.90086 18.9871 9.23173 18.1717 9.0151ZM40.9155 15.0572C40.1128 14.8439 39.7853 14.2795 40.0019 13.464L40.7669 10.5844C41.0953 9.34848 40.5952 8.56087 39.4229 8.24946L36.4796 7.46754C35.6641 7.25091 35.3367 6.68648 35.5499 5.88375C35.7632 5.08103 36.3276 4.75354 37.1431 4.97018L40.2393 5.79271C42.9915 6.52386 44.0428 8.31729 43.3218 11.0313L42.4993 14.1275C42.2826 14.9429 41.731 15.2738 40.9155 15.0572ZM21.6613 15.494C20.5273 15.1927 20.6364 13.8576 21.7233 13.6689L34.7253 11.2984C35.9021 11.079 36.5758 12.2401 35.8141 13.1563L27.3381 23.2905C26.6383 24.1277 25.4183 23.5853 25.7263 22.4258L27.0506 17.3895C27.1217 17.1219 27.0001 16.9123 26.758 16.848L21.6613 15.494ZM16.6511 26.5489C13.8989 25.8177 12.8475 24.0243 13.5719 21.2976L14.3944 18.2014C14.6111 17.3859 15.1628 17.055 15.9782 17.2717C16.781 17.4849 17.1084 18.0494 16.8918 18.8648L16.1268 21.7444C15.7951 22.9931 16.2824 23.7773 17.4674 24.0921L20.4107 24.8741C21.2262 25.0907 21.5537 25.6551 21.3404 26.4579C21.1272 27.2606 20.5628 27.5881 19.7473 27.3714L16.6511 26.5489ZM30.4375 30.2114C29.6221 29.9947 29.2946 29.4303 29.5078 28.6276C29.7211 27.8249 30.2855 27.4974 31.101 27.714L34.0443 28.4959C35.2165 28.8073 36.0416 28.3718 36.3733 27.1231L37.1383 24.2435C37.3515 23.4407 37.9066 23.0971 38.7221 23.3138C39.5248 23.527 39.8523 24.0914 39.6356 24.9069L38.8131 28.0031C38.0887 30.7298 36.2859 31.7651 33.5337 31.0339L30.4375 30.2114Z" fill="#007AFF"/>
</svg>
