<svg width="83" height="89" viewBox="0 0 83 89" fill="none" xmlns="http://www.w3.org/2000/svg">
<path d="M66.3815 59.8174C66.3815 74.1908 53.8106 77.8494 31.2825 77.8494C8.75439 77.8494 0.389648 70.9222 0.389648 60.4826C0.389648 50.0431 12.25 35.7748 31.2825 30.3968C52.2948 24.4594 66.3815 43.5689 66.3815 59.8174Z" fill="#DCE6F8"/>
<path d="M20.2229 16.3457C15.2798 18.0341 12.1018 23.3514 14.1037 29.2125C15.382 32.9552 19.7689 36.3721 27.2567 39.479C27.8366 39.7146 28.5075 39.4855 28.822 38.9444C32.833 31.91 34.213 26.5234 32.9347 22.7807C30.9328 16.9196 25.1661 14.6574 20.2229 16.3457ZM24.2428 28.1151C22.9481 28.5573 21.5271 27.8599 21.0849 26.5652C20.6427 25.2706 21.3402 23.8495 22.6348 23.4074C23.9295 22.9652 25.3505 23.6626 25.7927 24.9573C26.2349 26.2519 25.5374 27.6729 24.2428 28.1151Z" fill="#316CD6"/>
<path d="M39.9434 1.0755C37.1314 0.510865 34.1543 2.1559 33.4848 5.49017C33.0573 7.61928 34.1948 10.4527 36.8894 13.9958C37.0995 14.2678 37.4811 14.3445 37.7799 14.1746C41.6266 11.945 43.7698 9.77029 44.1973 7.64118C44.8668 4.3069 42.7555 1.64014 39.9434 1.0755ZM38.599 7.77083C37.8626 7.62295 37.381 6.89938 37.5289 6.16289C37.6767 5.42641 38.4003 4.94482 39.1368 5.0927C39.8733 5.24058 40.3549 5.96416 40.207 6.70064C40.0591 7.43713 39.3355 7.91871 38.599 7.77083Z" fill="#316CD6"/>
<path fill-rule="evenodd" clip-rule="evenodd" d="M24.8491 60.768C25.3825 60.0602 26.385 59.9193 27.0929 60.4527L31.3262 63.6711C32.034 64.2045 32.1749 65.207 31.6415 65.9149L15.6946 87.0771C15.1612 87.7849 14.1587 87.9258 13.4509 87.3924L9.20392 84.1921C8.49609 83.6587 8.3552 82.6562 8.88858 81.9484L24.8491 60.768ZM26.6425 68.8568L23.3855 66.4025L26.2103 62.6538L29.4673 65.1082L26.6425 68.8568Z" fill="#316CD6"/>
<path d="M38.2842 65.1739L42.5477 68.0086L47.1925 65.8547L44.3578 70.1182L46.5117 74.7629L42.2482 71.9282L37.6034 74.0822L40.4381 69.8186L38.2842 65.1739Z" fill="#316CD6"/>
<path d="M36.9418 49.1897L42.9236 43.7565L40.6625 51.5147L46.0958 57.4965L38.3375 55.2353L32.3557 60.6686L34.6169 52.9104L29.1836 46.9286L36.9418 49.1897Z" fill="#316CD6"/>
<path d="M22.4588 57.3662L15.7425 57.8311L12.6294 63.8003L12.1646 57.0841L6.19531 53.971L12.9115 53.5061L16.0247 47.5369L16.4895 54.2531L22.4588 57.3662Z" fill="#316CD6"/>
<path fill-rule="evenodd" clip-rule="evenodd" d="M76.2747 48.6328L81.8183 27.6154C82.2539 25.964 81.2591 24.2565 79.6078 23.821L58.5904 18.2773C56.939 17.8417 55.2315 18.8365 54.7959 20.4879L49.2523 41.5052C48.8167 43.1566 49.8115 44.8641 51.4628 45.2997L72.4802 50.8433C74.1316 51.2789 75.8391 50.2842 76.2747 48.6328ZM64.9024 43.2408L69.0569 40.2742C69.4711 39.9821 70.0376 40.1475 70.2199 40.6131L72.6909 46.4031C72.9505 47.0014 72.4152 47.6309 71.7847 47.4646L53.7848 42.7169C53.1693 42.5545 52.9951 41.7539 53.501 41.3575L60.6236 35.7216C61.0307 35.3954 61.6312 35.5538 61.8285 36.0233L64.9024 43.2408ZM72.1179 27.4732C73.8361 27.4778 75.2193 28.8685 75.2148 30.5867C75.2102 32.3049 73.8195 33.6882 72.1013 33.6836C70.3831 33.679 68.9998 32.2883 69.0044 30.5701C69.009 28.8519 70.3997 27.4687 72.1179 27.4732Z" fill="#316CD6"/>
</svg>
