<svg width="205" height="76" viewBox="0 0 205 76" fill="none" xmlns="http://www.w3.org/2000/svg">
<g filter="url(#filter0_dd_5649_19045)">
<mask id="mask0_5649_19045" style="mask-type:alpha" maskUnits="userSpaceOnUse" x="20" y="15" width="166" height="38">
<path d="M185.5 16H20.5V51.8286H185.5V16Z" fill="white"/>
<path fill-rule="evenodd" clip-rule="evenodd" d="M20 15.5H186V52.3286H20V15.5ZM185.5 16V51.8286H20.5V16H185.5Z" fill="white"/>
<path d="M39.907 17.7827C40.5877 17.7827 41.1346 17.9898 41.5479 18.4041C41.9611 18.8183 42.1677 19.3543 42.1677 20.0122V41.1377C42.1677 41.7712 41.949 42.3073 41.5114 42.7458C41.0738 43.1601 40.5147 43.3672 39.8341 43.3672C39.2264 43.3672 38.7037 43.1601 38.2662 42.7458C37.8286 42.3073 37.6099 41.7712 37.6099 41.1377V32.6217H25.9781V41.1377C25.9781 41.7712 25.7471 42.3073 25.2853 42.7458C24.8234 43.1601 24.2886 43.3672 23.6809 43.3672C23.0245 43.3672 22.4776 43.1601 22.04 42.7458C21.6268 42.3073 21.4202 41.7712 21.4202 41.1377V20.0122C21.4202 19.3787 21.6389 18.8548 22.0765 18.4406C22.5141 18.002 23.0732 17.7827 23.7538 17.7827C24.3615 17.7827 24.8842 18.002 25.3217 18.4406C25.7593 18.8548 25.9781 19.3787 25.9781 20.0122V28.4185H37.6099V20.0122C37.6099 19.3787 37.8408 18.8548 38.3026 18.4406C38.7645 18.002 39.2993 17.7827 39.907 17.7827Z" fill="white"/>
<path fill-rule="evenodd" clip-rule="evenodd" d="M41.8603 43.104L41.8551 43.1089C41.3125 43.6227 40.6247 43.8672 39.8341 43.8672C39.0998 43.8672 38.4537 43.6119 37.9224 43.1089L37.9172 43.104L37.9122 43.099C37.3788 42.5643 37.1099 41.9002 37.1099 41.1377V33.1217H26.4781V41.1377C26.4781 41.9091 26.1902 42.576 25.6296 43.1084L25.6244 43.1133L25.6191 43.1181C25.0676 43.6127 24.4146 43.8672 23.6809 43.8672C22.9092 43.8672 22.2354 43.6193 21.6963 43.1089L21.6859 43.0991L21.6761 43.0887C21.1706 42.5523 20.9202 41.8914 20.9202 41.1377V20.0122C20.9202 19.2517 21.1881 18.5957 21.7276 18.0824C22.2679 17.5435 22.9572 17.2827 23.7538 17.2827C24.4948 17.2827 25.1423 17.5552 25.6707 18.0824C26.2101 18.5957 26.4781 19.2517 26.4781 20.0122V27.9185H37.1099V20.0122C37.1099 19.2425 37.3969 18.5838 37.9635 18.0732C38.5123 17.5542 39.1668 17.2827 39.907 17.2827C40.697 17.2827 41.3794 17.5273 41.9018 18.0509C42.4206 18.5709 42.6677 19.2399 42.6677 20.0122V41.1377C42.6677 41.9002 42.3988 42.5643 41.8654 43.099L41.8603 43.104ZM38.3026 18.4406C37.8408 18.8548 37.6099 19.3787 37.6099 20.0122V28.4185H25.9781V20.0122C25.9781 19.3787 25.7593 18.8548 25.3217 18.4406C24.8842 18.002 24.3615 17.7827 23.7538 17.7827C23.0732 17.7827 22.5141 18.002 22.0765 18.4406C21.6389 18.8548 21.4202 19.3787 21.4202 20.0122V41.1377C21.4202 41.7712 21.6268 42.3073 22.04 42.7458C22.4776 43.1601 23.0245 43.3672 23.6809 43.3672C24.2886 43.3672 24.8234 43.1601 25.2853 42.7458C25.7471 42.3073 25.9781 41.7712 25.9781 41.1377V32.6217H37.6099V41.1377C37.6099 41.7712 37.8286 42.3073 38.2662 42.7458C38.7037 43.1601 39.2264 43.3672 39.8341 43.3672C40.5147 43.3672 41.0738 43.1601 41.5114 42.7458C41.949 42.3073 42.1677 41.7712 42.1677 41.1377V20.0122C42.1677 19.3543 41.9611 18.8183 41.5479 18.4041C41.1346 17.9898 40.5877 17.7827 39.907 17.7827C39.2993 17.7827 38.7645 18.002 38.3026 18.4406Z" fill="white"/>
<path d="M63.0517 23.4478C63.6838 23.4478 64.2064 23.6549 64.6198 24.0691C65.0329 24.4833 65.2397 25.0194 65.2397 25.6773V41.1376C65.2397 41.7711 65.0329 42.3072 64.6198 42.7458C64.2064 43.16 63.6838 43.3671 63.0517 43.3671C62.4196 43.3671 61.897 43.16 61.4839 42.7458C61.095 42.3315 60.8883 41.8077 60.8641 41.1741C60.2562 41.8808 59.4297 42.4899 58.3845 43.0016C57.3635 43.4889 56.2818 43.7326 55.1394 43.7326C53.4621 43.7326 51.9427 43.3062 50.5814 42.4534C49.2201 41.5762 48.1383 40.37 47.3362 38.835C46.5583 37.2999 46.1693 35.5578 46.1693 33.6085C46.1693 31.6591 46.5583 29.917 47.3362 28.3819C48.114 26.8225 49.1715 25.6164 50.5084 24.7635C51.8698 23.8864 53.3649 23.4478 54.9934 23.4478C56.1604 23.4478 57.254 23.667 58.275 24.1057C59.296 24.5199 60.159 25.0559 60.8641 25.7138V25.6773C60.8641 25.0437 61.0705 24.5199 61.4839 24.1057C61.897 23.667 62.4196 23.4478 63.0517 23.4478ZM55.6862 39.7122C57.2663 39.7122 58.5547 39.1396 59.5515 37.9944C60.5479 36.8248 61.0463 35.3628 61.0463 33.6085C61.0463 31.8541 60.5479 30.3921 59.5515 29.2225C58.5547 28.053 57.2663 27.4682 55.6862 27.4682C54.1304 27.4682 52.8542 28.053 51.8575 29.2225C50.8609 30.3921 50.3626 31.8541 50.3626 33.6085C50.3626 35.3628 50.8488 36.8248 51.821 37.9944C52.8177 39.1396 54.1061 39.7122 55.6862 39.7122Z" fill="white"/>
<path fill-rule="evenodd" clip-rule="evenodd" d="M64.9737 23.7159L64.9739 23.716C65.4924 24.2359 65.7397 24.9049 65.7397 25.6773V41.1376C65.7397 41.8914 65.4891 42.5522 64.9838 43.0886L64.9788 43.0938L64.9737 43.099C64.4586 43.6152 63.8049 43.8671 63.0517 43.8671C62.2986 43.8671 61.6448 43.6152 61.1299 43.0988L61.1246 43.0935L61.1194 43.088C60.869 42.8213 60.6824 42.5191 60.557 42.1864C60.0072 42.6631 59.3543 43.0835 58.6043 43.4507L58.5999 43.4529L58.5999 43.4528C57.511 43.9726 56.3556 44.2326 55.1394 44.2326C53.3726 44.2326 51.7605 43.782 50.3159 42.8771L50.3105 42.8737L50.3105 42.8737C48.8714 41.9463 47.7324 40.6729 46.893 39.0666L46.8901 39.061L46.8901 39.061C46.0723 37.4471 45.6693 35.6258 45.6693 33.6085C45.6693 31.5917 46.0721 29.7709 46.8894 28.1573C47.7034 26.5261 48.8187 25.2486 50.2386 24.3426C51.6809 23.4135 53.2698 22.9478 54.9934 22.9478C56.223 22.9478 57.3826 23.1789 58.4677 23.6442C59.2234 23.9513 59.9029 24.3247 60.5031 24.7665C60.6266 24.3903 60.833 24.0516 61.1249 23.7576C61.6369 23.2168 62.2919 22.9478 63.0517 22.9478C63.8049 22.9478 64.4586 23.1997 64.9737 23.7159ZM61.4839 24.1057C61.2031 24.3871 61.0177 24.7191 60.9278 25.1017C60.8853 25.2823 60.8641 25.4741 60.8641 25.6773V25.7138C60.851 25.7016 60.8378 25.6894 60.8246 25.6773C60.6844 25.5484 60.538 25.4243 60.3855 25.3049C59.7791 24.8302 59.0756 24.4305 58.275 24.1057C57.254 23.667 56.1604 23.4478 54.9934 23.4478C53.3649 23.4478 51.8698 23.8864 50.5084 24.7635C49.1715 25.6164 48.114 26.8225 47.3362 28.3819C46.5583 29.917 46.1693 31.6591 46.1693 33.6085C46.1693 35.5578 46.5583 37.2999 47.3362 38.835C48.1383 40.37 49.2201 41.5762 50.5814 42.4534C51.9427 43.3062 53.4621 43.7326 55.1394 43.7326C56.2818 43.7326 57.3635 43.4889 58.3845 43.0016C59.1898 42.6073 59.8654 42.1552 60.4111 41.6452C60.5736 41.4933 60.7246 41.3363 60.8641 41.1741C60.8727 41.3996 60.9044 41.6111 60.9593 41.8088C61.0585 42.1666 61.2334 42.4789 61.4839 42.7458C61.897 43.16 62.4196 43.3671 63.0517 43.3671C63.6838 43.3671 64.2064 43.16 64.6198 42.7458C65.033 42.3072 65.2397 41.7711 65.2397 41.1376V25.6773C65.2397 25.0194 65.033 24.4833 64.6198 24.0691C64.2064 23.6549 63.6838 23.4478 63.0517 23.4478C62.4196 23.4478 61.897 23.667 61.4839 24.1057ZM59.1726 37.6681C60.08 36.602 60.5463 35.2608 60.5463 33.6085C60.5463 31.9551 60.0794 30.6133 59.1709 29.5468C58.2722 28.4923 57.1246 27.9682 55.6862 27.9682C54.2747 27.9682 53.1384 28.4903 52.238 29.5468C51.3294 30.6132 50.8626 31.9551 50.8626 33.6085C50.8626 35.2627 51.3179 36.6048 52.2019 37.6704C53.0988 38.6987 54.2461 39.2122 55.6862 39.2122C57.1275 39.2122 58.2754 38.6979 59.1726 37.6681ZM51.821 37.9944C50.8488 36.8248 50.3626 35.3628 50.3626 33.6085C50.3626 31.8541 50.8609 30.3921 51.8575 29.2225C52.8542 28.053 54.1304 27.4682 55.6862 27.4682C57.2663 27.4682 58.5547 28.053 59.5515 29.2225C60.5479 30.3921 61.0463 31.8541 61.0463 33.6085C61.0463 35.3628 60.5479 36.8248 59.5515 37.9944C58.5547 39.1396 57.2663 39.7122 55.6862 39.7122C54.1061 39.7122 52.8177 39.1396 51.821 37.9944Z" fill="white"/>
<path d="M70.1576 19.06C70.1576 18.3819 70.3533 17.8584 70.7452 17.4895C71.1488 17.1088 71.7601 16.9185 72.5789 16.9185C73.3981 16.9185 74.0032 17.1088 74.3948 17.4895C74.7984 17.8584 75.0002 18.3819 75.0002 19.06V37.4239C75.0002 37.8879 75.03 38.2745 75.0895 38.5839C75.1487 38.8932 75.2318 39.1371 75.3385 39.3156C75.4572 39.494 75.5937 39.6189 75.7483 39.6903C75.9025 39.7617 76.0746 39.7974 76.2644 39.7974C76.4307 39.7974 76.5791 39.7915 76.7094 39.7796C76.8401 39.7558 76.9707 39.7439 77.1014 39.7439C77.2557 39.7439 77.4038 39.7736 77.5464 39.8331C77.6887 39.8926 77.8135 39.9818 77.9203 40.1008C78.027 40.2198 78.1101 40.3685 78.1696 40.547C78.2407 40.7135 78.2763 40.9098 78.2763 41.1359C78.2763 41.4809 78.223 41.7724 78.1162 42.0104C78.0212 42.2483 77.8847 42.4565 77.7065 42.635C77.5878 42.7539 77.4455 42.867 77.2793 42.9741C77.113 43.0812 76.9112 43.1823 76.6739 43.2774C76.4484 43.3607 76.1755 43.4262 75.855 43.4738C75.5345 43.5332 75.1665 43.563 74.7512 43.563C73.2435 43.563 72.0983 43.1644 71.3147 42.3673C70.5434 41.5583 70.1576 40.3388 70.1576 38.7088V19.06Z" fill="white"/>
<path fill-rule="evenodd" clip-rule="evenodd" d="M75.5805 38.4894L75.5806 38.4899C75.6322 38.7598 75.6981 38.9385 75.7618 39.049C75.8397 39.1631 75.9081 39.2134 75.9579 39.2364L75.9582 39.2366C76.0394 39.2741 76.1386 39.2974 76.2644 39.2974C76.4101 39.2974 76.5363 39.2925 76.6437 39.2834C76.7956 39.2571 76.9483 39.2439 77.1014 39.2439C77.322 39.2439 77.5355 39.2868 77.7389 39.3717L77.7392 39.3718C77.9522 39.4608 78.1377 39.5944 78.2924 39.7669C78.4479 39.9402 78.5603 40.1453 78.6375 40.37C78.7351 40.6067 78.7763 40.8659 78.7763 41.1359C78.7763 41.5258 78.717 41.8881 78.5767 42.2053C78.4572 42.501 78.2848 42.7634 78.0603 42.9883C77.9126 43.1363 77.7413 43.2712 77.5501 43.3944C77.3506 43.5229 77.1188 43.6378 76.8599 43.7415L76.8472 43.7466L76.8472 43.7464C76.5828 43.8441 76.2774 43.9161 75.9373 43.967C75.5822 44.0322 75.1856 44.063 74.7512 44.063C73.1576 44.063 71.8649 43.6402 70.9582 42.7178L70.9528 42.7123L70.9529 42.7123C70.0595 41.7752 69.6576 40.4089 69.6576 38.7088V19.06C69.6576 18.2824 69.8853 17.6123 70.4023 17.1256C70.9346 16.6236 71.6925 16.4185 72.5789 16.4185C73.4612 16.4185 74.2155 16.6216 74.7378 17.1256C75.2651 17.6107 75.5002 18.2805 75.5002 19.06V37.4239C75.5002 37.8696 75.5291 38.222 75.5805 38.4894ZM74.3948 17.4895C74.0032 17.1088 73.3981 16.9185 72.5789 16.9185C71.7601 16.9185 71.1488 17.1088 70.7452 17.4895C70.3533 17.8584 70.1576 18.3819 70.1576 19.06V38.7088C70.1576 40.3388 70.5434 41.5583 71.3147 42.3673C72.0983 43.1644 73.2435 43.563 74.7512 43.563C75.1665 43.563 75.5345 43.5332 75.855 43.4738C76.1755 43.4262 76.4484 43.3607 76.6739 43.2774C76.9112 43.1823 77.113 43.0812 77.2793 42.9741C77.4455 42.867 77.5878 42.7539 77.7065 42.635C77.8847 42.4565 78.0212 42.2483 78.1162 42.0104C78.223 41.7724 78.2763 41.4809 78.2763 41.1359C78.2763 40.9098 78.2407 40.7135 78.1696 40.547C78.1101 40.3685 78.027 40.2198 77.9203 40.1008C77.8135 39.9818 77.6887 39.8926 77.5464 39.8331C77.4038 39.7736 77.2557 39.7439 77.1014 39.7439C76.9707 39.7439 76.8401 39.7558 76.7094 39.7796C76.5791 39.7915 76.4307 39.7974 76.2644 39.7974C76.0746 39.7974 75.9025 39.7617 75.7483 39.6903C75.5937 39.6189 75.4572 39.494 75.3385 39.3156C75.2318 39.1371 75.1487 38.8932 75.0895 38.5839C75.03 38.2745 75.0002 37.8879 75.0002 37.4239V19.06C75.0002 18.3819 74.7984 17.8584 74.3948 17.4895Z" fill="white"/>
<path d="M82.0011 19.06C82.0011 18.3819 82.1968 17.8584 82.5884 17.4895C82.992 17.1088 83.6033 16.9185 84.4224 16.9185C85.2413 16.9185 85.8467 17.1088 86.2384 17.4895C86.642 17.8584 86.8438 18.3819 86.8438 19.06V37.4239C86.8438 37.8879 86.8735 38.2745 86.9327 38.5839C86.9922 38.8932 87.0753 39.1371 87.182 39.3156C87.3007 39.494 87.4372 39.6189 87.5915 39.6903C87.7457 39.7617 87.9181 39.7974 88.1079 39.7974C88.2742 39.7974 88.4223 39.7915 88.553 39.7796C88.6836 39.7558 88.8143 39.7439 88.9446 39.7439C89.0989 39.7439 89.2473 39.7736 89.3899 39.8331C89.5322 39.8926 89.6567 39.9818 89.7638 40.1008C89.8705 40.2198 89.9536 40.3685 90.0128 40.547C90.0843 40.7135 90.1199 40.9098 90.1199 41.1359C90.1199 41.4809 90.0665 41.7724 89.9594 42.0104C89.8647 42.2483 89.7282 42.4565 89.55 42.635C89.4313 42.7539 89.289 42.867 89.1228 42.9741C88.9566 43.0812 88.7548 43.1823 88.5174 43.2774C88.292 43.3607 88.019 43.4262 87.6985 43.4738C87.378 43.5332 87.01 43.563 86.5944 43.563C85.087 43.563 83.9415 43.1644 83.1582 42.3673C82.3866 41.5583 82.0011 40.3388 82.0011 38.7088V19.06Z" fill="white"/>
<path fill-rule="evenodd" clip-rule="evenodd" d="M89.5824 39.3717L89.5827 39.3718C89.7961 39.461 89.981 39.5947 90.1355 39.7664L90.136 39.7669C90.2913 39.9401 90.4038 40.145 90.4808 40.3699C90.5787 40.6069 90.6199 40.8662 90.6199 41.1359C90.6199 41.5256 90.5606 41.888 90.42 42.2054C90.3006 42.5012 90.1282 42.7635 89.9038 42.9883C89.7561 43.1363 89.5848 43.2712 89.3936 43.3944C89.1941 43.5229 88.9623 43.6378 88.7035 43.7415L88.6907 43.7466L88.6907 43.7464C88.4263 43.8441 88.1209 43.9161 87.7808 43.967C87.4257 44.0322 87.0291 44.063 86.5944 44.063C85.0012 44.063 83.7081 43.6402 82.8016 42.7177L82.7964 42.7124L82.7964 42.7124C81.9026 41.7752 81.5011 40.4088 81.5011 38.7088V19.06C81.5011 18.2824 81.7288 17.6124 82.2455 17.1257C82.7778 16.6236 83.5357 16.4185 84.4224 16.4185C85.3043 16.4185 86.059 16.6216 86.5813 17.1256C87.1086 17.6107 87.3438 18.2805 87.3438 19.06V37.4239C87.3438 37.8694 87.3726 38.2221 87.4238 38.4898C87.4757 38.7598 87.5416 38.9385 87.6053 39.049C87.6832 39.1631 87.7517 39.2136 87.8015 39.2366C87.8825 39.2741 87.982 39.2974 88.1079 39.2974C88.2536 39.2974 88.3795 39.2925 88.4873 39.2834C88.6391 39.2571 88.7918 39.2439 88.9446 39.2439C89.165 39.2439 89.3789 39.2868 89.5824 39.3717ZM88.553 39.7796C88.4223 39.7915 88.2742 39.7974 88.1079 39.7974C87.9181 39.7974 87.7457 39.7617 87.5915 39.6903C87.4372 39.6189 87.3007 39.494 87.182 39.3156C87.0753 39.1371 86.9922 38.8932 86.9327 38.5839C86.8735 38.2745 86.8438 37.8879 86.8438 37.4239V19.06C86.8438 18.3819 86.642 17.8584 86.2384 17.4895C85.8467 17.1088 85.2413 16.9185 84.4224 16.9185C83.6033 16.9185 82.992 17.1088 82.5884 17.4895C82.1968 17.8584 82.0011 18.3819 82.0011 19.06V38.7088C82.0011 40.3388 82.3866 41.5583 83.1582 42.3673C83.9415 43.1644 85.087 43.563 86.5944 43.563C87.01 43.563 87.378 43.5332 87.6985 43.4738C88.019 43.4262 88.292 43.3607 88.5174 43.2774C88.7548 43.1823 88.9566 43.0812 89.1228 42.9741C89.289 42.867 89.4313 42.7539 89.55 42.635C89.7282 42.4565 89.8647 42.2483 89.9594 42.0104C90.0665 41.7724 90.1199 41.4809 90.1199 41.1359C90.1199 40.9098 90.0843 40.7135 90.0128 40.547C89.9536 40.3685 89.8705 40.2198 89.7638 40.1008C89.6567 39.9818 89.5322 39.8926 89.3899 39.8331C89.2473 39.7736 89.0989 39.7439 88.9446 39.7439C88.8143 39.7439 88.6836 39.7558 88.553 39.7796Z" fill="white"/>
<path d="M112.411 33.6085C112.411 35.5578 111.973 37.3121 111.098 38.8715C110.223 40.4066 109.02 41.6006 107.488 42.4534C105.981 43.3062 104.316 43.7326 102.493 43.7326C100.645 43.7326 98.968 43.3062 97.4609 42.4534C95.9535 41.6006 94.7626 40.4066 93.8873 38.8715C93.0124 37.3121 92.5747 35.5578 92.5747 33.6085C92.5747 31.6591 93.0124 29.917 93.8873 28.3819C94.7626 26.8225 95.9535 25.6164 97.4609 24.7635C98.968 23.8864 100.645 23.4478 102.493 23.4478C104.316 23.4478 105.981 23.8864 107.488 24.7635C109.02 25.6164 110.223 26.8225 111.098 28.3819C111.973 29.917 112.411 31.6591 112.411 33.6085ZM108.035 33.6085C108.035 32.4145 107.78 31.3546 107.27 30.4287C106.783 29.4784 106.115 28.7474 105.264 28.2357C104.438 27.724 103.514 27.4682 102.493 27.4682C101.472 27.4682 100.536 27.724 99.685 28.2357C98.8585 28.7474 98.1902 29.4784 97.6796 30.4287C97.1935 31.3546 96.9503 32.4145 96.9503 33.6085C96.9503 34.8024 97.1935 35.8623 97.6796 36.7882C98.1902 37.7141 98.8585 38.4329 99.685 38.9446C100.536 39.4563 101.472 39.7122 102.493 39.7122C103.514 39.7122 104.438 39.4563 105.264 38.9446C106.115 38.4329 106.783 37.7141 107.27 36.7882C107.78 35.8623 108.035 34.8024 108.035 33.6085Z" fill="white"/>
<path fill-rule="evenodd" clip-rule="evenodd" d="M111.534 39.1163L111.532 39.1191C110.613 40.7324 109.344 41.9918 107.733 42.8893C106.147 43.7864 104.397 44.2326 102.493 44.2326C100.565 44.2326 98.8019 43.7867 97.2147 42.8885C95.6271 41.9904 94.372 40.7309 93.453 39.1192L93.4513 39.1162L93.4513 39.1162C92.5307 37.4754 92.0747 35.6355 92.0747 33.6085C92.0747 31.5821 92.5304 29.7535 93.4521 28.1357C94.37 26.5011 95.6242 25.2288 97.212 24.3298C98.7994 23.4066 100.563 22.9478 102.493 22.9478C104.398 22.9478 106.15 23.4069 107.736 24.329C109.347 25.2274 110.615 26.4995 111.533 28.1358C112.455 29.7536 112.911 31.5821 112.911 33.6085C112.911 35.6355 112.455 37.4755 111.534 39.1163ZM111.098 28.3819C110.223 26.8225 109.02 25.6164 107.488 24.7635C105.981 23.8864 104.316 23.4478 102.493 23.4478C100.645 23.4478 98.968 23.8864 97.4609 24.7635C95.9535 25.6164 94.7626 26.8225 93.8873 28.3819C93.0124 29.917 92.5747 31.6591 92.5747 33.6085C92.5747 35.5578 93.0124 37.3121 93.8873 38.8715C94.7626 40.4066 95.9535 41.6006 97.4609 42.4534C98.968 43.3062 100.645 43.7326 102.493 43.7326C104.316 43.7326 105.981 43.3062 107.488 42.4534C109.02 41.6006 110.223 40.4066 111.098 38.8715C111.973 37.3121 112.411 35.5578 112.411 33.6085C112.411 31.6591 111.973 29.917 111.098 28.3819ZM106.828 30.6633L106.824 30.6565C106.377 29.7827 105.771 29.1241 105.006 28.6642L105.001 28.6609L105.001 28.6608C104.257 28.2006 103.426 27.9682 102.493 27.9682C101.561 27.9682 100.715 28.2001 99.9455 28.6625C99.2034 29.1226 98.5942 29.7836 98.1211 30.6632C97.6784 31.5074 97.4503 32.4849 97.4503 33.6085C97.4503 34.7309 97.678 35.7076 98.1199 36.5513C98.5919 37.4056 99.2009 38.0562 99.9455 38.5178C100.715 38.9802 101.561 39.2122 102.493 39.2122C103.426 39.2122 104.257 38.9797 105.001 38.5195L105.006 38.5161L105.006 38.5161C105.774 38.0542 106.381 37.4052 106.827 36.5557L106.832 36.5468L106.832 36.5469C107.296 35.704 107.535 34.7291 107.535 33.6085C107.535 32.4878 107.296 31.5129 106.832 30.67L106.828 30.6633ZM99.685 38.9446C98.8585 38.4329 98.1902 37.7141 97.6796 36.7882C97.1935 35.8623 96.9503 34.8024 96.9503 33.6085C96.9503 32.4145 97.1935 31.3546 97.6796 30.4287C98.1902 29.4784 98.8585 28.7474 99.685 28.2357C100.536 27.724 101.472 27.4682 102.493 27.4682C103.514 27.4682 104.438 27.724 105.264 28.2357C106.115 28.7474 106.783 29.4784 107.27 30.4287C107.78 31.3546 108.035 32.4145 108.035 33.6085C108.035 34.8024 107.78 35.8623 107.27 36.7882C106.783 37.7141 106.115 38.4329 105.264 38.9446C104.438 39.4563 103.514 39.7122 102.493 39.7122C101.472 39.7122 100.536 39.4563 99.685 38.9446Z" fill="white"/>
<path d="M137.361 40.5165C137.483 40.8333 137.543 41.1257 137.543 41.3937C137.543 42.0272 137.337 42.5511 136.923 42.9653C136.51 43.3552 136.036 43.5501 135.501 43.5501C135.064 43.5501 134.663 43.4161 134.298 43.1481C133.958 42.8801 133.69 42.5146 133.496 42.0516L131.6 37.6292H120.734L118.838 42.0882C118.667 42.5511 118.4 42.9166 118.036 43.1846C117.695 43.4283 117.318 43.5501 116.905 43.5501C116.273 43.5501 115.787 43.3796 115.446 43.0384C115.131 42.6973 114.973 42.2344 114.973 41.6496C114.973 41.4303 115.009 41.1988 115.082 40.9551L124.161 19.0987C124.356 18.6114 124.648 18.2337 125.036 17.9657C125.425 17.6976 125.863 17.588 126.349 17.6367C126.787 17.6367 127.188 17.7707 127.552 18.0388C127.941 18.2824 128.221 18.6357 128.391 19.0987L137.361 40.5165ZM122.046 33.3829C121.878 33.7862 122.175 34.2301 122.613 34.2301H129.891C130.328 34.2301 130.625 33.7862 130.458 33.3829L126.818 24.6282C126.609 24.1246 125.895 24.1246 125.685 24.6282L122.046 33.3829Z" fill="white"/>
<path fill-rule="evenodd" clip-rule="evenodd" d="M137.825 40.3304L137.828 40.3375C137.966 40.6969 138.043 41.0507 138.043 41.3937C138.043 42.1476 137.792 42.8023 137.278 43.3184L137.272 43.3238L137.267 43.3291C136.767 43.8004 136.172 44.0501 135.501 44.0501C134.953 44.0501 134.449 43.8798 134.002 43.5509L133.995 43.546L133.989 43.5409C133.572 43.213 133.258 42.7749 133.036 42.2472C133.035 42.2465 133.035 42.2459 133.035 42.2452L131.27 38.1291H121.065L119.302 42.2728C119.101 42.8136 118.779 43.2585 118.332 43.5875L118.327 43.5912C117.903 43.8948 117.424 44.0501 116.905 44.0501C116.183 44.0501 115.553 43.8533 115.093 43.3916L115.086 43.385L115.08 43.3782C114.658 42.9225 114.473 42.3265 114.473 41.6496C114.473 41.375 114.518 41.095 114.603 40.8117L114.61 40.787L123.698 18.9099C123.925 18.3432 124.275 17.8835 124.753 17.554C125.236 17.2209 125.784 17.0829 126.374 17.1368C126.906 17.1419 127.397 17.3082 127.833 17.625C128.312 17.9297 128.653 18.3678 128.856 18.9153L137.825 40.3304ZM128.391 19.0987C128.221 18.6357 127.941 18.2824 127.552 18.0388C127.188 17.7707 126.787 17.6367 126.349 17.6367C125.863 17.588 125.425 17.6976 125.036 17.9657C124.648 18.2337 124.356 18.6114 124.161 19.0987L115.082 40.9551C115.009 41.1988 114.973 41.4303 114.973 41.6496C114.973 42.2344 115.131 42.6973 115.446 43.0384C115.787 43.3796 116.273 43.5501 116.905 43.5501C117.318 43.5501 117.695 43.4283 118.036 43.1846C118.4 42.9166 118.667 42.5511 118.838 42.0881L120.734 37.6291H131.6L133.496 42.0516C133.69 42.5146 133.958 42.88 134.298 43.1481C134.663 43.4161 135.064 43.5501 135.501 43.5501C136.036 43.5501 136.51 43.3552 136.923 42.9653C137.337 42.5511 137.543 42.0272 137.543 41.3937C137.543 41.1257 137.483 40.8333 137.361 40.5165L128.391 19.0987ZM122.508 33.5749C122.478 33.6477 122.531 33.7301 122.613 33.7301H129.891C129.973 33.7301 130.026 33.6477 129.996 33.5749L126.357 24.8201C126.344 24.7906 126.329 24.7762 126.315 24.7676C126.3 24.7576 126.277 24.7505 126.252 24.7505C126.226 24.7505 126.204 24.7576 126.188 24.7677C126.175 24.7763 126.159 24.7906 126.147 24.8201C126.147 24.8201 126.147 24.8201 126.147 24.8201L122.508 33.5749ZM125.685 24.6282C125.895 24.1246 126.609 24.1246 126.818 24.6282L130.458 33.3828C130.625 33.7861 130.328 34.2301 129.891 34.2301H122.613C122.175 34.2301 121.878 33.7861 122.046 33.3828L125.685 24.6282Z" fill="white"/>
<path d="M152.19 23.4478C153.867 23.4478 155.386 23.8864 156.747 24.7635C158.109 25.6164 159.178 26.8103 159.956 28.3454C160.758 29.8804 161.159 31.6226 161.159 33.5719C161.159 35.5212 160.77 37.2756 159.993 38.835C159.215 40.37 158.145 41.5762 156.784 42.4534C155.447 43.3062 153.964 43.7326 152.335 43.7326C151.169 43.7326 150.062 43.5011 149.017 43.0381C147.996 42.5508 147.145 41.966 146.465 41.2838V48.4474C146.465 49.081 146.258 49.6049 145.845 50.019C145.432 50.4578 144.909 50.677 144.277 50.677C143.645 50.677 143.122 50.4697 142.709 50.0557C142.296 49.6414 142.089 49.1052 142.089 48.4474V26.0428C142.089 25.4092 142.296 24.8854 142.709 24.4711C143.122 24.0326 143.645 23.8133 144.277 23.8133C144.909 23.8133 145.432 24.0326 145.845 24.4711C146.258 24.8854 146.465 25.4092 146.465 26.0428V26.1889C147.048 25.458 147.862 24.8245 148.908 24.2884C149.953 23.728 151.047 23.4478 152.19 23.4478ZM151.642 39.7122C153.198 39.7122 154.474 39.1274 155.471 37.9578C156.468 36.7882 156.966 35.3263 156.966 33.5719C156.966 31.8175 156.468 30.3678 155.471 29.2225C154.499 28.0529 153.223 27.4682 151.642 27.4682C150.062 27.4682 148.774 28.0529 147.778 29.2225C146.781 30.3678 146.282 31.8175 146.282 33.5719C146.282 35.3263 146.781 36.7882 147.778 37.9578C148.774 39.1274 150.062 39.7122 151.642 39.7122Z" fill="white"/>
<path fill-rule="evenodd" clip-rule="evenodd" d="M142.709 50.0557C142.296 49.6414 142.089 49.1052 142.089 48.4474V26.0428C142.089 25.4092 142.296 24.8854 142.709 24.4711C143.122 24.0326 143.645 23.8133 144.277 23.8133C144.909 23.8133 145.432 24.0326 145.845 24.4711C146.132 24.759 146.32 25.0999 146.407 25.4937C146.446 25.6665 146.465 25.8495 146.465 26.0428V26.1889C146.504 26.1398 146.544 26.091 146.586 26.0428C146.697 25.9127 146.816 25.7858 146.942 25.6621C147.467 25.1492 148.122 24.6913 148.908 24.2884C149.953 23.728 151.047 23.4478 152.19 23.4478C153.867 23.4478 155.386 23.8864 156.747 24.7635C158.109 25.6164 159.178 26.8103 159.956 28.3454C160.758 29.8804 161.159 31.6226 161.159 33.5719C161.159 35.5212 160.77 37.2756 159.993 38.835C159.215 40.37 158.145 41.5762 156.784 42.4534C155.447 43.3062 153.964 43.7326 152.335 43.7326C151.169 43.7326 150.062 43.5011 149.017 43.0381C148.233 42.6636 147.548 42.2316 146.965 41.7419C146.789 41.5944 146.622 41.4417 146.465 41.2838V48.4474C146.465 49.081 146.258 49.6049 145.845 50.019C145.432 50.4578 144.909 50.677 144.277 50.677C143.645 50.677 143.122 50.4697 142.709 50.0557ZM146.965 42.3818V48.4474C146.965 49.1988 146.716 49.8518 146.204 50.367C145.692 50.9081 145.037 51.177 144.277 51.177C143.524 51.177 142.87 50.9248 142.355 50.4089C141.836 49.8888 141.589 49.2197 141.589 48.4474V26.0428C141.589 25.2913 141.838 24.6384 142.35 24.1231C142.862 23.5823 143.517 23.3133 144.277 23.3133C145.037 23.3133 145.692 23.5823 146.204 24.123C146.487 24.4081 146.689 24.7351 146.814 25.0977C147.337 24.6294 147.96 24.2129 148.675 23.8455C149.79 23.2492 150.963 22.9478 152.19 22.9478C153.958 22.9478 155.571 23.4115 157.015 24.3415C158.457 25.2454 159.585 26.5088 160.401 28.1166C161.244 29.731 161.659 31.5533 161.659 33.5719C161.659 35.5894 161.256 37.4216 160.44 39.0581L160.439 39.0611C159.623 40.6701 158.495 41.9454 157.055 42.8737L157.053 42.8749C155.633 43.7804 154.057 44.2326 152.335 44.2326C151.1 44.2326 149.925 43.9871 148.815 43.4953L148.808 43.4924L148.802 43.4894C148.122 43.1648 147.509 42.7961 146.965 42.3818ZM155.087 29.5422C154.213 28.4919 153.081 27.9682 151.642 27.9682C150.204 27.9682 149.056 28.4923 148.158 29.5468L148.155 29.5508C147.249 30.591 146.782 31.9183 146.782 33.5719C146.782 35.2253 147.249 36.5671 148.158 37.6335C149.056 38.688 150.204 39.2122 151.642 39.2122C153.054 39.2122 154.19 38.69 155.091 37.6335C155.999 36.5672 156.466 35.2253 156.466 33.5719C156.466 31.9182 155.999 30.591 155.094 29.5508L155.087 29.5422ZM155.471 29.2225C156.468 30.3678 156.966 31.8175 156.966 33.5719C156.966 35.3263 156.468 36.7882 155.471 37.9578C154.474 39.1274 153.198 39.7122 151.642 39.7122C150.062 39.7122 148.774 39.1274 147.778 37.9578C146.781 36.7882 146.282 35.3263 146.282 33.5719C146.282 31.8175 146.781 30.3678 147.778 29.2225C148.774 28.0529 150.062 27.4682 151.642 27.4682C153.223 27.4682 154.499 28.0529 155.471 29.2225Z" fill="white"/>
<path d="M175.459 23.4478C177.136 23.4478 178.655 23.8864 180.017 24.7635C181.378 25.6163 182.448 26.8103 183.225 28.3454C184.028 29.8804 184.429 31.6226 184.429 33.5719C184.429 35.5212 184.04 37.2756 183.262 38.835C182.484 40.37 181.414 41.5762 180.053 42.4534C178.716 43.3062 177.233 43.7326 175.605 43.7326C174.438 43.7326 173.332 43.5011 172.287 43.0381C171.266 42.5508 170.415 41.966 169.734 41.2838V48.4474C169.734 49.081 169.528 49.6049 169.114 50.019C168.701 50.4578 168.179 50.677 167.546 50.677C166.914 50.677 166.392 50.4697 165.978 50.0557C165.565 49.6414 165.359 49.1052 165.359 48.4474V26.0428C165.359 25.4092 165.565 24.8854 165.978 24.4711C166.392 24.0326 166.914 23.8133 167.546 23.8133C168.179 23.8133 168.701 24.0326 169.114 24.4711C169.528 24.8854 169.734 25.4092 169.734 26.0428V26.1889C170.318 25.458 171.132 24.8245 172.177 24.2884C173.222 23.728 174.316 23.4478 175.459 23.4478ZM174.912 39.7122C176.468 39.7122 177.744 39.1274 178.741 37.9578C179.737 36.7882 180.236 35.3263 180.236 33.5719C180.236 31.8175 179.737 30.3678 178.741 29.2225C177.768 28.0529 176.492 27.4682 174.912 27.4682C173.332 27.4682 172.043 28.0529 171.047 29.2225C170.05 30.3678 169.552 31.8175 169.552 33.5719C169.552 35.3263 170.05 36.7882 171.047 37.9578C172.043 39.1274 173.332 39.7122 174.912 39.7122Z" fill="white"/>
<path fill-rule="evenodd" clip-rule="evenodd" d="M183.709 39.0582L183.708 39.061C182.893 40.6701 181.765 41.9454 180.324 42.8736L180.322 42.8749C178.902 43.7804 177.326 44.2326 175.605 44.2326C174.37 44.2326 173.195 43.9871 172.084 43.4953L172.078 43.4924L172.071 43.4894C171.391 43.1648 170.778 42.796 170.234 42.3817V48.4474C170.234 49.1986 169.985 49.8517 169.473 50.367C168.961 50.9081 168.306 51.177 167.546 51.177C166.793 51.177 166.14 50.9248 165.625 50.409C165.106 49.889 164.859 49.2196 164.859 48.4474V26.0428C164.859 25.2913 165.108 24.6384 165.619 24.1231C166.132 23.5823 166.787 23.3133 167.546 23.3133C168.306 23.3133 168.961 23.5823 169.473 24.123C169.756 24.4081 169.959 24.7352 170.084 25.0977C170.607 24.6295 171.229 24.213 171.945 23.8456C173.059 23.2492 174.232 22.9478 175.459 22.9478C177.227 22.9478 178.841 23.4115 180.285 24.3415C181.726 25.2454 182.855 26.5087 183.67 28.1166C184.513 29.731 184.929 31.5534 184.929 33.5719C184.929 35.5894 184.526 37.4216 183.709 39.0582ZM183.225 28.3454C182.448 26.8103 181.378 25.6163 180.017 24.7635C178.655 23.8864 177.136 23.4478 175.459 23.4478C174.316 23.4478 173.222 23.728 172.177 24.2884C171.392 24.6913 170.736 25.1493 170.212 25.6623C170.085 25.7859 169.966 25.9127 169.855 26.0428C169.814 26.091 169.773 26.1398 169.734 26.1889V26.0428C169.734 25.8495 169.715 25.6665 169.676 25.4937C169.589 25.0999 169.402 24.759 169.114 24.4711C168.701 24.0326 168.179 23.8133 167.546 23.8133C166.914 23.8133 166.392 24.0326 165.978 24.4711C165.565 24.8854 165.359 25.4092 165.359 26.0428V48.4474C165.359 49.1052 165.565 49.6414 165.978 50.0557C166.392 50.4697 166.914 50.677 167.546 50.677C168.179 50.677 168.701 50.4578 169.114 50.019C169.528 49.6049 169.734 49.081 169.734 48.4474V41.2838C169.892 41.4417 170.058 41.5943 170.234 41.7418C170.818 42.2315 171.502 42.6636 172.287 43.0381C173.332 43.5011 174.438 43.7326 175.605 43.7326C177.233 43.7326 178.716 43.3062 180.053 42.4534C181.414 41.5762 182.484 40.37 183.262 38.835C184.04 37.2756 184.429 35.5212 184.429 33.5719C184.429 31.6226 184.028 29.8804 183.225 28.3454ZM178.356 29.5422C177.483 28.4919 176.35 27.9682 174.912 27.9682C173.474 27.9682 172.326 28.4923 171.427 29.5468L171.424 29.5507C170.519 30.591 170.052 31.9183 170.052 33.5719C170.052 35.2253 170.519 36.5672 171.427 37.6335C172.326 38.688 173.474 39.2122 174.912 39.2122C176.323 39.2122 177.46 38.69 178.36 37.6335M178.356 29.5422L178.363 29.5507L178.356 29.5422ZM178.36 37.6335C179.269 36.5672 179.736 35.2253 179.736 33.5719C179.736 31.9183 179.269 30.591 178.363 29.5507M178.741 37.9578C177.744 39.1274 176.468 39.7122 174.912 39.7122C173.332 39.7122 172.043 39.1274 171.047 37.9578C170.05 36.7882 169.552 35.3263 169.552 33.5719C169.552 31.8175 170.05 30.3678 171.047 29.2225C172.043 28.0529 173.332 27.4682 174.912 27.4682C176.492 27.4682 177.768 28.0529 178.741 29.2225C179.737 30.3678 180.236 31.8175 180.236 33.5719C180.236 35.3263 179.737 36.7882 178.741 37.9578Z" fill="white"/>
</mask>
<g mask="url(#mask0_5649_19045)">
<path d="M39.907 17.7827C40.5877 17.7827 41.1346 17.9898 41.5479 18.4041C41.9611 18.8183 42.1677 19.3543 42.1677 20.0122V41.1377C42.1677 41.7712 41.949 42.3073 41.5114 42.7458C41.0738 43.1601 40.5147 43.3672 39.8341 43.3672C39.2264 43.3672 38.7037 43.1601 38.2662 42.7458C37.8286 42.3073 37.6099 41.7712 37.6099 41.1377V32.6217H25.9781V41.1377C25.9781 41.7712 25.7471 42.3073 25.2853 42.7458C24.8234 43.1601 24.2886 43.3672 23.6809 43.3672C23.0245 43.3672 22.4776 43.1601 22.04 42.7458C21.6268 42.3073 21.4202 41.7712 21.4202 41.1377V20.0122C21.4202 19.3787 21.6389 18.8548 22.0765 18.4406C22.5141 18.002 23.0732 17.7827 23.7538 17.7827C24.3615 17.7827 24.8842 18.002 25.3217 18.4406C25.7593 18.8548 25.9781 19.3787 25.9781 20.0122V28.4185H37.6099V20.0122C37.6099 19.3787 37.8408 18.8548 38.3026 18.4406C38.7645 18.002 39.2993 17.7827 39.907 17.7827Z" fill="white"/>
<path fill-rule="evenodd" clip-rule="evenodd" d="M41.8603 43.104L41.8551 43.1089C41.3125 43.6227 40.6247 43.8672 39.8341 43.8672C39.0998 43.8672 38.4537 43.6119 37.9224 43.1089L37.9172 43.104L37.9122 43.099C37.3788 42.5643 37.1099 41.9002 37.1099 41.1377V33.1217H26.4781V41.1377C26.4781 41.9091 26.1902 42.576 25.6296 43.1084L25.6244 43.1133L25.6191 43.1181C25.0676 43.6127 24.4146 43.8672 23.6809 43.8672C22.9092 43.8672 22.2354 43.6193 21.6963 43.1089L21.6859 43.0991L21.6761 43.0887C21.1706 42.5523 20.9202 41.8914 20.9202 41.1377V20.0122C20.9202 19.2517 21.1881 18.5957 21.7276 18.0824C22.2679 17.5435 22.9572 17.2827 23.7538 17.2827C24.4948 17.2827 25.1423 17.5552 25.6707 18.0824C26.2101 18.5957 26.4781 19.2517 26.4781 20.0122V27.9185H37.1099V20.0122C37.1099 19.2425 37.3969 18.5838 37.9635 18.0732C38.5123 17.5542 39.1668 17.2827 39.907 17.2827C40.697 17.2827 41.3794 17.5273 41.9018 18.0509C42.4206 18.5709 42.6677 19.2399 42.6677 20.0122V41.1377C42.6677 41.9002 42.3988 42.5643 41.8654 43.099L41.8603 43.104ZM38.3026 18.4406C37.8408 18.8548 37.6099 19.3787 37.6099 20.0122V28.4185H25.9781V20.0122C25.9781 19.3787 25.7593 18.8548 25.3217 18.4406C24.8842 18.002 24.3615 17.7827 23.7538 17.7827C23.0732 17.7827 22.5141 18.002 22.0765 18.4406C21.6389 18.8548 21.4202 19.3787 21.4202 20.0122V41.1377C21.4202 41.7712 21.6268 42.3073 22.04 42.7458C22.4776 43.1601 23.0245 43.3672 23.6809 43.3672C24.2886 43.3672 24.8234 43.1601 25.2853 42.7458C25.7471 42.3073 25.9781 41.7712 25.9781 41.1377V32.6217H37.6099V41.1377C37.6099 41.7712 37.8286 42.3073 38.2662 42.7458C38.7037 43.1601 39.2264 43.3672 39.8341 43.3672C40.5147 43.3672 41.0738 43.1601 41.5114 42.7458C41.949 42.3073 42.1677 41.7712 42.1677 41.1377V20.0122C42.1677 19.3543 41.9611 18.8183 41.5479 18.4041C41.1346 17.9898 40.5877 17.7827 39.907 17.7827C39.2993 17.7827 38.7645 18.002 38.3026 18.4406Z" fill="white"/>
<path d="M63.0517 23.4478C63.6838 23.4478 64.2064 23.6549 64.6198 24.0691C65.0329 24.4833 65.2397 25.0194 65.2397 25.6773V41.1376C65.2397 41.7711 65.0329 42.3072 64.6198 42.7458C64.2064 43.16 63.6838 43.3671 63.0517 43.3671C62.4196 43.3671 61.897 43.16 61.4839 42.7458C61.095 42.3315 60.8883 41.8077 60.8641 41.1741C60.2562 41.8808 59.4297 42.4899 58.3845 43.0016C57.3635 43.4889 56.2818 43.7326 55.1394 43.7326C53.4621 43.7326 51.9427 43.3062 50.5814 42.4534C49.2201 41.5762 48.1383 40.37 47.3362 38.835C46.5583 37.2999 46.1693 35.5578 46.1693 33.6085C46.1693 31.6591 46.5583 29.917 47.3362 28.3819C48.114 26.8225 49.1715 25.6164 50.5084 24.7635C51.8698 23.8864 53.3649 23.4478 54.9934 23.4478C56.1604 23.4478 57.254 23.667 58.275 24.1057C59.296 24.5199 60.159 25.0559 60.8641 25.7138V25.6773C60.8641 25.0437 61.0705 24.5199 61.4839 24.1057C61.897 23.667 62.4196 23.4478 63.0517 23.4478ZM55.6862 39.7122C57.2663 39.7122 58.5547 39.1396 59.5515 37.9944C60.5479 36.8248 61.0463 35.3628 61.0463 33.6085C61.0463 31.8541 60.5479 30.3921 59.5515 29.2225C58.5547 28.053 57.2663 27.4682 55.6862 27.4682C54.1304 27.4682 52.8542 28.053 51.8575 29.2225C50.8609 30.3921 50.3626 31.8541 50.3626 33.6085C50.3626 35.3628 50.8488 36.8248 51.821 37.9944C52.8177 39.1396 54.1061 39.7122 55.6862 39.7122Z" fill="white"/>
<path fill-rule="evenodd" clip-rule="evenodd" d="M64.9737 23.7159L64.9739 23.716C65.4924 24.2359 65.7397 24.9049 65.7397 25.6773V41.1376C65.7397 41.8914 65.4891 42.5522 64.9838 43.0886L64.9788 43.0938L64.9737 43.099C64.4586 43.6152 63.8049 43.8671 63.0517 43.8671C62.2986 43.8671 61.6448 43.6152 61.1299 43.0988L61.1246 43.0935L61.1194 43.088C60.869 42.8213 60.6824 42.5191 60.557 42.1864C60.0072 42.6631 59.3543 43.0835 58.6043 43.4507L58.5999 43.4529L58.5999 43.4528C57.511 43.9726 56.3556 44.2326 55.1394 44.2326C53.3726 44.2326 51.7605 43.782 50.3159 42.8771L50.3105 42.8737L50.3105 42.8737C48.8714 41.9463 47.7324 40.6729 46.893 39.0666L46.8901 39.061L46.8901 39.061C46.0723 37.4471 45.6693 35.6258 45.6693 33.6085C45.6693 31.5917 46.0721 29.7709 46.8894 28.1573C47.7034 26.5261 48.8187 25.2486 50.2386 24.3426C51.6809 23.4135 53.2698 22.9478 54.9934 22.9478C56.223 22.9478 57.3826 23.1789 58.4677 23.6442C59.2234 23.9513 59.9029 24.3247 60.5031 24.7665C60.6266 24.3903 60.833 24.0516 61.1249 23.7576C61.6369 23.2168 62.2919 22.9478 63.0517 22.9478C63.8049 22.9478 64.4586 23.1997 64.9737 23.7159ZM61.4839 24.1057C61.2031 24.3871 61.0177 24.7191 60.9278 25.1017C60.8853 25.2823 60.8641 25.4741 60.8641 25.6773V25.7138C60.851 25.7016 60.8378 25.6894 60.8246 25.6773C60.6844 25.5484 60.538 25.4243 60.3855 25.3049C59.7791 24.8302 59.0756 24.4305 58.275 24.1057C57.254 23.667 56.1604 23.4478 54.9934 23.4478C53.3649 23.4478 51.8698 23.8864 50.5084 24.7635C49.1715 25.6164 48.114 26.8225 47.3362 28.3819C46.5583 29.917 46.1693 31.6591 46.1693 33.6085C46.1693 35.5578 46.5583 37.2999 47.3362 38.835C48.1383 40.37 49.2201 41.5762 50.5814 42.4534C51.9427 43.3062 53.4621 43.7326 55.1394 43.7326C56.2818 43.7326 57.3635 43.4889 58.3845 43.0016C59.1898 42.6073 59.8654 42.1552 60.4111 41.6452C60.5736 41.4933 60.7246 41.3363 60.8641 41.1741C60.8727 41.3996 60.9044 41.6111 60.9593 41.8088C61.0585 42.1666 61.2334 42.4789 61.4839 42.7458C61.897 43.16 62.4196 43.3671 63.0517 43.3671C63.6838 43.3671 64.2064 43.16 64.6198 42.7458C65.033 42.3072 65.2397 41.7711 65.2397 41.1376V25.6773C65.2397 25.0194 65.033 24.4833 64.6198 24.0691C64.2064 23.6549 63.6838 23.4478 63.0517 23.4478C62.4196 23.4478 61.897 23.667 61.4839 24.1057ZM59.1726 37.6681C60.08 36.602 60.5463 35.2608 60.5463 33.6085C60.5463 31.9551 60.0794 30.6133 59.1709 29.5468C58.2722 28.4923 57.1246 27.9682 55.6862 27.9682C54.2747 27.9682 53.1384 28.4903 52.238 29.5468C51.3294 30.6132 50.8626 31.9551 50.8626 33.6085C50.8626 35.2627 51.3179 36.6048 52.2019 37.6704C53.0988 38.6987 54.2461 39.2122 55.6862 39.2122C57.1275 39.2122 58.2754 38.6979 59.1726 37.6681ZM51.821 37.9944C50.8488 36.8248 50.3626 35.3628 50.3626 33.6085C50.3626 31.8541 50.8609 30.3921 51.8575 29.2225C52.8542 28.053 54.1304 27.4682 55.6862 27.4682C57.2663 27.4682 58.5547 28.053 59.5515 29.2225C60.5479 30.3921 61.0463 31.8541 61.0463 33.6085C61.0463 35.3628 60.5479 36.8248 59.5515 37.9944C58.5547 39.1396 57.2663 39.7122 55.6862 39.7122C54.1061 39.7122 52.8177 39.1396 51.821 37.9944Z" fill="white"/>
<path d="M70.1576 19.06C70.1576 18.3819 70.3533 17.8584 70.7452 17.4895C71.1488 17.1088 71.7601 16.9185 72.5789 16.9185C73.3981 16.9185 74.0032 17.1088 74.3948 17.4895C74.7984 17.8584 75.0002 18.3819 75.0002 19.06V37.4239C75.0002 37.8879 75.03 38.2745 75.0895 38.5839C75.1487 38.8932 75.2318 39.1371 75.3385 39.3156C75.4572 39.494 75.5937 39.6189 75.7483 39.6903C75.9025 39.7617 76.0746 39.7974 76.2644 39.7974C76.4307 39.7974 76.5791 39.7915 76.7094 39.7796C76.8401 39.7558 76.9707 39.7439 77.1014 39.7439C77.2557 39.7439 77.4038 39.7736 77.5464 39.8331C77.6887 39.8926 77.8135 39.9818 77.9203 40.1008C78.027 40.2198 78.1101 40.3685 78.1696 40.547C78.2407 40.7135 78.2763 40.9098 78.2763 41.1359C78.2763 41.4809 78.223 41.7724 78.1162 42.0104C78.0212 42.2483 77.8847 42.4565 77.7065 42.635C77.5878 42.7539 77.4455 42.867 77.2793 42.9741C77.113 43.0812 76.9112 43.1823 76.6739 43.2774C76.4484 43.3607 76.1755 43.4262 75.855 43.4738C75.5345 43.5332 75.1665 43.563 74.7512 43.563C73.2435 43.563 72.0983 43.1644 71.3147 42.3673C70.5434 41.5583 70.1576 40.3388 70.1576 38.7088V19.06Z" fill="white"/>
<path fill-rule="evenodd" clip-rule="evenodd" d="M75.5805 38.4894L75.5806 38.4899C75.6322 38.7598 75.6981 38.9385 75.7618 39.049C75.8397 39.1631 75.9081 39.2134 75.9579 39.2364L75.9582 39.2366C76.0394 39.2741 76.1386 39.2974 76.2644 39.2974C76.4101 39.2974 76.5363 39.2925 76.6437 39.2834C76.7956 39.2571 76.9483 39.2439 77.1014 39.2439C77.322 39.2439 77.5355 39.2868 77.7389 39.3717L77.7392 39.3718C77.9522 39.4608 78.1377 39.5944 78.2924 39.7669C78.4479 39.9402 78.5603 40.1453 78.6375 40.37C78.7351 40.6067 78.7763 40.8659 78.7763 41.1359C78.7763 41.5258 78.717 41.8881 78.5767 42.2053C78.4572 42.501 78.2848 42.7634 78.0603 42.9883C77.9126 43.1363 77.7413 43.2712 77.5501 43.3944C77.3506 43.5229 77.1188 43.6378 76.8599 43.7415L76.8472 43.7466L76.8472 43.7464C76.5828 43.8441 76.2774 43.9161 75.9373 43.967C75.5822 44.0322 75.1856 44.063 74.7512 44.063C73.1576 44.063 71.8649 43.6402 70.9582 42.7178L70.9528 42.7123L70.9529 42.7123C70.0595 41.7752 69.6576 40.4089 69.6576 38.7088V19.06C69.6576 18.2824 69.8853 17.6123 70.4023 17.1256C70.9346 16.6236 71.6925 16.4185 72.5789 16.4185C73.4612 16.4185 74.2155 16.6216 74.7378 17.1256C75.2651 17.6107 75.5002 18.2805 75.5002 19.06V37.4239C75.5002 37.8696 75.5291 38.222 75.5805 38.4894ZM74.3948 17.4895C74.0032 17.1088 73.3981 16.9185 72.5789 16.9185C71.7601 16.9185 71.1488 17.1088 70.7452 17.4895C70.3533 17.8584 70.1576 18.3819 70.1576 19.06V38.7088C70.1576 40.3388 70.5434 41.5583 71.3147 42.3673C72.0983 43.1644 73.2435 43.563 74.7512 43.563C75.1665 43.563 75.5345 43.5332 75.855 43.4738C76.1755 43.4262 76.4484 43.3607 76.6739 43.2774C76.9112 43.1823 77.113 43.0812 77.2793 42.9741C77.4455 42.867 77.5878 42.7539 77.7065 42.635C77.8847 42.4565 78.0212 42.2483 78.1162 42.0104C78.223 41.7724 78.2763 41.4809 78.2763 41.1359C78.2763 40.9098 78.2407 40.7135 78.1696 40.547C78.1101 40.3685 78.027 40.2198 77.9203 40.1008C77.8135 39.9818 77.6887 39.8926 77.5464 39.8331C77.4038 39.7736 77.2557 39.7439 77.1014 39.7439C76.9707 39.7439 76.8401 39.7558 76.7094 39.7796C76.5791 39.7915 76.4307 39.7974 76.2644 39.7974C76.0746 39.7974 75.9025 39.7617 75.7483 39.6903C75.5937 39.6189 75.4572 39.494 75.3385 39.3156C75.2318 39.1371 75.1487 38.8932 75.0895 38.5839C75.03 38.2745 75.0002 37.8879 75.0002 37.4239V19.06C75.0002 18.3819 74.7984 17.8584 74.3948 17.4895Z" fill="white"/>
<path d="M82.0011 19.06C82.0011 18.3819 82.1968 17.8584 82.5884 17.4895C82.992 17.1088 83.6033 16.9185 84.4224 16.9185C85.2413 16.9185 85.8467 17.1088 86.2384 17.4895C86.642 17.8584 86.8438 18.3819 86.8438 19.06V37.4239C86.8438 37.8879 86.8735 38.2745 86.9327 38.5839C86.9922 38.8932 87.0753 39.1371 87.182 39.3156C87.3007 39.494 87.4372 39.6189 87.5915 39.6903C87.7457 39.7617 87.9181 39.7974 88.1079 39.7974C88.2742 39.7974 88.4223 39.7915 88.553 39.7796C88.6836 39.7558 88.8143 39.7439 88.9446 39.7439C89.0989 39.7439 89.2473 39.7736 89.3899 39.8331C89.5322 39.8926 89.6567 39.9818 89.7638 40.1008C89.8705 40.2198 89.9536 40.3685 90.0128 40.547C90.0843 40.7135 90.1199 40.9098 90.1199 41.1359C90.1199 41.4809 90.0665 41.7724 89.9594 42.0104C89.8647 42.2483 89.7282 42.4565 89.55 42.635C89.4313 42.7539 89.289 42.867 89.1228 42.9741C88.9566 43.0812 88.7548 43.1823 88.5174 43.2774C88.292 43.3607 88.019 43.4262 87.6985 43.4738C87.378 43.5332 87.01 43.563 86.5944 43.563C85.087 43.563 83.9415 43.1644 83.1582 42.3673C82.3866 41.5583 82.0011 40.3388 82.0011 38.7088V19.06Z" fill="white"/>
<path fill-rule="evenodd" clip-rule="evenodd" d="M89.5824 39.3717L89.5827 39.3718C89.7961 39.461 89.981 39.5947 90.1355 39.7664L90.136 39.7669C90.2913 39.9401 90.4038 40.145 90.4808 40.3699C90.5787 40.6069 90.6199 40.8662 90.6199 41.1359C90.6199 41.5256 90.5606 41.888 90.42 42.2054C90.3006 42.5012 90.1282 42.7635 89.9038 42.9883C89.7561 43.1363 89.5848 43.2712 89.3936 43.3944C89.1941 43.5229 88.9623 43.6378 88.7035 43.7415L88.6907 43.7466L88.6907 43.7464C88.4263 43.8441 88.1209 43.9161 87.7808 43.967C87.4257 44.0322 87.0291 44.063 86.5944 44.063C85.0012 44.063 83.7081 43.6402 82.8016 42.7177L82.7964 42.7124L82.7964 42.7124C81.9026 41.7752 81.5011 40.4088 81.5011 38.7088V19.06C81.5011 18.2824 81.7288 17.6124 82.2455 17.1257C82.7778 16.6236 83.5357 16.4185 84.4224 16.4185C85.3043 16.4185 86.059 16.6216 86.5813 17.1256C87.1086 17.6107 87.3438 18.2805 87.3438 19.06V37.4239C87.3438 37.8694 87.3726 38.2221 87.4238 38.4898C87.4757 38.7598 87.5416 38.9385 87.6053 39.049C87.6832 39.1631 87.7517 39.2136 87.8015 39.2366C87.8825 39.2741 87.982 39.2974 88.1079 39.2974C88.2536 39.2974 88.3795 39.2925 88.4873 39.2834C88.6391 39.2571 88.7918 39.2439 88.9446 39.2439C89.165 39.2439 89.3789 39.2868 89.5824 39.3717ZM88.553 39.7796C88.4223 39.7915 88.2742 39.7974 88.1079 39.7974C87.9181 39.7974 87.7457 39.7617 87.5915 39.6903C87.4372 39.6189 87.3007 39.494 87.182 39.3156C87.0753 39.1371 86.9922 38.8932 86.9327 38.5839C86.8735 38.2745 86.8438 37.8879 86.8438 37.4239V19.06C86.8438 18.3819 86.642 17.8584 86.2384 17.4895C85.8467 17.1088 85.2413 16.9185 84.4224 16.9185C83.6033 16.9185 82.992 17.1088 82.5884 17.4895C82.1968 17.8584 82.0011 18.3819 82.0011 19.06V38.7088C82.0011 40.3388 82.3866 41.5583 83.1582 42.3673C83.9415 43.1644 85.087 43.563 86.5944 43.563C87.01 43.563 87.378 43.5332 87.6985 43.4738C88.019 43.4262 88.292 43.3607 88.5174 43.2774C88.7548 43.1823 88.9566 43.0812 89.1228 42.9741C89.289 42.867 89.4313 42.7539 89.55 42.635C89.7282 42.4565 89.8647 42.2483 89.9594 42.0104C90.0665 41.7724 90.1199 41.4809 90.1199 41.1359C90.1199 40.9098 90.0843 40.7135 90.0128 40.547C89.9536 40.3685 89.8705 40.2198 89.7638 40.1008C89.6567 39.9818 89.5322 39.8926 89.3899 39.8331C89.2473 39.7736 89.0989 39.7439 88.9446 39.7439C88.8143 39.7439 88.6836 39.7558 88.553 39.7796Z" fill="white"/>
<path d="M112.411 33.6085C112.411 35.5578 111.973 37.3121 111.098 38.8715C110.223 40.4066 109.02 41.6006 107.488 42.4534C105.981 43.3062 104.316 43.7326 102.493 43.7326C100.645 43.7326 98.968 43.3062 97.4609 42.4534C95.9535 41.6006 94.7626 40.4066 93.8873 38.8715C93.0124 37.3121 92.5747 35.5578 92.5747 33.6085C92.5747 31.6591 93.0124 29.917 93.8873 28.3819C94.7626 26.8225 95.9535 25.6164 97.4609 24.7635C98.968 23.8864 100.645 23.4478 102.493 23.4478C104.316 23.4478 105.981 23.8864 107.488 24.7635C109.02 25.6164 110.223 26.8225 111.098 28.3819C111.973 29.917 112.411 31.6591 112.411 33.6085ZM108.035 33.6085C108.035 32.4145 107.78 31.3546 107.27 30.4287C106.783 29.4784 106.115 28.7474 105.264 28.2357C104.438 27.724 103.514 27.4682 102.493 27.4682C101.472 27.4682 100.536 27.724 99.685 28.2357C98.8585 28.7474 98.1902 29.4784 97.6796 30.4287C97.1935 31.3546 96.9503 32.4145 96.9503 33.6085C96.9503 34.8024 97.1935 35.8623 97.6796 36.7882C98.1902 37.7141 98.8585 38.4329 99.685 38.9446C100.536 39.4563 101.472 39.7122 102.493 39.7122C103.514 39.7122 104.438 39.4563 105.264 38.9446C106.115 38.4329 106.783 37.7141 107.27 36.7882C107.78 35.8623 108.035 34.8024 108.035 33.6085Z" fill="white"/>
<path fill-rule="evenodd" clip-rule="evenodd" d="M111.534 39.1163L111.532 39.1191C110.613 40.7324 109.344 41.9918 107.733 42.8893C106.147 43.7864 104.397 44.2326 102.493 44.2326C100.565 44.2326 98.8019 43.7867 97.2147 42.8885C95.6271 41.9904 94.372 40.7309 93.453 39.1192L93.4513 39.1162L93.4513 39.1162C92.5307 37.4754 92.0747 35.6355 92.0747 33.6085C92.0747 31.5821 92.5304 29.7535 93.4521 28.1357C94.37 26.5011 95.6242 25.2288 97.212 24.3298C98.7994 23.4066 100.563 22.9478 102.493 22.9478C104.398 22.9478 106.15 23.4069 107.736 24.329C109.347 25.2274 110.615 26.4995 111.533 28.1358C112.455 29.7536 112.911 31.5821 112.911 33.6085C112.911 35.6355 112.455 37.4755 111.534 39.1163ZM111.098 28.3819C110.223 26.8225 109.02 25.6164 107.488 24.7635C105.981 23.8864 104.316 23.4478 102.493 23.4478C100.645 23.4478 98.968 23.8864 97.4609 24.7635C95.9535 25.6164 94.7626 26.8225 93.8873 28.3819C93.0124 29.917 92.5747 31.6591 92.5747 33.6085C92.5747 35.5578 93.0124 37.3121 93.8873 38.8715C94.7626 40.4066 95.9535 41.6006 97.4609 42.4534C98.968 43.3062 100.645 43.7326 102.493 43.7326C104.316 43.7326 105.981 43.3062 107.488 42.4534C109.02 41.6006 110.223 40.4066 111.098 38.8715C111.973 37.3121 112.411 35.5578 112.411 33.6085C112.411 31.6591 111.973 29.917 111.098 28.3819ZM106.828 30.6633L106.824 30.6565C106.377 29.7827 105.771 29.1241 105.006 28.6642L105.001 28.6609L105.001 28.6608C104.257 28.2006 103.426 27.9682 102.493 27.9682C101.561 27.9682 100.715 28.2001 99.9455 28.6625C99.2034 29.1226 98.5942 29.7836 98.1211 30.6632C97.6784 31.5074 97.4503 32.4849 97.4503 33.6085C97.4503 34.7309 97.678 35.7076 98.1199 36.5513C98.5919 37.4056 99.2009 38.0562 99.9455 38.5178C100.715 38.9802 101.561 39.2122 102.493 39.2122C103.426 39.2122 104.257 38.9797 105.001 38.5195L105.006 38.5161L105.006 38.5161C105.774 38.0542 106.381 37.4052 106.827 36.5557L106.832 36.5468L106.832 36.5469C107.296 35.704 107.535 34.7291 107.535 33.6085C107.535 32.4878 107.296 31.5129 106.832 30.67L106.828 30.6633ZM99.685 38.9446C98.8585 38.4329 98.1902 37.7141 97.6796 36.7882C97.1935 35.8623 96.9503 34.8024 96.9503 33.6085C96.9503 32.4145 97.1935 31.3546 97.6796 30.4287C98.1902 29.4784 98.8585 28.7474 99.685 28.2357C100.536 27.724 101.472 27.4682 102.493 27.4682C103.514 27.4682 104.438 27.724 105.264 28.2357C106.115 28.7474 106.783 29.4784 107.27 30.4287C107.78 31.3546 108.035 32.4145 108.035 33.6085C108.035 34.8024 107.78 35.8623 107.27 36.7882C106.783 37.7141 106.115 38.4329 105.264 38.9446C104.438 39.4563 103.514 39.7122 102.493 39.7122C101.472 39.7122 100.536 39.4563 99.685 38.9446Z" fill="white"/>
<path d="M137.361 40.5165C137.483 40.8333 137.543 41.1257 137.543 41.3937C137.543 42.0272 137.337 42.5511 136.923 42.9653C136.51 43.3552 136.036 43.5501 135.501 43.5501C135.064 43.5501 134.663 43.4161 134.298 43.1481C133.958 42.8801 133.69 42.5146 133.496 42.0516L131.6 37.6292H120.734L118.838 42.0882C118.667 42.5511 118.4 42.9166 118.036 43.1846C117.695 43.4283 117.318 43.5501 116.905 43.5501C116.273 43.5501 115.787 43.3796 115.446 43.0384C115.131 42.6973 114.973 42.2344 114.973 41.6496C114.973 41.4303 115.009 41.1988 115.082 40.9551L124.161 19.0987C124.356 18.6114 124.648 18.2337 125.036 17.9657C125.425 17.6976 125.863 17.588 126.349 17.6367C126.787 17.6367 127.188 17.7707 127.552 18.0388C127.941 18.2824 128.221 18.6357 128.391 19.0987L137.361 40.5165ZM122.046 33.3829C121.878 33.7862 122.175 34.2301 122.613 34.2301H129.891C130.328 34.2301 130.625 33.7862 130.458 33.3829L126.818 24.6282C126.609 24.1246 125.895 24.1246 125.685 24.6282L122.046 33.3829Z" fill="white"/>
<path fill-rule="evenodd" clip-rule="evenodd" d="M137.825 40.3304L137.828 40.3375C137.966 40.6969 138.043 41.0507 138.043 41.3937C138.043 42.1476 137.792 42.8023 137.278 43.3184L137.272 43.3238L137.267 43.3291C136.767 43.8004 136.172 44.0501 135.501 44.0501C134.953 44.0501 134.449 43.8798 134.002 43.5509L133.995 43.546L133.989 43.5409C133.572 43.213 133.258 42.7749 133.036 42.2472C133.035 42.2465 133.035 42.2459 133.035 42.2452L131.27 38.1291H121.065L119.302 42.2728C119.101 42.8136 118.779 43.2585 118.332 43.5875L118.327 43.5912C117.903 43.8948 117.424 44.0501 116.905 44.0501C116.183 44.0501 115.553 43.8533 115.093 43.3916L115.086 43.385L115.08 43.3782C114.658 42.9225 114.473 42.3265 114.473 41.6496C114.473 41.375 114.518 41.095 114.603 40.8117L114.61 40.787L123.698 18.9099C123.925 18.3432 124.275 17.8835 124.753 17.554C125.236 17.2209 125.784 17.0829 126.374 17.1368C126.906 17.1419 127.397 17.3082 127.833 17.625C128.312 17.9297 128.653 18.3678 128.856 18.9153L137.825 40.3304ZM128.391 19.0987C128.221 18.6357 127.941 18.2824 127.552 18.0388C127.188 17.7707 126.787 17.6367 126.349 17.6367C125.863 17.588 125.425 17.6976 125.036 17.9657C124.648 18.2337 124.356 18.6114 124.161 19.0987L115.082 40.9551C115.009 41.1988 114.973 41.4303 114.973 41.6496C114.973 42.2344 115.131 42.6973 115.446 43.0384C115.787 43.3796 116.273 43.5501 116.905 43.5501C117.318 43.5501 117.695 43.4283 118.036 43.1846C118.4 42.9166 118.667 42.5511 118.838 42.0881L120.734 37.6291H131.6L133.496 42.0516C133.69 42.5146 133.958 42.88 134.298 43.1481C134.663 43.4161 135.064 43.5501 135.501 43.5501C136.036 43.5501 136.51 43.3552 136.923 42.9653C137.337 42.5511 137.543 42.0272 137.543 41.3937C137.543 41.1257 137.483 40.8333 137.361 40.5165L128.391 19.0987ZM122.508 33.5749C122.478 33.6477 122.531 33.7301 122.613 33.7301H129.891C129.973 33.7301 130.026 33.6477 129.996 33.5749L126.357 24.8201C126.344 24.7906 126.329 24.7762 126.315 24.7676C126.3 24.7576 126.277 24.7505 126.252 24.7505C126.226 24.7505 126.204 24.7576 126.188 24.7677C126.175 24.7763 126.159 24.7906 126.147 24.8201C126.147 24.8201 126.147 24.8201 126.147 24.8201L122.508 33.5749ZM125.685 24.6282C125.895 24.1246 126.609 24.1246 126.818 24.6282L130.458 33.3828C130.625 33.7861 130.328 34.2301 129.891 34.2301H122.613C122.175 34.2301 121.878 33.7861 122.046 33.3828L125.685 24.6282Z" fill="white"/>
<path d="M152.19 23.4478C153.867 23.4478 155.386 23.8864 156.747 24.7635C158.109 25.6164 159.178 26.8103 159.956 28.3454C160.758 29.8804 161.159 31.6226 161.159 33.5719C161.159 35.5212 160.77 37.2756 159.993 38.835C159.215 40.37 158.145 41.5762 156.784 42.4534C155.447 43.3062 153.964 43.7326 152.335 43.7326C151.169 43.7326 150.062 43.5011 149.017 43.0381C147.996 42.5508 147.145 41.966 146.465 41.2838V48.4474C146.465 49.081 146.258 49.6049 145.845 50.019C145.432 50.4578 144.909 50.677 144.277 50.677C143.645 50.677 143.122 50.4697 142.709 50.0557C142.296 49.6414 142.089 49.1052 142.089 48.4474V26.0428C142.089 25.4092 142.296 24.8854 142.709 24.4711C143.122 24.0326 143.645 23.8133 144.277 23.8133C144.909 23.8133 145.432 24.0326 145.845 24.4711C146.258 24.8854 146.465 25.4092 146.465 26.0428V26.1889C147.048 25.458 147.862 24.8245 148.908 24.2884C149.953 23.728 151.047 23.4478 152.19 23.4478ZM151.642 39.7122C153.198 39.7122 154.474 39.1274 155.471 37.9578C156.468 36.7882 156.966 35.3263 156.966 33.5719C156.966 31.8175 156.468 30.3678 155.471 29.2225C154.499 28.0529 153.223 27.4682 151.642 27.4682C150.062 27.4682 148.774 28.0529 147.778 29.2225C146.781 30.3678 146.282 31.8175 146.282 33.5719C146.282 35.3263 146.781 36.7882 147.778 37.9578C148.774 39.1274 150.062 39.7122 151.642 39.7122Z" fill="white"/>
<path fill-rule="evenodd" clip-rule="evenodd" d="M142.709 50.0557C142.296 49.6414 142.089 49.1052 142.089 48.4474V26.0428C142.089 25.4092 142.296 24.8854 142.709 24.4711C143.122 24.0326 143.645 23.8133 144.277 23.8133C144.909 23.8133 145.432 24.0326 145.845 24.4711C146.132 24.759 146.32 25.0999 146.407 25.4937C146.446 25.6665 146.465 25.8495 146.465 26.0428V26.1889C146.504 26.1398 146.544 26.091 146.586 26.0428C146.697 25.9127 146.816 25.7858 146.942 25.6621C147.467 25.1492 148.122 24.6913 148.908 24.2884C149.953 23.728 151.047 23.4478 152.19 23.4478C153.867 23.4478 155.386 23.8864 156.747 24.7635C158.109 25.6164 159.178 26.8103 159.956 28.3454C160.758 29.8804 161.159 31.6226 161.159 33.5719C161.159 35.5212 160.77 37.2756 159.993 38.835C159.215 40.37 158.145 41.5762 156.784 42.4534C155.447 43.3062 153.964 43.7326 152.335 43.7326C151.169 43.7326 150.062 43.5011 149.017 43.0381C148.233 42.6636 147.548 42.2316 146.965 41.7419C146.789 41.5944 146.622 41.4417 146.465 41.2838V48.4474C146.465 49.081 146.258 49.6049 145.845 50.019C145.432 50.4578 144.909 50.677 144.277 50.677C143.645 50.677 143.122 50.4697 142.709 50.0557ZM146.965 42.3818V48.4474C146.965 49.1988 146.716 49.8518 146.204 50.367C145.692 50.9081 145.037 51.177 144.277 51.177C143.524 51.177 142.87 50.9248 142.355 50.4089C141.836 49.8888 141.589 49.2197 141.589 48.4474V26.0428C141.589 25.2913 141.838 24.6384 142.35 24.1231C142.862 23.5823 143.517 23.3133 144.277 23.3133C145.037 23.3133 145.692 23.5823 146.204 24.123C146.487 24.4081 146.689 24.7351 146.814 25.0977C147.337 24.6294 147.96 24.2129 148.675 23.8455C149.79 23.2492 150.963 22.9478 152.19 22.9478C153.958 22.9478 155.571 23.4115 157.015 24.3415C158.457 25.2454 159.585 26.5088 160.401 28.1166C161.244 29.731 161.659 31.5533 161.659 33.5719C161.659 35.5894 161.256 37.4216 160.44 39.0581L160.439 39.0611C159.623 40.6701 158.495 41.9454 157.055 42.8737L157.053 42.8749C155.633 43.7804 154.057 44.2326 152.335 44.2326C151.1 44.2326 149.925 43.9871 148.815 43.4953L148.808 43.4924L148.802 43.4894C148.122 43.1648 147.509 42.7961 146.965 42.3818ZM155.087 29.5422C154.213 28.4919 153.081 27.9682 151.642 27.9682C150.204 27.9682 149.056 28.4923 148.158 29.5468L148.155 29.5508C147.249 30.591 146.782 31.9183 146.782 33.5719C146.782 35.2253 147.249 36.5671 148.158 37.6335C149.056 38.688 150.204 39.2122 151.642 39.2122C153.054 39.2122 154.19 38.69 155.091 37.6335C155.999 36.5672 156.466 35.2253 156.466 33.5719C156.466 31.9182 155.999 30.591 155.094 29.5508L155.087 29.5422ZM155.471 29.2225C156.468 30.3678 156.966 31.8175 156.966 33.5719C156.966 35.3263 156.468 36.7882 155.471 37.9578C154.474 39.1274 153.198 39.7122 151.642 39.7122C150.062 39.7122 148.774 39.1274 147.778 37.9578C146.781 36.7882 146.282 35.3263 146.282 33.5719C146.282 31.8175 146.781 30.3678 147.778 29.2225C148.774 28.0529 150.062 27.4682 151.642 27.4682C153.223 27.4682 154.499 28.0529 155.471 29.2225Z" fill="white"/>
<path d="M175.459 23.4478C177.136 23.4478 178.655 23.8864 180.017 24.7635C181.378 25.6163 182.448 26.8103 183.225 28.3454C184.028 29.8804 184.429 31.6226 184.429 33.5719C184.429 35.5212 184.04 37.2756 183.262 38.835C182.484 40.37 181.414 41.5762 180.053 42.4534C178.716 43.3062 177.233 43.7326 175.605 43.7326C174.438 43.7326 173.332 43.5011 172.287 43.0381C171.266 42.5508 170.415 41.966 169.734 41.2838V48.4474C169.734 49.081 169.528 49.6049 169.114 50.019C168.701 50.4578 168.179 50.677 167.546 50.677C166.914 50.677 166.392 50.4697 165.978 50.0557C165.565 49.6414 165.359 49.1052 165.359 48.4474V26.0428C165.359 25.4092 165.565 24.8854 165.978 24.4711C166.392 24.0326 166.914 23.8133 167.546 23.8133C168.179 23.8133 168.701 24.0326 169.114 24.4711C169.528 24.8854 169.734 25.4092 169.734 26.0428V26.1889C170.318 25.458 171.132 24.8245 172.177 24.2884C173.222 23.728 174.316 23.4478 175.459 23.4478ZM174.912 39.7122C176.468 39.7122 177.744 39.1274 178.741 37.9578C179.737 36.7882 180.236 35.3263 180.236 33.5719C180.236 31.8175 179.737 30.3678 178.741 29.2225C177.768 28.0529 176.492 27.4682 174.912 27.4682C173.332 27.4682 172.043 28.0529 171.047 29.2225C170.05 30.3678 169.552 31.8175 169.552 33.5719C169.552 35.3263 170.05 36.7882 171.047 37.9578C172.043 39.1274 173.332 39.7122 174.912 39.7122Z" fill="white"/>
<path fill-rule="evenodd" clip-rule="evenodd" d="M183.709 39.0582L183.708 39.061C182.893 40.6701 181.765 41.9454 180.324 42.8736L180.322 42.8749C178.902 43.7804 177.326 44.2326 175.605 44.2326C174.37 44.2326 173.195 43.9871 172.084 43.4953L172.078 43.4924L172.071 43.4894C171.391 43.1648 170.778 42.796 170.234 42.3817V48.4474C170.234 49.1986 169.985 49.8517 169.473 50.367C168.961 50.9081 168.306 51.177 167.546 51.177C166.793 51.177 166.14 50.9248 165.625 50.409C165.106 49.889 164.859 49.2196 164.859 48.4474V26.0428C164.859 25.2913 165.108 24.6384 165.619 24.1231C166.132 23.5823 166.787 23.3133 167.546 23.3133C168.306 23.3133 168.961 23.5823 169.473 24.123C169.756 24.4081 169.959 24.7352 170.084 25.0977C170.607 24.6295 171.229 24.213 171.945 23.8456C173.059 23.2492 174.232 22.9478 175.459 22.9478C177.227 22.9478 178.841 23.4115 180.285 24.3415C181.726 25.2454 182.855 26.5087 183.67 28.1166C184.513 29.731 184.929 31.5534 184.929 33.5719C184.929 35.5894 184.526 37.4216 183.709 39.0582ZM183.225 28.3454C182.448 26.8103 181.378 25.6163 180.017 24.7635C178.655 23.8864 177.136 23.4478 175.459 23.4478C174.316 23.4478 173.222 23.728 172.177 24.2884C171.392 24.6913 170.736 25.1493 170.212 25.6623C170.085 25.7859 169.966 25.9127 169.855 26.0428C169.814 26.091 169.773 26.1398 169.734 26.1889V26.0428C169.734 25.8495 169.715 25.6665 169.676 25.4937C169.589 25.0999 169.402 24.759 169.114 24.4711C168.701 24.0326 168.179 23.8133 167.546 23.8133C166.914 23.8133 166.392 24.0326 165.978 24.4711C165.565 24.8854 165.359 25.4092 165.359 26.0428V48.4474C165.359 49.1052 165.565 49.6414 165.978 50.0557C166.392 50.4697 166.914 50.677 167.546 50.677C168.179 50.677 168.701 50.4578 169.114 50.019C169.528 49.6049 169.734 49.081 169.734 48.4474V41.2838C169.892 41.4417 170.058 41.5943 170.234 41.7418C170.818 42.2315 171.502 42.6636 172.287 43.0381C173.332 43.5011 174.438 43.7326 175.605 43.7326C177.233 43.7326 178.716 43.3062 180.053 42.4534C181.414 41.5762 182.484 40.37 183.262 38.835C184.04 37.2756 184.429 35.5212 184.429 33.5719C184.429 31.6226 184.028 29.8804 183.225 28.3454ZM178.356 29.5422C177.483 28.4919 176.35 27.9682 174.912 27.9682C173.474 27.9682 172.326 28.4923 171.427 29.5468L171.424 29.5507C170.519 30.591 170.052 31.9183 170.052 33.5719C170.052 35.2253 170.519 36.5672 171.427 37.6335C172.326 38.688 173.474 39.2122 174.912 39.2122C176.323 39.2122 177.46 38.69 178.36 37.6335M178.356 29.5422L178.363 29.5507L178.356 29.5422ZM178.36 37.6335C179.269 36.5672 179.736 35.2253 179.736 33.5719C179.736 31.9183 179.269 30.591 178.363 29.5507M178.741 37.9578C177.744 39.1274 176.468 39.7122 174.912 39.7122C173.332 39.7122 172.043 39.1274 171.047 37.9578C170.05 36.7882 169.552 35.3263 169.552 33.5719C169.552 31.8175 170.05 30.3678 171.047 29.2225C172.043 28.0529 173.332 27.4682 174.912 27.4682C176.492 27.4682 177.768 28.0529 178.741 29.2225C179.737 30.3678 180.236 31.8175 180.236 33.5719C180.236 35.3263 179.737 36.7882 178.741 37.9578Z" fill="white"/>
<path d="M39.907 17.7827C40.5877 17.7827 41.1346 17.9898 41.5479 18.4041C41.9611 18.8183 42.1677 19.3543 42.1677 20.0122V41.1377C42.1677 41.7712 41.949 42.3073 41.5114 42.7458C41.0738 43.1601 40.5147 43.3672 39.8341 43.3672C39.2264 43.3672 38.7037 43.1601 38.2662 42.7458C37.8286 42.3073 37.6099 41.7712 37.6099 41.1377V32.6217H25.9781V41.1377C25.9781 41.7712 25.7471 42.3073 25.2853 42.7458C24.8234 43.1601 24.2886 43.3672 23.6809 43.3672C23.0245 43.3672 22.4776 43.1601 22.04 42.7458C21.6268 42.3073 21.4202 41.7712 21.4202 41.1377V20.0122C21.4202 19.3787 21.6389 18.8548 22.0765 18.4406C22.5141 18.002 23.0732 17.7827 23.7538 17.7827C24.3615 17.7827 24.8842 18.002 25.3217 18.4406C25.7593 18.8548 25.9781 19.3787 25.9781 20.0122V28.4185H37.6099V20.0122C37.6099 19.3787 37.8408 18.8548 38.3026 18.4406C38.7645 18.002 39.2993 17.7827 39.907 17.7827Z" fill="white"/>
<path fill-rule="evenodd" clip-rule="evenodd" d="M41.8603 43.104L41.8551 43.1089C41.3125 43.6227 40.6247 43.8672 39.8341 43.8672C39.0998 43.8672 38.4537 43.6119 37.9224 43.1089L37.9172 43.104L37.9122 43.099C37.3788 42.5643 37.1099 41.9002 37.1099 41.1377V33.1217H26.4781V41.1377C26.4781 41.9091 26.1902 42.576 25.6296 43.1084L25.6244 43.1133L25.6191 43.1181C25.0676 43.6127 24.4146 43.8672 23.6809 43.8672C22.9092 43.8672 22.2354 43.6193 21.6963 43.1089L21.6859 43.0991L21.6761 43.0887C21.1706 42.5523 20.9202 41.8914 20.9202 41.1377V20.0122C20.9202 19.2517 21.1881 18.5957 21.7276 18.0824C22.2679 17.5435 22.9572 17.2827 23.7538 17.2827C24.4948 17.2827 25.1423 17.5552 25.6707 18.0824C26.2101 18.5957 26.4781 19.2517 26.4781 20.0122V27.9185H37.1099V20.0122C37.1099 19.2425 37.3969 18.5838 37.9635 18.0732C38.5123 17.5542 39.1668 17.2827 39.907 17.2827C40.697 17.2827 41.3794 17.5273 41.9018 18.0509C42.4206 18.5709 42.6677 19.2399 42.6677 20.0122V41.1377C42.6677 41.9002 42.3988 42.5643 41.8654 43.099L41.8603 43.104ZM38.3026 18.4406C37.8408 18.8548 37.6099 19.3787 37.6099 20.0122V28.4185H25.9781V20.0122C25.9781 19.3787 25.7593 18.8548 25.3217 18.4406C24.8842 18.002 24.3615 17.7827 23.7538 17.7827C23.0732 17.7827 22.5141 18.002 22.0765 18.4406C21.6389 18.8548 21.4202 19.3787 21.4202 20.0122V41.1377C21.4202 41.7712 21.6268 42.3073 22.04 42.7458C22.4776 43.1601 23.0245 43.3672 23.6809 43.3672C24.2886 43.3672 24.8234 43.1601 25.2853 42.7458C25.7471 42.3073 25.9781 41.7712 25.9781 41.1377V32.6217H37.6099V41.1377C37.6099 41.7712 37.8286 42.3073 38.2662 42.7458C38.7037 43.1601 39.2264 43.3672 39.8341 43.3672C40.5147 43.3672 41.0738 43.1601 41.5114 42.7458C41.949 42.3073 42.1677 41.7712 42.1677 41.1377V20.0122C42.1677 19.3543 41.9611 18.8183 41.5479 18.4041C41.1346 17.9898 40.5877 17.7827 39.907 17.7827C39.2993 17.7827 38.7645 18.002 38.3026 18.4406Z" fill="white"/>
<path d="M63.0517 23.4478C63.6838 23.4478 64.2064 23.6549 64.6198 24.0691C65.0329 24.4833 65.2397 25.0194 65.2397 25.6773V41.1376C65.2397 41.7711 65.0329 42.3072 64.6198 42.7458C64.2064 43.16 63.6838 43.3671 63.0517 43.3671C62.4196 43.3671 61.897 43.16 61.4839 42.7458C61.095 42.3315 60.8883 41.8077 60.8641 41.1741C60.2562 41.8808 59.4297 42.4899 58.3845 43.0016C57.3635 43.4889 56.2818 43.7326 55.1394 43.7326C53.4621 43.7326 51.9427 43.3062 50.5814 42.4534C49.2201 41.5762 48.1383 40.37 47.3362 38.835C46.5583 37.2999 46.1693 35.5578 46.1693 33.6085C46.1693 31.6591 46.5583 29.917 47.3362 28.3819C48.114 26.8225 49.1715 25.6164 50.5084 24.7635C51.8698 23.8864 53.3649 23.4478 54.9934 23.4478C56.1604 23.4478 57.254 23.667 58.275 24.1057C59.296 24.5199 60.159 25.0559 60.8641 25.7138V25.6773C60.8641 25.0437 61.0705 24.5199 61.4839 24.1057C61.897 23.667 62.4196 23.4478 63.0517 23.4478ZM55.6862 39.7122C57.2663 39.7122 58.5547 39.1396 59.5515 37.9944C60.5479 36.8248 61.0463 35.3628 61.0463 33.6085C61.0463 31.8541 60.5479 30.3921 59.5515 29.2225C58.5547 28.053 57.2663 27.4682 55.6862 27.4682C54.1304 27.4682 52.8542 28.053 51.8575 29.2225C50.8609 30.3921 50.3626 31.8541 50.3626 33.6085C50.3626 35.3628 50.8488 36.8248 51.821 37.9944C52.8177 39.1396 54.1061 39.7122 55.6862 39.7122Z" fill="white"/>
<path fill-rule="evenodd" clip-rule="evenodd" d="M64.9737 23.7159L64.9739 23.716C65.4924 24.2359 65.7397 24.9049 65.7397 25.6773V41.1376C65.7397 41.8914 65.4891 42.5522 64.9838 43.0886L64.9788 43.0938L64.9737 43.099C64.4586 43.6152 63.8049 43.8671 63.0517 43.8671C62.2986 43.8671 61.6448 43.6152 61.1299 43.0988L61.1246 43.0935L61.1194 43.088C60.869 42.8213 60.6824 42.5191 60.557 42.1864C60.0072 42.6631 59.3543 43.0835 58.6043 43.4507L58.5999 43.4529L58.5999 43.4528C57.511 43.9726 56.3556 44.2326 55.1394 44.2326C53.3726 44.2326 51.7605 43.782 50.3159 42.8771L50.3105 42.8737L50.3105 42.8737C48.8714 41.9463 47.7324 40.6729 46.893 39.0666L46.8901 39.061L46.8901 39.061C46.0723 37.4471 45.6693 35.6258 45.6693 33.6085C45.6693 31.5917 46.0721 29.7709 46.8894 28.1573C47.7034 26.5261 48.8187 25.2486 50.2386 24.3426C51.6809 23.4135 53.2698 22.9478 54.9934 22.9478C56.223 22.9478 57.3826 23.1789 58.4677 23.6442C59.2234 23.9513 59.9029 24.3247 60.5031 24.7665C60.6266 24.3903 60.833 24.0516 61.1249 23.7576C61.6369 23.2168 62.2919 22.9478 63.0517 22.9478C63.8049 22.9478 64.4586 23.1997 64.9737 23.7159ZM61.4839 24.1057C61.2031 24.3871 61.0177 24.7191 60.9278 25.1017C60.8853 25.2823 60.8641 25.4741 60.8641 25.6773V25.7138C60.851 25.7016 60.8378 25.6894 60.8246 25.6773C60.6844 25.5484 60.538 25.4243 60.3855 25.3049C59.7791 24.8302 59.0756 24.4305 58.275 24.1057C57.254 23.667 56.1604 23.4478 54.9934 23.4478C53.3649 23.4478 51.8698 23.8864 50.5084 24.7635C49.1715 25.6164 48.114 26.8225 47.3362 28.3819C46.5583 29.917 46.1693 31.6591 46.1693 33.6085C46.1693 35.5578 46.5583 37.2999 47.3362 38.835C48.1383 40.37 49.2201 41.5762 50.5814 42.4534C51.9427 43.3062 53.4621 43.7326 55.1394 43.7326C56.2818 43.7326 57.3635 43.4889 58.3845 43.0016C59.1898 42.6073 59.8654 42.1552 60.4111 41.6452C60.5736 41.4933 60.7246 41.3363 60.8641 41.1741C60.8727 41.3996 60.9044 41.6111 60.9593 41.8088C61.0585 42.1666 61.2334 42.4789 61.4839 42.7458C61.897 43.16 62.4196 43.3671 63.0517 43.3671C63.6838 43.3671 64.2064 43.16 64.6198 42.7458C65.033 42.3072 65.2397 41.7711 65.2397 41.1376V25.6773C65.2397 25.0194 65.033 24.4833 64.6198 24.0691C64.2064 23.6549 63.6838 23.4478 63.0517 23.4478C62.4196 23.4478 61.897 23.667 61.4839 24.1057ZM59.1726 37.6681C60.08 36.602 60.5463 35.2608 60.5463 33.6085C60.5463 31.9551 60.0794 30.6133 59.1709 29.5468C58.2722 28.4923 57.1246 27.9682 55.6862 27.9682C54.2747 27.9682 53.1384 28.4903 52.238 29.5468C51.3294 30.6132 50.8626 31.9551 50.8626 33.6085C50.8626 35.2627 51.3179 36.6048 52.2019 37.6704C53.0988 38.6987 54.2461 39.2122 55.6862 39.2122C57.1275 39.2122 58.2754 38.6979 59.1726 37.6681ZM51.821 37.9944C50.8488 36.8248 50.3626 35.3628 50.3626 33.6085C50.3626 31.8541 50.8609 30.3921 51.8575 29.2225C52.8542 28.053 54.1304 27.4682 55.6862 27.4682C57.2663 27.4682 58.5547 28.053 59.5515 29.2225C60.5479 30.3921 61.0463 31.8541 61.0463 33.6085C61.0463 35.3628 60.5479 36.8248 59.5515 37.9944C58.5547 39.1396 57.2663 39.7122 55.6862 39.7122C54.1061 39.7122 52.8177 39.1396 51.821 37.9944Z" fill="white"/>
<path d="M70.1576 19.06C70.1576 18.3819 70.3533 17.8584 70.7452 17.4895C71.1488 17.1088 71.7601 16.9185 72.5789 16.9185C73.3981 16.9185 74.0032 17.1088 74.3948 17.4895C74.7984 17.8584 75.0002 18.3819 75.0002 19.06V37.4239C75.0002 37.8879 75.03 38.2745 75.0895 38.5839C75.1487 38.8932 75.2318 39.1371 75.3385 39.3156C75.4572 39.494 75.5937 39.6189 75.7483 39.6903C75.9025 39.7617 76.0746 39.7974 76.2644 39.7974C76.4307 39.7974 76.5791 39.7915 76.7094 39.7796C76.8401 39.7558 76.9707 39.7439 77.1014 39.7439C77.2557 39.7439 77.4038 39.7736 77.5464 39.8331C77.6887 39.8926 77.8135 39.9818 77.9203 40.1008C78.027 40.2198 78.1101 40.3685 78.1696 40.547C78.2407 40.7135 78.2763 40.9098 78.2763 41.1359C78.2763 41.4809 78.223 41.7724 78.1162 42.0104C78.0212 42.2483 77.8847 42.4565 77.7065 42.635C77.5878 42.7539 77.4455 42.867 77.2793 42.9741C77.113 43.0812 76.9112 43.1823 76.6739 43.2774C76.4484 43.3607 76.1755 43.4262 75.855 43.4738C75.5345 43.5332 75.1665 43.563 74.7512 43.563C73.2435 43.563 72.0983 43.1644 71.3147 42.3673C70.5434 41.5583 70.1576 40.3388 70.1576 38.7088V19.06Z" fill="white"/>
<path fill-rule="evenodd" clip-rule="evenodd" d="M75.5805 38.4894L75.5806 38.4899C75.6322 38.7598 75.6981 38.9385 75.7618 39.049C75.8397 39.1631 75.9081 39.2134 75.9579 39.2364L75.9582 39.2366C76.0394 39.2741 76.1386 39.2974 76.2644 39.2974C76.4101 39.2974 76.5363 39.2925 76.6437 39.2834C76.7956 39.2571 76.9483 39.2439 77.1014 39.2439C77.322 39.2439 77.5355 39.2868 77.7389 39.3717L77.7392 39.3718C77.9522 39.4608 78.1377 39.5944 78.2924 39.7669C78.4479 39.9402 78.5603 40.1453 78.6375 40.37C78.7351 40.6067 78.7763 40.8659 78.7763 41.1359C78.7763 41.5258 78.717 41.8881 78.5767 42.2053C78.4572 42.501 78.2848 42.7634 78.0603 42.9883C77.9126 43.1363 77.7413 43.2712 77.5501 43.3944C77.3506 43.5229 77.1188 43.6378 76.8599 43.7415L76.8472 43.7466L76.8472 43.7464C76.5828 43.8441 76.2774 43.9161 75.9373 43.967C75.5822 44.0322 75.1856 44.063 74.7512 44.063C73.1576 44.063 71.8649 43.6402 70.9582 42.7178L70.9528 42.7123L70.9529 42.7123C70.0595 41.7752 69.6576 40.4089 69.6576 38.7088V19.06C69.6576 18.2824 69.8853 17.6123 70.4023 17.1256C70.9346 16.6236 71.6925 16.4185 72.5789 16.4185C73.4612 16.4185 74.2155 16.6216 74.7378 17.1256C75.2651 17.6107 75.5002 18.2805 75.5002 19.06V37.4239C75.5002 37.8696 75.5291 38.222 75.5805 38.4894ZM74.3948 17.4895C74.0032 17.1088 73.3981 16.9185 72.5789 16.9185C71.7601 16.9185 71.1488 17.1088 70.7452 17.4895C70.3533 17.8584 70.1576 18.3819 70.1576 19.06V38.7088C70.1576 40.3388 70.5434 41.5583 71.3147 42.3673C72.0983 43.1644 73.2435 43.563 74.7512 43.563C75.1665 43.563 75.5345 43.5332 75.855 43.4738C76.1755 43.4262 76.4484 43.3607 76.6739 43.2774C76.9112 43.1823 77.113 43.0812 77.2793 42.9741C77.4455 42.867 77.5878 42.7539 77.7065 42.635C77.8847 42.4565 78.0212 42.2483 78.1162 42.0104C78.223 41.7724 78.2763 41.4809 78.2763 41.1359C78.2763 40.9098 78.2407 40.7135 78.1696 40.547C78.1101 40.3685 78.027 40.2198 77.9203 40.1008C77.8135 39.9818 77.6887 39.8926 77.5464 39.8331C77.4038 39.7736 77.2557 39.7439 77.1014 39.7439C76.9707 39.7439 76.8401 39.7558 76.7094 39.7796C76.5791 39.7915 76.4307 39.7974 76.2644 39.7974C76.0746 39.7974 75.9025 39.7617 75.7483 39.6903C75.5937 39.6189 75.4572 39.494 75.3385 39.3156C75.2318 39.1371 75.1487 38.8932 75.0895 38.5839C75.03 38.2745 75.0002 37.8879 75.0002 37.4239V19.06C75.0002 18.3819 74.7984 17.8584 74.3948 17.4895Z" fill="white"/>
<path d="M82.0011 19.06C82.0011 18.3819 82.1968 17.8584 82.5884 17.4895C82.992 17.1088 83.6033 16.9185 84.4224 16.9185C85.2413 16.9185 85.8467 17.1088 86.2384 17.4895C86.642 17.8584 86.8438 18.3819 86.8438 19.06V37.4239C86.8438 37.8879 86.8735 38.2745 86.9327 38.5839C86.9922 38.8932 87.0753 39.1371 87.182 39.3156C87.3007 39.494 87.4372 39.6189 87.5915 39.6903C87.7457 39.7617 87.9181 39.7974 88.1079 39.7974C88.2742 39.7974 88.4223 39.7915 88.553 39.7796C88.6836 39.7558 88.8143 39.7439 88.9446 39.7439C89.0989 39.7439 89.2473 39.7736 89.3899 39.8331C89.5322 39.8926 89.6567 39.9818 89.7638 40.1008C89.8705 40.2198 89.9536 40.3685 90.0128 40.547C90.0843 40.7135 90.1199 40.9098 90.1199 41.1359C90.1199 41.4809 90.0665 41.7724 89.9594 42.0104C89.8647 42.2483 89.7282 42.4565 89.55 42.635C89.4313 42.7539 89.289 42.867 89.1228 42.9741C88.9566 43.0812 88.7548 43.1823 88.5174 43.2774C88.292 43.3607 88.019 43.4262 87.6985 43.4738C87.378 43.5332 87.01 43.563 86.5944 43.563C85.087 43.563 83.9415 43.1644 83.1582 42.3673C82.3866 41.5583 82.0011 40.3388 82.0011 38.7088V19.06Z" fill="white"/>
<path fill-rule="evenodd" clip-rule="evenodd" d="M89.5824 39.3717L89.5827 39.3718C89.7961 39.461 89.981 39.5947 90.1355 39.7664L90.136 39.7669C90.2913 39.9401 90.4038 40.145 90.4808 40.3699C90.5787 40.6069 90.6199 40.8662 90.6199 41.1359C90.6199 41.5256 90.5606 41.888 90.42 42.2054C90.3006 42.5012 90.1282 42.7635 89.9038 42.9883C89.7561 43.1363 89.5848 43.2712 89.3936 43.3944C89.1941 43.5229 88.9623 43.6378 88.7035 43.7415L88.6907 43.7466L88.6907 43.7464C88.4263 43.8441 88.1209 43.9161 87.7808 43.967C87.4257 44.0322 87.0291 44.063 86.5944 44.063C85.0012 44.063 83.7081 43.6402 82.8016 42.7177L82.7964 42.7124L82.7964 42.7124C81.9026 41.7752 81.5011 40.4088 81.5011 38.7088V19.06C81.5011 18.2824 81.7288 17.6124 82.2455 17.1257C82.7778 16.6236 83.5357 16.4185 84.4224 16.4185C85.3043 16.4185 86.059 16.6216 86.5813 17.1256C87.1086 17.6107 87.3438 18.2805 87.3438 19.06V37.4239C87.3438 37.8694 87.3726 38.2221 87.4238 38.4898C87.4757 38.7598 87.5416 38.9385 87.6053 39.049C87.6832 39.1631 87.7517 39.2136 87.8015 39.2366C87.8825 39.2741 87.982 39.2974 88.1079 39.2974C88.2536 39.2974 88.3795 39.2925 88.4873 39.2834C88.6391 39.2571 88.7918 39.2439 88.9446 39.2439C89.165 39.2439 89.3789 39.2868 89.5824 39.3717ZM88.553 39.7796C88.4223 39.7915 88.2742 39.7974 88.1079 39.7974C87.9181 39.7974 87.7457 39.7617 87.5915 39.6903C87.4372 39.6189 87.3007 39.494 87.182 39.3156C87.0753 39.1371 86.9922 38.8932 86.9327 38.5839C86.8735 38.2745 86.8438 37.8879 86.8438 37.4239V19.06C86.8438 18.3819 86.642 17.8584 86.2384 17.4895C85.8467 17.1088 85.2413 16.9185 84.4224 16.9185C83.6033 16.9185 82.992 17.1088 82.5884 17.4895C82.1968 17.8584 82.0011 18.3819 82.0011 19.06V38.7088C82.0011 40.3388 82.3866 41.5583 83.1582 42.3673C83.9415 43.1644 85.087 43.563 86.5944 43.563C87.01 43.563 87.378 43.5332 87.6985 43.4738C88.019 43.4262 88.292 43.3607 88.5174 43.2774C88.7548 43.1823 88.9566 43.0812 89.1228 42.9741C89.289 42.867 89.4313 42.7539 89.55 42.635C89.7282 42.4565 89.8647 42.2483 89.9594 42.0104C90.0665 41.7724 90.1199 41.4809 90.1199 41.1359C90.1199 40.9098 90.0843 40.7135 90.0128 40.547C89.9536 40.3685 89.8705 40.2198 89.7638 40.1008C89.6567 39.9818 89.5322 39.8926 89.3899 39.8331C89.2473 39.7736 89.0989 39.7439 88.9446 39.7439C88.8143 39.7439 88.6836 39.7558 88.553 39.7796Z" fill="white"/>
<path d="M112.411 33.6085C112.411 35.5578 111.973 37.3121 111.098 38.8715C110.223 40.4066 109.02 41.6006 107.488 42.4534C105.981 43.3062 104.316 43.7326 102.493 43.7326C100.645 43.7326 98.968 43.3062 97.4609 42.4534C95.9535 41.6006 94.7626 40.4066 93.8873 38.8715C93.0124 37.3121 92.5747 35.5578 92.5747 33.6085C92.5747 31.6591 93.0124 29.917 93.8873 28.3819C94.7626 26.8225 95.9535 25.6164 97.4609 24.7635C98.968 23.8864 100.645 23.4478 102.493 23.4478C104.316 23.4478 105.981 23.8864 107.488 24.7635C109.02 25.6164 110.223 26.8225 111.098 28.3819C111.973 29.917 112.411 31.6591 112.411 33.6085ZM108.035 33.6085C108.035 32.4145 107.78 31.3546 107.27 30.4287C106.783 29.4784 106.115 28.7474 105.264 28.2357C104.438 27.724 103.514 27.4682 102.493 27.4682C101.472 27.4682 100.536 27.724 99.685 28.2357C98.8585 28.7474 98.1902 29.4784 97.6796 30.4287C97.1935 31.3546 96.9503 32.4145 96.9503 33.6085C96.9503 34.8024 97.1935 35.8623 97.6796 36.7882C98.1902 37.7141 98.8585 38.4329 99.685 38.9446C100.536 39.4563 101.472 39.7122 102.493 39.7122C103.514 39.7122 104.438 39.4563 105.264 38.9446C106.115 38.4329 106.783 37.7141 107.27 36.7882C107.78 35.8623 108.035 34.8024 108.035 33.6085Z" fill="white"/>
<path fill-rule="evenodd" clip-rule="evenodd" d="M111.534 39.1163L111.532 39.1191C110.613 40.7324 109.344 41.9918 107.733 42.8893C106.147 43.7864 104.397 44.2326 102.493 44.2326C100.565 44.2326 98.8019 43.7867 97.2147 42.8885C95.6271 41.9904 94.372 40.7309 93.453 39.1192L93.4513 39.1162L93.4513 39.1162C92.5307 37.4754 92.0747 35.6355 92.0747 33.6085C92.0747 31.5821 92.5304 29.7535 93.4521 28.1357C94.37 26.5011 95.6242 25.2288 97.212 24.3298C98.7994 23.4066 100.563 22.9478 102.493 22.9478C104.398 22.9478 106.15 23.4069 107.736 24.329C109.347 25.2274 110.615 26.4995 111.533 28.1358C112.455 29.7536 112.911 31.5821 112.911 33.6085C112.911 35.6355 112.455 37.4755 111.534 39.1163ZM111.098 28.3819C110.223 26.8225 109.02 25.6164 107.488 24.7635C105.981 23.8864 104.316 23.4478 102.493 23.4478C100.645 23.4478 98.968 23.8864 97.4609 24.7635C95.9535 25.6164 94.7626 26.8225 93.8873 28.3819C93.0124 29.917 92.5747 31.6591 92.5747 33.6085C92.5747 35.5578 93.0124 37.3121 93.8873 38.8715C94.7626 40.4066 95.9535 41.6006 97.4609 42.4534C98.968 43.3062 100.645 43.7326 102.493 43.7326C104.316 43.7326 105.981 43.3062 107.488 42.4534C109.02 41.6006 110.223 40.4066 111.098 38.8715C111.973 37.3121 112.411 35.5578 112.411 33.6085C112.411 31.6591 111.973 29.917 111.098 28.3819ZM106.828 30.6633L106.824 30.6565C106.377 29.7827 105.771 29.1241 105.006 28.6642L105.001 28.6609L105.001 28.6608C104.257 28.2006 103.426 27.9682 102.493 27.9682C101.561 27.9682 100.715 28.2001 99.9455 28.6625C99.2034 29.1226 98.5942 29.7836 98.1211 30.6632C97.6784 31.5074 97.4503 32.4849 97.4503 33.6085C97.4503 34.7309 97.678 35.7076 98.1199 36.5513C98.5919 37.4056 99.2009 38.0562 99.9455 38.5178C100.715 38.9802 101.561 39.2122 102.493 39.2122C103.426 39.2122 104.257 38.9797 105.001 38.5195L105.006 38.5161L105.006 38.5161C105.774 38.0542 106.381 37.4052 106.827 36.5557L106.832 36.5468L106.832 36.5469C107.296 35.704 107.535 34.7291 107.535 33.6085C107.535 32.4878 107.296 31.5129 106.832 30.67L106.828 30.6633ZM99.685 38.9446C98.8585 38.4329 98.1902 37.7141 97.6796 36.7882C97.1935 35.8623 96.9503 34.8024 96.9503 33.6085C96.9503 32.4145 97.1935 31.3546 97.6796 30.4287C98.1902 29.4784 98.8585 28.7474 99.685 28.2357C100.536 27.724 101.472 27.4682 102.493 27.4682C103.514 27.4682 104.438 27.724 105.264 28.2357C106.115 28.7474 106.783 29.4784 107.27 30.4287C107.78 31.3546 108.035 32.4145 108.035 33.6085C108.035 34.8024 107.78 35.8623 107.27 36.7882C106.783 37.7141 106.115 38.4329 105.264 38.9446C104.438 39.4563 103.514 39.7122 102.493 39.7122C101.472 39.7122 100.536 39.4563 99.685 38.9446Z" fill="white"/>
<path d="M137.361 40.5165C137.483 40.8333 137.543 41.1257 137.543 41.3937C137.543 42.0272 137.337 42.5511 136.923 42.9653C136.51 43.3552 136.036 43.5501 135.501 43.5501C135.064 43.5501 134.663 43.4161 134.298 43.1481C133.958 42.8801 133.69 42.5146 133.496 42.0516L131.6 37.6292H120.734L118.838 42.0882C118.667 42.5511 118.4 42.9166 118.036 43.1846C117.695 43.4283 117.318 43.5501 116.905 43.5501C116.273 43.5501 115.787 43.3796 115.446 43.0384C115.131 42.6973 114.973 42.2344 114.973 41.6496C114.973 41.4303 115.009 41.1988 115.082 40.9551L124.161 19.0987C124.356 18.6114 124.648 18.2337 125.036 17.9657C125.425 17.6976 125.863 17.588 126.349 17.6367C126.787 17.6367 127.188 17.7707 127.552 18.0388C127.941 18.2824 128.221 18.6357 128.391 19.0987L137.361 40.5165ZM122.046 33.3829C121.878 33.7862 122.175 34.2301 122.613 34.2301H129.891C130.328 34.2301 130.625 33.7862 130.458 33.3829L126.818 24.6282C126.609 24.1246 125.895 24.1246 125.685 24.6282L122.046 33.3829Z" fill="white"/>
<path fill-rule="evenodd" clip-rule="evenodd" d="M137.825 40.3304L137.828 40.3375C137.966 40.6969 138.043 41.0507 138.043 41.3937C138.043 42.1476 137.792 42.8023 137.278 43.3184L137.272 43.3238L137.267 43.3291C136.767 43.8004 136.172 44.0501 135.501 44.0501C134.953 44.0501 134.449 43.8798 134.002 43.5509L133.995 43.546L133.989 43.5409C133.572 43.213 133.258 42.7749 133.036 42.2472C133.035 42.2465 133.035 42.2459 133.035 42.2452L131.27 38.1291H121.065L119.302 42.2728C119.101 42.8136 118.779 43.2585 118.332 43.5875L118.327 43.5912C117.903 43.8948 117.424 44.0501 116.905 44.0501C116.183 44.0501 115.553 43.8533 115.093 43.3916L115.086 43.385L115.08 43.3782C114.658 42.9225 114.473 42.3265 114.473 41.6496C114.473 41.375 114.518 41.095 114.603 40.8117L114.61 40.787L123.698 18.9099C123.925 18.3432 124.275 17.8835 124.753 17.554C125.236 17.2209 125.784 17.0829 126.374 17.1368C126.906 17.1419 127.397 17.3082 127.833 17.625C128.312 17.9297 128.653 18.3678 128.856 18.9153L137.825 40.3304ZM128.391 19.0987C128.221 18.6357 127.941 18.2824 127.552 18.0388C127.188 17.7707 126.787 17.6367 126.349 17.6367C125.863 17.588 125.425 17.6976 125.036 17.9657C124.648 18.2337 124.356 18.6114 124.161 19.0987L115.082 40.9551C115.009 41.1988 114.973 41.4303 114.973 41.6496C114.973 42.2344 115.131 42.6973 115.446 43.0384C115.787 43.3796 116.273 43.5501 116.905 43.5501C117.318 43.5501 117.695 43.4283 118.036 43.1846C118.4 42.9166 118.667 42.5511 118.838 42.0881L120.734 37.6291H131.6L133.496 42.0516C133.69 42.5146 133.958 42.88 134.298 43.1481C134.663 43.4161 135.064 43.5501 135.501 43.5501C136.036 43.5501 136.51 43.3552 136.923 42.9653C137.337 42.5511 137.543 42.0272 137.543 41.3937C137.543 41.1257 137.483 40.8333 137.361 40.5165L128.391 19.0987ZM122.508 33.5749C122.478 33.6477 122.531 33.7301 122.613 33.7301H129.891C129.973 33.7301 130.026 33.6477 129.996 33.5749L126.357 24.8201C126.344 24.7906 126.329 24.7762 126.315 24.7676C126.3 24.7576 126.277 24.7505 126.252 24.7505C126.226 24.7505 126.204 24.7576 126.188 24.7677C126.175 24.7763 126.159 24.7906 126.147 24.8201C126.147 24.8201 126.147 24.8201 126.147 24.8201L122.508 33.5749ZM125.685 24.6282C125.895 24.1246 126.609 24.1246 126.818 24.6282L130.458 33.3828C130.625 33.7861 130.328 34.2301 129.891 34.2301H122.613C122.175 34.2301 121.878 33.7861 122.046 33.3828L125.685 24.6282Z" fill="white"/>
<path d="M152.19 23.4478C153.867 23.4478 155.386 23.8864 156.747 24.7635C158.109 25.6164 159.178 26.8103 159.956 28.3454C160.758 29.8804 161.159 31.6226 161.159 33.5719C161.159 35.5212 160.77 37.2756 159.993 38.835C159.215 40.37 158.145 41.5762 156.784 42.4534C155.447 43.3062 153.964 43.7326 152.335 43.7326C151.169 43.7326 150.062 43.5011 149.017 43.0381C147.996 42.5508 147.145 41.966 146.465 41.2838V48.4474C146.465 49.081 146.258 49.6049 145.845 50.019C145.432 50.4578 144.909 50.677 144.277 50.677C143.645 50.677 143.122 50.4697 142.709 50.0557C142.296 49.6414 142.089 49.1052 142.089 48.4474V26.0428C142.089 25.4092 142.296 24.8854 142.709 24.4711C143.122 24.0326 143.645 23.8133 144.277 23.8133C144.909 23.8133 145.432 24.0326 145.845 24.4711C146.258 24.8854 146.465 25.4092 146.465 26.0428V26.1889C147.048 25.458 147.862 24.8245 148.908 24.2884C149.953 23.728 151.047 23.4478 152.19 23.4478ZM151.642 39.7122C153.198 39.7122 154.474 39.1274 155.471 37.9578C156.468 36.7882 156.966 35.3263 156.966 33.5719C156.966 31.8175 156.468 30.3678 155.471 29.2225C154.499 28.0529 153.223 27.4682 151.642 27.4682C150.062 27.4682 148.774 28.0529 147.778 29.2225C146.781 30.3678 146.282 31.8175 146.282 33.5719C146.282 35.3263 146.781 36.7882 147.778 37.9578C148.774 39.1274 150.062 39.7122 151.642 39.7122Z" fill="white"/>
<path fill-rule="evenodd" clip-rule="evenodd" d="M142.709 50.0557C142.296 49.6414 142.089 49.1052 142.089 48.4474V26.0428C142.089 25.4092 142.296 24.8854 142.709 24.4711C143.122 24.0326 143.645 23.8133 144.277 23.8133C144.909 23.8133 145.432 24.0326 145.845 24.4711C146.132 24.759 146.32 25.0999 146.407 25.4937C146.446 25.6665 146.465 25.8495 146.465 26.0428V26.1889C146.504 26.1398 146.544 26.091 146.586 26.0428C146.697 25.9127 146.816 25.7858 146.942 25.6621C147.467 25.1492 148.122 24.6913 148.908 24.2884C149.953 23.728 151.047 23.4478 152.19 23.4478C153.867 23.4478 155.386 23.8864 156.747 24.7635C158.109 25.6164 159.178 26.8103 159.956 28.3454C160.758 29.8804 161.159 31.6226 161.159 33.5719C161.159 35.5212 160.77 37.2756 159.993 38.835C159.215 40.37 158.145 41.5762 156.784 42.4534C155.447 43.3062 153.964 43.7326 152.335 43.7326C151.169 43.7326 150.062 43.5011 149.017 43.0381C148.233 42.6636 147.548 42.2316 146.965 41.7419C146.789 41.5944 146.622 41.4417 146.465 41.2838V48.4474C146.465 49.081 146.258 49.6049 145.845 50.019C145.432 50.4578 144.909 50.677 144.277 50.677C143.645 50.677 143.122 50.4697 142.709 50.0557ZM146.965 42.3818V48.4474C146.965 49.1988 146.716 49.8518 146.204 50.367C145.692 50.9081 145.037 51.177 144.277 51.177C143.524 51.177 142.87 50.9248 142.355 50.4089C141.836 49.8888 141.589 49.2197 141.589 48.4474V26.0428C141.589 25.2913 141.838 24.6384 142.35 24.1231C142.862 23.5823 143.517 23.3133 144.277 23.3133C145.037 23.3133 145.692 23.5823 146.204 24.123C146.487 24.4081 146.689 24.7351 146.814 25.0977C147.337 24.6294 147.96 24.2129 148.675 23.8455C149.79 23.2492 150.963 22.9478 152.19 22.9478C153.958 22.9478 155.571 23.4115 157.015 24.3415C158.457 25.2454 159.585 26.5088 160.401 28.1166C161.244 29.731 161.659 31.5533 161.659 33.5719C161.659 35.5894 161.256 37.4216 160.44 39.0581L160.439 39.0611C159.623 40.6701 158.495 41.9454 157.055 42.8737L157.053 42.8749C155.633 43.7804 154.057 44.2326 152.335 44.2326C151.1 44.2326 149.925 43.9871 148.815 43.4953L148.808 43.4924L148.802 43.4894C148.122 43.1648 147.509 42.7961 146.965 42.3818ZM155.087 29.5422C154.213 28.4919 153.081 27.9682 151.642 27.9682C150.204 27.9682 149.056 28.4923 148.158 29.5468L148.155 29.5508C147.249 30.591 146.782 31.9183 146.782 33.5719C146.782 35.2253 147.249 36.5671 148.158 37.6335C149.056 38.688 150.204 39.2122 151.642 39.2122C153.054 39.2122 154.19 38.69 155.091 37.6335C155.999 36.5672 156.466 35.2253 156.466 33.5719C156.466 31.9182 155.999 30.591 155.094 29.5508L155.087 29.5422ZM155.471 29.2225C156.468 30.3678 156.966 31.8175 156.966 33.5719C156.966 35.3263 156.468 36.7882 155.471 37.9578C154.474 39.1274 153.198 39.7122 151.642 39.7122C150.062 39.7122 148.774 39.1274 147.778 37.9578C146.781 36.7882 146.282 35.3263 146.282 33.5719C146.282 31.8175 146.781 30.3678 147.778 29.2225C148.774 28.0529 150.062 27.4682 151.642 27.4682C153.223 27.4682 154.499 28.0529 155.471 29.2225Z" fill="white"/>
<path d="M175.459 23.4478C177.136 23.4478 178.655 23.8864 180.017 24.7635C181.378 25.6163 182.448 26.8103 183.225 28.3454C184.028 29.8804 184.429 31.6226 184.429 33.5719C184.429 35.5212 184.04 37.2756 183.262 38.835C182.484 40.37 181.414 41.5762 180.053 42.4534C178.716 43.3062 177.233 43.7326 175.605 43.7326C174.438 43.7326 173.332 43.5011 172.287 43.0381C171.266 42.5508 170.415 41.966 169.734 41.2838V48.4474C169.734 49.081 169.528 49.6049 169.114 50.019C168.701 50.4578 168.179 50.677 167.546 50.677C166.914 50.677 166.392 50.4697 165.978 50.0557C165.565 49.6414 165.359 49.1052 165.359 48.4474V26.0428C165.359 25.4092 165.565 24.8854 165.978 24.4711C166.392 24.0326 166.914 23.8133 167.546 23.8133C168.179 23.8133 168.701 24.0326 169.114 24.4711C169.528 24.8854 169.734 25.4092 169.734 26.0428V26.1889C170.318 25.458 171.132 24.8245 172.177 24.2884C173.222 23.728 174.316 23.4478 175.459 23.4478ZM174.912 39.7122C176.468 39.7122 177.744 39.1274 178.741 37.9578C179.737 36.7882 180.236 35.3263 180.236 33.5719C180.236 31.8175 179.737 30.3678 178.741 29.2225C177.768 28.0529 176.492 27.4682 174.912 27.4682C173.332 27.4682 172.043 28.0529 171.047 29.2225C170.05 30.3678 169.552 31.8175 169.552 33.5719C169.552 35.3263 170.05 36.7882 171.047 37.9578C172.043 39.1274 173.332 39.7122 174.912 39.7122Z" fill="white"/>
<path fill-rule="evenodd" clip-rule="evenodd" d="M183.709 39.0582L183.708 39.061C182.893 40.6701 181.765 41.9454 180.324 42.8736L180.322 42.8749C178.902 43.7804 177.326 44.2326 175.605 44.2326C174.37 44.2326 173.195 43.9871 172.084 43.4953L172.078 43.4924L172.071 43.4894C171.391 43.1648 170.778 42.796 170.234 42.3817V48.4474C170.234 49.1986 169.985 49.8517 169.473 50.367C168.961 50.9081 168.306 51.177 167.546 51.177C166.793 51.177 166.14 50.9248 165.625 50.409C165.106 49.889 164.859 49.2196 164.859 48.4474V26.0428C164.859 25.2913 165.108 24.6384 165.619 24.1231C166.132 23.5823 166.787 23.3133 167.546 23.3133C168.306 23.3133 168.961 23.5823 169.473 24.123C169.756 24.4081 169.959 24.7352 170.084 25.0977C170.607 24.6295 171.229 24.213 171.945 23.8456C173.059 23.2492 174.232 22.9478 175.459 22.9478C177.227 22.9478 178.841 23.4115 180.285 24.3415C181.726 25.2454 182.855 26.5087 183.67 28.1166C184.513 29.731 184.929 31.5534 184.929 33.5719C184.929 35.5894 184.526 37.4216 183.709 39.0582ZM183.225 28.3454C182.448 26.8103 181.378 25.6163 180.017 24.7635C178.655 23.8864 177.136 23.4478 175.459 23.4478C174.316 23.4478 173.222 23.728 172.177 24.2884C171.392 24.6913 170.736 25.1493 170.212 25.6623C170.085 25.7859 169.966 25.9127 169.855 26.0428C169.814 26.091 169.773 26.1398 169.734 26.1889V26.0428C169.734 25.8495 169.715 25.6665 169.676 25.4937C169.589 25.0999 169.402 24.759 169.114 24.4711C168.701 24.0326 168.179 23.8133 167.546 23.8133C166.914 23.8133 166.392 24.0326 165.978 24.4711C165.565 24.8854 165.359 25.4092 165.359 26.0428V48.4474C165.359 49.1052 165.565 49.6414 165.978 50.0557C166.392 50.4697 166.914 50.677 167.546 50.677C168.179 50.677 168.701 50.4578 169.114 50.019C169.528 49.6049 169.734 49.081 169.734 48.4474V41.2838C169.892 41.4417 170.058 41.5943 170.234 41.7418C170.818 42.2315 171.502 42.6636 172.287 43.0381C173.332 43.5011 174.438 43.7326 175.605 43.7326C177.233 43.7326 178.716 43.3062 180.053 42.4534C181.414 41.5762 182.484 40.37 183.262 38.835C184.04 37.2756 184.429 35.5212 184.429 33.5719C184.429 31.6226 184.028 29.8804 183.225 28.3454ZM178.356 29.5422C177.483 28.4919 176.35 27.9682 174.912 27.9682C173.474 27.9682 172.326 28.4923 171.427 29.5468L171.424 29.5507C170.519 30.591 170.052 31.9183 170.052 33.5719C170.052 35.2253 170.519 36.5672 171.427 37.6335C172.326 38.688 173.474 39.2122 174.912 39.2122C176.323 39.2122 177.46 38.69 178.36 37.6335M178.356 29.5422L178.363 29.5507L178.356 29.5422ZM178.36 37.6335C179.269 36.5672 179.736 35.2253 179.736 33.5719C179.736 31.9183 179.269 30.591 178.363 29.5507M178.741 37.9578C177.744 39.1274 176.468 39.7122 174.912 39.7122C173.332 39.7122 172.043 39.1274 171.047 37.9578C170.05 36.7882 169.552 35.3263 169.552 33.5719C169.552 31.8175 170.05 30.3678 171.047 29.2225C172.043 28.0529 173.332 27.4682 174.912 27.4682C176.492 27.4682 177.768 28.0529 178.741 29.2225C179.737 30.3678 180.236 31.8175 180.236 33.5719C180.236 35.3263 179.737 36.7882 178.741 37.9578Z" fill="white"/>
</g>
</g>
<defs>
<filter id="filter0_dd_5649_19045" x="0.920166" y="0.418457" width="204.009" height="74.7588" filterUnits="userSpaceOnUse" color-interpolation-filters="sRGB">
<feFlood flood-opacity="0" result="BackgroundImageFix"/>
<feColorMatrix in="SourceAlpha" type="matrix" values="0 0 0 0 0 0 0 0 0 0 0 0 0 0 0 0 0 0 127 0" result="hardAlpha"/>
<feOffset dy="4"/>
<feGaussianBlur stdDeviation="10"/>
<feComposite in2="hardAlpha" operator="out"/>
<feColorMatrix type="matrix" values="0 0 0 0 1 0 0 0 0 0.270588 0 0 0 0 0 0 0 0 0.42 0"/>
<feBlend mode="multiply" in2="BackgroundImageFix" result="effect1_dropShadow_5649_19045"/>
<feColorMatrix in="SourceAlpha" type="matrix" values="0 0 0 0 0 0 0 0 0 0 0 0 0 0 0 0 0 0 127 0" result="hardAlpha"/>
<feOffset dy="1"/>
<feGaussianBlur stdDeviation="0.5"/>
<feComposite in2="hardAlpha" operator="out"/>
<feColorMatrix type="matrix" values="0 0 0 0 1 0 0 0 0 0.270588 0 0 0 0 0 0 0 0 0.4 0"/>
<feBlend mode="normal" in2="effect1_dropShadow_5649_19045" result="effect2_dropShadow_5649_19045"/>
<feBlend mode="normal" in="SourceGraphic" in2="effect2_dropShadow_5649_19045" result="shape"/>
</filter>
</defs>
</svg>
