<svg width="26" height="24" viewBox="0 0 26 24" fill="none" xmlns="http://www.w3.org/2000/svg">
<path d="M5.7998 23.7705C6.28678 23.7705 6.91699 23.6273 7.69043 23.3408C8.47103 23.0544 9.29102 22.6784 10.1504 22.2129C11.0098 21.7546 11.8154 21.2533 12.5674 20.709C14.0856 20.7376 15.5143 20.5944 16.8535 20.2793C18.1927 19.9642 19.4066 19.5094 20.4951 18.915C21.5908 18.3135 22.5326 17.5973 23.3203 16.7666C24.1152 15.9287 24.7275 15.0013 25.1572 13.9844C25.5869 12.9674 25.8018 11.8825 25.8018 10.7295C25.8018 9.34733 25.4831 8.05111 24.8457 6.84082C24.2083 5.62337 23.3203 4.5599 22.1816 3.65039C21.043 2.73372 19.7181 2.01758 18.207 1.50195C16.7031 0.986328 15.0882 0.728516 13.3623 0.728516C11.6364 0.728516 10.0179 0.986328 8.50684 1.50195C7.00293 2.01758 5.68164 2.73372 4.54297 3.65039C3.41146 4.5599 2.52344 5.62337 1.87891 6.84082C1.24154 8.05111 0.922852 9.34733 0.922852 10.7295C0.922852 11.904 1.15202 13.0212 1.61035 14.0811C2.06868 15.141 2.71322 16.097 3.54395 16.9492C4.38184 17.8014 5.36296 18.4997 6.4873 19.0439C6.32975 19.3376 6.14355 19.6562 5.92871 20C5.72103 20.3366 5.50977 20.6589 5.29492 20.9668C5.08008 21.2819 4.89388 21.5397 4.73633 21.7402C4.50716 22.041 4.39974 22.349 4.41406 22.6641C4.43555 22.9792 4.56445 23.2406 4.80078 23.4482C5.03711 23.6631 5.37012 23.7705 5.7998 23.7705ZM7.07812 21.5898C7.01367 21.6185 6.9707 21.6149 6.94922 21.5791C6.92773 21.5505 6.94206 21.5075 6.99219 21.4502C7.26432 21.1136 7.57585 20.7054 7.92676 20.2256C8.27767 19.7529 8.55339 19.334 8.75391 18.9688C8.91146 18.668 8.95443 18.3958 8.88281 18.1523C8.81836 17.9017 8.61426 17.694 8.27051 17.5293C7.1748 17.0137 6.24023 16.4085 5.4668 15.7139C4.69336 15.012 4.10254 14.2422 3.69434 13.4043C3.29329 12.5592 3.09277 11.6676 3.09277 10.7295C3.09277 9.64811 3.35417 8.63477 3.87695 7.68945C4.4069 6.74414 5.14095 5.90983 6.0791 5.18652C7.01725 4.46322 8.10938 3.89746 9.35547 3.48926C10.6016 3.08105 11.9372 2.87695 13.3623 2.87695C14.7946 2.87695 16.1302 3.08105 17.3691 3.48926C18.6152 3.89746 19.7074 4.46322 20.6455 5.18652C21.5837 5.90983 22.3177 6.74414 22.8477 7.68945C23.3776 8.63477 23.6426 9.64811 23.6426 10.7295C23.6426 11.8109 23.3776 12.8278 22.8477 13.7803C22.3177 14.7256 21.5837 15.5599 20.6455 16.2832C19.7074 16.9993 18.6152 17.5615 17.3691 17.9697C16.1302 18.3779 14.7946 18.582 13.3623 18.582C13.262 18.582 13.1367 18.582 12.9863 18.582C12.8431 18.5749 12.6784 18.5677 12.4922 18.5605C12.263 18.5605 12.0518 18.5999 11.8584 18.6787C11.665 18.7503 11.4645 18.8685 11.2568 19.0332C10.8271 19.3483 10.3473 19.6777 9.81738 20.0215C9.2946 20.3724 8.78613 20.6875 8.29199 20.9668C7.79785 21.2533 7.39323 21.4609 7.07812 21.5898Z" fill="black"/>
</svg>
