<svg width="28" height="29" viewBox="0 0 28 29" fill="none" xmlns="http://www.w3.org/2000/svg">
<path fill-rule="evenodd" clip-rule="evenodd" d="M20 4.9169C20 4.41483 19.5523 4.00781 19 4.00781C18.4477 4.00781 18 4.41483 18 4.9169V8.00781H14.9091C14.407 8.00781 14 8.45553 14 9.00781C14 9.5601 14.407 10.0078 14.9091 10.0078H18V13.0987C18 13.6008 18.4477 14.0078 19 14.0078C19.5523 14.0078 20 13.6008 20 13.0987V10.0078H23.0909C23.593 10.0078 24 9.5601 24 9.00781C24 8.45553 23.593 8.00781 23.0909 8.00781H20V4.9169ZM8 0.0078125C3.58172 0.0078125 0 3.58953 0 8.00781V20.0078C0 24.4261 3.58172 28.0078 8 28.0078H20C24.4183 28.0078 28 24.4261 28 20.0078V8.00781C28 3.58953 24.4183 0.0078125 20 0.0078125H8ZM15.6169 21.8596L18.6169 18.2453C18.9169 17.8882 19.4597 17.9025 19.7312 18.2739L23.2883 22.8454C23.6598 23.3168 23.3312 24.0025 22.7312 24.0025H5.60257C5.01685 24.0025 4.674 23.3311 5.03114 22.8596L10.0454 16.1739C10.3312 15.7882 10.9026 15.7882 11.1883 16.1596L15.6169 21.8596Z" fill="black"/>
</svg>
