<svg width="24" height="24" viewBox="0 0 24 24" fill="none" xmlns="http://www.w3.org/2000/svg">
<g clip-path="url(#clip0_11166_3454)">
<path fill-rule="evenodd" clip-rule="evenodd" d="M19.1054 2.97001L19.1274 2.96267C19.3529 2.88753 19.6373 2.87721 19.911 3.05966C20.1145 3.19535 20.3273 3.44806 20.3273 3.78497V7.88437C20.3273 8.29799 20.0603 8.67252 19.616 8.7614L19.608 8.76298L19.6001 8.76431C18.8176 8.89471 18.0658 8.87213 17.3493 8.76021V15.6192L17.3493 15.6223C17.3494 15.643 17.3495 15.7076 17.3377 15.7787C17.3327 15.8088 17.3227 15.8593 17.2999 15.9179C16.9581 19.4946 13.9011 22.2682 10.2747 22.2682C6.36325 22.2682 3.2002 19.1051 3.2002 15.1937C3.2002 11.3673 6.15749 8.28593 9.98217 8.11964L9.99302 8.11917H10.0812C10.3109 8.11917 10.5411 8.1979 10.7152 8.37197C10.8892 8.54604 10.968 8.77626 10.968 9.00591V13.492C10.968 13.9749 10.591 14.2945 10.218 14.3691L10.1967 14.3733L10.1751 14.3757C9.72158 14.4261 9.42103 14.7629 9.42103 15.1937C9.42103 15.6523 9.81595 16.0473 10.2746 16.0473C10.6975 16.0473 11.0298 15.7576 11.0895 15.3179V1.54201C11.0895 1.31237 11.1682 1.08214 11.3423 0.908073C11.5164 0.734004 11.7466 0.655273 11.9762 0.655273H15.9209C16.0373 0.655273 16.1566 0.675256 16.2739 0.727373C16.389 0.778524 16.477 0.849551 16.5452 0.917741C16.6134 0.985931 16.6844 1.07399 16.7356 1.18908C16.7877 1.30634 16.8077 1.42566 16.8077 1.54201C16.8077 1.85762 16.9262 2.21339 17.1278 2.47259L17.1332 2.47952C17.5784 3.07318 18.337 3.30812 19.0842 2.97936L19.1054 2.97001ZM18.5531 4.9001C17.4361 4.95052 16.3632 4.42219 15.7117 3.54074L15.704 3.53037C15.4732 3.20056 15.2874 2.83844 15.1706 2.42864H12.8626V15.387L12.8626 15.3901C12.8626 15.4108 12.8628 15.4755 12.8509 15.5466C12.8451 15.5814 12.8327 15.6435 12.8014 15.7138C12.569 16.9161 11.4928 17.8207 10.2355 17.8207C8.79928 17.8207 7.60857 16.6301 7.60857 15.1938C7.60857 14.1567 8.25551 13.2589 9.15552 12.8401V10.0072C6.71445 10.4859 4.93468 12.6204 4.93468 15.1938C4.93468 18.1276 7.30205 20.4948 10.2357 20.4948C12.988 20.4948 15.3227 18.3027 15.4992 15.5485L15.5113 15.3603L15.5369 15.3347V7.65243C15.5369 7.42114 15.6208 7.1226 15.9142 6.92702L15.9699 6.88988L16.0334 6.8687C16.0388 6.86691 16.0451 6.86474 16.0522 6.86229C16.1525 6.82761 16.4165 6.7363 16.6977 6.83003M16.6977 6.83003C17.2989 7.03038 17.9022 7.11595 18.5534 7.10208L18.5531 4.9001M15.5367 15.4738C15.5367 15.4738 15.5367 15.4718 15.5368 15.4685Z" fill="#007AFF"/>
</g>
<defs>
<clipPath id="clip0_11166_3454">
<rect width="24" height="24" fill="white"/>
</clipPath>
</defs>
</svg>
