<svg width="16" height="20" viewBox="0 0 16 20" fill="none" xmlns="http://www.w3.org/2000/svg">
<path fill-rule="evenodd" clip-rule="evenodd" d="M14.9087 2.56068L14.8977 2.56435L14.8871 2.56902C14.1292 2.9025 13.3502 2.66205 12.897 2.05777L12.8943 2.05431C12.6859 1.78635 12.5652 1.424 12.5652 1.09709C12.5652 1.01586 12.5513 0.936985 12.5176 0.86106C12.4843 0.786221 12.4373 0.726819 12.3878 0.677351C12.3383 0.627884 12.2789 0.580841 12.2041 0.547579C12.1282 0.513835 12.0493 0.5 11.9681 0.5H8.42771C8.26677 0.5 8.11323 0.554738 7.99929 0.668674C7.88536 0.78261 7.83062 0.936154 7.83062 1.09709V13.4737C7.76955 13.9702 7.38834 14.3142 6.9005 14.3142C6.37909 14.3142 5.93567 13.8708 5.93567 13.3494C5.93567 12.8573 6.2858 12.4737 6.78927 12.4178L6.80006 12.4166L6.81069 12.4144C7.07406 12.3618 7.32405 12.1405 7.32405 11.8222V7.79591C7.32405 7.63497 7.26931 7.48143 7.15537 7.36749C7.04144 7.25355 6.88789 7.19882 6.72695 7.19882L6.65754 7.19858L6.64668 7.19905C3.32006 7.34369 0.75 10.0219 0.75 13.3494C0.75 16.7502 3.49984 19.5 6.90059 19.5C10.0638 19.5 12.7281 17.0721 13.0106 13.9502C13.0309 13.9068 13.0394 13.8668 13.0435 13.8418C13.0514 13.7949 13.0513 13.7514 13.0513 13.7337L13.0513 7.33954C13.7468 7.47014 14.4766 7.50995 15.2374 7.38316L15.2453 7.38158C15.5444 7.32177 15.724 7.07301 15.724 6.78934V3.11014C15.724 2.89557 15.5867 2.72314 15.4388 2.62455C15.2559 2.50258 15.0676 2.50774 14.9087 2.56068ZM1.9092 13.3495C1.9092 10.8628 3.68971 8.81087 6.09487 8.45899V11.3676C5.29127 11.6882 4.7065 12.4603 4.7065 13.3495C4.7065 14.5289 5.68617 15.5084 6.86542 15.5084C7.90691 15.5084 8.797 14.7521 8.9777 13.7543C9.00245 13.7062 9.01214 13.6608 9.0167 13.6335C9.02451 13.5866 9.02446 13.543 9.02444 13.5253L9.02444 1.69409H11.4487C11.5415 2.09797 11.7131 2.44884 11.9363 2.76763L11.9401 2.77281C12.5271 3.56692 13.5215 4.01819 14.5291 3.89503L14.5295 6.2787C13.8502 6.3145 13.2256 6.23934 12.6024 6.03162C12.4169 5.96979 12.2401 6.02968 12.1476 6.06102L12.1319 6.06633L12.1001 6.07691L12.0723 6.09549C11.8795 6.22402 11.8221 6.41941 11.8221 6.58117V13.5583L11.7939 13.5865L11.7879 13.6806C11.6228 16.2567 9.44088 18.3059 6.86561 18.3059C4.12289 18.3059 1.9092 16.0924 1.9092 13.3495Z" fill="black"/>
</svg>
