<svg width="17" height="22" viewBox="0 0 17 22" fill="none" xmlns="http://www.w3.org/2000/svg">
<path d="M8.42857 13.8569C10.3257 13.8569 11.8571 12.3254 11.8571 10.4283V3.57115C11.8571 1.67401 10.3257 0.142578 8.42857 0.142578C6.53143 0.142578 5 1.67401 5 3.57115V10.4283C5 12.3254 6.53143 13.8569 8.42857 13.8569Z" fill="black"/>
<path d="M15.2859 10.4277C14.6547 10.4277 14.1549 10.9446 14.03 11.5633C13.5029 14.1742 11.1942 16.142 8.42871 16.142C5.66319 16.142 3.3545 14.1742 2.82741 11.5633C2.70251 10.9446 2.20275 10.4277 1.57157 10.4277V10.4277C0.940386 10.4277 0.420084 10.9421 0.509201 11.567C1.00915 15.0725 3.7832 17.83 7.28585 18.3363V20.7134C7.28585 21.3446 7.79753 21.8563 8.42871 21.8563V21.8563C9.05989 21.8563 9.57157 21.3446 9.57157 20.7134V18.3363C13.0742 17.83 15.8483 15.0725 16.3482 11.567C16.4373 10.9421 15.917 10.4277 15.2859 10.4277V10.4277Z" fill="black"/>
</svg>
