<svg width="18" height="17" viewBox="0 0 18 17" fill="none" xmlns="http://www.w3.org/2000/svg">
<path fill-rule="evenodd" clip-rule="evenodd" d="M3.86052 5.64315L2.06369 5.79584C1.79309 5.81667 1.53464 5.91695 1.32078 6.08413C1.10597 6.25206 0.945805 6.47995 0.860567 6.73894C0.775329 6.99793 0.768844 7.27639 0.841934 7.53907C0.915024 7.80176 1.0644 8.03685 1.27116 8.21459L1.27231 8.21558L4.34058 10.8399L3.42111 14.8031C3.35668 15.0674 3.37139 15.3448 3.46346 15.6008C3.5561 15.8584 3.72292 16.0828 3.94289 16.2457C4.16287 16.4087 4.42615 16.5029 4.69957 16.5164C4.97299 16.53 5.24438 16.4624 5.47939 16.322L8.93781 14.1516L12.3887 16.2332C12.6231 16.3764 12.8951 16.4463 13.1695 16.4338C13.4449 16.4213 13.7102 16.3265 13.9311 16.1616C14.0034 16.1076 14.0699 16.047 14.1298 15.9806L13.2739 15.119C13.262 15.1512 13.241 15.1793 13.2134 15.1999C13.1849 15.2212 13.1506 15.2334 13.1151 15.235C13.0795 15.2367 13.0443 15.2276 13.014 15.2089L9.24149 12.9333C9.04761 12.8164 8.80441 12.8185 8.61263 12.9389L4.86017 15.2939C4.82943 15.3113 4.79434 15.3197 4.75898 15.3179C4.72219 15.3161 4.68677 15.3034 4.65717 15.2815C4.62757 15.2596 4.60512 15.2294 4.59266 15.1947C4.58019 15.16 4.57833 15.1225 4.58718 15.0867L5.59186 10.7562C5.64244 10.5382 5.56746 10.3102 5.39737 10.1647L2.05308 7.30432C2.02657 7.2814 2.00741 7.25117 1.99802 7.2174C1.98858 7.18348 1.98942 7.14753 2.00042 7.11408C2.01143 7.08064 2.03211 7.05121 2.05985 7.02953C2.08758 7.00785 2.12113 6.99491 2.15624 6.9923L4.96376 6.75372L3.86052 5.64315ZM12.6367 9.93707L15.7571 7.22295C15.7719 7.20276 15.7823 7.17961 15.7876 7.15499C15.7943 7.12358 15.7924 7.09095 15.782 7.06055C15.7717 7.03015 15.7533 7.00312 15.7289 6.98231C15.7084 6.96489 15.6843 6.95237 15.6584 6.94564L11.3086 6.56814C11.0881 6.54901 10.8961 6.41011 10.8089 6.20673L9.09565 2.20904C9.08209 2.17671 9.0593 2.14909 9.03011 2.12968C9.00092 2.11026 8.96664 2.0999 8.93158 2.0999C8.89652 2.0999 8.86224 2.11026 8.83305 2.12968C8.80385 2.14909 8.78105 2.1767 8.76749 2.20903L8.7659 2.21282L7.62214 4.88921L6.70967 3.97069L7.66174 1.74287C7.76683 1.4934 7.94309 1.2804 8.16851 1.13048C8.3946 0.980119 8.66006 0.899902 8.93158 0.899902C9.2031 0.899902 9.46856 0.980119 9.69464 1.13048C9.91997 1.28034 10.0962 1.49322 10.2013 1.74255L11.7704 5.4037L15.7946 5.75295C15.8106 5.75434 15.8265 5.75637 15.8424 5.75903C16.0876 5.80032 16.3171 5.90719 16.5065 6.06833C16.6959 6.22946 16.8381 6.43884 16.9182 6.67427C16.9982 6.9097 17.0131 7.16241 16.9611 7.40559C16.9092 7.64877 16.7924 7.87337 16.6232 8.05557C16.6087 8.07117 16.5934 8.08599 16.5773 8.09996L13.5299 10.7506L13.5555 10.8619L12.6367 9.93707Z" fill="black"/>
<path d="M2 1.5L16.4508 16.0467" stroke="black" stroke-width="1.2" stroke-linecap="round" stroke-linejoin="round"/>
</svg>
