<svg width="19" height="19" viewBox="0 0 19 19" fill="none" xmlns="http://www.w3.org/2000/svg">
<path d="M15.7428 7.3508L11.3605 6.97048L9.6491 2.97713C9.58983 2.83577 9.49011 2.71506 9.36247 2.63017C9.23484 2.54529 9.08496 2.5 8.93168 2.5C8.77839 2.5 8.62852 2.54529 8.50088 2.63017C8.37324 2.71506 8.27353 2.83577 8.21426 2.97713L6.48553 7.02234L2.11187 7.39402C1.95836 7.40543 1.81168 7.46212 1.69041 7.55693C1.56913 7.65174 1.47871 7.78039 1.43059 7.92661C1.38247 8.07283 1.37881 8.23004 1.42007 8.37833C1.46134 8.52663 1.54567 8.65936 1.6624 8.75971L5.00748 11.6207L4.00482 15.9425C3.96748 16.0933 3.9756 16.2517 4.02815 16.3978C4.08071 16.544 4.17534 16.6713 4.30013 16.7637C4.42492 16.8561 4.57427 16.9096 4.72938 16.9173C4.88448 16.9249 5.03839 16.8866 5.1717 16.8069L8.93168 14.4472L12.7003 16.7205C12.8329 16.8019 12.9869 16.8416 13.1424 16.8345C13.2979 16.8275 13.4476 16.7739 13.5724 16.6809C13.6971 16.5878 13.791 16.4594 13.842 16.3124C13.8931 16.1654 13.8988 16.0064 13.8585 15.8561L12.8645 11.5343L16.1837 8.64734C16.2792 8.54448 16.3451 8.41768 16.3744 8.28039C16.4038 8.14309 16.3954 8.00043 16.3502 7.86751C16.305 7.73459 16.2247 7.61639 16.1178 7.52542C16.0108 7.43445 15.8813 7.37411 15.7428 7.3508Z" stroke="black" stroke-width="1.2" stroke-linejoin="round"/>
<path d="M2 2.5L16.4508 17.0467" stroke="#E2DBD5" stroke-width="3.2" stroke-linecap="round" stroke-linejoin="round"/>
<path d="M2 2.5L16.4508 17.0467" stroke="black" stroke-width="1.2" stroke-linecap="round" stroke-linejoin="round"/>
</svg>
