<svg width="21" height="20" viewBox="0 0 21 20" fill="none" xmlns="http://www.w3.org/2000/svg">
<path d="M16.512 7.51777L12.974 7.21073L11.5923 3.98677C11.5445 3.87264 11.464 3.77519 11.3609 3.70666C11.2579 3.63812 11.1369 3.60156 11.0131 3.60156C10.8894 3.60156 10.7684 3.63812 10.6653 3.70666C10.5623 3.77519 10.4818 3.87264 10.4339 3.98677L9.03828 7.2526L5.50728 7.55267C5.38334 7.56188 5.26493 7.60765 5.16702 7.68419C5.06911 7.76073 4.99611 7.8646 4.95726 7.98264C4.91841 8.10069 4.91545 8.22761 4.94877 8.34734C4.98208 8.46707 5.05017 8.57422 5.1444 8.65523L7.845 10.965L7.03552 14.4542C7.00537 14.5759 7.01193 14.7038 7.05436 14.8217C7.09679 14.9397 7.17319 15.0425 7.27393 15.1171C7.37468 15.1918 7.49526 15.2349 7.62048 15.2411C7.7457 15.2473 7.86995 15.2163 7.97758 15.152L11.0131 13.2469L14.0557 15.0822C14.1628 15.1479 14.2871 15.18 14.4126 15.1743C14.5381 15.1686 14.659 15.1254 14.7597 15.0502C14.8604 14.9751 14.9362 14.8715 14.9774 14.7528C15.0186 14.6341 15.0233 14.5058 14.9908 14.3844L14.1882 10.8953L16.8679 8.56452C16.945 8.48147 16.9983 8.3791 17.0219 8.26826C17.0456 8.15742 17.0388 8.04224 17.0024 7.93493C16.9659 7.82763 16.901 7.73219 16.8147 7.65875C16.7284 7.58531 16.6238 7.53659 16.512 7.51777Z" fill="white"/>
</svg>
