<svg width="61" height="61" viewBox="0 0 61 61" fill="none" xmlns="http://www.w3.org/2000/svg">
<path d="M45.5 15.8501C53.7843 24.1344 53.7843 37.5658 45.5 45.8501C37.2157 54.1344 23.7843 54.1344 15.5 45.8501C7.21573 37.5658 7.21573 24.1344 15.5 15.8501C23.7843 7.56583 37.2157 7.56583 45.5 15.8501Z" fill="#FFAC2F"/>
<path d="M42.4553 25.8389L34.8076 25.1751L31.8209 18.2062C31.7174 17.9595 31.5434 17.7488 31.3207 17.6007C31.0979 17.4526 30.8364 17.3735 30.5689 17.3735C30.3014 17.3735 30.0398 17.4526 29.8171 17.6007C29.5943 17.7488 29.4203 17.9595 29.3169 18.2062L26.3 25.2656L18.6674 25.9143C18.3995 25.9342 18.1435 26.0331 17.9319 26.1986C17.7202 26.364 17.5624 26.5885 17.4784 26.8437C17.3945 27.0989 17.3881 27.3732 17.4601 27.632C17.5321 27.8908 17.6793 28.1225 17.883 28.2976L23.7206 33.2905L21.9708 40.8326C21.9057 41.0957 21.9198 41.3722 22.0115 41.6272C22.1033 41.8822 22.2684 42.1044 22.4862 42.2657C22.704 42.427 22.9646 42.5202 23.2353 42.5337C23.506 42.5471 23.7745 42.4801 24.0072 42.3411L30.5689 38.2231L37.1456 42.1902C37.3771 42.3323 37.6459 42.4016 37.9172 42.3893C38.1885 42.3769 38.4499 42.2835 38.6675 42.1211C38.8852 41.9587 39.0491 41.7347 39.1381 41.4781C39.2272 41.2215 39.2372 40.9441 39.1669 40.6818L37.4322 33.1397L43.2246 28.1015C43.3913 27.922 43.5064 27.7007 43.5575 27.4611C43.6087 27.2215 43.5941 26.9725 43.5152 26.7406C43.4363 26.5086 43.2962 26.3023 43.1096 26.1436C42.923 25.9848 42.6969 25.8795 42.4553 25.8389Z" fill="white"/>
</svg>
