<svg width="133" height="152" viewBox="0 0 133 152" fill="none" xmlns="http://www.w3.org/2000/svg">
<path d="M106 109.036C106 132.123 85.8078 138 49.6219 138C13.4359 138 0 126.873 0 110.104C0 93.3358 19.0508 70.4172 49.6219 61.7788C83.3731 52.2418 106 82.9365 106 109.036Z" fill="#DCE6F8"/>
<path d="M25.4326 35.9966C17.4926 38.7085 12.388 47.2495 15.6035 56.664C17.6568 62.6757 24.7034 68.1642 36.7308 73.1547C37.6622 73.5331 38.7398 73.1651 39.2451 72.2959C45.6877 60.997 47.9044 52.3446 45.8511 46.3329C42.6356 36.9184 33.3726 33.2847 25.4326 35.9966ZM31.8896 54.9013C29.8101 55.6116 27.5275 54.4913 26.8172 52.4118C26.107 50.3322 27.2273 48.0497 29.3068 47.3394C31.3863 46.6292 33.6689 47.7495 34.3791 49.829C35.0894 51.9085 33.9691 54.1911 31.8896 54.9013Z" fill="#316CD6"/>
<path d="M51.2782 1.82615C46.7593 2.72248 43.3578 6.99799 44.4206 12.3562C45.0993 15.7777 48.5335 19.2789 54.7147 22.8727C55.194 23.1467 55.8073 23.025 56.1457 22.5889C60.4765 16.9101 62.3145 12.3632 61.6358 8.94165C60.573 3.58342 55.7972 0.929826 51.2782 1.82615ZM53.4124 12.5856C52.2288 12.8204 51.0684 12.0441 50.8336 10.8606C50.5989 9.67702 51.3752 8.5166 52.5587 8.28185C53.7423 8.04709 54.9027 8.82338 55.1374 10.0069C55.3722 11.1905 54.5959 12.3509 53.4124 12.5856Z" fill="#316CD6"/>
<path d="M31.2499 99.8667L38.3333 103.833L34.3666 96.75L38.3333 89.6667L31.2499 93.6334L24.1666 89.6667L28.1333 96.75L24.1666 103.833L31.2499 99.8667ZM65.2499 127.633L58.1666 123.667L62.1332 130.75L58.1666 137.833L65.2499 133.867L72.3332 137.833L68.3666 130.75L72.3332 123.667L65.2499 127.633ZM72.3332 89.6667L65.2499 93.6334L58.1666 89.6667L62.1332 96.75L58.1666 103.833L65.2499 99.8667L72.3332 103.833L68.3666 96.75L72.3332 89.6667ZM50.7149 104.655C49.6099 103.55 47.8249 103.55 46.7199 104.655L13.6549 137.72C12.5499 138.825 12.5499 140.61 13.6549 141.715L20.2849 148.345C21.3899 149.45 23.1749 149.45 24.2799 148.345L57.3166 115.308C58.4216 114.203 58.4216 112.418 57.3166 111.313L50.7149 104.655ZM47.7966 120.21L41.7899 114.203L48.7032 107.29L54.7099 113.297L47.7966 120.21Z" fill="#316CD6"/>
<path fill-rule="evenodd" clip-rule="evenodd" d="M120.508 83.8002L130.973 44.1235C131.795 41.006 129.918 37.7826 126.8 36.9603L87.1234 26.495C84.006 25.6728 80.7826 27.5506 79.9603 30.6681L69.495 70.3448C68.6727 73.4622 70.5506 76.6857 73.668 77.5079L113.345 87.9732C116.462 88.7955 119.686 86.9176 120.508 83.8002ZM99.0396 73.6212L106.882 68.0208C107.664 67.4693 108.734 67.7817 109.078 68.6606L113.743 79.5909C114.233 80.7205 113.222 81.9089 112.032 81.5949L78.0516 72.6321C76.8897 72.3256 76.5608 70.8142 77.516 70.0659L90.962 59.4263C91.7306 58.8106 92.8642 59.1096 93.2367 59.996L99.0396 73.6212ZM112.661 43.8551C115.904 43.8638 118.516 46.4891 118.507 49.7327C118.498 52.9763 115.873 55.5877 112.629 55.579C109.386 55.5703 106.774 52.945 106.783 49.7014C106.792 46.4578 109.417 43.8465 112.661 43.8551Z" fill="#316CD6"/>
</svg>
