<svg width="24" height="24" viewBox="0 0 24 24" fill="none" xmlns="http://www.w3.org/2000/svg">
<path fill-rule="evenodd" clip-rule="evenodd" d="M7.89468 10.879L12.0265 15.0108L12.8375 14.1998C11.9161 14.1085 11.2188 13.7931 10.7374 13.3116C9.35944 11.9337 9.35944 9.99963 10.7291 8.63L13.5181 5.84924C14.8961 4.47131 16.8218 4.47131 18.1915 5.84094C19.5777 7.22717 19.5694 9.15295 18.1998 10.5226L16.9298 11.7926C17.2203 12.4567 17.3282 13.2784 17.1456 14.0006L19.4781 11.6681C21.5616 9.6095 21.5616 6.65442 19.4698 4.57092C17.378 2.47083 14.4395 2.48743 12.3726 4.55432L9.45075 7.4845C8.45389 8.47737 7.93397 9.67328 7.89468 10.879ZM5.5654 11.3781L4.56159 12.382C2.47809 14.4406 2.47809 17.3956 4.56989 19.4791C6.66168 21.5792 9.60016 21.5626 11.6754 19.4957L12.6777 18.4905L11.459 17.2717L10.5215 18.2091C9.15192 19.5787 7.22614 19.5787 5.84821 18.2091C4.47028 16.8229 4.47028 14.8971 5.83991 13.5275L6.77732 12.5901L5.5654 11.3781ZM12.8732 15.8575L13.3106 15.42C14.6802 14.0504 14.6802 12.1163 13.3023 10.7384C12.8209 10.257 12.1236 9.94983 11.2105 9.85022L12.5884 8.47229C13.4766 8.63831 14.1241 9.00354 14.5806 9.46838C16.6724 11.5519 16.6641 14.4987 14.5972 16.5656L14.09 17.0743L12.8732 15.8575Z" fill="#FF4500"/>
<line x1="17.6776" y1="20.0762" x2="4.09186" y2="6.49038" stroke="#FF4500" stroke-width="2" stroke-linecap="round"/>
</svg>
