<svg width="66" height="50" viewBox="0 0 66 50" fill="none" xmlns="http://www.w3.org/2000/svg">
<path fill-rule="evenodd" clip-rule="evenodd" d="M35.2787 10.4723C35.5569 11.553 35.7049 12.686 35.7049 13.8535C35.7049 16.8983 34.6986 19.7081 33.0004 21.9685C33.0002 21.9682 32.9999 21.9679 32.9997 21.9675C30.5324 25.2514 26.6048 27.3754 22.1811 27.3754C14.7123 27.3754 8.65771 21.3208 8.65771 13.852C8.65771 6.38324 14.7123 0.328613 22.1811 0.328613C28.4309 0.328613 33.6906 4.56824 35.2409 10.3284C35.2538 10.3763 35.2664 10.4242 35.2787 10.4723ZM40.0175 13.8535C40.0175 17.7256 38.3612 21.581 35.7571 24.7115C38.0083 26.3855 40.7978 27.376 43.8187 27.376C51.2875 27.376 57.3421 21.3214 57.3421 13.8526C57.3421 6.38383 51.2875 0.329206 43.8187 0.329206C40.8239 0.329206 38.0564 1.30272 35.8155 2.95055C38.386 6.12984 40.0175 10.0104 40.0175 13.8535Z" fill="white"/>
<path fill-rule="evenodd" clip-rule="evenodd" d="M60.9483 49.0123H46.5886C47.4124 47.7617 47.9119 46.1823 47.9119 44.2527V43.0904C47.9119 40.4588 46.1951 38.19 44.4031 36.5114C43.1487 35.3364 41.4016 34.141 39.6333 33.1908C41.6997 32.9073 43.6553 32.7842 45.171 32.7842C51.9413 32.7842 65.4561 36.4084 65.4561 43.6029V44.2039C65.4561 46.8596 63.438 49.0123 60.9483 49.0123ZM39.1003 49.0123H40.0773C42.2194 48.5197 43.8186 46.5758 43.8186 44.2527V44.226C43.8187 44.2189 43.8187 44.2118 43.8187 44.2048V43.6037C43.8187 42.6705 43.5761 41.7974 43.1382 40.9844C41.6064 38.0983 37.6837 35.9595 33.3889 34.5734L33.3728 34.5787C32.7611 34.3888 32.2259 34.2618 31.7568 34.1882C28.3046 33.2536 24.7779 32.785 22.1813 32.785C14.9598 32.785 0.543823 36.4093 0.543823 43.6037V44.2048C0.543823 46.8604 2.69658 49.0131 5.35214 49.0131H39.0104C39.0404 49.0131 39.0704 49.0128 39.1003 49.0123Z" fill="white"/>
</svg>
