<svg width="21" height="15" viewBox="0 0 21 15" fill="none" xmlns="http://www.w3.org/2000/svg">
<path fill-rule="evenodd" clip-rule="evenodd" d="M8.52685 14.54H9.35685L9.34685 14.53C11.1769 14.53 12.9569 14.5 14.3469 14.47C15.5069 14.45 16.5269 14.36 17.4669 14.2C18.7369 13.99 19.7069 13.08 19.9569 11.89C20.1469 10.97 20.2569 10.02 20.2969 9.07C20.3269 8.06 20.3469 7.06 20.3269 6.08C20.3169 4.96 20.1968 3.87 19.9869 2.84C19.7069 1.46 18.8069 0.57 17.4569 0.34C16.8369 0.23 16.1469 0.17 15.3369 0.13C14.562 0.09631 13.7871 0.0717001 13.0092 0.0469931C12.6326 0.0350319 12.2552 0.023048 11.8769 0.01C11.8769 0.01 10.8569 0 10.5069 0H9.09685L9.01139 0.0022685C7.90939 0.0315186 6.79837 0.0610082 5.69685 0.1C4.87685 0.14 3.97685 0.23 2.88685 0.38C1.63685 0.55 0.656851 1.5 0.446851 2.74C0.442258 2.76881 0.437595 2.79801 0.432873 2.82757C0.324516 3.50601 0.18518 4.37841 0.146851 5.26C0.0968506 6.27 0.0868506 7.36 0.116851 8.77C0.136851 9.91 0.246851 10.92 0.456851 11.84C0.756851 13.12 1.60685 13.95 2.86685 14.18C3.43685 14.29 4.04685 14.36 4.73685 14.4H4.83685C5.05208 14.4108 5.26892 14.4222 5.48702 14.4336C6.48492 14.4861 7.50925 14.54 8.52685 14.54ZM9.11685 1.25H10.4869L11.8268 1.27C12.6829 1.29233 13.5334 1.33129 14.3867 1.37037C14.6796 1.38379 14.9729 1.39722 15.2669 1.41C16.0269 1.45 16.6669 1.51 17.2369 1.61C18.0769 1.75 18.5769 2.25 18.7569 3.13C18.9569 4.09 19.0569 5.1 19.0769 6.14C19.0969 7.1 19.0869 8.08 19.0469 9.06C19.0169 9.93 18.9069 10.81 18.7269 11.67C18.5869 12.35 18.0069 12.87 17.2569 13C16.3769 13.14 15.4169 13.23 14.3169 13.25C12.7269 13.29 10.6269 13.33 8.51685 13.31C7.31685 13.3 6.07685 13.23 4.88685 13.16H4.78685C4.14685 13.13 3.58685 13.06 3.07685 12.97C2.29685 12.83 1.85685 12.39 1.66685 11.58C1.47685 10.74 1.37685 9.82 1.35685 8.76C1.32685 7.37 1.33685 6.32 1.38685 5.33C1.42685 4.48 1.56685 3.62 1.67685 2.96C1.79685 2.27 2.35685 1.73 3.05685 1.63C4.11685 1.48 4.96685 1.4 5.75685 1.36C6.65285 1.312 7.54885 1.2896 8.44485 1.2672C8.66885 1.2616 8.89285 1.256 9.11685 1.25ZM8.25 4.21484V10.2327L8.75572 9.94244C10.338 9.03423 11.9051 8.13478 13.4922 7.22361L8.25 4.21484Z" fill="black"/>
</svg>
